<svg xmlns="http://www.w3.org/2000/svg" xmlns:xlink="http://www.w3.org/1999/xlink" viewBox="0 0 611.27 679.37"><defs><style>.cls-1{isolation:isolate;}.cls-2{fill:#4c2e45;}.cls-3{fill:#507dbc;}.cls-21,.cls-4,.cls-7{fill:#fbfef9;}.cls-5{mix-blend-mode:soft-light;}.cls-6{fill:url(#radial-gradient);}.cls-7{opacity:0.5;}.cls-8{fill:#bc5151;}.cls-9{fill:#444;}.cls-10{fill:#222;}.cls-11{fill:#aa3737;}.cls-12{fill:#912929;}.cls-13{fill:#888;}.cls-14{fill:#666;}.cls-15{fill:#ccb293;}.cls-16{fill:#f0dbbd;}.cls-17{fill:#b28b60;}.cls-18{fill:#ccab81;}.cls-19{fill:#f97412;}.cls-20{fill:#fcb21d;}.cls-21{opacity:0.75;}.cls-22{fill:#7c5e48;}.cls-23{fill:#4c321b;}.cls-24{fill:#3a2312;}</style><radialGradient id="radial-gradient" cx="659.77" cy="289.03" r="749.35" gradientTransform="translate(115.2 -76.66) rotate(16.87)" gradientUnits="userSpaceOnUse"><stop offset="0" stop-color="#649ceb"/><stop offset="0.49" stop-color="#395986"/><stop offset="1" stop-color="#0b111c"/></radialGradient></defs><title>title-card</title><g class="cls-1"><g id="Layer_1" data-name="Layer 1"><path class="cls-2" d="M543.42,301.58a249,249,0,1,0-9.37,98.15A247.36,247.36,0,0,0,543.42,301.58Zm-471.29-42q1.32-4.35,2.8-8.62-1.49,4.27-2.8,8.62t-2.46,8.73Q70.81,264,72.13,259.61Zm-4.58,17.46q-1.29,5.83-2.28,11.66Q66.26,282.9,67.55,277.07ZM78,242.55q2.16-5.56,4.58-11Q80.19,237,78,242.55Z" transform="translate(-0.13 0.2)"/><path class="cls-3" d="M294.53,565.33a241.47,241.47,0,1,1,142.4-46.6A241.42,241.42,0,0,1,294.53,565.33Z" transform="translate(-0.13 0.2)"/><path class="cls-4" d="M294.36,89.45a234,234,0,0,1,68.13,10.16C486.37,137.19,556.34,268.08,518.76,392c-30.7,101.2-123.68,166.43-224.23,166.43a234.37,234.37,0,0,1-68.13-10.16C102.52,510.65,32.55,379.76,70.13,255.87c30.7-101.2,123.68-166.42,224.23-166.42m0-13.89v0a249.42,249.42,0,1,0,72.15,10.76,246.87,246.87,0,0,0-72.15-10.76Z" transform="translate(-0.13 0.2)"/><g class="cls-5"><circle class="cls-6" cx="294.32" cy="324.12" r="234.41"/></g><path class="cls-7" d="M500.4,436a234.73,234.73,0,0,0,12-25.87,146.89,146.89,0,0,0-20.36-6.17c-36.55-8.63-63.76,3.78-107.42-3.07Z" transform="translate(-0.13 0.2)"/><path class="cls-7" d="M189.46,177.64s-6.59-22.93-38.42-36l-2.65-1.1A233.07,233.07,0,0,0,127.87,159Z" transform="translate(-0.13 0.2)"/><path class="cls-7" d="M103,255.2l61.13,18.54s-1.77-10.1-13.73-13.73S133.73,262.47,103,255.2Z" transform="translate(-0.13 0.2)"/><path class="cls-7" d="M254.69,124.89l114,34.57s-1.91-10.05-23.74-13.7c-19.12-3.2-16.12-25.51-38.1-28.38C287.46,114.85,297.51,131.72,254.69,124.89Z" transform="translate(-0.13 0.2)"/><path class="cls-7" d="M280.35,501.13l81.71,24.78s-1.59-13.61-22.86-20.07S306,506,280.35,501.13Z" transform="translate(-0.13 0.2)"/><path class="cls-8" d="M286.91,261.89l-1.41,5.69c7-5.32,13.93-11,21.35-15.89A164.43,164.43,0,0,0,286.91,261.89Z" transform="translate(-0.13 0.2)"/><path class="cls-9" d="M123,408.63a28.39,28.39,0,0,1-5.54,8.78s16.62,20.86,35,25.32C150.34,428,137.27,416.94,123,408.63Z" transform="translate(-0.13 0.2)"/><path class="cls-10" d="M172.45,428.28c9.52-3.82-47.71-31.11-47.71-31.11A24.88,24.88,0,0,1,123,408.63c14.3,8.31,27.37,19.34,29.44,34.1a29.68,29.68,0,0,0,3.44.64S162.93,432.1,172.45,428.28Z" transform="translate(-0.13 0.2)"/><path class="cls-11" d="M313.53,257.88a50,50,0,0,0,.57-8.54,44.78,44.78,0,0,0-7.25,2.35c-7.42,4.93-14.31,10.57-21.35,15.89l-10.05,40.55C289.59,292.78,308,278.18,313.53,257.88Z" transform="translate(-0.13 0.2)"/><path class="cls-12" d="M298.48,298.06c10.35-16.95,13.87-31.5,15-40.18-5.58,20.3-23.94,34.9-38.08,50.25l-1.3,5.25Z" transform="translate(-0.13 0.2)"/><path class="cls-8" d="M224.28,269.33c.36.76.75,1.5,1.14,2.24q8.61-7.8,17.68-15.12C237,260.22,230.69,264.49,224.28,269.33Z" transform="translate(-0.13 0.2)"/><path class="cls-11" d="M265.18,306.66a332.52,332.52,0,0,0,33-68c.18-2.32.33-4.69.43-7.14,0,0-24.81,6-55.52,25q-9.09,7.31-17.68,15.12C233.45,286.79,248.43,298.76,265.18,306.66Z" transform="translate(-0.13 0.2)"/><path class="cls-12" d="M275.17,307.44s19.36-20.57,23-68.82a332.52,332.52,0,0,1-33,68c2.59,1.22,5.23,2.35,7.88,3.37C274.42,308.35,275.17,307.44,275.17,307.44Z" transform="translate(-0.13 0.2)"/><path class="cls-13" d="M225.42,271.57c-.39-.74-.78-1.48-1.14-2.24a234.42,234.42,0,0,0-39.78,38.11c-49.7,60.46-60.33,84-61.75,87.47a2.37,2.37,0,0,0,0,1.37C152.69,351.83,185.25,308,225.42,271.57Z" transform="translate(-0.13 0.2)"/><path class="cls-14" d="M265.18,306.66c-16.75-7.9-31.73-19.87-39.76-35.09C185.25,308,152.69,351.83,122.7,396.28c.88,4.82,10.67,16.46,18.39,21.94,5.35,3.79,11.66,7.64,18.58,9.81C199.09,391.68,236.91,351.74,265.18,306.66Z" transform="translate(-0.13 0.2)"/><path class="cls-9" d="M210.79,388.57c25.31-32.86,54.33-68.75,62.27-78.54-2.65-1-5.29-2.15-7.88-3.37-28.27,45.08-66.09,85-105.51,121.37a36,36,0,0,0,13.2,1.7S181.15,427.05,210.79,388.57Z" transform="translate(-0.13 0.2)"/><path class="cls-15" d="M385.52,275.66a15.25,15.25,0,0,1,2.4-.67c-7.56-6.42-14.27-13.25-16.56-23.07a22.38,22.38,0,0,1-.89-4.25C371.08,258.33,377.59,267.59,385.52,275.66Z" transform="translate(-0.13 0.2)"/><path class="cls-16" d="M379.14,280.66a13.15,13.15,0,0,1,6.38-5c-7.93-8.07-14.44-17.33-15-28-1.67-15,12.88-26.57,14.51-41.79-5.66-2.25-8.77-6.89-11.61-11.9-.91,1.89-1.74,3.81-2.5,5.72-5.88,14.75-.79,34.46-11.07,46.83-8.94,10.76-21.21,19.62-34,25.92,17.68,2.65,31.15,15.06,38.42,30.4a22.84,22.84,0,0,1,5.93-6.46c2.75-2.12,4.93-3.14,6.28-6.49C377.67,286.73,377,283.64,379.14,280.66Z" transform="translate(-0.13 0.2)"/><path class="cls-15" d="M325.76,272.45c-3.39,1.67-6.81,3.16-10.23,4.45l45.83,35a21.52,21.52,0,0,1,2.82-9.06C356.91,287.51,343.44,275.1,325.76,272.45Z" transform="translate(-0.13 0.2)"/><path class="cls-17" d="M391.46,207.4c.15-.46.3-.92.43-1.35-1.18-.35-2.29.09-3.45-.13.91-.91,1.83-1.79,2.75-2.67-8,.39-9.78-9-15.09-14.47-1,1.71-1.89,3.44-2.73,5.2,2.84,5,5.95,9.65,11.61,11.9,0,.32-.09.63-.13.94C387.09,206.18,389.19,207,391.46,207.4Z" transform="translate(-0.13 0.2)"/><path class="cls-18" d="M438,165.31c-10.92-3.81-24.65-3.37-35.57.07-11.72,3.68-20.27,12.86-26.29,23.4,5.31,5.48,7.11,14.86,15.09,14.47,9.08-8.68,18.09-16.48,21.78-28.61a39.92,39.92,0,0,0,4.12,3.6c13.06,6,26.15,10.22,40.68,8.25.82-.15,1.64-.31,2.45-.5A37.08,37.08,0,0,0,438,165.31Z" transform="translate(-0.13 0.2)"/><path class="cls-17" d="M371.26,238.73a22.56,22.56,0,0,0,.1,13.19c2.29,9.82,9,16.65,16.56,23.07,6.86-1.34,15,1.33,21.87.85a14.87,14.87,0,0,0,1.53-.19C390.92,274.77,370.4,259.54,371.26,238.73Z" transform="translate(-0.13 0.2)"/><path class="cls-17" d="M391.19,208.2a9.49,9.49,0,0,1-1-.3,9.49,9.49,0,0,0,1,.3c.09-.27.19-.54.27-.8-2.27-.39-4.37-1.22-6.61-.58-.12.78-.27,1.56-.44,2.33a43.88,43.88,0,0,0,6.1,1l0,0C390.77,209.47,391,208.83,391.19,208.2Z" transform="translate(-0.13 0.2)"/><path class="cls-18" d="M393.43,245.07c-17.71-.22-7.86-21.11-2.92-34.89a43.88,43.88,0,0,1-6.1-1c0,.11,0,.23-.07.34C381.83,220,374,228.86,371.26,238.73c-.86,20.81,19.66,36,40.06,36.92,10.84-1.57,17.69-11.29,24.57-19.27A71.75,71.75,0,0,0,393.43,245.07Z" transform="translate(-0.13 0.2)"/><path class="cls-17" d="M417.09,178.24c11.31,8.69,26.48,11,40.68,8.25C443.24,188.46,430.15,184.27,417.09,178.24Z" transform="translate(-0.13 0.2)"/><path class="cls-15" d="M403.12,220.57c8.43,10.52,20.11,7.36,27.23-2-9.15-5.1-19.76-5.56-29.33-7A16.52,16.52,0,0,0,403.12,220.57Z" transform="translate(-0.13 0.2)"/><path class="cls-15" d="M434.82,211.63c.17,1.16-.94,2.15-1.44,3.33a11.69,11.69,0,0,1,10.22,2.77,6.55,6.55,0,0,1,1.91-1.55C442.34,213.67,439,211.72,434.82,211.63Z" transform="translate(-0.13 0.2)"/><path class="cls-16" d="M446.64,243.5a18.18,18.18,0,0,0,3.26-6.64c.19-.71.34-1.43.49-2.16-5.71.38-9-5.67-8.3-11.33a22.76,22.76,0,0,1,10,4c.11-.31.21-.62.32-.92,3.09-8.65,9.19-15.67,10-25.68A32.05,32.05,0,0,0,460.22,186c-16.66,3.9-35.12.9-47.25-11.35-4.06,13.36-14.58,21.47-24.53,31.28,1.16.22,2.27-.22,3.45.13q-.31,1-.69,2.16c3.25.9,6.85.32,10.15,1a6.13,6.13,0,0,0-.71,1.76c-3.45-.31-6.84-.44-10.13-.78-4.94,13.78-14.79,34.67,2.92,34.89a71.75,71.75,0,0,1,42.46,11.31c.14-.17.28-.34.43-.5C439.84,251.83,443.4,247.77,446.64,243.5Zm-43.52-22.93a16.52,16.52,0,0,1-2.1-9c9.57,1.46,20.18,1.92,29.33,7C423.23,227.93,411.55,231.09,403.12,220.57Zm40.48-2.84A11.69,11.69,0,0,0,433.38,215c.5-1.18,1.61-2.17,1.44-3.33,4.16.09,7.52,2,10.69,4.55A6.55,6.55,0,0,0,443.6,217.73Z" transform="translate(-0.13 0.2)"/><path class="cls-15" d="M401.35,209.2c-3.3-.67-6.9-.09-10.15-1-.22.64-.44,1.29-.69,2,3.29.34,6.68.47,10.13.78A6.13,6.13,0,0,1,401.35,209.2Z" transform="translate(-0.13 0.2)"/><path class="cls-15" d="M450.39,234.7c.34-1.66.64-3.42,1.17-5.45.17-.63.36-1.24.56-1.85a22.76,22.76,0,0,0-10-4C441.42,229,444.68,235.08,450.39,234.7Z" transform="translate(-0.13 0.2)"/><path class="cls-14" d="M446.13,215.16l-.39-1.12a12,12,0,0,0-10.63-3.54l-3,1.49.07.06C436.88,209.64,442,212.21,446.13,215.16Z" transform="translate(-0.13 0.2)"/><path class="cls-15" d="M437.34,239.94a26.69,26.69,0,0,0-.45-3.38A21.28,21.28,0,0,1,438,224.05C435.44,228.55,435.34,235,437.34,239.94Z" transform="translate(-0.13 0.2)"/><path class="cls-15" d="M421.71,244.36c5.77,5.24,10.72,4.07,13.24,2.09a6,6,0,0,0,1.11-1.14C431.67,247.91,426.13,247.25,421.71,244.36Z" transform="translate(-0.13 0.2)"/><path class="cls-9" d="M432.14,212.05l2.21,1.86c8.36.43,9.63,3.33,9.63,3.33l2.66-.64-.51-1.44C442,212.21,436.88,209.64,432.14,212.05Z" transform="translate(-0.13 0.2)"/><path class="cls-9" d="M383.84,204h-.72l-2,1.73,2.74,2.3,15.64,1.62,4.67-2.94-1.32-1.86a7.68,7.68,0,0,0-1.07,0C396.33,203.62,389.75,207.17,383.84,204Z" transform="translate(-0.13 0.2)"/><path class="cls-14" d="M383.84,204c5.91,3.13,12.49-.42,17.91.87a7.68,7.68,0,0,1,1.07,0l-.77-1.09Z" transform="translate(-0.13 0.2)"/><path class="cls-10" d="M434.77,207.58A26.7,26.7,0,0,0,404,201.72c-4,3.73-6.19,9.47-3.34,14.23,5.45,9.12,19.68,11,27.79,5C434.35,216.52,435.9,211.73,434.77,207.58Z" transform="translate(-0.13 0.2)"/><path class="cls-9" d="M434.77,207.58c-2.24-8.27-15.14-14-25.57-9.11a15.34,15.34,0,0,0-5.22,3.25A26.7,26.7,0,0,1,434.77,207.58Z" transform="translate(-0.13 0.2)"/><path class="cls-10" d="M447.32,212.89c-11.46,7.39-5.66,23.74,8,19,6.77-2.32,8.78-7.55,7.89-12.23C459.61,214.7,454.24,211.7,447.32,212.89Z" transform="translate(-0.13 0.2)"/><path class="cls-9" d="M447.82,212.56l-.5.33c6.92-1.19,12.29,1.81,15.91,6.81C462,213.22,455.24,207.79,447.82,212.56Z" transform="translate(-0.13 0.2)"/><path class="cls-9" d="M363.39,309.42a39.73,39.73,0,0,0-5.73-14.13c-8.29-12.82-20-20-33-22.18C342.08,278.81,356.8,292.28,363.39,309.42Z" transform="translate(-0.13 0.2)"/><path class="cls-15" d="M383.43,205.59c-.86-4.61-2.65-10.14-6.24-12.48a6.59,6.59,0,0,0-3.08-1.1C378.28,195.06,381.74,200.55,383.43,205.59Z" transform="translate(-0.13 0.2)"/><path class="cls-16" d="M377.29,217.29a7.22,7.22,0,0,0,2.24-2.13l4.41-6.19c-.12-1-.28-2.16-.51-3.38-1.69-5-5.15-10.53-9.32-13.58-3.71-.31-6.85,3.13-7.91,7.14a5.31,5.31,0,0,0-.13.75C367.48,206.14,369.67,215.39,377.29,217.29Z" transform="translate(-0.13 0.2)"/><path class="cls-15" d="M366.07,199.9c-.74,5.95,5.13,20.85,11.22,17.39C369.67,215.39,367.48,206.14,366.07,199.9Z" transform="translate(-0.13 0.2)"/><path class="cls-17" d="M409.78,256a47.74,47.74,0,0,0-9.75-.56c-1.8.07-3.46.22-4.66.37s-2,.29-2,.29.76,0,2-.05,2.86.05,4.63.17a82.19,82.19,0,0,1,9.48,1.31,48,48,0,0,1,9.18,2.51,19.3,19.3,0,0,1,2.28,1.05,12.42,12.42,0,0,1,1.82,1l1.66,1.07L422.91,262a13.83,13.83,0,0,0-1.71-1.26,18.3,18.3,0,0,0-2.2-1.33A34.51,34.51,0,0,0,409.78,256Z" transform="translate(-0.13 0.2)"/><path class="cls-19" d="M94.13,445.64a128.83,128.83,0,0,1,20.32-26.08c-4.31,3.36-12.78,10.83-21.8,23.61C93.14,444,93.64,444.82,94.13,445.64Z" transform="translate(-0.13 0.2)"/><path class="cls-19" d="M120.7,481.31l2.18,2.38c25.74-22.46,33-40.32,33-40.32l-.27-.33C146.4,458.07,134.18,470.53,120.7,481.31Z" transform="translate(-0.13 0.2)"/><path class="cls-20" d="M117.43,417.41s-1.1.69-3,2.15a128.83,128.83,0,0,0-20.32,26.08,235.51,235.51,0,0,0,26.57,35.67c13.48-10.78,25.7-23.24,34.88-38.27C137.66,421.58,117.43,417.41,117.43,417.41Z" transform="translate(-0.13 0.2)"/><path class="cls-21" d="M129.81,426.27s-14.33,3.65-28.22,30.89q5.68,8.23,12.06,16c23.41-20.11,29.08-36.41,29.08-36.41C141.53,428.36,129.81,426.27,129.81,426.27Z" transform="translate(-0.13 0.2)"/><path d="M324.64,273.11a62.06,62.06,0,0,0-27,1.75c-42.74,11.86-66.86,58.1-86.47,93.9-11.41,20.82-23.09,41.41-36.46,61.05-14.11,20.72-32,38.48-50.4,55.36a232.83,232.83,0,0,0,76.81,53.76c22.51-28.46,43.59-58.12,68-84.94,29.83-32.84,64.81-62.17,85.14-102.4,6.79-13.45,11.94-28,9.21-42.17C356.8,292.28,342.08,278.81,324.64,273.11Z" transform="translate(-0.13 0.2)"/><path class="cls-22" d="M199.6,406.9c19.21,20.92,37.61,41.14,60.91,56.79,1.19-1.39,2.37-2.79,3.58-4.17v0c-47.41-28.6-67.81-64.3-67.81-64.3h0c-1.07,1.84-2.16,3.68-3.25,5.52A36,36,0,0,1,199.6,406.9Z" transform="translate(-0.13 0.2)"/><path class="cls-23" d="M260.51,463.69c-23.3-15.65-41.7-35.87-60.91-56.79a36,36,0,0,0-6.59-6.17q-4.83,8.19-9.95,16.21a90.45,90.45,0,0,0,24.1,22.52c6.12,10.53,15.92,19.27,28.1,23.19a31.58,31.58,0,0,0,14.19,14.21Q254.9,470.2,260.51,463.69Z" transform="translate(-0.13 0.2)"/><path class="cls-24" d="M235.26,462.65c-12.18-3.92-22-12.66-28.1-23.19a90.45,90.45,0,0,1-24.1-22.52c-.9,1.42-1.78,2.86-2.7,4.28v0c25.48,34.24,67.15,56.6,67.94,57l1.16-1.41A31.58,31.58,0,0,1,235.26,462.65Z" transform="translate(-0.13 0.2)"/><path class="cls-9" d="M254.36,324c18.76-24.83,64.47-60.62,87.47-28.84-11-26.68-50-13.22-66,2.09-10,9.47-19.29,19.56-29.26,29-10.57,10-22.8,18.28-33,28.63-3.27,3.31-6.06,5.89-7.12,9C220.59,347.83,240,341,254.36,324Z" transform="translate(-0.13 0.2)"/><path d="M291.76,371c8.11-10.6,14.61-22.39,21.94-33.26-.25-.13-.51-.26-.76-.42.25.16.51.29.76.42.74-1.11,1.5-2.2,2.27-3.29-.77,1.09-1.53,2.18-2.27,3.29,4.36,2.24,8.89,0,14.16-1.7.46-.39.73-.64.73-.64l14.92-35a35.45,35.45,0,0,0-1.68-5.3c-23-31.78-68.71,4-87.47,28.84-14.34,17-33.77,23.86-48,39.88-.8,2.34-.63,5,1.07,8.45,5.19,10.58,13.46,20,21.82,28.15,5.79,5.66,16,16.79,25,16.43,4.25-.17,7.19-2.8,9.45-6.36C263.73,393.05,280.09,383.11,291.76,371Z" transform="translate(-0.13 0.2)"/><path class="cls-9" d="M263.72,410.52c3.36-5.27,5.21-12.6,7.61-17,2.88-5.25,7.13-8.83,11.51-12.24,5.05-3.93,10.27-7.64,13.75-13.41,5.77-9.57,9.79-18.83,18.57-26.23,5.69-.24,10.85-4.09,12.7-5.63-5.27,1.7-9.8,3.94-14.16,1.7-7.33,10.87-13.83,22.66-21.94,33.26C280.09,383.11,263.73,393.05,263.72,410.52Z" transform="translate(-0.13 0.2)"/><path d="M171.05,496.78c-8.88-3.92-16.16-11.21-25.41-11.24-6.22.82-9.5,7.46-12.46,14.56,6.43,7.23,15,12,23.61,15.91C158.57,513.84,164.38,505.54,171.05,496.78Z" transform="translate(-0.13 0.2)"/><path class="cls-9" d="M145.64,485.54c9.25,0,16.53,7.32,25.41,11.24l1-1.26c-9.75-4.14-18.78-8.5-26-17a169.15,169.15,0,0,0-14.91,19.15c.65.85,1.34,1.67,2,2.46C136.14,493,139.42,486.36,145.64,485.54Z" transform="translate(-0.13 0.2)"/><path class="cls-16" d="M228.49,442.75c8.78-8,20.23-19.72,26.72-26.47a45.59,45.59,0,0,0-8.27-11.5c-2.61-2.23-5.09-4.58-7.49-7-6.63-6.23-13.25-12.89-21.44-17a72.81,72.81,0,0,0-14.53,14.39c-9.68,13-35,53.35-45,66.52-3.57,4.7-7.86,10.66-12.39,16.78,7.18,8.53,16.21,12.89,26,17,1.25-1.46,2.59-3,4-4.66C189.86,474.92,215.53,454.56,228.49,442.75Z" transform="translate(-0.13 0.2)"/><path class="cls-16" d="M122.18,507c-8,6.83-18.52,13.21-23.49,19.23-.89,2.12-.76,4.14-.11,4.82.85,4.94,10.66,5.2,10.51,11.09.85,4.93,1.75,7.9,5.63,10,9,2.7,8.8,12.73,14.24,17.23,5.76-1.15,13.82-4,16.21-7.63.59-4.31.52-8.27-1.46-12.17a13.92,13.92,0,0,0-3.22,5.09,21.58,21.58,0,0,1,1.48-7.9,18,18,0,0,1,2.43-4.3,17.74,17.74,0,0,1,5-4.48,7.32,7.32,0,0,0-2.36,5c4.32.1,8-3.21,9.61-7.53-.38-5-.84-13.93-.3-17.78a7.82,7.82,0,0,1,.39-1.57c-9.57-4.39-19.07-9.71-25.65-18.37A88.14,88.14,0,0,1,122.18,507Z" transform="translate(-0.13 0.2)"/><path class="cls-15" d="M114.72,552.08c-3.88-2.07-4.78-5-5.63-10,.15-5.89-9.66-6.15-10.51-11.09-.65-.68-.78-2.7.11-4.82a10.82,10.82,0,0,0-2.8,5.77c-.61,7.68,3.29,4.22,5.29,7.35s-.27,5.76,2,8.15,5.16.14,7,3.14-1.38,5.94,1.36,8.84,5.57,1.74,7.89,2.17,3.11,8.76,8.05,8l1.45-.27C123.52,564.81,123.69,554.78,114.72,552.08Z" transform="translate(-0.13 0.2)"/><path class="cls-15" d="M145.81,560.15c.92-5.34-.28-14.24-.28-14.24.52-.08,1-.19,1.54-.31,5.67-1.3,10.14-4.52,9.79-8.36-.05-.53-.1-1.17-.16-1.88-1.65,4.32-5.29,7.63-9.61,7.53a7.32,7.32,0,0,1,2.36-5,17.74,17.74,0,0,0-5,4.48,18,18,0,0,0-2.43,4.3,21.58,21.58,0,0,0-1.48,7.9,13.92,13.92,0,0,1,3.22-5.09c2,3.9,2,7.86,1.46,12.17A4,4,0,0,0,145.81,560.15Z" transform="translate(-0.13 0.2)"/><path class="cls-15" d="M258.29,413.07l2-2.11s3.07-5.34-9.72-18.57-24-17.16-24-17.16-2,1-4.94,3c-1.08.72-2.29,1.58-3.59,2.55,8.19,4.08,14.81,10.74,21.44,17,2.41,2.44,4.89,4.8,7.51,7a44.94,44.94,0,0,1,8.25,11.47Z" transform="translate(-0.13 0.2)"/><path d="M206,365.54c13.64,4.75,21,14.82,30.17,25.17a82.11,82.11,0,0,0,14.37,13.2c4.21,2.94,9.1,4.35,11.06,9.41,0,0,2.59-3.69.15-11.18s-23.66-29.37-29.67-33.95S213.5,362.86,206,365.54Z" transform="translate(-0.13 0.2)"/><path class="cls-23" d="M362.42,330.42c.36-1.47.68-2.94.93-4.42a38.45,38.45,0,0,0-1.21-15.11c-7.51-20.82-29.35-35.34-51.18-37.2a64.54,64.54,0,0,0-20.12,3.46h-.09a90.78,90.78,0,0,0-28,17.44c8.61-4.4,16.8-8.9,25.93-11.3,15.5-5.51,33.88-7.61,49.28,3.15,8.69,6.08,14.22,12.81,17.65,19.46C360.26,313.23,362,321.87,362.42,330.42Z" transform="translate(-0.13 0.2)"/><path class="cls-24" d="M355.58,305.9c9.89,19.12,2.37,37.6,2.21,38a86.17,86.17,0,0,0,4.63-13.47C362,321.87,360.26,313.23,355.58,305.9Z" transform="translate(-0.13 0.2)"/><path class="cls-24" d="M255.57,301.47a128.63,128.63,0,0,1,33.08-18.18c-9.13,2.4-17.32,6.9-25.93,11.3Q259,297.86,255.57,301.47Z" transform="translate(-0.13 0.2)"/><path class="cls-22" d="M362.14,310.89c-2.08-7.63-6.85-17-17.38-25.82-11-9.22-23.56-11.53-33.8-11.38C332.79,275.55,354.63,290.07,362.14,310.89Z" transform="translate(-0.13 0.2)"/><path class="cls-2" d="M150,611.19l2.45-3.64c2.46,1.16,4.41,1.35,5.83.59a14.79,14.79,0,0,0,4.65-4.9L177.5,581.6l1.19-1.08-3-1.39,2.83-4.14,3.08,1.44.43-1.64c2.46-3.62,4.4-5.56,5.79-5.82a9.21,9.21,0,0,1,5.08.43q2.53.95,5.16,2.18l-2.47,3.83c-2.68-1.26-4.5-1.81-5.43-1.66a3,3,0,0,0-1.87,1.28c-.54.72-1.09,1.5-1.66,2.32l-1.22.86,5,2.36-2.82,4.14-5.15-2.41-.22,1.33-14.86,22c-2.25,3.26-4,5.27-5.2,6a8.67,8.67,0,0,1-4.56,1.56A20,20,0,0,1,150,611.19Z" transform="translate(-0.13 0.2)"/><path class="cls-2" d="M195.57,612.75a10.12,10.12,0,0,1-4.69,2.37,10.37,10.37,0,0,1-5.83-.75c-2.2-.84-3.61-2-4.25-3.34s-.43-3.45.61-6.16a70.08,70.08,0,0,1,3.64-7.94,51.35,51.35,0,0,1,4.8-7.33,15.16,15.16,0,0,1,6.07-4.85,9.11,9.11,0,0,1,7,0q3.67,1.41,4.66,3.48a6.22,6.22,0,0,1-.13,5c-.76,2-1.45,3.65-2.08,5.07s-1.47,3.13-2.51,5.16a29.11,29.11,0,0,1-3.36,5.23A34.27,34.27,0,0,1,195.57,612.75ZM188,610.26q1.91.74,4.25-1.25a20,20,0,0,0,4.32-5.39A78.86,78.86,0,0,0,201.85,593a3.89,3.89,0,0,0,.31-2.53,2.58,2.58,0,0,0-1.7-1.44q-2.07-.79-5.16,2.58a45.51,45.51,0,0,0-8.72,14.6,4,4,0,0,0-.31,2.56A2.56,2.56,0,0,0,188,610.26Z" transform="translate(-0.13 0.2)"/><path class="cls-2" d="M203.07,619.75a1.11,1.11,0,0,1,0-.7q.12-.42,13.52-29.31a19.58,19.58,0,0,1,3.83,1.35c.49.31.63.84.41,1.59l-.14.48c2.14-1.19,4.05-1.55,5.71-1.07a6.33,6.33,0,0,1,2.38,1.58c-.85,1.77-1.5,2.78-2,3s-1.48.15-3.07-.3c-.47-.13-2.38.52-5.71,2l-.33,1.19-10.24,22.09C204.74,620.87,203.27,620.24,203.07,619.75Z" transform="translate(-0.13 0.2)"/><path class="cls-2" d="M259.31,625.38a6.39,6.39,0,0,0-.57-3.3,18.15,18.15,0,0,0-1.64-3.17c-.56-.84-1.48-2.16-2.76-4V615c-1.64-2.32-2.88-4.12-3.7-5.42a23,23,0,0,1-2.32-5.2,13.94,13.94,0,0,1-.56-6.63,27.07,27.07,0,0,1,1.54-5.89,13.17,13.17,0,0,1,3-4.46q3.93-3.88,14.12-2.31l8.91,3.3a9,9,0,0,1-2.25,4,3.56,3.56,0,0,1-2.9.68l-5.37-1.42c-3.15-.43-5.43-.05-6.81,1.15a9.07,9.07,0,0,0-2.67,5.64q-.56,3.59,4.11,9.56,1.93,2.55,3.87,5.15a22.65,22.65,0,0,1,3.08,5.69,11.82,11.82,0,0,1,.7,5.94q-3.33,21.43-21.1,18.75L234.1,640l1.94-6.54,12.24,2.82Q257.48,637.19,259.31,625.38Z" transform="translate(-0.13 0.2)"/><path class="cls-2" d="M278.18,646.74l-1.82,0L287,587.48l11.64-.68q8.16.15,11.12,2.61t2.87,7.1c-.06,3.1-.19,5.62-.4,7.54a27.47,27.47,0,0,1-1.48,6.23,13.71,13.71,0,0,1-3.15,5.3,15.24,15.24,0,0,1-5.63,3.23,25.1,25.1,0,0,1-8.76,1.19l-4.78-.1,0,.91-3.8,21.36c-.32,2.19-.8,3.52-1.44,4S280.87,646.79,278.18,646.74Zm15.9-33.65q9.57.18,10.68-10.43c.13-1.31.22-2.8.25-4.44a3.69,3.69,0,0,0-1.46-3.45c-1-.65-2.9-1-5.71-1.06l-4.78-.1,0,1-3.07,18-.17.4Z" transform="translate(-0.13 0.2)"/><path class="cls-2" d="M331.64,592l.1.9-.63,16.17-.12.43,14.49-1.67-.36,6.93-14.49,1.66.11,1-.9,20.34,0,.17a.69.69,0,0,1,0,.42l16.29-1.88-.27,7-23.91,2.75,2.56-60,23.09-2.65-.31,6.67Z" transform="translate(-0.13 0.2)"/><path class="cls-2" d="M363.37,585.77l.21.88,1.34,16.13-.06.43L379,599.8l.48,6.92-14.18,3.42.23,1,1.58,20.3,0,.16a.64.64,0,0,1,0,.42l15.95-3.84.58,7-23.4,5.63-4.75-59.9,22.6-5.44.5,6.66Z" transform="translate(-0.13 0.2)"/><path class="cls-2" d="M408.27,565.82q3.81,2.28,6,8t3.79,11.13a103.29,103.29,0,0,1,2.7,12.17,62.57,62.57,0,0,1,.94,12.28,23.76,23.76,0,0,1-2.52,10.13,12.67,12.67,0,0,1-6.86,6.34q-.39.15-13.84,4.68l-12.68-58.75,12.5-5.83Q404.47,563.55,408.27,565.82Zm1.71,53.5c2.1-.82,3.42-3,4-6.54a38.57,38.57,0,0,0-.34-12.11A114.82,114.82,0,0,0,408,578.19a12.14,12.14,0,0,0-3.24-5.15,4.23,4.23,0,0,0-4.49-.42l-6.46,2.51.36.92L404,621.21v.44Z" transform="translate(-0.13 0.2)"/><path class="cls-2" d="M463.26,600a23.38,23.38,0,0,1-3,1.71c-1.2.57-2.21.2-3-1.1q-.25-.42-22.78-52.58l19.72-12.46,2.55,6.19-13.31,8.41.48.76,6.45,14.84.08.44,12.34-7.79,2.74,6.36-12.4,7.83.53.84,11.05,25.67Z" transform="translate(-0.13 0.2)"/><path class="cls-2" d="M511.16,564.49c-2.24,1.86-3.71,2.8-4.39,2.84s-1.83-.83-3.42-2.58l-10-10.67-7.75,6.4,6.68,19.61-1,.78c-2.37,2-3.86,2.84-4.47,2.62a3.26,3.26,0,0,1-1.08-.92q-.57-.71-4.13-11.34l-15.47-46.56,5.33-4.4,40.92,43.17ZM488.8,549.08l-1.29-.54-11.29-13.66,6.59,17.55,0,1.58Z" transform="translate(-0.13 0.2)"/><path class="cls-2" d="M540.4,534.13c-1.85,2-3.12,3.13-3.79,3.29s-2-.36-4-1.6l-28.39-17.43,20.6,25.84c1.41,1.73,2.08,3,2,3.73s-1,2.12-2.76,4.07l-1.17,1.27L485.4,506.35l1-1c1.81-2,3.07-3.08,3.76-3.27s2,.36,4,1.63L523,521.85l-24.13-30.29.88-1a24.41,24.41,0,0,1,2.52-2.51,1.77,1.77,0,0,1,2.68,0c.12.11.26.24.43.38l35.92,44.63Z" transform="translate(-0.13 0.2)"/><path class="cls-2" d="M568.37,495.79q-2.46,3.6-3.43,3.94t-4-1.53l-12.56-7.48L542.71,499l11.87,17-.7,1q-2.6,3.81-3.56,3.75a3.18,3.18,0,0,1-1.3-.58q-.75-.51-7.12-9.75L514.1,470l3.91-5.72,51.29,30.11Zm-25.76-8.6-1.39-.16-14.64-10,11.2,15,.46,1.52Z" transform="translate(-0.13 0.2)"/><path class="cls-2" d="M579.07,476.39l-1,1.83-42.79-31.39-.21-.29-4,7.69-5.36-4,11.42-22.12,5.33,4.05-4,7.77.81.41,38.48,28.24c1.8,1.3,2.76,2.34,2.88,3.11S580.28,474.05,579.07,476.39Z" transform="translate(-0.13 0.2)"/><path class="cls-2" d="M592.36,447.71a24.4,24.4,0,0,1-1.47,3.14c-.66,1.15-1.7,1.44-3.12.85q-.45-.18-49-29.72l.53-1.3a16.06,16.06,0,0,1,2-4,1.56,1.56,0,0,1,1.9-.29q1.18.49,49.64,30Z" transform="translate(-0.13 0.2)"/><path class="cls-2" d="M603,419.33q-2,6.29-6.21,7.74t-10.16-.44q-6-1.92-11.2-4.08A92.48,92.48,0,0,1,564.25,417a58.12,58.12,0,0,1-9.94-7.05,23.13,23.13,0,0,1-6-8.47,13.8,13.8,0,0,1-.4-9.78l4.5-7.82c1.92,1,3.14,2.05,3.64,3.08a4.3,4.3,0,0,1,.18,3.35q-.08.22-2.06,4.53-1,3.21,2.44,7.1a37,37,0,0,0,9.24,7.21,112.42,112.42,0,0,0,21,9.7q7.6,2.44,9.25-2.66a41.84,41.84,0,0,0,1.17-5,38.22,38.22,0,0,1,.94-4.28l6.16,3.19c-.11.54-.29,1.93-.51,4.16A26.48,26.48,0,0,1,603,419.33Z" transform="translate(-0.13 0.2)"/><path class="cls-2" d="M593.14,372.23a6.31,6.31,0,0,0-3.32.48,18.89,18.89,0,0,0-3.21,1.56q-1.27.81-4,2.66h.08c-2.35,1.59-4.19,2.78-5.5,3.57a23.2,23.2,0,0,1-5.26,2.19,13.84,13.84,0,0,1-6.64.39,26.61,26.61,0,0,1-5.85-1.69,13.27,13.27,0,0,1-4.39-3.09q-3.78-4-2-14.18l3.52-8.83a8.93,8.93,0,0,1,4,2.36,3.59,3.59,0,0,1,.61,2.91l-1.56,5.33q-.76,4.73,1,6.84a9,9,0,0,0,5.56,2.81q3.57.65,9.66-3.86c1.74-1.25,3.48-2.5,5.25-3.75a22.66,22.66,0,0,1,5.76-2.93,11.72,11.72,0,0,1,6-.55Q614.12,368.31,611,386l-3.89,11.78-6.49-2.1,3.12-12.16Q604.9,374.35,593.14,372.23Z" transform="translate(-0.13 0.2)"/><path class="cls-4" d="M148,607.45l2.45-3.64c2.46,1.16,4.41,1.35,5.83.59a14.79,14.79,0,0,0,4.65-4.9l14.56-21.64,1.19-1.08-3-1.39,2.83-4.14,3.08,1.44.43-1.64c2.46-3.62,4.4-5.56,5.79-5.82a9.26,9.26,0,0,1,5.09.43q2.52.95,5.15,2.18l-2.47,3.82c-2.68-1.25-4.5-1.81-5.43-1.65a3,3,0,0,0-1.87,1.28c-.54.72-1.09,1.5-1.66,2.32l-1.22.86,5,2.36L185.65,581l-5.15-2.41-.22,1.33-14.86,22c-2.25,3.26-4,5.27-5.2,6a8.64,8.64,0,0,1-4.55,1.56A20.17,20.17,0,0,1,148,607.45Z" transform="translate(-0.13 0.2)"/><path class="cls-4" d="M193.57,609a10.12,10.12,0,0,1-4.69,2.37,10.55,10.55,0,0,1-5.83-.75c-2.2-.84-3.61-2-4.25-3.35s-.43-3.44.61-6.15a70.08,70.08,0,0,1,3.64-7.94,51.35,51.35,0,0,1,4.8-7.33,15.28,15.28,0,0,1,6.07-4.86,9.15,9.15,0,0,1,7,0q3.67,1.41,4.66,3.48a6.22,6.22,0,0,1-.13,5q-1.14,2.94-2.08,5.07t-2.51,5.16a29.47,29.47,0,0,1-3.36,5.23A34.27,34.27,0,0,1,193.57,609ZM186,606.52c1.27.48,2.69.07,4.25-1.25a19.93,19.93,0,0,0,4.32-5.4,78.85,78.85,0,0,0,5.33-10.6,3.89,3.89,0,0,0,.31-2.53,2.58,2.58,0,0,0-1.7-1.44c-1.38-.54-3.1.33-5.16,2.58a45.31,45.31,0,0,0-8.71,14.6,3.92,3.92,0,0,0-.32,2.56A2.56,2.56,0,0,0,186,606.52Z" transform="translate(-0.13 0.2)"/><path class="cls-4" d="M201.07,616a1.11,1.11,0,0,1,0-.7q.12-.42,13.52-29.31a19.58,19.58,0,0,1,3.83,1.35c.49.31.63.84.41,1.59l-.14.48q3.23-1.78,5.71-1.07a6.33,6.33,0,0,1,2.38,1.58c-.85,1.77-1.5,2.78-2,3s-1.48.15-3.07-.3c-.47-.13-2.38.52-5.7,2l-.34,1.19-10.24,22.08Q201.38,616.74,201.07,616Z" transform="translate(-0.13 0.2)"/><path class="cls-4" d="M257.31,621.64a6.39,6.39,0,0,0-.57-3.3,18.51,18.51,0,0,0-1.63-3.17q-.86-1.26-2.77-4v.09c-1.64-2.32-2.88-4.12-3.7-5.42a23.15,23.15,0,0,1-2.32-5.2,14,14,0,0,1-.56-6.63,27.07,27.07,0,0,1,1.54-5.89,13.07,13.07,0,0,1,3-4.46q3.93-3.88,14.12-2.31l8.91,3.3a9,9,0,0,1-2.25,4,3.6,3.6,0,0,1-2.9.68L262.79,588c-3.15-.44-5.42-.05-6.81,1.15a9.07,9.07,0,0,0-2.67,5.64q-.56,3.59,4.11,9.56c1.29,1.7,2.58,3.42,3.87,5.14a22.89,22.89,0,0,1,3.08,5.7,11.71,11.71,0,0,1,.7,5.94q-3.33,21.43-21.1,18.75l-11.87-3.6L234,629.7l12.24,2.82Q255.48,633.45,257.31,621.64Z" transform="translate(-0.13 0.2)"/><path class="cls-4" d="M276.18,643l-1.82,0L285,583.74l11.64-.68q8.16.15,11.12,2.6t2.87,7.11q-.09,4.65-.4,7.53a27.43,27.43,0,0,1-1.48,6.24,13.66,13.66,0,0,1-3.15,5.3,15.24,15.24,0,0,1-5.63,3.23,24.88,24.88,0,0,1-8.76,1.18l-4.78-.09,0,.91-3.8,21.36c-.32,2.19-.8,3.51-1.44,4S278.87,643.05,276.18,643Zm15.9-33.65q9.57.18,10.68-10.43c.13-1.32.22-2.8.25-4.45a3.71,3.71,0,0,0-1.46-3.45q-1.5-1-5.71-1.06l-4.78-.09,0,1-3.07,18-.17.41Z" transform="translate(-0.13 0.2)"/><path class="cls-4" d="M329.64,588.26l.1.9-.63,16.17-.12.43,14.5-1.67-.37,6.93-14.49,1.66.11,1-.9,20.34,0,.17a.67.67,0,0,1,0,.41l16.29-1.87-.27,7-23.91,2.75,2.56-60,23.09-2.65-.31,6.67Z" transform="translate(-0.13 0.2)"/><path class="cls-4" d="M361.37,582l.21.88L362.92,599l-.06.44L377,596.06l.48,6.92-14.18,3.41.23,1,1.58,20.3,0,.16c.05.22.06.36,0,.42l15.95-3.84.58,7L358.33,637l-4.75-59.9,22.6-5.44.5,6.66Z" transform="translate(-0.13 0.2)"/><path class="cls-4" d="M406.27,562.08q3.81,2.28,6,8t3.79,11.12a103.94,103.94,0,0,1,2.7,12.18,62.57,62.57,0,0,1,.94,12.28,23.8,23.8,0,0,1-2.52,10.13,12.67,12.67,0,0,1-6.86,6.34q-.39.15-13.84,4.68L383.82,568l12.5-5.83Q402.47,559.79,406.27,562.08Zm1.71,53.5q3.15-1.23,4-6.54a38.33,38.33,0,0,0-.34-12.12A114.89,114.89,0,0,0,406,574.45a12.14,12.14,0,0,0-3.24-5.15,4.23,4.23,0,0,0-4.49-.42l-6.46,2.51.36.92L402,617.47v.44Z" transform="translate(-0.13 0.2)"/><path class="cls-4" d="M461.27,596.23a24,24,0,0,1-3,1.71c-1.2.57-2.21.2-3-1.1q-.25-.42-22.78-52.59l19.72-12.45L454.7,538l-13.31,8.41.48.76L448.32,562l.08.44,12.34-7.79,2.74,6.35-12.4,7.84.53.84,11.05,25.67Z" transform="translate(-0.13 0.2)"/><path class="cls-4" d="M509.16,560.75c-2.24,1.86-3.71,2.8-4.39,2.83s-1.83-.82-3.42-2.57l-10-10.68-7.75,6.41,6.68,19.6-1,.79q-3.55,2.94-4.47,2.62a3.38,3.38,0,0,1-1.08-.92q-.57-.71-4.13-11.34l-15.47-46.56,5.33-4.41,40.92,43.18Zm-22.35-15.42-1.3-.53-11.29-13.66,6.59,17.55,0,1.58Z" transform="translate(-0.13 0.2)"/><path class="cls-4" d="M538.4,530.39c-1.85,2-3.12,3.12-3.79,3.29s-2-.36-4-1.6l-28.39-17.43,20.61,25.84c1.4,1.73,2.07,3,2,3.73s-1,2.12-2.76,4.06l-1.17,1.28L483.4,502.61l1-1c1.81-2,3.07-3.08,3.76-3.27s2,.36,4,1.63L521,518.11l-24.13-30.29.88-1a24.41,24.41,0,0,1,2.52-2.51,1.77,1.77,0,0,1,2.68,0l.43.39,35.92,44.63Z" transform="translate(-0.13 0.2)"/><path class="cls-4" d="M566.37,492q-2.46,3.61-3.43,3.94t-4-1.52L546.38,487l-5.67,8.31,11.87,17-.7,1q-2.6,3.81-3.56,3.75a3.18,3.18,0,0,1-1.3-.58q-.75-.51-7.12-9.75l-27.79-40.42,3.9-5.72,51.29,30.11Zm-25.76-8.6-1.39-.15-14.64-10,11.2,15,.46,1.51Z" transform="translate(-0.13 0.2)"/><path class="cls-4" d="M577.07,472.65l-1,1.83-42.79-31.39-.21-.29-4,7.68-5.36-4,11.43-22.12,5.32,4.05-4,7.77.81.41,38.48,28.24c1.8,1.3,2.76,2.34,2.88,3.11S578.28,470.31,577.07,472.65Z" transform="translate(-0.13 0.2)"/><path class="cls-4" d="M590.36,444a24.4,24.4,0,0,1-1.47,3.14c-.66,1.15-1.7,1.44-3.12.85q-.45-.18-49-29.72l.53-1.3a16.06,16.06,0,0,1,2-4,1.56,1.56,0,0,1,1.9-.29q1.18.49,49.64,30Z" transform="translate(-0.13 0.2)"/><path class="cls-4" d="M601,415.59c-1.34,4.18-3.41,6.77-6.21,7.74s-6.18.83-10.16-.45-7.71-2.63-11.2-4.07a94,94,0,0,1-11.15-5.57,58.67,58.67,0,0,1-9.94-7.05,23.13,23.13,0,0,1-6-8.47,13.8,13.8,0,0,1-.4-9.78l4.5-7.82A8.14,8.14,0,0,1,554,383.2a4.3,4.3,0,0,1,.18,3.35q-.08.22-2.06,4.53-1,3.21,2.44,7.1a37,37,0,0,0,9.24,7.21,112.42,112.42,0,0,0,21,9.7q7.6,2.45,9.25-2.66a41.84,41.84,0,0,0,1.17-5,38.22,38.22,0,0,1,.94-4.28l6.16,3.19c-.11.54-.29,1.92-.51,4.16A26.64,26.64,0,0,1,601,415.59Z" transform="translate(-0.13 0.2)"/><path class="cls-4" d="M591.14,368.48a6.43,6.43,0,0,0-3.32.49,18.17,18.17,0,0,0-3.21,1.56q-1.27.81-4,2.66h.08c-2.35,1.59-4.19,2.78-5.5,3.57a23.2,23.2,0,0,1-5.26,2.19,13.84,13.84,0,0,1-6.64.39,26.61,26.61,0,0,1-5.85-1.69,13.27,13.27,0,0,1-4.39-3.09q-3.78-4-2-14.18l3.52-8.83a8.93,8.93,0,0,1,4,2.36,3.58,3.58,0,0,1,.61,2.91l-1.55,5.33q-.78,4.72,1,6.84a9,9,0,0,0,5.56,2.81q3.57.65,9.66-3.87l5.25-3.74a22.66,22.66,0,0,1,5.76-2.93,11.84,11.84,0,0,1,6-.56q21.33,3.87,18.21,21.56l-3.89,11.78-6.49-2.1,3.12-12.16Q602.9,370.61,591.14,368.48Z" transform="translate(-0.13 0.2)"/><path class="cls-2" d="M54.62,221A22.2,22.2,0,0,1,53,224c-.7,1.13-1.75,1.37-3.14.73q-.45-.21-47.75-31.69l9.75-21.19,5.51,3.81L10.81,190l.82.38,13.49,8.93.31.32,6.1-13.25,5.76,3.83-6.13,13.33.9.41,23.25,15.52Z" transform="translate(-0.13 0.2)"/><path class="cls-2" d="M79.9,175.38q-2.31,3.7-3.27,4.08c-.64.25-2-.21-4.06-1.36l-12.85-7-5.32,8.54L67,196.15l-.66,1c-1.62,2.61-2.76,3.91-3.4,3.9a3.1,3.1,0,0,1-1.32-.53q-.76-.48-7.51-9.45L24.62,151.88,28.28,146l52.5,28Zm-26.09-7.53-1.4-.1-15-9.37,11.81,14.55.53,1.49Z" transform="translate(-0.13 0.2)"/><path class="cls-2" d="M80.13,143.78A6.34,6.34,0,0,0,77,142.64a17.35,17.35,0,0,0-3.56-.16c-1,.07-2.62.21-4.82.42l.06,0q-4.23.42-6.54.52a23.38,23.38,0,0,1-5.66-.56,14.17,14.17,0,0,1-6-2.82,26.69,26.69,0,0,1-4.34-4.27,13.13,13.13,0,0,1-2.39-4.8q-1.41-5.36,5-13.4l7.29-6.1a9,9,0,0,1,2.38,4,3.58,3.58,0,0,1-.86,2.85l-3.89,4q-2.93,3.78-2.39,6.48a9,9,0,0,0,3.56,5.11q2.84,2.26,10.34,1.19l6.39-.8a22.67,22.67,0,0,1,6.47.16,11.72,11.72,0,0,1,5.51,2.34q16.93,13.54,5.78,27.63l-9,8.51L75.56,168l8.53-9.22Q89.46,151.25,80.13,143.78Z" transform="translate(-0.13 0.2)"/><path class="cls-2" d="M108.18,142.13l-1.46,1.46L75.55,100.64l-.12-.35-6.13,6.12L65.4,101,83,83.4l3.84,5.49-6.19,6.17.64.64,28,38.62c1.32,1.79,1.92,3.08,1.8,3.85S110.05,140.27,108.18,142.13Z" transform="translate(-0.13 0.2)"/><path class="cls-2" d="M102.6,76.75l.57.71,8,14.05.13.42,11.41-9.09,3.36,6.07L114.68,98l.62.77,10,17.74.11.13c.13.17.2.3.19.37l12.83-10.22,3.47,6.09-18.82,15L93.47,75.6l18.18-14.48,3.27,5.82Z" transform="translate(-0.13 0.2)"/><path class="cls-2" d="M172.14,94q-4,2.43-5.11,2.46t-3.8-2.38L145.82,78.33,144,79.44l.47.78,8.25,20c.86,2,1.13,3.44.83,4.16s-1.58,1.77-3.83,3.14l-1.63,1L125.41,52.81l8.14-6q6.28-3.8,9.8-3.22c2.35.38,4.35,1.94,6,4.66q10.4,17.22,2.7,26L173.76,93ZM143.72,71.51q7.83-4.73-.3-18.21a3.23,3.23,0,0,0-2.55-1.83c-1,0-2.43.5-4.31,1.64L133.39,55l1.47,1.8L141,71.5l-.12,1.71Z" transform="translate(-0.13 0.2)"/><path class="cls-2" d="M200.16,81.52a24,24,0,0,1-3.31,1c-1.29.31-2.2-.26-2.74-1.7q-.18-.47-11.5-56.15l21.86-8.14,1.22,6.58-14.76,5.5.32.85,3.26,15.85v.44l13.68-5.09,1.38,6.78-13.75,5.12.35.93,5.54,27.4Z" transform="translate(-0.13 0.2)"/><path class="cls-2" d="M250.27,51.51a29.82,29.82,0,0,1-4,12.62,13.87,13.87,0,0,1-9,6.54Q231.4,72,227.85,69t-5.28-10.55a100.66,100.66,0,0,1-2.27-15.37,84.17,84.17,0,0,1,.24-15.1,29.09,29.09,0,0,1,4-12.49A14,14,0,0,1,233.62,9q5.87-1.33,9.38,1.46t5.23,10.34a102.55,102.55,0,0,1,2.29,15.42A85.14,85.14,0,0,1,250.27,51.51ZM236.85,63.65Q240.63,62.8,242,55a66.89,66.89,0,0,0,.85-16.33,96.23,96.23,0,0,0-2-14.93q-2-8.85-6.83-7.74-3.87.87-5.23,8.58A67.27,67.27,0,0,0,228,40.86a94.55,94.55,0,0,0,2,15Q232,64.76,236.85,63.65Z" transform="translate(-0.13 0.2)"/><path class="cls-2" d="M287.65,63.21c-2.74.22-4.41.16-5-.18s-1.21-1.64-1.83-3.91L272,27l-2.63,32.94c-.16,2.22-.52,3.59-1.08,4.1s-2.17.87-4.8,1.08l-1.72.13,4.73-59.9,1.4-.11c2.68-.21,4.34-.14,5,.19s1.23,1.64,1.8,3.91l8.7,33.05,3.1-38.6,1.31-.1a25.85,25.85,0,0,1,3.55-.12,1.78,1.78,0,0,1,2,1.83c0,.17,0,.36,0,.58L289.05,63.1Z" transform="translate(-0.13 0.2)"/><path class="cls-2" d="M306,63.5,304,63.41l10.59-52,.18-.32-8.65-.39,1.37-6.54L332.3,5.28l-1.44,6.53-8.73-.39,0,.91L312.56,59.1c-.42,2.18-1,3.49-1.62,3.92S308.65,63.62,306,63.5Z" transform="translate(-0.13 0.2)"/><path class="cls-2" d="M349.27,48.75a6.37,6.37,0,0,0-.56-3.3,18,18,0,0,0-1.62-3.18c-.57-.84-1.48-2.16-2.75-4v.08q-2.46-3.48-3.69-5.43a23.67,23.67,0,0,1-2.3-5.2,14,14,0,0,1-.53-6.64,26.93,26.93,0,0,1,1.56-5.88,13,13,0,0,1,3-4.45q4-3.88,14.13-2.26l8.9,3.33a8.94,8.94,0,0,1-2.26,4,3.59,3.59,0,0,1-2.91.67l-5.36-1.44c-3.15-.44-5.43-.07-6.81,1.13a9,9,0,0,0-2.69,5.62q-.57,3.59,4.07,9.58c1.28,1.71,2.57,3.43,3.85,5.16a23,23,0,0,1,3.06,5.7,11.86,11.86,0,0,1,.68,5.95q-3.4,21.42-21.16,18.67L324,63.27l2-6.54L338.2,59.6Q347.4,60.56,349.27,48.75Z" transform="translate(-0.13 0.2)"/><path class="cls-4" d="M52.62,217.2A23.39,23.39,0,0,1,51,220.28c-.71,1.13-1.75,1.37-3.15.73q-.45-.21-47.75-31.69l9.75-21.19,5.51,3.81-6.58,14.3.82.38,13.49,8.93.31.32,6.1-13.25,5.76,3.83-6.13,13.33.9.41,23.25,15.52Z" transform="translate(-0.13 0.2)"/><path class="cls-4" d="M77.9,171.64q-2.31,3.71-3.27,4.08t-4-1.37L57.72,167.4l-5.32,8.54L65,192.41l-.66,1.05c-1.62,2.61-2.76,3.91-3.4,3.9a3.24,3.24,0,0,1-1.32-.53q-.76-.48-7.51-9.45L22.62,148.14l3.66-5.88,52.5,28Zm-26.09-7.53-1.4-.1-15-9.38,11.81,14.56.53,1.49Z" transform="translate(-0.13 0.2)"/><path class="cls-4" d="M78.13,140A6.44,6.44,0,0,0,75,138.89a18,18,0,0,0-3.56-.15c-1,.07-2.62.21-4.82.42l.06.05q-4.23.42-6.54.52a23,23,0,0,1-5.66-.57,13.94,13.94,0,0,1-6-2.81,26.39,26.39,0,0,1-4.35-4.27,13.21,13.21,0,0,1-2.39-4.8q-1.41-5.36,5-13.41L54,107.78a9,9,0,0,1,2.38,4,3.58,3.58,0,0,1-.86,2.85l-3.89,4q-2.93,3.79-2.39,6.49a9,9,0,0,0,3.56,5.11q2.84,2.27,10.34,1.19l6.39-.8a22.31,22.31,0,0,1,6.47.16A11.72,11.72,0,0,1,81.51,133q16.93,13.54,5.78,27.62l-9,8.52-4.72-4.93L82.09,155Q87.46,147.51,78.13,140Z" transform="translate(-0.13 0.2)"/><path class="cls-4" d="M106.18,138.39l-1.46,1.45L73.55,96.9l-.12-.35-6.13,6.11-3.9-5.42L81,79.66l3.84,5.49-6.19,6.17.64.64,28,38.62q2,2.68,1.8,3.85T106.18,138.39Z" transform="translate(-0.13 0.2)"/><path class="cls-4" d="M100.6,73l.57.71,8,14,.12.43,11.41-9.09,3.36,6.07-11.41,9.09.62.77,10,17.74.11.13c.13.17.2.29.19.37l12.83-10.22,3.47,6.09-18.82,15L91.47,71.85l18.18-14.48,3.27,5.83Z" transform="translate(-0.13 0.2)"/><path class="cls-4" d="M170.14,90.28c-2.68,1.62-4.39,2.44-5.11,2.46s-2-.77-3.8-2.38L143.82,74.59,142,75.7l.47.77,8.25,20c.86,2.06,1.13,3.45.83,4.17s-1.58,1.77-3.83,3.14l-1.63,1L123.41,49.07l8.14-6q6.28-3.8,9.8-3.22c2.35.38,4.35,1.94,6,4.66q10.4,17.22,2.7,26L171.76,89.3ZM141.72,67.77q7.83-4.72-.3-18.21a3.23,3.23,0,0,0-2.55-1.83c-1,0-2.43.5-4.31,1.64l-3.17,1.92,1.47,1.8L139,67.76l-.12,1.71Z" transform="translate(-0.13 0.2)"/><path class="cls-4" d="M198.16,77.77a23.54,23.54,0,0,1-3.3,1.06c-1.3.3-2.21-.26-2.75-1.71q-.18-.45-11.5-56.14l21.86-8.14,1.22,6.58-14.76,5.5.32.85,3.27,15.85,0,.44L206.18,37l1.38,6.78-13.75,5.12.35.93,5.54,27.4Z" transform="translate(-0.13 0.2)"/><path class="cls-4" d="M248.28,47.77a30,30,0,0,1-4,12.62,13.91,13.91,0,0,1-9,6.54q-5.83,1.32-9.38-1.63t-5.28-10.55a100.66,100.66,0,0,1-2.27-15.37,84.17,84.17,0,0,1,.24-15.1,29.18,29.18,0,0,1,4-12.5,14,14,0,0,1,9.08-6.5q5.87-1.34,9.38,1.45t5.23,10.35a102.55,102.55,0,0,1,2.29,15.42A86.09,86.09,0,0,1,248.28,47.77ZM234.85,59.91q3.78-.85,5.18-8.62A67,67,0,0,0,240.88,35a96.26,96.26,0,0,0-2-14.92q-2-8.85-6.83-7.75-3.85.88-5.23,8.59A67.27,67.27,0,0,0,226,37.12a94.72,94.72,0,0,0,2,15Q230,61,234.85,59.91Z" transform="translate(-0.13 0.2)"/><path class="cls-4" d="M285.65,59.47q-4.11.33-5-.18c-.61-.34-1.22-1.64-1.84-3.91L270,23.25l-2.63,32.94c-.16,2.22-.52,3.58-1.08,4.1s-2.17.87-4.8,1.08l-1.72.13L264.5,1.6l1.4-.11c2.68-.21,4.34-.14,5,.19s1.23,1.64,1.8,3.91l8.7,33.05L284.47,0l1.31-.1a25.85,25.85,0,0,1,3.55-.12,1.78,1.78,0,0,1,2,1.83c0,.17,0,.36,0,.58l-4.29,57.13Z" transform="translate(-0.13 0.2)"/><path class="cls-4" d="M304,59.76,302,59.67l10.58-52,.18-.32L304.07,7,305.44.42l24.87,1.12-1.45,6.53-8.73-.39,0,.91-9.53,46.76q-.63,3.28-1.62,3.93C308.29,59.72,306.65,59.88,304,59.76Z" transform="translate(-0.13 0.2)"/><path class="cls-4" d="M347.27,45a6.27,6.27,0,0,0-.56-3.3,18,18,0,0,0-1.62-3.18c-.57-.84-1.48-2.17-2.75-4v.08q-2.46-3.48-3.69-5.43a23.67,23.67,0,0,1-2.3-5.2,14,14,0,0,1-.53-6.64,27.18,27.18,0,0,1,1.56-5.89,13,13,0,0,1,3-4.44q4-3.88,14.13-2.26l8.9,3.33a8.94,8.94,0,0,1-2.26,4,3.59,3.59,0,0,1-2.91.67l-5.36-1.44c-3.15-.44-5.43-.07-6.81,1.13a9,9,0,0,0-2.69,5.62q-.57,3.58,4.07,9.58c1.28,1.71,2.57,3.43,3.85,5.16a23,23,0,0,1,3.06,5.7,11.74,11.74,0,0,1,.68,6q-3.4,21.42-21.16,18.67L322,59.53,324,53l12.23,2.87Q345.4,56.82,347.27,45Z" transform="translate(-0.13 0.2)"/><path class="cls-2" d="M253.69,677c-1.86-.21-3-.84-3.37-1.87s-.42-2.9-.11-5.6q1.41-12.19,8.1-11.78,8.9.56,9.07.58a2.35,2.35,0,0,1,2.34,3,28.48,28.48,0,0,1-1.35,6.66,7.54,7.54,0,0,1-2,3.24,5.32,5.32,0,0,1-4,.88c-1.66-.19-2.58-.59-2.78-1.19l-2,.82a6.74,6.74,0,0,1-2.1-.48c-.38-.2-.53-.6-.46-1.2,0-.19.41-1.78,1.17-4.79a3.18,3.18,0,0,1,2.17-2.28,8.52,8.52,0,0,1,3.75-.33l2.18.25-1.75,6.36,0,0c1.19.14,1.91,0,2.17-.55.1-.23.46-1.45,1.09-3.67s1-3.42,1-3.59-.06-.26-.24-.28-3.1-.18-8.77-.47q-3.32-.17-4.58,10.74-.3,2.64,1.23,2.82l6.15.72a4.73,4.73,0,0,1,1.7.39c.25.16.34.52.27,1.07L262.2,678Zm6.46-8.85-.11-.27.74-2.6c-1-.11-1.55-.09-1.64.07l-1.05,3.43Z" transform="translate(-0.13 0.2)"/><path class="cls-2" d="M291.21,654.25,286,679.05l-.58,0c-1.44-.08-2.22-.24-2.35-.49a1,1,0,0,1-.08-.47q0-.25,3.57-17.07l-3.88,5.62-1.36,1.77-1.83-.1-1.16-2-1.51-6-3.4,16a2.9,2.9,0,0,1-.72,1.71,4.5,4.5,0,0,1-2.16.19l-.75-.05,5.52-25.65.61,0a4.63,4.63,0,0,1,2.1.41,3.25,3.25,0,0,1,.77,1.73l2.25,9,7.39-10.48.46,0a9.13,9.13,0,0,1,1.92.24A.64.64,0,0,1,291.21,654.25Z" transform="translate(-0.13 0.2)"/><path class="cls-2" d="M303.55,679.16a5.15,5.15,0,0,1-2.26-.27c-.24-.18-.39-.79-.44-1.82l-.39-6.37h-4.39l-3.21,8.45h-.54c-1.34,0-2.09-.12-2.23-.36a1.38,1.38,0,0,1-.11-.61,43.12,43.12,0,0,1,1.77-5l7.75-20h3l1.74,25.92Zm-3.23-11.41-.29-.54v-7.74l-2.67,7.74-.43.54Z" transform="translate(-0.13 0.2)"/><path class="cls-2" d="M311.47,652.94c1.36-.06,2.12,0,2.28.26a.63.63,0,0,1,.12.32q0,.18-2.45,21.83l-.26.52,3.95-.17a7.19,7.19,0,0,1,1.93.08c.28.1.44.43.46,1l-.07,1.87-9.71.41,3-26.07Z" transform="translate(-0.13 0.2)"/><path class="cls-2" d="M327.36,678.14c-1.92.16-3.3-.25-4.17-1.21a7,7,0,0,1-1.51-4.18c-.14-1.82-.22-3.55-.22-5.2a41.74,41.74,0,0,1,.39-5.43,25.5,25.5,0,0,1,1.19-5.19,10.09,10.09,0,0,1,2.42-3.84,6,6,0,0,1,3.88-1.8l3.9.52a3.56,3.56,0,0,1-.63,2,1.85,1.85,0,0,1-1.32.63c-.07,0-.8,0-2.17-.08-1,.08-1.81.81-2.46,2.17a16.13,16.13,0,0,0-1.38,4.93,49.52,49.52,0,0,0-.41,10.11q.28,3.48,2.62,3.3a19.38,19.38,0,0,0,2.21-.36,16.33,16.33,0,0,1,1.89-.34l-.27,3c-.23.05-.82.21-1.76.49A11.41,11.41,0,0,1,327.36,678.14Z" transform="translate(-0.13 0.2)"/><path class="cls-2" d="M346.33,675.79a8.72,8.72,0,0,1-1.93.11c-.33,0-.52-.26-.57-.67q0-.21.3-11.47l0-.29-5.32.67,0,.43-.33,10.12a3,3,0,0,1-.44,1.82,4.4,4.4,0,0,1-2.05.57l-.75.09.88-26.23.57-.08a9.14,9.14,0,0,1,1.4-.1,1,1,0,0,1,1.06,1q0,.36-.18,9.21l-.05.19,5.32-.67-.05-.43.32-10.13.57-.07c1.31-.17,2.06-.08,2.25.26a1.88,1.88,0,0,1,.19.63q0,.39-.67,25Z" transform="translate(-0.13 0.2)"/><path class="cls-2" d="M364.06,672.86a5.35,5.35,0,0,1-2.28.13c-.27-.14-.51-.71-.74-1.72l-1.48-6.21-4.33.75-1.7,8.89-.54.09c-1.32.23-2.07.24-2.26,0a1.6,1.6,0,0,1-.21-.59,43.88,43.88,0,0,1,.89-5.2l4.2-21,3-.52,6.18,25.24Zm-5.15-10.69-.37-.48-1.33-7.62-1.3,8.08-.33.6Z" transform="translate(-0.13 0.2)"/><path class="cls-2" d="M371,671.4l-.88.19-1.31-23.14,0-.16-3.7.8-.15-2.91,10.63-2.3.11,2.92-3.73.81.09.38,1.18,20.82a2.83,2.83,0,0,1-.25,1.83A4.43,4.43,0,0,1,371,671.4Z" transform="translate(-0.13 0.2)"/><path class="cls-2" d="M392,666.31a5,5,0,0,1-2.26.3c-.28-.11-.57-.66-.88-1.65l-2-6.07-4.25,1.1-1,9-.52.13c-1.3.34-2.05.41-2.26.21a1.4,1.4,0,0,1-.25-.56,42.48,42.48,0,0,1,.46-5.25l2.49-21.29,2.93-.75,8.2,24.65Zm-6-10.24-.41-.45-1.94-7.49-.64,8.16-.28.63Z" transform="translate(-0.13 0.2)"/><path class="cls-2" d="M424.17,644.81l-16.72,6.07-.57-2.74,16.71-6.07Z" transform="translate(-0.13 0.2)"/><path class="cls-2" d="M438.67,621.23c.63-.29,1.08-.49,1.32-.57a.93.93,0,0,1,1.32.62l5.45,19c1.33,4.47,1.88,7.46,1.66,9a6.56,6.56,0,0,1-2,4.18,9.91,9.91,0,0,1-2.44,1.52l-.77-2.7q2.38-1.1,1.84-5.21a54.78,54.78,0,0,0-1.21-5.35q-2.13-7.78-5.73-20.2Z" transform="translate(-0.13 0.2)"/><path class="cls-2" d="M448.23,619.7l.18.35,2.17,6.73,0,.19,5.69-2.86.89,2.89-5.69,2.87.2.38,2.69,8.48,0,.06a.26.26,0,0,1,0,.18l6.4-3.22.95,2.91-9.39,4.73-8-25,9.06-4.56.88,2.78Z" transform="translate(-0.13 0.2)"/><path class="cls-2" d="M476,630.84a7.32,7.32,0,0,1-2.27,1c-.31,0-.85-.37-1.62-1.1l-7.38-7.13-.81.46.19.34,3.32,8.87a2.92,2.92,0,0,1,.3,1.84,4.5,4.5,0,0,1-1.72,1.31l-.72.4-9.1-24.65,3.64-2.49c1.86-1.05,3.31-1.47,4.33-1.27a3.83,3.83,0,0,1,2.54,2.12q4.29,7.66.81,11.39l9.21,8.5ZM463.89,620.6q3.48-2,.13-8a1.45,1.45,0,0,0-1.09-.84,3.86,3.86,0,0,0-1.9.66l-1.42.79.62.81,2.48,6.49-.08.74Z" transform="translate(-0.13 0.2)"/><path class="cls-2" d="M473.66,605.25l.21.33,2.76,6.51,0,.19,5.42-3.35,1.15,2.81-5.42,3.35.22.37,3.43,8.21,0,.06c.05.08.07.14.06.17l6.1-3.77,1.19,2.82-8.94,5.53-10.15-24.2,8.63-5.35,1.12,2.7Z" transform="translate(-0.13 0.2)"/><path class="cls-2" d="M494.46,588.81l11.06,22.82L505,612c-1.18.82-1.9,1.18-2.16,1.06a1,1,0,0,1-.35-.32q-.15-.21-7.65-15.68l.39,6.82v2.23l-1.51,1-2.13-.85-4.84-3.78,7.1,14.7a2.92,2.92,0,0,1,.47,1.79q-.17.49-1.59,1.47l-.62.43L480.8,597.21l.5-.35a4.64,4.64,0,0,1,1.91-1,3.3,3.3,0,0,1,1.67.9l7.31,5.76-.59-12.82.39-.26a8.91,8.91,0,0,1,1.65-1A.65.65,0,0,1,494.46,588.81Z" transform="translate(-0.13 0.2)"/><path class="cls-2" d="M514.82,604.55l-1,.77a5.1,5.1,0,0,1-.74.48.78.78,0,0,1-.52.12,1.13,1.13,0,0,1-.84-.51q-.36-.46-5.54-10l-10.26-9,.91-.7a3.66,3.66,0,0,1,1.71-.93c.33,0,.84.33,1.54,1l5.3,4.88-1.84-10.08.54-.41a10.87,10.87,0,0,1,1.27-.89q.42-.22.57,0t2.87,14.37Z" transform="translate(-0.13 0.2)"/><path class="cls-2" d="M526.28,591,520,583.65l3.74,9.77a10.54,10.54,0,0,1,.86,2.79c0,.35-.35.79-1,1.34a2.2,2.2,0,0,1-2.64.07,4.66,4.66,0,0,1-1.22-1L505,579.33l.71-.61c.8-.68,1.33-1,1.56-1s.67.35,1.3,1l11.68,13.45-3.95-10.53-.68-2.31,2-1.72,2.23,1.17,6.57,7.73-7.66-18.95,1-.88a6.25,6.25,0,0,1,.63-.49,1.54,1.54,0,0,1,.62-.29c.17,0,.28,0,.32.06l.23.37,8.61,21.51a10.27,10.27,0,0,1,.89,2.76c0,.35-.36.81-1,1.37a2.17,2.17,0,0,1-2.63.06A4.29,4.29,0,0,1,526.28,591Z" transform="translate(-0.13 0.2)"/><path class="cls-2" d="M545.08,578.29a5.15,5.15,0,0,1-1.84,1.35c-.3,0-.82-.31-1.56-1L537,574.25l-3.2,3,3.46,8.35-.39.37c-1,.92-1.61,1.35-1.88,1.27a1.46,1.46,0,0,1-.49-.37,42.06,42.06,0,0,1-2.12-4.83l-8.06-19.85,2.21-2.08,19,17.67Zm-10.18-6.1-.58-.19-5.3-5.64,3.36,7.46,0,.69Z" transform="translate(-0.13 0.2)"/><path class="cls-2" d="M540.61,549.85l-2.3,2c-.64.66-.73,1.73-.28,3.22a17.08,17.08,0,0,0,2.34,4.69,50.44,50.44,0,0,0,6.33,7.85q2.56,2.48,4.17.82l1.42-1.88-.34-.33L547.3,560a5.46,5.46,0,0,1-1.14-1.9c0-.28.34-.8,1.05-1.54l.83-.85,8.07,10.72-3.29,4.33q-2,2.07-3.93,1.83a6.8,6.8,0,0,1-3.83-2.08q-1.9-1.85-3.51-3.67a47,47,0,0,1-3.3-4.3,28.18,28.18,0,0,1-2.65-4.69,10.78,10.78,0,0,1-.9-4.46,5.41,5.41,0,0,1,1.53-3.75q.22-.24,4.08-3.07a3.66,3.66,0,0,1,.86,1.93A1.84,1.84,0,0,1,540.61,549.85Z" transform="translate(-0.13 0.2)"/><path class="cls-2" d="M567,554.81a5.46,5.46,0,0,1-1.63,1.47c-.29.07-.88-.15-1.77-.67l-12.53-7.39,9.2,11.12c.63.75.93,1.28.91,1.62a4.29,4.29,0,0,1-1.17,1.79l-.5.57-16.75-20.2.4-.46a5.32,5.32,0,0,1,1.62-1.46c.3-.08.88.14,1.75.68l12.79,7.7-10.78-13,.38-.43A12.62,12.62,0,0,1,550,535a.79.79,0,0,1,1.18,0l.19.16,16,19.21Z" transform="translate(-0.13 0.2)"/><path class="cls-2" d="M557.1,530.58l.31.25,4.77,5.22.09.17,4-5,2,2.27-4,5,.34.28,6,6.59,0,0c.08.06.12.11.12.14l4.49-5.58,2.06,2.25-6.58,8.2L553.1,531l6.36-7.91,1.95,2.17Z" transform="translate(-0.13 0.2)"/><path class="cls-2" d="M587,529.19a6.81,6.81,0,0,1-1.65,1.85,3.24,3.24,0,0,1-1.93-.32l-9.67-3.43-.56.76.32.23,6.7,6.7c.69.68,1,1.2,1,1.54a4.51,4.51,0,0,1-1,1.91l-.49.67-18.51-18.66,2.28-3.78q1.89-2.58,3.41-2.94a3.86,3.86,0,0,1,3.2.87q7.08,5.19,5.46,10l11.9,3.91Zm-15.25-4.29q2.37-3.23-3.18-7.29a1.38,1.38,0,0,0-1.33-.31,3.79,3.79,0,0,0-1.46,1.38l-1,1.31.9.48,4.95,4.88.23.71Z" transform="translate(-0.13 0.2)"/><path class="cls-2" d="M589.46,521.54a2.42,2.42,0,0,1,.58,3.14,1.79,1.79,0,0,1-1.23.84,1.91,1.91,0,0,1-1.41-.33,2.2,2.2,0,0,1-.86-1.44,2.09,2.09,0,0,1,.29-1.7,1.79,1.79,0,0,1,2.63-.51Z" transform="translate(-0.13 0.2)"/><path class="cls-2" d="M582.77,489.58,602,506.16l-.31.49c-.76,1.22-1.28,1.83-1.56,1.82a1,1,0,0,1-.46-.16q-.21-.12-13.22-11.36l3.05,6.11.89,2-1,1.56-2.29,0-6-1.55,12.34,10.69c.74.63,1.12,1.11,1.15,1.46a4.48,4.48,0,0,1-.88,2l-.4.64-19.8-17.22.32-.52a4.75,4.75,0,0,1,1.37-1.65,3.44,3.44,0,0,1,1.9.16l9,2.4-5.62-11.54.25-.39a9.36,9.36,0,0,1,1.13-1.57A.66.66,0,0,1,582.77,489.58Z" transform="translate(-0.13 0.2)"/><path class="cls-2" d="M587.93,484.11l.35.19,5.58,4.34.12.15,3.09-5.57,2.37,1.89-3.09,5.57.37.21,7,5.49.06,0c.09.05.13.09.14.12l3.48-6.26,2.42,1.88-5.11,9.18-20.66-16.18,4.93-8.87,2.29,1.81Z" transform="translate(-0.13 0.2)"/><path class="cls-4" d="M252.25,675.18c-1.86-.21-3-.84-3.37-1.87s-.42-2.9-.11-5.6q1.41-12.19,8.1-11.78,8.89.55,9.07.58a2.35,2.35,0,0,1,2.34,3,28.48,28.48,0,0,1-1.35,6.66,7.54,7.54,0,0,1-2,3.24,5.32,5.32,0,0,1-4,.88c-1.66-.19-2.58-.59-2.78-1.19l-2,.82a6.74,6.74,0,0,1-2.1-.48c-.38-.2-.53-.6-.46-1.2,0-.19.41-1.78,1.17-4.79a3.18,3.18,0,0,1,2.17-2.28,8.52,8.52,0,0,1,3.75-.33l2.18.25-1.75,6.36,0,0c1.19.14,1.91,0,2.17-.55.1-.23.46-1.45,1.09-3.67s1-3.42,1-3.59-.06-.26-.24-.28-3.1-.18-8.77-.47q-3.31-.17-4.58,10.74-.3,2.64,1.23,2.82l6.15.72a4.73,4.73,0,0,1,1.7.39c.25.16.34.52.27,1.07l-.29,1.56Zm6.46-8.85-.11-.27.74-2.6c-1-.11-1.55-.09-1.64.07L256.65,667Z" transform="translate(-0.13 0.2)"/><path class="cls-4" d="M289.77,652.45l-5.25,24.8-.58,0c-1.44-.08-2.22-.24-2.35-.49a1,1,0,0,1-.08-.47q0-.25,3.57-17.07l-3.88,5.62-1.36,1.77-1.83-.1-1.16-2-1.51-6-3.4,16a2.9,2.9,0,0,1-.72,1.71,4.5,4.5,0,0,1-2.16.19l-.75,0,5.52-25.65.61,0a4.63,4.63,0,0,1,2.1.41,3.25,3.25,0,0,1,.77,1.73l2.25,9L287,651.43l.46,0a9.13,9.13,0,0,1,1.92.24A.64.64,0,0,1,289.77,652.45Z" transform="translate(-0.13 0.2)"/><path class="cls-4" d="M302.11,677.36a5.15,5.15,0,0,1-2.26-.27c-.24-.18-.39-.79-.44-1.82L299,668.9h-4.39l-3.21,8.45h-.54c-1.34,0-2.09-.12-2.23-.36a1.38,1.38,0,0,1-.11-.61,43.12,43.12,0,0,1,1.77-5l7.75-20h3l1.74,25.92ZM298.88,666l-.29-.54v-7.74l-2.67,7.74-.43.54Z" transform="translate(-0.13 0.2)"/><path class="cls-4" d="M310,651.14c1.36-.06,2.12,0,2.28.26a.63.63,0,0,1,.12.32q0,.18-2.45,21.83l-.26.52,3.95-.17a7.19,7.19,0,0,1,1.93.08c.28.1.44.43.46,1l-.07,1.87-9.71.41,3-26.07Z" transform="translate(-0.13 0.2)"/><path class="cls-4" d="M325.92,676.34c-1.92.16-3.3-.25-4.17-1.21a7,7,0,0,1-1.51-4.18c-.14-1.82-.22-3.55-.22-5.2a41.74,41.74,0,0,1,.39-5.43,25.5,25.5,0,0,1,1.19-5.19,10.09,10.09,0,0,1,2.42-3.84,6,6,0,0,1,3.88-1.8l3.9.52a3.56,3.56,0,0,1-.63,2,1.85,1.85,0,0,1-1.32.63c-.07,0-.8,0-2.17-.08-1,.08-1.81.81-2.46,2.17a16.13,16.13,0,0,0-1.38,4.93,49.52,49.52,0,0,0-.41,10.11q.29,3.48,2.62,3.3a19.38,19.38,0,0,0,2.21-.36,16.33,16.33,0,0,1,1.89-.34l-.27,3c-.23,0-.82.21-1.76.49A11.41,11.41,0,0,1,325.92,676.34Z" transform="translate(-0.13 0.2)"/><path class="cls-4" d="M344.89,674a8.72,8.72,0,0,1-1.93.11c-.33,0-.52-.26-.57-.67q0-.21.3-11.47l0-.29-5.32.67,0,.43-.33,10.12a3,3,0,0,1-.44,1.82,4.4,4.4,0,0,1-2.05.57l-.75.09.88-26.23.57-.08a9.14,9.14,0,0,1,1.4-.1,1,1,0,0,1,1.06.95q0,.36-.18,9.21l-.05.19,5.32-.67-.05-.43.32-10.13.57-.07c1.31-.17,2.06-.08,2.25.26a1.88,1.88,0,0,1,.19.63q0,.39-.67,25Z" transform="translate(-0.13 0.2)"/><path class="cls-4" d="M362.62,671.06a5.35,5.35,0,0,1-2.28.13c-.27-.14-.51-.71-.74-1.72l-1.48-6.21-4.33.75-1.7,8.89-.54.09c-1.32.23-2.07.24-2.26,0a1.6,1.6,0,0,1-.21-.59,43.88,43.88,0,0,1,.89-5.2l4.2-21,3-.52,6.18,25.24Zm-5.15-10.69-.37-.48-1.33-7.62-1.3,8.08-.33.6Z" transform="translate(-0.13 0.2)"/><path class="cls-4" d="M369.57,669.6l-.88.19-1.31-23.14,0-.16-3.7.8-.15-2.91,10.63-2.3.11,2.92-3.73.81.09.38L371.85,667a2.83,2.83,0,0,1-.25,1.83A4.43,4.43,0,0,1,369.57,669.6Z" transform="translate(-0.13 0.2)"/><path class="cls-4" d="M390.54,664.51a5,5,0,0,1-2.26.3c-.28-.11-.57-.66-.88-1.65l-2-6.07-4.25,1.1-1,9-.52.13c-1.3.34-2.05.41-2.26.21a1.4,1.4,0,0,1-.25-.56,42.48,42.48,0,0,1,.46-5.25l2.49-21.29,2.93-.75,8.2,24.65Zm-6-10.24-.41-.45-1.94-7.49-.64,8.16-.28.63Z" transform="translate(-0.13 0.2)"/><path class="cls-4" d="M422.73,643,406,649.08l-.57-2.74,16.71-6.07Z" transform="translate(-0.13 0.2)"/><path class="cls-4" d="M437.23,619.43c.63-.29,1.08-.49,1.32-.57a.93.93,0,0,1,1.32.62l5.45,19c1.33,4.47,1.88,7.46,1.66,9a6.56,6.56,0,0,1-2,4.18,9.91,9.91,0,0,1-2.44,1.52l-.77-2.7q2.39-1.1,1.84-5.21a54.78,54.78,0,0,0-1.21-5.35q-2.13-7.78-5.73-20.2Z" transform="translate(-0.13 0.2)"/><path class="cls-4" d="M446.79,617.9l.18.35,2.17,6.73,0,.19,5.69-2.86.89,2.89-5.69,2.87.2.38,2.69,8.48,0,.06a.26.26,0,0,1,0,.18l6.4-3.22.95,2.91L451,641.59l-8-25,9.06-4.56.88,2.78Z" transform="translate(-0.13 0.2)"/><path class="cls-4" d="M474.53,629a7.32,7.32,0,0,1-2.27,1c-.31,0-.85-.37-1.62-1.1l-7.38-7.13-.81.46.19.34,3.32,8.87a2.92,2.92,0,0,1,.3,1.84,4.5,4.5,0,0,1-1.72,1.31l-.72.4-9.1-24.65,3.64-2.49c1.86-1,3.31-1.47,4.33-1.27a3.83,3.83,0,0,1,2.54,2.12q4.29,7.66.81,11.39l9.21,8.5ZM462.45,618.8q3.48-1.95.13-7.95a1.45,1.45,0,0,0-1.09-.84,3.86,3.86,0,0,0-1.9.66l-1.42.79.62.81,2.48,6.49-.08.74Z" transform="translate(-0.13 0.2)"/><path class="cls-4" d="M472.22,603.45l.21.33,2.76,6.51,0,.19,5.42-3.35,1.15,2.81-5.42,3.35.22.37,3.43,8.21,0,.06c.05.08.07.14.06.17l6.1-3.77,1.19,2.82-8.94,5.53-10.15-24.2,8.63-5.35,1.12,2.7Z" transform="translate(-0.13 0.2)"/><path class="cls-4" d="M493,587l11.06,22.82-.48.32c-1.18.82-1.9,1.18-2.16,1.06a1,1,0,0,1-.35-.32q-.15-.21-7.65-15.68l.39,6.82v2.23l-1.51,1-2.13-.85-4.84-3.78,7.1,14.7a2.92,2.92,0,0,1,.47,1.79q-.17.5-1.59,1.47l-.62.43-11.36-23.65.5-.35a4.64,4.64,0,0,1,1.91-1,3.3,3.3,0,0,1,1.67.9l7.31,5.76-.59-12.82.39-.26a8.91,8.91,0,0,1,1.65-1A.65.65,0,0,1,493,587Z" transform="translate(-0.13 0.2)"/><path class="cls-4" d="M513.38,602.75l-1,.77a5.1,5.1,0,0,1-.74.48.78.78,0,0,1-.52.12,1.13,1.13,0,0,1-.84-.51q-.36-.47-5.54-10l-10.26-9,.91-.7a3.66,3.66,0,0,1,1.71-.93c.33,0,.84.33,1.54,1l5.3,4.88-1.84-10.08.54-.41a10.87,10.87,0,0,1,1.27-.89q.42-.23.57,0t2.87,14.37Z" transform="translate(-0.13 0.2)"/><path class="cls-4" d="M524.84,589.22l-6.28-7.37,3.74,9.77a10.54,10.54,0,0,1,.86,2.79c0,.35-.35.79-1,1.34a2.2,2.2,0,0,1-2.64.07,4.66,4.66,0,0,1-1.22-1.05l-14.72-17.24.71-.61c.8-.68,1.33-1,1.56-1s.67.35,1.3,1.05l11.68,13.45-4-10.53-.68-2.31,2-1.72,2.23,1.17,6.57,7.73-7.66-19,1-.88a6.25,6.25,0,0,1,.63-.49,1.54,1.54,0,0,1,.62-.29c.17,0,.28,0,.32.06l.23.37,8.61,21.51a10.27,10.27,0,0,1,.89,2.76c0,.35-.36.81-1,1.37a2.17,2.17,0,0,1-2.63.06A4.29,4.29,0,0,1,524.84,589.22Z" transform="translate(-0.13 0.2)"/><path class="cls-4" d="M543.64,576.49a5.15,5.15,0,0,1-1.84,1.35c-.3,0-.82-.31-1.56-1l-4.65-4.37-3.2,3,3.46,8.35-.39.37c-1,.92-1.61,1.35-1.88,1.27a1.46,1.46,0,0,1-.49-.37,42.06,42.06,0,0,1-2.12-4.83l-8.06-19.85,2.21-2.08,19,17.67Zm-10.18-6.1-.58-.19-5.3-5.64,3.36,7.46,0,.69Z" transform="translate(-0.13 0.2)"/><path class="cls-4" d="M539.17,548.05l-2.3,2c-.64.66-.73,1.73-.28,3.22a17.08,17.08,0,0,0,2.34,4.69,50.44,50.44,0,0,0,6.33,7.85q2.57,2.48,4.17.82l1.42-1.88-.34-.33-4.65-6.21a5.46,5.46,0,0,1-1.14-1.9c0-.28.34-.8,1-1.54l.83-.85,8.07,10.72L551.38,569q-2,2.07-3.93,1.83a6.8,6.8,0,0,1-3.83-2.08q-1.9-1.85-3.51-3.67a47,47,0,0,1-3.3-4.3,28.18,28.18,0,0,1-2.65-4.69,10.78,10.78,0,0,1-.9-4.46,5.41,5.41,0,0,1,1.53-3.75q.23-.24,4.08-3.07a3.66,3.66,0,0,1,.86,1.93A1.84,1.84,0,0,1,539.17,548.05Z" transform="translate(-0.13 0.2)"/><path class="cls-4" d="M565.6,553a5.46,5.46,0,0,1-1.63,1.47c-.29.07-.88-.15-1.77-.67l-12.53-7.39,9.2,11.12c.63.75.93,1.28.91,1.62a4.29,4.29,0,0,1-1.17,1.79l-.5.57-16.75-20.2.4-.46a5.32,5.32,0,0,1,1.62-1.46c.3-.08.88.14,1.75.68l12.79,7.7-10.78-13,.38-.43a12.62,12.62,0,0,1,1.07-1.12.79.79,0,0,1,1.18,0l.19.16,16,19.21Z" transform="translate(-0.13 0.2)"/><path class="cls-4" d="M555.66,528.78l.31.25,4.77,5.22.09.17,4-5,2,2.27-4,5,.34.28,6,6.59.05.05c.08.06.12.11.12.14l4.49-5.58,2.06,2.25-6.58,8.2-17.63-19.44,6.36-7.91,2,2.17Z" transform="translate(-0.13 0.2)"/><path class="cls-4" d="M585.54,527.39a6.81,6.81,0,0,1-1.65,1.85,3.24,3.24,0,0,1-1.93-.32l-9.67-3.43-.56.76.32.23,6.7,6.7c.69.68,1,1.2,1,1.54a4.51,4.51,0,0,1-1,1.91l-.49.67-18.51-18.66,2.28-3.78q1.89-2.58,3.41-2.94a3.86,3.86,0,0,1,3.2.87q7.08,5.19,5.46,10l11.9,3.91Zm-15.25-4.29q2.37-3.23-3.18-7.29a1.38,1.38,0,0,0-1.33-.31,3.79,3.79,0,0,0-1.46,1.38l-1,1.31.9.48,5,4.88.23.71Z" transform="translate(-0.13 0.2)"/><path class="cls-4" d="M588,519.74a2.42,2.42,0,0,1,.58,3.14,1.79,1.79,0,0,1-1.23.84,1.91,1.91,0,0,1-1.41-.33,2.2,2.2,0,0,1-.86-1.44,2.09,2.09,0,0,1,.29-1.7,1.79,1.79,0,0,1,2.63-.51Z" transform="translate(-0.13 0.2)"/><path class="cls-4" d="M581.33,487.78l19.19,16.58-.31.49c-.76,1.22-1.28,1.83-1.56,1.82a1,1,0,0,1-.46-.16q-.21-.12-13.22-11.36l3,6.11.89,2-1,1.56-2.29.05-5.95-1.55L592,514.05c.74.63,1.12,1.11,1.15,1.46a4.48,4.48,0,0,1-.88,2l-.4.64-19.8-17.22.32-.52a4.75,4.75,0,0,1,1.37-1.65,3.44,3.44,0,0,1,1.9.16l9,2.4-5.62-11.54.25-.39a9.36,9.36,0,0,1,1.13-1.57A.66.66,0,0,1,581.33,487.78Z" transform="translate(-0.13 0.2)"/><path class="cls-4" d="M586.49,482.31l.35.19,5.58,4.34.12.15,3.09-5.57,2.37,1.89-3.09,5.57.37.21,7,5.49.06,0c.09.05.13.09.14.12l3.48-6.26,2.42,1.88-5.11,9.18-20.66-16.18,4.93-8.87,2.29,1.81Z" transform="translate(-0.13 0.2)"/></g></g></svg>