<svg id="Layer_1" data-name="Layer 1" xmlns="http://www.w3.org/2000/svg" width="405.1" height="354.2" viewBox="0 0 304 265.61"><defs><style>.cls-1{fill:#fcfaf9}</style></defs><title>browser</title><path class="cls-1" d="M122 81.7a9.7 9.7 0 0 0 2 3.5 4 4 0 0 0 3.2 1.5A3.2 3.2 0 0 0 130 85a7.6 7.6 0 0 0 1-3.2 46.9 46.9 0 0 0 .2-6.8 25.1 25.1 0 0 0-1.1-7.9 12 12 0 0 0-1.8-3.6 3.7 3.7 0 0 0-3.2-1.8 3.6 3.6 0 0 0-2.5 2 10.8 10.8 0 0 0-1 3.2 30.8 30.8 0 0 0-.5 6.8 24.9 24.9 0 0 0 1 7.9zm33.8 1.7a3 3 0 0 0 3.4 1 4.4 4.4 0 0 0 2-2.3 12.8 12.8 0 0 0 1-3 37.7 37.7 0 0 0 .5-6.5 20.4 20.4 0 0 0-1.1-7.5 9.7 9.7 0 0 0-2-3.3 4 4 0 0 0-1.5-1 2.5 2.5 0 0 0-1.8 0 4.6 4.6 0 0 0-2 2.3 12.3 12.3 0 0 0-1 3 34 34 0 0 0-.5 6.5 20.3 20.3 0 0 0 1.1 7.5 9.7 9.7 0 0 0 2 3.3z"/><path class="cls-1" d="M303.7 169.1c.3-2-.8-3.8-1.9-5.2a20.4 20.4 0 0 1-2.2-3l.1-1 .2-1.5v-1.2l.1-2.1v-2.2c0-1.4.3-2.9.5-4.4a19.5 19.5 0 0 0-.8-9.9c-.4-1.4-.7-2.8-1.3-4.1s-.7-2.8-1.1-4.3a20.9 20.9 0 0 0-.6-2.5 21.8 21.8 0 0 0-1-2.3 25.5 25.5 0 0 0-2.8-4.1c-.8-1.2-1.9-2.2-2.7-3.4a27.8 27.8 0 0 1-2.7-3.5 20.6 20.6 0 0 0-7.2-6.8 57.4 57.4 0 0 1-7.2-4.9 23 23 0 0 0-8.7-4.7 48.7 48.7 0 0 1-8-3.2 23.7 23.7 0 0 0-9.5-3 54 54 0 0 1-8-1.6 88.6 88.6 0 0 1-.4-13 145.6 145.6 0 0 0-1-17.8 116.4 116.4 0 0 1-.9-20 142.6 142.6 0 0 0-.8-18 116 116 0 0 1-.6-20l-.8-1a160.7 160.7 0 0 0-21.6-.1c-7.9.3-16 .8-24.3.2a172.8 172.8 0 0 0-21.5.9c-7.8.7-15.9 1.5-24.2 1.2a179.8 179.8 0 0 0-21.5 1.6c-7.8 1-15.9 2-24.2 2a181 181 0 0 0-21.5 2.2 203 203 0 0 1-24 2.6l-1 1a142.8 142.8 0 0 0 .8 18.7 141 141 0 0 1 .8 21.1 145.3 145.3 0 0 0 1 18.8 140.4 140.4 0 0 1 1 21c0 2.7 0 5.3.2 7.8a30.4 30.4 0 0 0-6.7 4.2 32.1 32.1 0 0 1-8.2 5.1 28.3 28.3 0 0 0-7 5 33.4 33.4 0 0 1-7.7 5.8 26.4 26.4 0 0 0-6.6 5.7 39.4 39.4 0 0 1-7 6.7 22.1 22.1 0 0 0-5.3 6.9c-1.6 2.8-2.9 5.7-4.7 8.7a12.2 12.2 0 0 0-.7 8.9c.9 3.2 2.8 5.9 4.6 8.8a16.2 16.2 0 0 0 7.2 5.1l3 1.2 1.5.6c.4.1.6 1 .6 1a11.3 11.3 0 0 0 1 6.8c1.1 2.3 2.4 4.4 3.7 7a7.7 7.7 0 0 0 2.6 2.4 11 11 0 0 0 3.4 1c2.6.6 5 .1 7.8.8l-.2-1.7c-2.6-.6-4.9-.2-7.1-.6a5.1 5.1 0 0 1-1.5-.4 15.4 15.4 0 0 1-1.5-.5l-1.3-1a5.2 5.2 0 0 1-1-1.2c-1-2.3-2.3-4.1-3.3-6.3a15.5 15.5 0 0 1-.6-1.7 9.6 9.6 0 0 0 .8.7c1.7 1.4 3.5 2.3 5.3 3.8a8 8 0 0 0 1.3.6 8 8 0 0 0 1.5.3 10.8 10.8 0 0 0 2.8 0l3.1-.5a8.9 8.9 0 0 1 3.2 0l-.3-1.6a8.3 8.3 0 0 0-3 0c-1 0-2 .3-3 .4a9.8 9.8 0 0 1-2.6.1 7.2 7.2 0 0 1-1.3-.3 7.4 7.4 0 0 1-1.1-.6c-1.6-1.4-3.2-2-4.7-3.3a6 6 0 0 1-2.4-3.7 10 10 0 0 0 4.2.3c2-.2 3.8-.6 5.8 0a8.5 8.5 0 0 0 5-1c1.8-.8 3.4-1.9 5.5-2l-.7-1.5c-2 .1-3.5 1.1-5.2 1.9a7.7 7.7 0 0 1-4.8 1 13.3 13.3 0 0 0-5.5 0 8.2 8.2 0 0 1-4.4-.4 5.7 5.7 0 0 1 .3-1 7.2 7.2 0 0 1 .8-1.5 19 19 0 0 1 5-6 10.6 10.6 0 0 1 4.2-1.7 16.9 16.9 0 0 1 2.4 0 17.2 17.2 0 0 1 2.4.3l.2-1.7a19 19 0 0 0-2.6-.5 18.8 18.8 0 0 0-2.6.1 12.4 12.4 0 0 0-4.8 2 19.7 19.7 0 0 0-5.7 6.8 8 8 0 0 0-.9 1.6v.2h-.1l-1.5-.6-2.9-1.1a15 15 0 0 1-6.7-4.8c-1.7-2.8-3.4-5.1-4.2-8a10.7 10.7 0 0 1 .7-8c1.7-2.8 3-5.6 4.4-8.3a20.8 20.8 0 0 1 5.3-6.6 39.3 39.3 0 0 0 6.9-6.7 26 26 0 0 1 6.4-5.6 33 33 0 0 0 7.7-5.8 27.5 27.5 0 0 1 6.9-5 32.5 32.5 0 0 0 8.2-5 32 32 0 0 1 5.8-3.8c.2 3.1.6 6.2 1 9.2a140.8 140.8 0 0 1 1.2 21.1 142 142 0 0 0 1.4 18.8c.8 6.7 1.8 13.7 1.6 21l1 1c7.4-1 14.5-2.4 21.3-3.7a153.7 153.7 0 0 1 24.1-3.2c4.2-.2 8.4-.7 12.4-1.2a48.3 48.3 0 0 0-3.9 3.8c-2.3 2.6-4.6 5.3-7.8 7.4a32 32 0 0 0-6.3 7 45.6 45.6 0 0 1-6.9 8.3 21.4 21.4 0 0 0-3 3.8 39.3 39.3 0 0 0-2.3 4.1c-1.7 3-3.2 6.3-5.6 9.2a25 25 0 0 0-2.4 4.2l-1.6 4.5-1.4 5a32.8 32.8 0 0 1-2 5.2 25.4 25.4 0 0 0-1.7 9.4v5.3l-.1 2.7a24.1 24.1 0 0 1-.3 2.8 17 17 0 0 0 0 2.5 32 32 0 0 0 .8 4.8l.7 2.2 1.3 3.7.6 1.8.8 2.5a13.2 13.2 0 0 1 1.8-1 8.7 8.7 0 0 1 1.4-.4 39.5 39.5 0 0 1 8.8-1.8 13 13 0 0 1 9.6 3.2l.9-1.4a14.6 14.6 0 0 0-10.5-3.5 40.3 40.3 0 0 0-9.6 2l-1.4.5-.1-.1a.8.8 0 0 0 0-.1l-.1-.3a28 28 0 0 0-.7-1.9c-.5-1.1-.8-2.4-1.2-3.6l-.7-2.1-.5-2.3c0-.8-.2-1.6-.3-2.3a17.2 17.2 0 0 1 0-2.4 25.9 25.9 0 0 0 .3-2.7l.2-2.7v-5.2a24.3 24.3 0 0 1 1.6-9.2 33.3 33.3 0 0 0 2-5l1.4-5 1.6-4.3a22.5 22.5 0 0 1 2.3-4.2c2.4-2.8 3.9-6 5.5-9a39 39 0 0 1 2.3-4 20.5 20.5 0 0 1 3-3.8 45.7 45.7 0 0 0 6.8-8.2 31.1 31.1 0 0 1 6.3-7 43.8 43.8 0 0 0 7.7-7.3 32.4 32.4 0 0 1 6.2-5.6l5.6-.8a159 159 0 0 1 24.2-2.3c7.4-.3 14.6-1.2 21.6-2l1.5-.2a56.8 56.8 0 0 0-5.4 6.6c-2.4 3.2-4.8 6.6-8 9.4a45.6 45.6 0 0 0-6.7 8.8 58.5 58.5 0 0 1-7.3 10 38.4 38.4 0 0 0-5.8 9.4c-1.6 3.7-3.2 7.5-5.3 11.3a15.6 15.6 0 0 0-1.5 5.6 11 11 0 0 0 1 5.8 8.4 8.4 0 0 0 2 2.6 94 94 0 0 1 2.4 2 52.1 52.1 0 0 1 4.7 4.3 43.5 43.5 0 0 0 9.1 6.2c3.5 1.9 7.1 4 9.7 7.4 2.4 2.8 4.9 5.2 6.6 8.2l.9 1.8.6 1.9.2 1 .1 1a6.3 6.3 0 0 1 0 1.3l-1.1-.7-1.9-.9a22.1 22.1 0 0 0-11-1.5 54.7 54.7 0 0 0-12.3 3l.8 1.5a54 54 0 0 1 11.5-2.9 20.5 20.5 0 0 1 10.5 1.5l1.8 1c1 .4 2.4 1 3.6 1.7l-.2-4.2-.2-1.1-.2-1.1-.7-2.1-1-2c-1.8-3.2-4.4-5.8-6.9-8.7a31.5 31.5 0 0 0-10-7.6 42.1 42.1 0 0 1-9-6 54.7 54.7 0 0 0-4.6-4.3l-2.2-2a6.5 6.5 0 0 1-1.7-2 9.3 9.3 0 0 1-.9-5 14.6 14.6 0 0 1 1.4-5.2c2-3.7 3.6-7.4 5.3-11a37 37 0 0 1 5.6-9.3 59.3 59.3 0 0 0 7.3-10 43.9 43.9 0 0 1 6.6-8.7 53.5 53.5 0 0 0 8-9.4 45.7 45.7 0 0 1 7-8 143.8 143.8 0 0 1 19.9-1.3 213.3 213.3 0 0 0 21.5-1.5 175.1 175.1 0 0 1 24.3-1.3l1-1a158.8 158.8 0 0 0-2-17.7 110 110 0 0 1-1.5-20 150.5 150.5 0 0 0-1.3-17.8L239 92a58 58 0 0 0 7.6 1.4 22.4 22.4 0 0 1 9.1 3 49 49 0 0 0 8 3.2 21.7 21.7 0 0 1 8.5 4.6 55.6 55.6 0 0 0 7.1 4.8 19.2 19.2 0 0 1 7 6.6 26.6 26.6 0 0 0 2.6 3.4l2.7 3.2a23.4 23.4 0 0 1 2.7 4 21.2 21.2 0 0 1 1 2.2 17.2 17.2 0 0 1 .5 2.4c.3 1.4.6 2.8 1.1 4.2l1.3 4a18.2 18.2 0 0 1 .7 9.5c-.2 1.5-.5 3-.5 4.3v4.2a2.6 2.6 0 0 0 0 .6v1.3s0 .3-.1.2a53.5 53.5 0 0 1-3.6-4.3 10.8 10.8 0 0 0-8.2-3.7l-1.3.1-1.3.3-.6.1-.6.3-1.1.5-2.2 1.3a22.3 22.3 0 0 1-2.2 1.5l1.3 1.1c2.7-1.9 5-3.4 7.9-3.5a9.3 9.3 0 0 1 7.2 3.3l2 2.5.3.3.5.6.8 1c-1.4 1.3-2.6 2.9-3.9 4.2-1.7 1.8-4 3.5-6.6 3.4a30 30 0 0 1-6.5-.1 9 9 0 0 1-6.3-4l-1.2 1.3a10.5 10.5 0 0 0 7 4.3 30.1 30.1 0 0 0 7.3.1c3 0 5.6-1.8 7.4-3.7l2.4-2.7-.5 3.2c-.4 2.3-1 4.8-3 6.5-1.5 1.5-2.5 3-4.2 3.6a4.3 4.3 0 0 1-3.2-.2 6 6 0 0 1-2.6-2.4l-1.1 1.2a7.2 7.2 0 0 0 3 2.7 6 6 0 0 0 4.2.4 7.5 7.5 0 0 0 3-2l2.4-2.4c2-2 2.7-4.6 3-7 .3-1.4.5-2.9.9-4.3l1.6 2.2c1 1.3 2 2.9 1.7 4.8 0 1.5.3 2.9.3 4.3v.6l-.1.5a2.7 2.7 0 0 1-.5 1.2 3.1 3.1 0 0 1-2 1.4l1 1.4a4.4 4.4 0 0 0 2.5-2 3.8 3.8 0 0 0 .6-1.3 7 7 0 0 0 .2-.8v-.7c0-2-.4-3.5-.3-5.2zm-64.4-54a113.7 113.7 0 0 0 1.5 20.2 167 167 0 0 1 1.8 16.8 181.1 181.1 0 0 0-23.7 1.3 209.6 209.6 0 0 1-21.5 1.6 167.3 167.3 0 0 0-24.4 1.8c-6.9.8-14 1.8-21.4 2a162.3 162.3 0 0 0-24.3 2.4l-5.3.7-.7.1c-5 .8-10.1 1.5-15.4 1.7a159.2 159.2 0 0 0-24.2 3.2c-6.6 1.3-13.4 2.6-20.4 3.5a147.7 147.7 0 0 0-1.5-20.4 141.1 141.1 0 0 1-1.4-18.6 144.3 144.3 0 0 0-1.3-21.2 145.3 145.3 0 0 1-1.2-18.6 142.4 142.4 0 0 0-1-21.2 146 146 0 0 1-1-18.7 143.3 143.3 0 0 0-.8-21.2 144.2 144.2 0 0 1-.8-17.9A213 213 0 0 0 76 10a176.3 176.3 0 0 1 21.3-2.2 204.4 204.4 0 0 0 24.3-2A174.2 174.2 0 0 1 143 4.4c8.4.2 16.5-.6 24.3-1.3a169 169 0 0 1 21.4-.9c8.4.6 16.5.1 24.3-.2a161.2 161.2 0 0 1 20.6.1 122.5 122.5 0 0 0 .6 19.6 141.6 141.6 0 0 1 .8 17.8 119.5 119.5 0 0 0 .9 20.1 142.8 142.8 0 0 1 1 17.8 117.7 117.7 0 0 0 1 20.1 147.8 147.8 0 0 1 1.4 17.8z"/><path class="cls-1" d="M225.7 111.5a82.5 82.5 0 0 0-.9-16 84.3 84.3 0 0 1-.9-14.2 82.1 82.1 0 0 0-.7-16.1 84.7 84.7 0 0 1-.7-14.2 81.7 81.7 0 0 0-.5-16.1 86 86 0 0 1-.6-14.2l-.7-.7a68.6 68.6 0 0 0-15.3.4 83.6 83.6 0 0 1-13.4.7 67.5 67.5 0 0 0-15.3.8 93.5 93.5 0 0 1-13 1.1 4.6 4.6 0 0 0-2.4-2.4 4.2 4.2 0 0 1-2.3-2.2 4.5 4.5 0 0 0-2.3-2.8 4.2 4.2 0 0 1-2-2.4l-.7-.3a22.8 22.8 0 0 0-9 0 31.3 31.3 0 0 1-7.8.5 21 21 0 0 0-9 .8 54.8 54.8 0 0 1-7.9 1.7l-.4.3a4.8 4.8 0 0 0-2 3.4 5.2 5.2 0 0 1-1.4 3 4.8 4.8 0 0 0-1.9 3.4 6.2 6.2 0 0 1-1.1 2.6 52.6 52.6 0 0 0-13.4 1.1 70.8 70.8 0 0 1-11.9 1.4A49.6 49.6 0 0 0 74.7 33 91 91 0 0 1 63 35.2l-.6.7a75.4 75.4 0 0 0 .5 16.2 92.3 92.3 0 0 1 .8 14.2 77.5 77.5 0 0 0 .8 16.2 90.5 90.5 0 0 1 1 14.2 77.1 77.1 0 0 0 1 16.1 92.4 92.4 0 0 1 1.3 14.2 76.5 76.5 0 0 0 1.2 16.1 89.6 89.6 0 0 1 1.5 14.2l.8.7a168.3 168.3 0 0 0 20.6-3.1 126.6 126.6 0 0 1 18.2-2.6 149.8 149.8 0 0 0 20.7-2.3 132.7 132.7 0 0 1 18.3-2c7.3.1 14.1-.9 20.8-1.7a128.4 128.4 0 0 1 18.3-1.5 145.5 145.5 0 0 0 20.8-1.3 140.7 140.7 0 0 1 18.3-1l.8-.7a85.1 85.1 0 0 0-1.2-16.1 82.8 82.8 0 0 1-1-14.2zm-17 30.3a140.7 140.7 0 0 1-20.7 1.3 132.4 132.4 0 0 0-18.5 1.5c-6.6.8-13.5 1.8-20.7 1.7a135.3 135.3 0 0 0-18.3 2c-6.7 1-13.5 2.2-20.7 2.3a130.2 130.2 0 0 0-18.3 2.6 173 173 0 0 1-19.4 3 96.6 96.6 0 0 0-1.5-13.3 70.6 70.6 0 0 1-1.2-16 94 94 0 0 0-1.3-14.3 73.9 73.9 0 0 1-1-16 93.5 93.5 0 0 0-1-14.3 75.5 75.5 0 0 1-.7-16 94 94 0 0 0-.8-14.4 77.9 77.9 0 0 1-.6-15.1 95.5 95.5 0 0 0 11-2.3 47.8 47.8 0 0 1 13.4-1.7 72.9 72.9 0 0 0 11.9-1.4 50.7 50.7 0 0 1 13.4-1l.8-.6a5.2 5.2 0 0 0 1.6-3c.3-1.3.6-2.6 1.9-3.4a5.2 5.2 0 0 0 1.5-3 5.4 5.4 0 0 1 1.4-3 51 51 0 0 0 7.5-1.6 20 20 0 0 1 8.9-.8 31 31 0 0 0 7.8-.5 23.4 23.4 0 0 1 8.2-.1 4.8 4.8 0 0 0 2 2.2c1 .7 2.1 1.4 2.4 2.9a4.5 4.5 0 0 0 2.3 2.2c1.1.6 2.2 1.2 2.6 2.7l.7.2a90.5 90.5 0 0 0 13.5-1 65.6 65.6 0 0 1 15.1-.8 84 84 0 0 0 13.5-.7 71.3 71.3 0 0 1 14.1-.5 92.8 92.8 0 0 0 .7 13.4 79.6 79.6 0 0 1 .5 16 86.5 86.5 0 0 0 .8 14.3c.5 5.2 1.1 10.5.6 16a85.2 85.2 0 0 0 1 14.2c.6 5.2 1.2 10.5.8 16a83.7 83.7 0 0 0 1.1 14.3 90 90 0 0 1 1.2 15 150.5 150.5 0 0 0-17.6 1zM63.9 29.8a5.1 5.1 0 0 0 4.4 1 6.5 6.5 0 0 0 4.7-5.4 4.4 4.4 0 0 0-1.4-4.4 5.1 5.1 0 0 0-4.4-1 6.5 6.5 0 0 0-4.8 5.4 4.4 4.4 0 0 0 1.5 4.4zm.2-4.4a6 6 0 0 1 1.1-2.3 4.2 4.2 0 0 1 2.2-1.5 3.5 3.5 0 0 1 3 .7 2.9 2.9 0 0 1 1 3 6 6 0 0 1-1.1 2.4 4.2 4.2 0 0 1-2.2 1.4 3.4 3.4 0 0 1-3.1-.6 2.8 2.8 0 0 1-1-3.1z"/><path class="cls-1" d="M78.1 28.2a5.1 5.1 0 0 0 4.4 1 6.5 6.5 0 0 0 4.8-5.4 4.5 4.5 0 0 0-1.5-4.4 5.1 5.1 0 0 0-4.4-1 6.5 6.5 0 0 0-4.8 5.4 4.4 4.4 0 0 0 1.5 4.4zm.2-4.4a6 6 0 0 1 1.2-2.3 4.1 4.1 0 0 1 2.1-1.5 3.4 3.4 0 0 1 3.1.7 2.8 2.8 0 0 1 1 3 6.2 6.2 0 0 1-1.2 2.4 4.3 4.3 0 0 1-2.1 1.4 3.5 3.5 0 0 1-3.1-.6 2.8 2.8 0 0 1-1-3zm14.1 2.8a5 5 0 0 0 4.4 1 6.5 6.5 0 0 0 4.8-5.4A4.4 4.4 0 0 0 100 18a5.1 5.1 0 0 0-4.4-1.1 6.5 6.5 0 0 0-4.8 5.4 4.4 4.4 0 0 0 1.6 4.4zm.2-4.4a6.3 6.3 0 0 1 1.1-2.3 4.3 4.3 0 0 1 2.2-1.4 3.5 3.5 0 0 1 3 .6 2.9 2.9 0 0 1 1 3.1 6 6 0 0 1-1.1 2.4 4.1 4.1 0 0 1-2.2 1.4 3.5 3.5 0 0 1-3.1-.7 2.8 2.8 0 0 1-1-3zm83.9 70.3c-5.6.8-10.7 2.3-15.8 3.6a61.8 61.8 0 0 1-14.2 2 124.5 124.5 0 0 0-16.3 1 62.4 62.4 0 0 1-14.3.1l-.1 1.7a64.3 64.3 0 0 0 14.5-.1c5.3-.5 10.7-1.2 16.4-1a63.8 63.8 0 0 0 14.4-2.1c4.4-1.1 9-2.4 13.8-3.3l-4.5 7c-2.3 3-5.3 5.9-9.1 7-3.4 1.2-6.4 2.7-9.7 3.6a21.8 21.8 0 0 1-11.6.7v1.6a23.3 23.3 0 0 0 12-.7c3.4-.9 6.6-2.4 10-3.7a20 20 0 0 0 9.6-7.4c2.1-2.9 3.9-5.9 5.8-9z"/></svg>