<svg id="Layer_1" data-name="Layer 1" xmlns="http://www.w3.org/2000/svg" width="4.22in" height="3.69in" viewBox="0 0 304 265.61">
  <defs>
    <style>
      .cls-1 {
        fill: #4c4c4c;
      }
    </style>
  </defs>
  <title>browser</title>
  <g>
    <path class="cls-1" d="M122,81.66a9.68,9.68,0,0,0,1.92,3.59,4.09,4.09,0,0,0,3.32,1.44,3.23,3.23,0,0,0,2.64-1.59,7.64,7.64,0,0,0,1-3.22,46.89,46.89,0,0,0,.21-6.82A25.13,25.13,0,0,0,130,67.22a12,12,0,0,0-1.75-3.58A3.7,3.7,0,0,0,125,61.83a3.63,3.63,0,0,0-2.45,2A10.85,10.85,0,0,0,121.44,67,30.79,30.79,0,0,0,121,73.8h0A24.88,24.88,0,0,0,122,81.66Z"/>
    <path class="cls-1" d="M155.85,83.37a3,3,0,0,0,3.33,1,4.4,4.4,0,0,0,2.11-2.3,12.8,12.8,0,0,0,.92-3,37.72,37.72,0,0,0,.46-6.49,20.41,20.41,0,0,0-1.12-7.49,9.65,9.65,0,0,0-1.9-3.28,3.91,3.91,0,0,0-1.55-1.06,2.48,2.48,0,0,0-1.78.07,4.58,4.58,0,0,0-2.08,2.28,12.35,12.35,0,0,0-1,3,34,34,0,0,0-.47,6.49h0a20.26,20.26,0,0,0,1.14,7.48A9.73,9.73,0,0,0,155.85,83.37Z"/>
    <path class="cls-1" d="M303.69,169.1c.29-2.09-.79-3.79-1.88-5.2a20.45,20.45,0,0,1-2.18-3.09l.09-.86.15-1.55.07-.73,0-.45.11-2.14c0-.72,0-1.45,0-2.17,0-1.46.27-2.91.43-4.39a19.48,19.48,0,0,0-.75-9.92c-.43-1.36-.77-2.76-1.29-4.13s-.77-2.82-1.14-4.27a20.85,20.85,0,0,0-.58-2.54,21.83,21.83,0,0,0-1.05-2.3,25.51,25.51,0,0,0-2.75-4.1c-.85-1.15-1.89-2.17-2.76-3.34a27.79,27.79,0,0,1-2.65-3.53,20.56,20.56,0,0,0-7.24-6.79,57.39,57.39,0,0,1-7.21-4.87A23,23,0,0,0,264.4,98a48.67,48.67,0,0,1-8.07-3.19,23.71,23.71,0,0,0-9.4-3,54,54,0,0,1-8.1-1.61,88.58,88.58,0,0,1-.34-13,145.55,145.55,0,0,0-1.05-17.83,116.37,116.37,0,0,1-.81-20.06,142.55,142.55,0,0,0-.83-17.84c-.57-6.47-1.14-13.18-.56-20.07l-.88-1A160.72,160.72,0,0,0,212.78.28c-7.85.28-15.93.81-24.26.2A172.84,172.84,0,0,0,167,1.4c-7.82.67-15.88,1.47-24.21,1.2a179.78,179.78,0,0,0-21.51,1.65c-7.79.92-15.83,2-24.16,1.92A181,181,0,0,0,75.64,8.38,203.08,203.08,0,0,1,51.53,11l-.88.94a142.79,142.79,0,0,0,.75,18.77,141.06,141.06,0,0,1,.77,21.11,145.27,145.27,0,0,0,1,18.75,140.43,140.43,0,0,1,1,21.1c-.06,2.61.05,5.19.21,7.73a30.39,30.39,0,0,0-6.65,4.17,32.15,32.15,0,0,1-8.2,5.14,28.33,28.33,0,0,0-7,5,33.41,33.41,0,0,1-7.78,5.79,26.42,26.42,0,0,0-6.5,5.68,39.42,39.42,0,0,1-7,6.75,22.15,22.15,0,0,0-5.37,6.84c-1.55,2.82-2.83,5.73-4.66,8.7a12.22,12.22,0,0,0-.74,8.89c.92,3.24,2.81,5.9,4.66,8.85a16.24,16.24,0,0,0,7.18,5.1c.95.43,2,.77,2.94,1.17l1.5.59c.48.18.6,1,.6,1a11.34,11.34,0,0,0,1.09,6.82c1.05,2.35,2.38,4.41,3.63,6.92a7.73,7.73,0,0,0,2.66,2.52,11,11,0,0,0,3.38,1.06c2.57.52,5,.06,7.75.68l-.2-1.68c-2.55-.62-4.82-.18-7.1-.61a5.1,5.1,0,0,1-1.5-.33,15.4,15.4,0,0,1-1.47-.57c-.44-.3-.88-.61-1.29-.95a5.16,5.16,0,0,1-1-1.27c-1.05-2.27-2.28-4.1-3.27-6.27a15.51,15.51,0,0,1-.67-1.73,9.6,9.6,0,0,0,.81.76c1.68,1.41,3.51,2.25,5.3,3.76a8.08,8.08,0,0,0,1.35.67,8,8,0,0,0,1.44.3,10.83,10.83,0,0,0,2.85-.07c1-.1,2-.4,3.08-.46a8.87,8.87,0,0,1,3.21,0l-.34-1.66a8.29,8.29,0,0,0-3.06,0c-1,.05-1.92.36-2.87.45a9.83,9.83,0,0,1-2.6.09,7.22,7.22,0,0,1-1.29-.27,7.37,7.37,0,0,1-1.18-.62c-1.57-1.41-3.14-2.1-4.64-3.3a6,6,0,0,1-2.38-3.7,10,10,0,0,0,4.17.26c1.91-.2,3.75-.56,5.8,0a8.54,8.54,0,0,0,5.06-1c1.76-.81,3.33-1.84,5.47-2l-.79-1.49c-2,.17-3.5,1.14-5.15,1.92a7.66,7.66,0,0,1-4.76,1,13.27,13.27,0,0,0-5.54,0,8.22,8.22,0,0,1-4.39-.42,5.69,5.69,0,0,1,.3-1,7.17,7.17,0,0,1,.8-1.43c1.44-2.35,2.85-4.48,5-6a10.58,10.58,0,0,1,4.19-1.73,16.88,16.88,0,0,1,2.36-.08A17.18,17.18,0,0,1,34,162l.17-1.68a19,19,0,0,0-2.58-.5,18.79,18.79,0,0,0-2.6.12,12.44,12.44,0,0,0-4.76,1.92c-2.53,1.68-4.22,4.18-5.76,6.8a8.09,8.09,0,0,0-.85,1.62l-.08.21c0,.06,0,0,0,0h-.05a0,0,0,0,1,0,0s0,0,0,0L16,169.93c-1-.38-1.93-.71-2.86-1.13-2.49-1-5.09-2.43-6.73-4.78-1.71-2.8-3.37-5.13-4.23-8a10.74,10.74,0,0,1,.7-8c1.75-2.8,3-5.59,4.47-8.32a20.76,20.76,0,0,1,5.2-6.61,39.32,39.32,0,0,0,6.92-6.69,26,26,0,0,1,6.39-5.58A33.09,33.09,0,0,0,33.57,115a27.51,27.51,0,0,1,6.92-4.94A32.47,32.47,0,0,0,48.68,105a32,32,0,0,1,5.82-3.79c.24,3.13.58,6.21.91,9.24a140.83,140.83,0,0,1,1.26,21.08,142,142,0,0,0,1.46,18.73c.81,6.78,1.75,13.79,1.53,21.06l1.11.9c7.31-.9,14.41-2.3,21.27-3.62a153.71,153.71,0,0,1,24.1-3.16c4.2-.24,8.32-.72,12.36-1.28a48.26,48.26,0,0,0-3.86,3.84c-2.35,2.58-4.67,5.29-7.79,7.37a32,32,0,0,0-6.37,7.1,45.61,45.61,0,0,1-6.85,8.26,21.36,21.36,0,0,0-3,3.78,39.27,39.27,0,0,0-2.35,4.1c-1.65,3.08-3.13,6.33-5.56,9.2A25.07,25.07,0,0,0,80.31,212c-.61,1.48-1.08,3-1.57,4.47-.46,1.69-.94,3.4-1.49,5.1a32.83,32.83,0,0,1-2,5.1,25.38,25.38,0,0,0-1.64,9.45c0,1.76-.07,3.53,0,5.32,0,.9,0,1.8-.14,2.71a24.15,24.15,0,0,1-.25,2.77,17.05,17.05,0,0,0-.06,2.47c.08.82.19,1.62.33,2.42s.29,1.58.48,2.35.49,1.51.73,2.25c.42,1.22.76,2.47,1.27,3.68q.34.91.66,1.86c.21.62.48,1.67.76,2.47a13.23,13.23,0,0,1,1.8-1,8.72,8.72,0,0,1,1.38-.43,39.54,39.54,0,0,1,8.81-1.8A13,13,0,0,1,99,264.4l.88-1.45a14.58,14.58,0,0,0-10.49-3.43,40.26,40.26,0,0,0-9.54,2c-.47.12-1,.3-1.43.45-.1,0-.14,0-.15-.08a.84.84,0,0,0,0-.1c0-.08.06.11-.09-.33-.19-.62-.41-1.22-.64-1.82-.51-1.18-.83-2.4-1.25-3.59-.23-.73-.47-1.45-.71-2.19s-.33-1.5-.46-2.27-.25-1.55-.32-2.33a17.21,17.21,0,0,1,.08-2.38,25.88,25.88,0,0,0,.24-2.72c.09-.89.13-1.77.14-2.65-.05-1.75,0-3.47,0-5.19a24.26,24.26,0,0,1,1.61-9.17,33.26,33.26,0,0,0,2-5c.55-1.67,1-3.35,1.47-5,.48-1.44.93-2.93,1.54-4.38a22.46,22.46,0,0,1,2.32-4.13c2.41-2.88,3.87-6.08,5.49-9.12a38.94,38.94,0,0,1,2.32-4,20.51,20.51,0,0,1,3-3.69,45.67,45.67,0,0,0,6.81-8.22,31.13,31.13,0,0,1,6.28-7,43.8,43.8,0,0,0,7.75-7.34,32.37,32.37,0,0,1,6.12-5.53l5.66-.85c7.78-1.18,15.84-2.35,24.2-2.34,7.41-.23,14.58-1.17,21.53-2l1.54-.2a56.76,56.76,0,0,0-5.44,6.63c-2.37,3.25-4.75,6.63-8,9.43a45.65,45.65,0,0,0-6.69,8.76,58.53,58.53,0,0,1-7.29,10,38.39,38.39,0,0,0-5.73,9.45c-1.68,3.7-3.23,7.48-5.33,11.32a15.57,15.57,0,0,0-1.49,5.61,10.93,10.93,0,0,0,1,5.76,8.37,8.37,0,0,0,2.06,2.56c.8.66,1.58,1.33,2.34,2a52.12,52.12,0,0,1,4.64,4.33,43.55,43.55,0,0,0,9.14,6.16c3.47,1.94,7.14,4,9.73,7.39,2.4,2.81,4.86,5.27,6.53,8.27l.9,1.76c.2.64.4,1.28.59,1.92.09.33.21.65.27,1l.1,1a6.34,6.34,0,0,1,0,1.28c-.43-.22-.8-.42-1.15-.63l-1.86-.94a22.14,22.14,0,0,0-11.1-1.55,54.73,54.73,0,0,0-12.25,3.08l.83,1.47a54,54,0,0,1,11.51-2.87A20.5,20.5,0,0,1,168.71,263l1.78.91c1,.45,2.38,1.15,3.64,1.75-.07-1.32-.18-2.8-.28-4.17l-.12-1.11c-.07-.37-.19-.72-.28-1.08-.21-.71-.42-1.42-.65-2.11l-1-1.94c-1.8-3.27-4.44-5.9-6.9-8.77-2.77-3.5-6.49-5.62-10-7.57a42.14,42.14,0,0,1-9-6.09,54.72,54.72,0,0,0-4.57-4.26c-.74-.68-1.5-1.33-2.27-2a6.55,6.55,0,0,1-1.69-2,9.3,9.3,0,0,1-.86-4.94,14.56,14.56,0,0,1,1.42-5.2c2-3.72,3.57-7.44,5.23-11.08a37,37,0,0,1,5.63-9.28,59.29,59.29,0,0,0,7.27-10,43.89,43.89,0,0,1,6.62-8.65,53.49,53.49,0,0,0,8-9.45,45.67,45.67,0,0,1,7-8,143.83,143.83,0,0,1,19.88-1.22,213.26,213.26,0,0,0,21.57-1.56,175.14,175.14,0,0,1,24.28-1.27l.93-1a158.77,158.77,0,0,0-1.87-17.74,110,110,0,0,1-1.53-20,150.53,150.53,0,0,0-1.36-17.8c-.2-1.74-.4-3.51-.58-5.29a57.93,57.93,0,0,0,7.56,1.47,22.36,22.36,0,0,1,9.19,3,49.06,49.06,0,0,0,8,3.15,21.69,21.69,0,0,1,8.48,4.6,55.62,55.62,0,0,0,7.1,4.79,19.23,19.23,0,0,1,7,6.57,26.55,26.55,0,0,0,2.59,3.45c.84,1.13,1.87,2.12,2.69,3.23a23.4,23.4,0,0,1,2.65,3.94,21.16,21.16,0,0,1,1,2.22,17.17,17.17,0,0,1,.53,2.43c.36,1.41.65,2.81,1.11,4.15s.83,2.68,1.26,4a18.19,18.19,0,0,1,.7,9.55c-.15,1.46-.41,2.88-.42,4.3,0,.72,0,1.43,0,2.13s-.07,1.4-.1,2.1a2.56,2.56,0,0,0,0,.53v1l0,.29c0,.08,0,.29-.05.17-.36-.39-.77-.84-1.43-1.61s-1.41-1.7-2.14-2.62a10.8,10.8,0,0,0-8.24-3.68c-.43,0-.86,0-1.28.06l-1.26.29-.62.14-.58.26-1.18.5-2.19,1.3a22.27,22.27,0,0,1-2.16,1.51l1.26,1.13c2.69-1.91,5-3.43,7.91-3.52a9.26,9.26,0,0,1,7.26,3.32c.68.85,1.33,1.68,2,2.46l.26.3.49.59.8,1c-1.38,1.37-2.58,2.89-3.88,4.27-1.67,1.78-3.95,3.48-6.65,3.33a30,30,0,0,1-6.44-.1,9.05,9.05,0,0,1-6.34-3.91l-1.14,1.25a10.47,10.47,0,0,0,7,4.28,30.14,30.14,0,0,0,7.3.12c3.05.05,5.53-1.8,7.33-3.69.85-.89,1.64-1.81,2.45-2.73-.2,1.06-.34,2.13-.51,3.18-.38,2.29-1,4.84-2.93,6.49-1.54,1.5-2.59,3.07-4.3,3.67a4.3,4.3,0,0,1-3.17-.23,5.93,5.93,0,0,1-2.59-2.45l-1.16,1.23a7.17,7.17,0,0,0,3,2.74,6,6,0,0,0,4.21.36,7.53,7.53,0,0,0,3-1.9c.83-.81,1.56-1.67,2.39-2.52,2.08-1.9,2.71-4.54,3.11-6.93.24-1.46.44-2.91.79-4.36.5.77,1.09,1.48,1.65,2.2,1,1.31,2.07,2.91,1.72,4.79-.1,1.58.31,2.89.29,4.29v.61l-.13.58a2.72,2.72,0,0,1-.45,1.13,3.11,3.11,0,0,1-2,1.43l1,1.38a4.4,4.4,0,0,0,2.45-1.9,3.83,3.83,0,0,0,.6-1.43,7.05,7.05,0,0,0,.18-.73l0-.75C304.07,172.37,303.62,170.82,303.69,169.1Zm-64.44-53.92a113.67,113.67,0,0,0,1.56,20.15,167,167,0,0,1,1.81,16.8,181.11,181.11,0,0,0-23.73,1.31A209.56,209.56,0,0,1,197.44,155a167.32,167.32,0,0,0-24.4,1.79c-6.93.84-14.09,1.79-21.41,2a162.34,162.34,0,0,0-24.35,2.37l-5.24.78-.7.1c-5,.74-10.17,1.42-15.41,1.7a159.17,159.17,0,0,0-24.26,3.2c-6.59,1.26-13.35,2.59-20.32,3.48A147.65,147.65,0,0,0,59.79,150a141.12,141.12,0,0,1-1.43-18.61,144.25,144.25,0,0,0-1.29-21.18,145.26,145.26,0,0,1-1.2-18.62,142.43,142.43,0,0,0-1-21.2,146.06,146.06,0,0,1-1-18.64,143.35,143.35,0,0,0-.77-21.21,144.23,144.23,0,0,1-.76-17.89A213.09,213.09,0,0,0,75.94,10a176.3,176.3,0,0,1,21.3-2.19,204.41,204.41,0,0,0,24.28-1.94,174.21,174.21,0,0,1,21.34-1.62c8.44.25,16.5-.55,24.32-1.22a169.09,169.09,0,0,1,21.39-.9c8.41.59,16.5.07,24.34-.21a161.21,161.21,0,0,1,20.6.12,122.48,122.48,0,0,0,.62,19.57,141.62,141.62,0,0,1,.81,17.74,119.45,119.45,0,0,0,.83,20.18,142.82,142.82,0,0,1,1,17.73,117.69,117.69,0,0,0,1.12,20.17A147.77,147.77,0,0,1,239.25,115.18Z"/>
    <path class="cls-1" d="M225.71,111.52a82.5,82.5,0,0,0-.89-16.1,84.33,84.33,0,0,1-.88-14.14,82.12,82.12,0,0,0-.7-16.11A84.65,84.65,0,0,1,222.51,51,81.74,81.74,0,0,0,222,34.9a86,86,0,0,1-.6-14.16l-.72-.73a68.57,68.57,0,0,0-15.29.43,83.61,83.61,0,0,1-13.42.7,67.52,67.52,0,0,0-15.28.76A93.51,93.51,0,0,1,163.75,23a4.57,4.57,0,0,0-2.45-2.42A4.23,4.23,0,0,1,159,18.36a4.45,4.45,0,0,0-2.32-2.78,4.19,4.19,0,0,1-2.07-2.38l-.57-.33a22.76,22.76,0,0,0-9,0,31.3,31.3,0,0,1-7.89.49,20.92,20.92,0,0,0-9,.82,54.84,54.84,0,0,1-7.82,1.72l-.42.29a4.81,4.81,0,0,0-1.93,3.38,5.19,5.19,0,0,1-1.53,3.06A4.83,4.83,0,0,0,114.62,26a6.18,6.18,0,0,1-1.12,2.62,52.65,52.65,0,0,0-13.4,1.08,70.8,70.8,0,0,1-11.88,1.41,49.64,49.64,0,0,0-13.51,1.78A90.93,90.93,0,0,1,62.93,35.2l-.61.71a75.41,75.41,0,0,0,.52,16.19,92.28,92.28,0,0,1,.78,14.21,77.53,77.53,0,0,0,.79,16.17,90.49,90.49,0,0,1,1,14.19,77.1,77.1,0,0,0,1,16.16A92.44,92.44,0,0,1,67.66,127a76.5,76.5,0,0,0,1.28,16.13,89.62,89.62,0,0,1,1.45,14.16l.83.7a168.31,168.31,0,0,0,20.61-3.13A126.6,126.6,0,0,1,110,152.32,149.77,149.77,0,0,0,130.74,150,132.74,132.74,0,0,1,149,148c7.25.11,14.13-.89,20.8-1.74a128.45,128.45,0,0,1,18.29-1.5,145.49,145.49,0,0,0,20.84-1.23,140.72,140.72,0,0,1,18.31-1l.74-.77a85.12,85.12,0,0,0-1.17-16.07A82.85,82.85,0,0,1,225.71,111.52Zm-17,30.33a140.65,140.65,0,0,1-20.75,1.21,132.39,132.39,0,0,0-18.42,1.53c-6.67.84-13.55,1.85-20.71,1.71a135.29,135.29,0,0,0-18.37,2c-6.65,1-13.5,2.2-20.65,2.31a130.22,130.22,0,0,0-18.31,2.58,173,173,0,0,1-19.45,3,96.63,96.63,0,0,0-1.43-13.32c-.78-5.15-1.6-10.49-1.26-16a94.07,94.07,0,0,0-1.23-14.25c-.71-5.17-1.44-10.51-1-16.06a93.54,93.54,0,0,0-1-14.27c-.63-5.17-1.27-10.53-.77-16.07a94.08,94.08,0,0,0-.8-14.28,77.89,77.89,0,0,1-.58-15.19,95.52,95.52,0,0,0,11.12-2.21,47.75,47.75,0,0,1,13.37-1.75,72.9,72.9,0,0,0,11.92-1.43,50.66,50.66,0,0,1,13.46-1.05l.79-.5a5.15,5.15,0,0,0,1.52-3.06c.3-1.24.61-2.54,1.93-3.33a5.19,5.19,0,0,0,1.51-3.06A5.37,5.37,0,0,1,121,17.45v0a51.06,51.06,0,0,0,7.55-1.65,19.92,19.92,0,0,1,8.8-.79,31,31,0,0,0,7.86-.51,23.42,23.42,0,0,1,8.19-.12,4.75,4.75,0,0,0,2.06,2.27c1,.7,2.07,1.37,2.34,2.82a4.54,4.54,0,0,0,2.34,2.27c1.07.61,2.17,1.19,2.56,2.62l.72.28a90.51,90.51,0,0,0,13.45-1.1A65.61,65.61,0,0,1,192,22.83a84.09,84.09,0,0,0,13.49-.72,71.27,71.27,0,0,1,14.15-.51,92.79,92.79,0,0,0,.64,13.45,79.62,79.62,0,0,1,.52,16,86.51,86.51,0,0,0,.75,14.24c.57,5.17,1.18,10.51.68,16a85.17,85.17,0,0,0,.9,14.24c.63,5.16,1.3,10.49.87,16a83.65,83.65,0,0,0,1.1,14.23,90,90,0,0,1,1.18,15A150.53,150.53,0,0,0,208.69,141.85Z"/>
    <path class="cls-1" d="M63.88,29.75a5.1,5.1,0,0,0,4.39,1.06,6.51,6.51,0,0,0,4.78-5.42h0A4.41,4.41,0,0,0,71.56,21a5.14,5.14,0,0,0-4.39-1.07,6.52,6.52,0,0,0-4.81,5.45A4.42,4.42,0,0,0,63.88,29.75Zm.17-4.36a6,6,0,0,1,1.15-2.34,4.22,4.22,0,0,1,2.17-1.44,3.48,3.48,0,0,1,3.11.68,2.85,2.85,0,0,1,.92,3.1h0a5.93,5.93,0,0,1-1.15,2.33,4.16,4.16,0,0,1-2.16,1.42A3.43,3.43,0,0,1,65,28.47,2.82,2.82,0,0,1,64.05,25.39Z"/>
    <path class="cls-1" d="M78.14,28.18a5.1,5.1,0,0,0,4.38,1.05,6.49,6.49,0,0,0,4.79-5.42h0a4.47,4.47,0,0,0-1.53-4.38,5.11,5.11,0,0,0-4.4-1.06,6.51,6.51,0,0,0-4.8,5.44A4.42,4.42,0,0,0,78.14,28.18Zm.17-4.37a6,6,0,0,1,1.15-2.34A4.12,4.12,0,0,1,81.62,20a3.43,3.43,0,0,1,3.11.67,2.84,2.84,0,0,1,.93,3.1h0a6.21,6.21,0,0,1-1.15,2.33,4.28,4.28,0,0,1-2.16,1.43,3.46,3.46,0,0,1-3.09-.67A2.84,2.84,0,0,1,78.31,23.81Z"/>
    <path class="cls-1" d="M92.4,26.6a5.07,5.07,0,0,0,4.38,1.06,6.53,6.53,0,0,0,4.79-5.42h0a4.44,4.44,0,0,0-1.54-4.38,5.1,5.1,0,0,0-4.39-1.07,6.54,6.54,0,0,0-4.81,5.45A4.43,4.43,0,0,0,92.4,26.6Zm.16-4.36a6.3,6.3,0,0,1,1.15-2.35,4.27,4.27,0,0,1,2.17-1.43,3.45,3.45,0,0,1,3.11.68,2.86,2.86,0,0,1,.93,3.1h0a5.93,5.93,0,0,1-1.15,2.33A4.13,4.13,0,0,1,96.58,26a3.45,3.45,0,0,1-3.1-.67A2.82,2.82,0,0,1,92.56,22.24Z"/>
    <path class="cls-1" d="M176.54,92.48c-5.59.85-10.75,2.35-15.86,3.63a61.82,61.82,0,0,1-14.19,2,124.47,124.47,0,0,0-16.29,1,62.43,62.43,0,0,1-14.34.12l-.08,1.68a64.29,64.29,0,0,0,14.56-.12c5.28-.5,10.67-1.19,16.32-1a63.82,63.82,0,0,0,14.4-2.1c4.48-1.11,9-2.38,13.8-3.25-1.44,2.37-2.87,4.77-4.49,7-2.23,3-5.22,5.85-9.11,7-3.32,1.18-6.36,2.69-9.62,3.57a21.8,21.8,0,0,1-11.59.65l-.11,1.68a23.29,23.29,0,0,0,12.1-.7c3.39-.91,6.59-2.47,10-3.72,4.11-1.32,7.25-4.31,9.6-7.45,2.11-2.83,3.84-5.85,5.77-9.05Z"/>
  </g>
</svg>
