<svg xmlns="http://www.w3.org/2000/svg" width="1107" height="539.9" viewBox="0 0 1106.96 539.94"><defs><style>.cls-1{isolation:isolate}.cls-2{fill:#f97412}.cls-3{fill:#fcb21d}.cls-4{fill:#fbfef9}.cls-21,.cls-4{opacity:.75}.cls-5{fill:#3a2e39}.cls-6{fill:#1e181e}.cls-7{fill:#6b566a}.cls-8{fill:#ff6c45}.cls-9{fill:#9b422a}.cls-10{fill:#cf5c36}.cls-11{fill:#7c5e48}.cls-12{fill:#4c321b}.cls-13{fill:#3a2312}.cls-14{fill:#444}.cls-15{fill:#222}.cls-16{fill:#b28b60}.cls-17{fill:#ccab81}.cls-18{fill:#f0dbbd}.cls-19{fill:#ccb293}.cls-20{fill:#666}.cls-21{mix-blend-mode:soft-light;fill:url(#radial-gradient)}.cls-22{fill:#f1f7ed;opacity:.25}</style><radialGradient id="radial-gradient" cx="797.6" cy="-156.7" r="725.9" gradientTransform="rotate(-6.1 499.4 280.6)" gradientUnits="userSpaceOnUse"><stop offset="0" stop-color="#fff"/><stop offset=".8" stop-color="#1d3461"/></radialGradient></defs><title>end-card</title><g class="cls-1"><g id="Vector"><path class="cls-2" d="M195.6 282.8l56.1-6.2c33.4-4.3 61-13 91.1-28.3 24.3-12.3 45-18 72.6-18 15.2 0 31.4.6 45.9-5 10.8-4 24.6-11 35.4-15.2 18.3-7 43.1-11.3 57.5 3.6 22.6 27.6-.7 38.8-27.5 44.8-22.3 5-39.9 5.3-62.2 1-21-4-33-2.5-52.5 7-34.8 17-60.4 11.3-117.1 12.3 0 0-58.5-.3-99.3 4z"/><path class="cls-3" d="M559.2 238.3c-56.7 35-90.2-1.8-140 18.1A203.6 203.6 0 0 1 334 274c-19-.2-46.2.5-65 3 62.5-8.4 102.7-41.7 154.9-41.4 27.4.2 50.4-9.5 75.2-19.7 18.8-7.8 39.4-8.9 56.9 3z"/><path class="cls-4" d="M556.6 231.2c-16.3 7.6-46.5 9.3-65.3 8.6s-57.6 2.2-57.6 2.2c18.3-2.3 36.6-5.7 66.6-15.5s54.8-4.7 54.8-4.7z"/><path class="cls-5" d="M571.4 225.5l-3.9-14.8s-3.6.4-13.3 3c0 0-5.6 16.5 5.7 30.6 7.1-1.8 6.5-11 5-18z"/><path class="cls-6" d="M565 226.2c1.4 7 2 16.3-5.1 18l.9 1.1a79.5 79.5 0 0 0 15.4-1.9l-4.8-18z"/><path class="cls-7" d="M685.6 187.5l.3-1.4a259 259 0 0 0-34.7 1.8 487.6 487.6 0 0 0-83.8 17.3 23.7 23.7 0 0 0-1.4 3c39.5-9.3 79.4-20 119.6-20.7z"/><path class="cls-6" d="M575.3 247.5l1.8 1.7s59.3-8.2 96.3-18.8c7.3-2 14-4.3 20-6.5a39 39 0 0 1-2.4-3.9c-8.3 3.6-16.6 7.3-25.6 9.3-30.6 7.8-60.9 7.9-90 18.2z"/><path class="cls-5" d="M685.6 187.5c-40.2.7-80 11.4-119.6 20.7a35.7 35.7 0 0 0 9.3 39.3c29.2-10.3 59.5-10.4 90.1-18.2 9-2 17.3-5.7 25.6-9.3a53.1 53.1 0 0 1-5.4-32.5z"/><path class="cls-8" d="M685.9 186l-.2 1.5a215.6 215.6 0 0 1 27.7 1.3A171.2 171.2 0 0 0 686 186z"/><path class="cls-9" d="M691 220a39 39 0 0 0 2.5 3.9 202.7 202.7 0 0 0 29.3-13.5A96.7 96.7 0 0 0 691 220z"/><path class="cls-10" d="M713.4 188.8a215.6 215.6 0 0 0-27.7-1.3c-1.6 11 0 22.9 5.3 32.5a95 95 0 0 1 31.8-9.6 107.8 107.8 0 0 0 19.4-13.6 171.6 171.6 0 0 0-28.8-8z"/><path d="M320.3 347s8.4-9 18.8-29.8c0 0 8 22.4-18.8 29.7z"/><path class="cls-11" d="M311 310s-16.1 27.4-55.3 41.2a23.1 23.1 0 0 0 1.4 7 166.2 166.2 0 0 0 61-44c-4.3-2.3-7.1-4.1-7.1-4.1z"/><path class="cls-12" d="M335 322a121.5 121.5 0 0 1-17-7.8 166.9 166.9 0 0 1-61 44 11.6 11.6 0 0 0 7.7 7.3c21.7.8 38.6-20 60.3-24.4a29.9 29.9 0 0 0 10-19z"/><path class="cls-13" d="M335 322c-.7 7.5-4.5 14-10 19-21.7 4.5-38.6 25.3-60.3 24.5a31 31 0 0 0 16.6-.9c14.8-3.9 25.7-19.2 41-21.3a25.6 25.6 0 0 1 6.9 0l17-18.5a47.4 47.4 0 0 1-11.2-2.7z"/><path class="cls-14" d="M419.8 310c38.6-4.2 74.2-19.9 112.3-25a79.7 79.7 0 0 1 33.3-31.8c-14.6 5.5-29 13.7-35.7 27.3-62.1 11.8-122.2 34.4-185.9 36.5 25.2 2.6 50.5-3.2 76-7z"/><path d="M610.5 308.4l-9.7 2-1.1.2-23-23.2 2.6-38.6a420.9 420.9 0 0 1 12.1-3.1l22 36.4z"/><path class="cls-15" d="M589 287.4l-1.9-5a128 128 0 0 1-7.8-33.6l-.6.2c-4.3 1.2-8.8 2.6-13.3 4.2a80.2 80.2 0 0 0-33.3 31.8c-38.1 5.1-73.7 20.8-112.3 25-25.5 3.8-50.8 9.6-76 7l-4.7.2c-1.8 23.6-18.8 29.8-18.8 29.8 20-1 39.3-6.6 59-10 24.6-4.1 49.6-6.8 74.4-9.5 37.1-4 74.5-5.9 111.4-11l9.8-1.4c8.3-1.3 16.6-2.8 24.8-4.5a306 306 0 0 1-10.7-23.2z"/><path d="M624.1 305.6c35.1-7 70.8-14 104.1-26.6 15.2-5.8 32.1-12.5 39.6-28.1a29 29 0 0 0-10.2-35.7c-24.1-16.4-61.8 7-85.6 14-16.5 4.9-33.4 7.7-50.3 10.6l-15.2 14.4 9.9 50.6z"/><path class="cls-11" d="M621.7 239.8a544 544 0 0 0-30.2 5.9v3c10-1.3 19.3-4.2 29.1-5.5l1-3.4z"/><path class="cls-12" d="M591.5 248.8c.4 20.1 8 38.8 17.5 56.6a50.3 50.3 0 0 0 14.2-2.3 96.9 96.9 0 0 1-2.5-60c-9.9 1.4-19.2 4.3-29.2 5.7z"/><path class="cls-13" d="M609 305.4l1.6 3 13.5-2.8-.9-2.5a50.3 50.3 0 0 1-14.2 2.3z"/><path class="cls-15" d="M691.5 252.4h-.1s5.2 4.5 18.7 8.2a65.5 65.5 0 0 0 24.4 2.2c-9.8-11.4-27-14.1-43-10.4z"/><path class="cls-16" d="M832.2 226l.4-.4c-15-9.6-36.5-10.3-50.5 1.2a55.3 55.3 0 0 1 50-.8z"/><path class="cls-17" d="M832.2 226a55.3 55.3 0 0 0-50.1.8 32.2 32.2 0 0 0-2.6 2.3 27 27 0 0 0 21 13.2 59.2 59.2 0 0 0 28.7-4 23 23 0 0 0-5.5-3c1.7-3 6.8-7.7 8.5-9.3z"/><path class="cls-16" d="M817.7 151.7c11.3.5 20.7 8.3 27.3 17.7a39.7 39.7 0 0 0-28.4-20.6c-7.9-1.2-18.6.9-27 7.6a47.6 47.6 0 0 1 28.1-4.7z"/><path class="cls-17" d="M847.9 178a33.5 33.5 0 0 0-2.9-8.6c-6.6-9.4-16-17.1-27.3-17.6-10-1-20 0-28.2 4.6a34.3 34.3 0 0 0-8.9 10.5c-8.2 15-4.6 23.6-8 36a22.6 22.6 0 0 1-2.5 5.5 39.8 39.8 0 0 0 43.2-39 60 60 0 0 0 7 4.8 59 59 0 0 0 28 6.5c0-1-.2-1.8-.4-2.7z"/><path class="cls-17" d="M848.4 180.7a59 59 0 0 1-28-6.5c8.5 5 18.6 8.1 28.2 7.7l-.2-1.3z"/><path class="cls-18" d="M848.6 181.9a54.1 54.1 0 0 1-35.3-12.6 39.8 39.8 0 0 1-43.2 39 23.7 23.7 0 0 1-12.6 10s.3 12.8 9.3 21a29.1 29.1 0 0 1 12.8-10.2c13.9-13.8 37-13.7 53-3.5l.1-.1c9.9 4 14-3.9 14-3.9a18.8 18.8 0 0 1-3.3-10 8 8 0 0 1-3-1 9.5 9.5 0 0 1-1.3 1.3 9.5 9.5 0 0 0 1.2-1.2h-.2.2c1.3-1.6 1.4-2.7 3.3-2.5a15 15 0 0 1 1.5-4.9c2.3-4.2 5.7-6.8 3.5-21.4z"/><path class="cls-19" d="M841.9 208.7a12.3 12.3 0 0 0 .4-1.2v-.7c-3-.7-3-6-2.4-8.4a11.9 11.9 0 0 0-4.4-3.4 17 17 0 0 0-9.2-.7 11.2 11.2 0 1 0 14.4 16.5 8.2 8.2 0 0 0 2.8.7 19.8 19.8 0 0 1 .2-3.3 1.9 1.9 0 0 0-1.8.5z"/><path class="cls-14" d="M843.4 205.7a2 2 0 0 1-1.3-.5l-4.1.8 2.5 3.2s.7 1.2 3 1.2a5.2 5.2 0 0 0 .3-.7 4.3 4.3 0 0 0-.4-4z"/><path class="cls-20" d="M844.3 205.6a3.3 3.3 0 0 1-.9 0 4.3 4.3 0 0 1 .4 4 6.5 6.5 0 0 0 .5-4zm-68.3-27l-.3 1.4c5 2.2 10 4.2 15 4.5zm28.5 11.4a31.5 31.5 0 0 0 15.2 6z"/><path class="cls-14" d="M819.7 196a31.5 31.5 0 0 1-15.2-6l-13.8-5.5c-5-.3-10-2.3-15-4.5-.3 1.5-.6 2.9-.7 4.3l44.9 17.3 2.7-1.5-1-3.2z"/><path class="cls-15" d="M835 193.8a17 17 0 0 0-9.2-.7 11.2 11.2 0 1 0 16 13.3c0-5.1-1.2-9.9-6.8-12.6z"/><path class="cls-14" d="M829.9 191.9a11.3 11.3 0 0 0-4.2 1.2 17 17 0 0 1 9.2.7c5.7 2.7 6.9 7.5 6.9 12.6a11.2 11.2 0 0 0-12-14.5z"/><path class="cls-16" d="M821.5 234.7a95 95 0 0 0-35.1-6.4 178.6 178.6 0 0 1 35 6.4z"/><path class="cls-19" d="M726.1 254.8l-5.2-7.5-13.1 3-2.2 2.1a37.8 37.8 0 0 1 17 5.5l3.5-3zm-34.9 46.7a14.3 14.3 0 0 0 8 3 7.7 7.7 0 0 0 5.8-1.9 20.4 20.4 0 0 1-13.8-1.1zM672.7 332s3.9 2.3 7.7.2l.1-4.8c-1.6 3-4.7 5.6-7.8 4.6zm-25.3-3.1l-.1.2c2.3 2.8 6.6 2 6.6 2 .2-1 .5-1.9.9-2.8a7.7 7.7 0 0 1-7.4.6zm-5.7-11.7c1.7 3.1 5.6 3.1 5.6 3.1l1.3-2.1a12.4 12.4 0 0 1-6.9-1zm23.4 20.4l.5-2c-2 1.2-4.6 1.4-7.2 1.5a8.2 8.2 0 0 0 6.8.5z"/><path class="cls-18" d="M692.9 288.3l.1-.2a108 108 0 0 1 4.4-5.6c7.8-9.1 19.3-19.5 25.1-24.6a37.8 37.8 0 0 0-16.9-5.5c-4.1 4.2-13.8 14-23.8 25.4L676 284l-.5.5c-5.8 6-13.5 9.8-19.7 15.5a97 97 0 0 0-14.4 16.8 4.3 4.3 0 0 0 .2.4 12.4 12.4 0 0 0 6.9 1 82.4 82.4 0 0 1 15.9-17.8c-5 5-9 11.5-12 17a107.5 107.5 0 0 0-5.1 11.5 7.7 7.7 0 0 0 7.4-.6A67.1 67.1 0 0 1 671 303a108.6 108.6 0 0 0-13.5 33.6 8.2 8.2 0 0 0 .8.5c2.6 0 5.2-.3 7.2-1.5l.1-.3c6.4-24.5 14-32 14-32a77.6 77.6 0 0 0-7 28.7c3 1 6.2-1.6 7.8-4.7a66.7 66.7 0 0 1 8.3-28 14.6 14.6 0 0 0 2.4 2.2 20.4 20.4 0 0 0 13.8 1.2 7 7 0 0 0 2-3.1c-15.6-3-16.2-8.1-14.1-11.3z"/><path class="cls-14" d="M691.5 252.4l3.7-.7c7.4-6.9 14.3-14.1 22.2-20.2a198 198 0 0 0-26 20.9z"/><path d="M751.7 231.6a9.5 9.5 0 0 0-4.3-6.4 29 29 0 0 0-11.4-1.3l-13.6 4.4-5 3.2c-7.8 6-14.8 13.3-22.2 20.1 13.8-2.2 28 .3 37.3 9 12.1-4.2 22.8-16.7 19.2-29z"/><path class="cls-14" d="M756.2 235c-.8-5.4-4.6-8.3-8.8-9.8a9.5 9.5 0 0 1 4.3 6.4c3.6 12.3-7 24.8-19.2 29a26.5 26.5 0 0 1 2 2.2c5.2-4 23-18.7 21.7-27.8z"/><path class="cls-19" d="M789 187c-4.3 6.8 2.2 21.9 9.4 19.7-8-.8-12.1-11.8-9.3-19.8z"/><path class="cls-18" d="M804.2 197.5c.4-6.2-5.5-16.5-12.4-13a6.7 6.7 0 0 0-2.7 2.5c-2.8 8 1.2 18.9 9.3 19.8a5.7 5.7 0 0 0 .7-.3z"/><path class="cls-12" d="M760 230.6a34 34 0 0 0-5.8-10.4 38.3 38.3 0 0 0-25.3-10 85.4 85.4 0 0 0-8.9 1.8c.6-.1 21.4-3 33.6 10.5 9 9.9 8.4 29 4.6 40.9a43.2 43.2 0 0 0 3.7-3.7c3.1-14.9-1.9-29-1.9-29z"/><path class="cls-11" d="M754.3 220.2a29 29 0 0 0-22.6-10.4l-2.8.4a39 39 0 0 1 25.4 10z"/><path class="cls-21" d="M848.6 181.9a62.6 62.6 0 0 0-.7-4 33.5 33.5 0 0 0-2.9-8.5 39.7 39.7 0 0 0-28.4-20.6c-7.9-1.2-18.6.9-27 7.6a34.3 34.3 0 0 0-9 10.5 46.5 46.5 0 0 0-4.6 11.7v.1l-.3 1.3a43 43 0 0 0-.4 2.1c0 .8-.2 1.5-.3 2.1-.7 6.2-.5 11.8-2.4 18.6a22.6 22.6 0 0 1-2.4 5.5 23.5 23.5 0 0 1-10 8.9 29 29 0 0 0-2.5-2c-10.7-7.3-24.1-6.8-37.7-3.3l2.8-1.6a107.8 107.8 0 0 0 19.5-13.5 164 164 0 0 0-56.4-10.8 259 259 0 0 0-34.7 1.8 487.6 487.6 0 0 0-83.8 17.3 23.7 23.7 0 0 0-1.3 3 44 44 0 0 0-1 2.9c-2.1.4-5.6 1.1-11 2.6-14.3-15-39-10.7-57.4-3.6-10.7 4.1-24.6 11.2-35.4 15.3-14.5 5.4-30.7 5-45.9 5-27.6 0-48.3 5.6-72.5 18a268.9 268.9 0 0 1-91.2 28.2l-56 6.2c40.7-4.3 99.2-4 99.2-4 56.7-1 82.3 4.8 117.1-12.3a70.9 70.9 0 0 1 52.6-7 140 140 0 0 0 62.1-1c13.8-3 26.6-7.5 32.8-14.9l.4.6.9 1.1a79.9 79.9 0 0 0 11.5-1 50.1 50.1 0 0 0 4.8 5l1.2-.2c-4.2 1.1-8.5 2.5-12.8 4.1-14.7 5.4-29 13.6-35.8 27.2-62.1 12-122.2 34.6-185.9 36.7l-4.7.1-2.8 5.4-1.3-.5a121.5 121.5 0 0 1-16.9-7.8c-4.3-2.4-7.1-4.2-7.1-4.2s-16.2 27.3-55.3 41.2a23.1 23.1 0 0 0 1.4 7 11.6 11.6 0 0 0 7.6 7.3c4.5 1.4 10.3.7 16.6-1 14.8-3.8 25.7-19.2 41-21.2l1-.1-3 3.7c20-1 39.4-6.6 59-10 24.7-4 49.6-6.8 74.5-9.5 37-4 74.4-5.8 111.4-11l9.8-1.4c8.2-1.3 16.5-2.7 24.7-4.5l1.2-.2 9.7-2 13.6-2.7 33-6.9-1.3 1.2a97 97 0 0 0-14.4 16.8 4.3 4.3 0 0 0 .2.4c1.8 3.1 5.6 3.2 5.6 3.2l1.3-2.2a82.4 82.4 0 0 1 16-17.8c-5 5-9 11.5-12 17a107.5 107.5 0 0 0-5.2 11.5v.2c2.2 2.8 6.5 2 6.5 2l.9-2.8a67.1 67.1 0 0 1 16.3-25.2 108.6 108.6 0 0 0-13.5 33.6 8.2 8.2 0 0 0 .8.5 8.2 8.2 0 0 0 6.8.5l.4-2 .1-.4c6.4-24.5 14-32 14-32-6.3 11.8-7 28.6-7 28.7s3.8 2.3 7.6.2c0-1.6 0-3.2.2-4.8a66.7 66.7 0 0 1 8.3-28 14.6 14.6 0 0 0 2.4 2.1 14.3 14.3 0 0 0 8 3 7.7 7.7 0 0 0 5.8-1.8 7 7 0 0 0 2-3.1c-12.4-2.4-15.4-6.1-15-9a388 388 0 0 0 36.1-11.6c10.4-4 21.5-8.3 30-15.6l1.1-1 .9-.9 1.5-1.5.2-.2a36.7 36.7 0 0 0 6-8.9 27 27 0 0 0 2.2-15.4 29 29 0 0 1 9.5-6.3 27 27 0 0 0 21 13.1 59.2 59.2 0 0 0 28.6-3.9 23 23 0 0 0-5.5-3c1.8-3 6.9-7.7 8.6-9.3l.4-.4.2-.2c9.8 4 14-3.8 14-3.8a18.8 18.8 0 0 1-3.4-10.1v-1.2a4.5 4.5 0 0 0 .4-.6 6.5 6.5 0 0 0 .4-4.1 12.9 12.9 0 0 1 1-2.3c2.2-4.2 5.6-6.8 3.4-21.4z"/><path class="cls-22" d="M65.2 521.6l229.3-33.8c-30.3-38.2-84.7-43-122.7-19.8a995 995 0 0 1-106.6 53.6zM747.4 86.8l336-49.6c-23.6-23.2-56.7-6.9-84.2-5.3C960.4 34 937 2.8 899.7.2c-30-2-43.2 11.8-60.4 31.2-26.4 30-51.9 43.7-92 55.4zM627 540l287.4-42.5s-26.9-38-83.1-29.8-64 42.6-204.3 72.2zM183.5 103.1l195.9-28.9s-10-13.7-45.5-3.7c-31 8.7-42.3-27-77.4-15.7-30.8 10-3.8 28.2-73 48.3zM925 298.4l182-26.9c-45.8-55-132.5 14-182 26.9zM0 288l115.4-17s-19.2-37.3-63-18C28.8 263.3 0 288 0 288z"/></g></g></svg>