<svg id="Layer_1" data-name="Layer 1" xmlns="http://www.w3.org/2000/svg" width="8.8in" height="1.9in" viewBox="0 0 633.6 136.8"><defs><style>.cls-1{fill:#fbfef9}.cls-2{opacity:.75}.cls-3{fill:none;stroke:#fbfef9;stroke-linecap:round;stroke-linejoin:round;stroke-width:2px}</style></defs><title>font-loading</title><path class="cls-1" d="M9 14.8V6.3h1.7a2.5 2.5 0 0 1 1 .1 1.9 1.9 0 0 1 .7.5 1.8 1.8 0 0 1 .4.7 3.1 3.1 0 0 1 0 .8v.3a3.3 3.3 0 0 1 0 .6 1.6 1.6 0 0 1-.1.4 1.8 1.8 0 0 1-.7.6 1.3 1.3 0 0 1 .7.6 2.5 2.5 0 0 1 .2 1.1v.5a2.5 2.5 0 0 1-.6 1.7 2.3 2.3 0 0 1-1.7.6zm1-7.4v2.4h.6a1 1 0 0 0 .8-.3 1.6 1.6 0 0 0 .2-1 1.4 1.4 0 0 0-.2-.8 1 1 0 0 0-.8-.3zm0 3.5v2.7h.6a1.4 1.4 0 0 0 .6-.1.7.7 0 0 0 .3-.3 1 1 0 0 0 .1-.5v-.5a3 3 0 0 0 0-.6 1 1 0 0 0-.1-.4.7.7 0 0 0-.3-.3 1.6 1.6 0 0 0-.6 0zm4 3.9V6.3h2c1.4 0 2.2.8 2.2 2.5a3.3 3.3 0 0 1-.3 1.3 1.8 1.8 0 0 1-.8.8l1.3 4h-1.3L16 11.1h-.7v3.6zm1.2-7.4v2.7h.8a1.3 1.3 0 0 0 .5-.1.7.7 0 0 0 .3-.3 1.2 1.2 0 0 0 .1-.4 3.2 3.2 0 0 0 0-.6 3.3 3.3 0 0 0 0-.5 1.1 1.1 0 0 0 0-.4 1 1 0 0 0-1-.4zm3.8.9a2.2 2.2 0 0 1 .3-1 2 2 0 0 1 .4-.6 2.3 2.3 0 0 1 .7-.4 2.1 2.1 0 0 1 1.5 0 2.3 2.3 0 0 1 .6.4 2.1 2.1 0 0 1 .5.7 2.2 2.2 0 0 1 .2.9v4.5a2.1 2.1 0 0 1-.2 1 2 2 0 0 1-.5.6 2 2 0 0 1-.6.4 2 2 0 0 1-1.5 0 2 2 0 0 1-.7-.4 1.8 1.8 0 0 1-.4-.7 2.1 2.1 0 0 1-.2-.9zm1.3 4.5a.8.8 0 0 0 .2.7 1 1 0 0 0 1.2 0 .8.8 0 0 0 .3-.7V8.3a.8.8 0 0 0-.2-.7 1 1 0 0 0-1.2 0 .8.8 0 0 0-.2.7zm10.2-6.5l-1.3 8.5H28l-.9-5.5-1 5.5H25l-1.3-8.5H25l.6 5.4 1-5.4h1l1 5.5.5-5.5zm4.7 2.4H34v-.3a1.3 1.3 0 0 0-.2-.7.9.9 0 0 0-1-.2.8.8 0 0 0-.3.3 1 1 0 0 0-.2.3 2.7 2.7 0 0 0 0 .4V9a.8.8 0 0 0 .1.3.7.7 0 0 0 .2.3 1.9 1.9 0 0 0 .4.2l1 .3a2.3 2.3 0 0 1 .6.4 1.7 1.7 0 0 1 .4.5 2.1 2.1 0 0 1 .2.6 7 7 0 0 1 0 .9 4.5 4.5 0 0 1-.1 1 2.1 2.1 0 0 1-.4.8 1.6 1.6 0 0 1-.6.5 2.4 2.4 0 0 1-1.9 0 1.9 1.9 0 0 1-.6-.4 2.4 2.4 0 0 1-.5-.7 2 2 0 0 1-.1-.8v-.4h1.2v.4a1 1 0 0 0 .2.6.8.8 0 0 0 .7.3 1 1 0 0 0 .5-.1.6.6 0 0 0 .2-.3.8.8 0 0 0 .2-.4v-.5a4.1 4.1 0 0 0 0-.6 1 1 0 0 0-.1-.3.7.7 0 0 0-.3-.2l-.3-.2-1-.4a2 2 0 0 1-1-.8 3 3 0 0 1-.2-1.4 3 3 0 0 1 0-.9 2 2 0 0 1 .5-.7 1.9 1.9 0 0 1 .6-.5 2.2 2.2 0 0 1 1-.2 1.9 1.9 0 0 1 .8.2 2.2 2.2 0 0 1 .6.4 1.8 1.8 0 0 1 .6 1.3zm.9 6.1V6.3h3.6v1.1h-2.4V10h2.1v1.2h-2v2.5h2.3v1.2zm4.4 0V6.3h2c1.5 0 2.2.8 2.2 2.5a3.3 3.3 0 0 1-.2 1.3 1.8 1.8 0 0 1-.9.8l1.4 4h-1.4l-1.1-3.7h-.7v3.6zm1.3-7.4v2.7h.7a1.3 1.3 0 0 0 .5-.1.7.7 0 0 0 .3-.3 1.2 1.2 0 0 0 .1-.4 4.5 4.5 0 0 0 0-.6 4.8 4.8 0 0 0 0-.5 1.1 1.1 0 0 0-.1-.4 1 1 0 0 0-.9-.4zm6.1 7.4V6.3h2c1.4 0 2.2.8 2.2 2.5a3 3 0 0 1-.3 1.3 1.8 1.8 0 0 1-.8.8l1.3 4H51l-1.1-3.7H49v3.6zM49 7.4v2.7h.7a1.2 1.2 0 0 0 .5-.1.7.7 0 0 0 .3-.3 1 1 0 0 0 .1-.4 3.2 3.2 0 0 0 0-.6 3.3 3.3 0 0 0 0-.5 1.1 1.1 0 0 0 0-.4 1 1 0 0 0-1-.4zm4 7.4V6.3h3.6v1.1h-2.4V10h2.1v1.2h-2v2.5h2.4v1.2zm4.4-6.5a2.2 2.2 0 0 1 .1-1 2 2 0 0 1 .5-.6 2.2 2.2 0 0 1 .7-.4 2.1 2.1 0 0 1 .7-.1 2.1 2.1 0 0 1 .7.1 2.4 2.4 0 0 1 .7.4 2.1 2.1 0 0 1 .5.7 2.2 2.2 0 0 1 .1.9v4.5a2 2 0 0 1-.1.9l.7.6-.6.7-.7-.6a2 2 0 0 1-1.3.5 2.1 2.1 0 0 1-.8-.2 1.9 1.9 0 0 1-.6-.3 1.8 1.8 0 0 1-.5-.7 2.1 2.1 0 0 1-.2-.9zm1.2 4.5a.8.8 0 0 0 .2.6.8.8 0 0 0 .6.3.5.5 0 0 0 .3 0l-.6-.5.6-.8.5.4V8.3a.8.8 0 0 0-.2-.7.9.9 0 0 0-.6-.2.8.8 0 0 0-.6.2.8.8 0 0 0-.2.7zm7.9-6.5v6.6a2 2 0 0 1-.6 1.4 2 2 0 0 1-.6.4 2 2 0 0 1-.8.2 2 2 0 0 1-.7-.2 2 2 0 0 1-.7-.4 2 2 0 0 1-.4-.6 1.9 1.9 0 0 1-.1-.8V6.3h1.2v6.5a1 1 0 0 0 .2.6.8.8 0 0 0 1 0 1 1 0 0 0 .3-.6V6.3zm1.2 8.5V6.3h3.6v1.1H69V10h2v1.2h-2.1v2.5h2.4v1.2zM76 8.7h-1.2v-.3a1.3 1.3 0 0 0-.2-.7.7.7 0 0 0-.6-.3.7.7 0 0 0-.4.1.8.8 0 0 0-.3.3 1.2 1.2 0 0 0 0 .3 2.8 2.8 0 0 0 0 .4V9a1.3 1.3 0 0 0 0 .3.7.7 0 0 0 .2.3 2.2 2.2 0 0 0 .4.2l1 .3a2.3 2.3 0 0 1 .6.4 1.5 1.5 0 0 1 .4.5 2.1 2.1 0 0 1 .2.6 5.4 5.4 0 0 1 0 .9 4 4 0 0 1-.2 1 2.1 2.1 0 0 1-.3.8 1.7 1.7 0 0 1-.7.5 2.4 2.4 0 0 1-1 .2 2.3 2.3 0 0 1-.8-.2 2 2 0 0 1-.6-.4 2.4 2.4 0 0 1-.5-.6 2.1 2.1 0 0 1-.1-.8v-.5H73v.4a1 1 0 0 0 .2.6.8.8 0 0 0 .7.3 1.1 1.1 0 0 0 .4-.1.7.7 0 0 0 .3-.3 1 1 0 0 0 .1-.4v-.5a4.1 4.1 0 0 0 0-.6.8.8 0 0 0 0-.3.8.8 0 0 0-.3-.2l-.4-.2-.8-.4a2 2 0 0 1-1.1-.8 3 3 0 0 1-.3-1.4 3.3 3.3 0 0 1 .2-.9 2 2 0 0 1 .4-.7 1.9 1.9 0 0 1 .6-.5 2.2 2.2 0 0 1 .9-.2 2 2 0 0 1 .8.2 2.1 2.1 0 0 1 .7.4 1.8 1.8 0 0 1 .5 1.3zm1.8 6.1V7.4h-1.4V6.3h4v1.1H79v7.4zM85 8.7h-1.3v-.3a1.3 1.3 0 0 0-.2-.7.9.9 0 0 0-1-.2.7.7 0 0 0-.3.3.8.8 0 0 0-.2.3 1.9 1.9 0 0 0 0 .4V9a.8.8 0 0 0 .1.3.7.7 0 0 0 .2.3 1.9 1.9 0 0 0 .4.2l1 .3a2 2 0 0 1 .6.4 1.7 1.7 0 0 1 .4.5 2.1 2.1 0 0 1 .2.6 7 7 0 0 1 0 .9 4.5 4.5 0 0 1-.1 1 2.1 2.1 0 0 1-.4.8 1.7 1.7 0 0 1-.6.5 2.3 2.3 0 0 1-1 .2 2.2 2.2 0 0 1-.9-.2 1.9 1.9 0 0 1-.6-.4 2.1 2.1 0 0 1-.5-.6 2 2 0 0 1-.1-.8v-.5h1.2v.4a1 1 0 0 0 .2.6.8.8 0 0 0 .7.3 1 1 0 0 0 .5-.1.6.6 0 0 0 .2-.3 1 1 0 0 0 .1-.4v-.5a4.4 4.4 0 0 0 0-.6 1 1 0 0 0 0-.3.7.7 0 0 0-.3-.2L83 11l-.9-.4a2 2 0 0 1-1-.8 3 3 0 0 1-.3-1.4 3 3 0 0 1 .1-.9 2 2 0 0 1 .4-.7 1.8 1.8 0 0 1 .7-.5 2.2 2.2 0 0 1 .9-.2 1.9 1.9 0 0 1 .8.2 2.3 2.3 0 0 1 .7.4 1.9 1.9 0 0 1 .5 1.3zM27 29.2v-8.5h2a2 2 0 0 1 1.6.6 2.3 2.3 0 0 1 .5 1.6v4a2.4 2.4 0 0 1-.6 1.8 2.3 2.3 0 0 1-1.6.5zm1.3-7.4v6.3h.5a.9.9 0 0 0 .8-.3 1.2 1.2 0 0 0 .2-.8v-4.1a1.3 1.3 0 0 0-.2-.8.9.9 0 0 0-.8-.3zm3.7.9a2.2 2.2 0 0 1 .3-1 2 2 0 0 1 .5-.6 2.3 2.3 0 0 1 .6-.4 2.1 2.1 0 0 1 1.5 0 2.3 2.3 0 0 1 .6.4 2.1 2.1 0 0 1 .5.7 2.2 2.2 0 0 1 .2.9v4.5a2.1 2.1 0 0 1-.2 1 2 2 0 0 1-.5.6 2 2 0 0 1-.6.4 2 2 0 0 1-1.5 0 2 2 0 0 1-.7-.4 1.8 1.8 0 0 1-.4-.7 2.1 2.1 0 0 1-.2-.9zm1.3 4.5a.8.8 0 0 0 .3.7 1 1 0 0 0 1.1 0 .8.8 0 0 0 .3-.7v-4.5a.8.8 0 0 0-.2-.7 1 1 0 0 0-1.2 0 .8.8 0 0 0-.3.7zm7.9-.4v.5a2 2 0 0 1-.2.8 2.2 2.2 0 0 1-.4.6 1.8 1.8 0 0 1-.6.4 1.8 1.8 0 0 1-.8.2 3 3 0 0 1-.7-.1 1.6 1.6 0 0 1-.6-.3 1.8 1.8 0 0 1-.5-.7 2.3 2.3 0 0 1-.2-1v-4.7a2 2 0 0 1 .2-.7 2 2 0 0 1 .4-.7 1.9 1.9 0 0 1 .6-.4 2 2 0 0 1 .8-.1 1.9 1.9 0 0 1 1.4.5 2 2 0 0 1 .4.7 2.2 2.2 0 0 1 .2.8v.5h-1.3v-.4a1 1 0 0 0-.2-.6.7.7 0 0 0-.5-.3.6.6 0 0 0-.6.3 1.5 1.5 0 0 0-.2.7v4.4a1.1 1.1 0 0 0 .2.6.6.6 0 0 0 .6.2.8.8 0 0 0 .2 0 .7.7 0 0 0 .3-.1.8.8 0 0 0 .2-.3 1 1 0 0 0 0-.4v-.4zm4.9-6.1v6.6a2 2 0 0 1-.1.8 2.2 2.2 0 0 1-.5.6 2.1 2.1 0 0 1-.6.4 2 2 0 0 1-.8.2 2 2 0 0 1-1.4-.6 2.2 2.2 0 0 1-.4-.6 1.9 1.9 0 0 1-.1-.8v-6.6h1.2v6.5a1 1 0 0 0 .2.7.8.8 0 0 0 .5.2.7.7 0 0 0 .6-.2 1 1 0 0 0 .2-.7v-6.5zm1.2 8.5v-8.5h1.2l1.5 4.5 1.6-4.5h1.1v8.5h-1.1V24l-1.3 3.7h-.6L48.5 24v5.2zm6.7 0v-8.5h3.6v1.1h-2.4v2.5h2v1.2h-2V28h2.4v1.2zm4.3 0v-8.5h1.2l1.9 5.1v-5.1h1.2v8.5h-1.1l-2-5.1v5.1zm6.2 0v-7.4h-1.4v-1.1h4v1.1h-1.4v7.4zm57.1-14.4V6.3h1.8a2.5 2.5 0 0 1 1 .1 1.8 1.8 0 0 1 1 1.2 2.7 2.7 0 0 1 .1.8v.3a2.5 2.5 0 0 1 0 .6 1.6 1.6 0 0 1-.2.4 1.8 1.8 0 0 1-.6.6 1.3 1.3 0 0 1 .6.6 2.3 2.3 0 0 1 .2 1.1v.5a2.5 2.5 0 0 1-.5 1.7 2.3 2.3 0 0 1-1.7.6zm1.2-7.4v2.4h.6a1 1 0 0 0 .8-.3 1.6 1.6 0 0 0 .2-1 1.4 1.4 0 0 0-.2-.8 1 1 0 0 0-.9-.3zm0 3.5v2.7h.5a1.3 1.3 0 0 0 .6-.1.8.8 0 0 0 .3-.3 1.3 1.3 0 0 0 .2-.5v-.5a4.5 4.5 0 0 0 0-.6 1.2 1.2 0 0 0-.2-.4.7.7 0 0 0-.3-.3 1.6 1.6 0 0 0-.5 0zm3.9 3.9V6.3h2c1.4 0 2.2.8 2.2 2.5a3 3 0 0 1-.3 1.3 1.8 1.8 0 0 1-.8.8l1.3 4h-1.3l-1.1-3.7h-.7v3.6zm1.2-7.4v2.7h.7a1.2 1.2 0 0 0 .5-.1.7.7 0 0 0 .3-.3 1 1 0 0 0 .2-.4 3.2 3.2 0 0 0 0-.6 3.3 3.3 0 0 0 0-.5 1.1 1.1 0 0 0-.2-.4 1 1 0 0 0-.8-.4zm3.8.9a2.2 2.2 0 0 1 .2-1 2 2 0 0 1 .5-.6 2.2 2.2 0 0 1 .7-.4 2.1 2.1 0 0 1 .7-.1 2.1 2.1 0 0 1 .7.1 2.4 2.4 0 0 1 .7.4 2.1 2.1 0 0 1 .5.7 2.2 2.2 0 0 1 .1.9v4.5a2.1 2.1 0 0 1-.1 1 2 2 0 0 1-.5.6 2 2 0 0 1-.7.4 2.1 2.1 0 0 1-.7 0 2.1 2.1 0 0 1-.7 0 1.9 1.9 0 0 1-.7-.4 1.8 1.8 0 0 1-.5-.7 2.1 2.1 0 0 1-.2-.9zm1.3 4.5a.8.8 0 0 0 .3.7.8.8 0 0 0 .5.2.9.9 0 0 0 .6-.2.8.8 0 0 0 .3-.7V8.3a.8.8 0 0 0-.3-.7.9.9 0 0 0-.6-.2.8.8 0 0 0-.5.2.8.8 0 0 0-.3.7zm10.1-6.5l-1.2 8.5h-1.2l-1-5.5-.9 5.5h-1.1l-1.3-8.5h1.3l.6 5.4 1-5.4h1l1 5.5.6-5.5zm4.7 2.4h-1.2v-.3a1.3 1.3 0 0 0-.2-.7.7.7 0 0 0-.6-.3.7.7 0 0 0-.4.1.8.8 0 0 0-.3.3 1.2 1.2 0 0 0-.1.3 2.8 2.8 0 0 0 0 .4V9a1.3 1.3 0 0 0 0 .3.7.7 0 0 0 .3.3 2.2 2.2 0 0 0 .4.2l.9.3a2.3 2.3 0 0 1 .7.4 1.5 1.5 0 0 1 .3.5 2.1 2.1 0 0 1 .2.6 5.4 5.4 0 0 1 0 .9 4 4 0 0 1 0 1 2.1 2.1 0 0 1-.4.8 1.7 1.7 0 0 1-.7.5 2.4 2.4 0 0 1-1 .2 2.3 2.3 0 0 1-.8-.2 2 2 0 0 1-.7-.4 2.4 2.4 0 0 1-.4-.6 2.1 2.1 0 0 1-.2-.8v-.5h1.3v.4a1 1 0 0 0 .1.6.8.8 0 0 0 .7.3 1.1 1.1 0 0 0 .5-.1.7.7 0 0 0 .3-.3 1 1 0 0 0 0-.4v-.5a4.1 4.1 0 0 0 0-.6.8.8 0 0 0 0-.3.8.8 0 0 0-.2-.2l-.4-.2-.9-.4a2 2 0 0 1-1-.8 3 3 0 0 1-.3-1.4 3.3 3.3 0 0 1 .2-.9 2 2 0 0 1 .4-.7 1.9 1.9 0 0 1 .6-.5 2.2 2.2 0 0 1 1-.2 2 2 0 0 1 .8.2 2.1 2.1 0 0 1 .6.4 1.8 1.8 0 0 1 .6 1.3zm1 6.1V6.3h3.6v1.1H150V10h2.1v1.2H150v2.5h2.4v1.2zm4.4 0V6.3h2c1.4 0 2.2.8 2.2 2.5a3.3 3.3 0 0 1-.3 1.3 1.8 1.8 0 0 1-.8.8l1.3 4h-1.3l-1.1-3.7h-.7v3.6zm1.2-7.4v2.7h.7a1.3 1.3 0 0 0 .5-.1.7.7 0 0 0 .3-.3 1.2 1.2 0 0 0 .2-.4 3.2 3.2 0 0 0 0-.6 3.3 3.3 0 0 0 0-.5 1.1 1.1 0 0 0-.2-.4 1 1 0 0 0-.8-.4zm6.2 7.4V6.3h1.8a2.6 2.6 0 0 1 .9.1 1.8 1.8 0 0 1 .7.5 1.8 1.8 0 0 1 .4.8 4.9 4.9 0 0 1 .1 1.2 5.5 5.5 0 0 1 0 1 1.9 1.9 0 0 1-.3.7 1.7 1.7 0 0 1-.7.7 2.2 2.2 0 0 1-1.1.2h-.6v3.3zm1.2-7.4v3h.6a1.3 1.3 0 0 0 .5-.2.7.7 0 0 0 .3-.3 1.1 1.1 0 0 0 .2-.4V8.3a1.4 1.4 0 0 0-.2-.5.7.7 0 0 0-.2-.3 1.2 1.2 0 0 0-.6 0zm2.6 7.4l2-8.5h1l1.8 8.5H168l-.3-1.8H166l-.4 1.8zm3-3l-.6-3-.6 3zm2.5 3V6.3h2c1.4 0 2.1.8 2.1 2.5a3.3 3.3 0 0 1-.2 1.3 1.8 1.8 0 0 1-.8.8l1.3 4H173l-1.1-3.7h-.8v3.6zm1.2-7.4v2.7h.7a1.3 1.3 0 0 0 .5-.1.7.7 0 0 0 .3-.3 1.2 1.2 0 0 0 .1-.4 4.5 4.5 0 0 0 0-.6 4.8 4.8 0 0 0 0-.5 1.1 1.1 0 0 0-.1-.4 1 1 0 0 0-.9-.4zm7.9 1.3h-1.3v-.3a1.3 1.3 0 0 0-.2-.7.9.9 0 0 0-1-.2.6.6 0 0 0-.3.3 1 1 0 0 0-.1.3 2.8 2.8 0 0 0 0 .4 2.7 2.7 0 0 0 0 .4.8.8 0 0 0 0 .3.6.6 0 0 0 .3.3 1.8 1.8 0 0 0 .3.2l1 .3a2.3 2.3 0 0 1 .6.4 1.7 1.7 0 0 1 .4.5 3 3 0 0 1 .2.6 7.2 7.2 0 0 1 0 .9 4.5 4.5 0 0 1 0 1 2.3 2.3 0 0 1-.4.8 1.7 1.7 0 0 1-.7.5 2.4 2.4 0 0 1-1.8 0 2 2 0 0 1-.7-.4 2.1 2.1 0 0 1-.4-.7 2 2 0 0 1-.2-.8v-.4h1.3v.4a1 1 0 0 0 .2.6.8.8 0 0 0 .7.3 1.1 1.1 0 0 0 .4-.1.7.7 0 0 0 .3-.3 1 1 0 0 0 .1-.4v-1.1a1 1 0 0 0 0-.3.8.8 0 0 0-.3-.2l-.4-.2-.8-.4a2 2 0 0 1-1.1-.8 3 3 0 0 1-.3-1.4 3 3 0 0 1 .2-.9 2 2 0 0 1 .4-.7 1.9 1.9 0 0 1 .6-.5 2.2 2.2 0 0 1 1-.2 2 2 0 0 1 .8.2 2.1 2.1 0 0 1 .6.4 1.8 1.8 0 0 1 .6 1.3zm.9 6.1V6.3h3.6v1.1h-2.4V10h2v1.2h-2v2.5h2.4v1.2zm8.4-6.1H187v-.3a1.2 1.2 0 0 0-.2-.7.8.8 0 0 0-1.3 0 .8.8 0 0 0-.1.4 1.9 1.9 0 0 0 0 .4v.4a.8.8 0 0 0 0 .3.7.7 0 0 0 .3.2 1.9 1.9 0 0 0 .3.2l1 .4a2.3 2.3 0 0 1 .7.4 1.7 1.7 0 0 1 .4.4 2.1 2.1 0 0 1 .1.7 7 7 0 0 1 0 .8 4.5 4.5 0 0 1 0 1 2.1 2.1 0 0 1-.4.8 1.7 1.7 0 0 1-.7.5 2.3 2.3 0 0 1-1 .2 2.2 2.2 0 0 1-.8-.1 1.9 1.9 0 0 1-.7-.4 2.1 2.1 0 0 1-.4-.7 2 2 0 0 1-.2-.8v-.4h1.3v.4a1 1 0 0 0 .2.6.8.8 0 0 0 .6.3 1.1 1.1 0 0 0 .5-.1.6.6 0 0 0 .3-.3 1 1 0 0 0 0-.4 4.2 4.2 0 0 0 0-.5v-.6a1 1 0 0 0 0-.3.7.7 0 0 0-.2-.2l-.4-.2-.9-.4a2 2 0 0 1-1-.8 3 3 0 0 1-.3-1.4 3 3 0 0 1 .1-.9 2.2 2.2 0 0 1 .4-.7 2 2 0 0 1 .7-.5 2.2 2.2 0 0 1 .9-.2 1.9 1.9 0 0 1 .8.2 2.1 2.1 0 0 1 .7.4 1.8 1.8 0 0 1 .5 1.3zM135 29.2v-8.5h1.9a2 2 0 0 1 1.6.6 2.3 2.3 0 0 1 .5 1.6v4a2.4 2.4 0 0 1-.6 1.8 2.3 2.3 0 0 1-1.6.5zm1.3-7.4v6.3h.5a.9.9 0 0 0 .8-.3 1.2 1.2 0 0 0 .2-.8v-4.1a1.3 1.3 0 0 0-.2-.8.9.9 0 0 0-.8-.3zm3.7.9a2.2 2.2 0 0 1 .3-1 2 2 0 0 1 .4-.6 2.3 2.3 0 0 1 .7-.4 2.1 2.1 0 0 1 1.5 0 2.3 2.3 0 0 1 .6.4 2.1 2.1 0 0 1 .5.7 2.2 2.2 0 0 1 .2.9v4.5a2.1 2.1 0 0 1-.2 1 2 2 0 0 1-.5.6 2 2 0 0 1-.6.4 2 2 0 0 1-1.5 0 2 2 0 0 1-.7-.4 1.8 1.8 0 0 1-.4-.7 2.1 2.1 0 0 1-.2-.9zm1.3 4.5a.8.8 0 0 0 .3.7 1 1 0 0 0 1.1 0 .8.8 0 0 0 .3-.7v-4.5a.8.8 0 0 0-.3-.7 1 1 0 0 0-1.1 0 .8.8 0 0 0-.3.7zm7.9-.4v.5a2 2 0 0 1-.2.8 2.2 2.2 0 0 1-.4.6 1.8 1.8 0 0 1-.6.4 1.8 1.8 0 0 1-.8.2 3 3 0 0 1-.7-.1 1.6 1.6 0 0 1-.6-.3 1.8 1.8 0 0 1-.5-.7 2.3 2.3 0 0 1-.2-1v-4.7a2 2 0 0 1 .2-.7 2 2 0 0 1 .4-.7 1.9 1.9 0 0 1 .6-.4 2 2 0 0 1 .8-.1 1.9 1.9 0 0 1 1.4.5 2 2 0 0 1 .4.7 2.2 2.2 0 0 1 .2.8v.5h-1.3v-.4a1 1 0 0 0-.2-.6.7.7 0 0 0-.5-.3.6.6 0 0 0-.6.3 1.5 1.5 0 0 0-.2.7v4.4a1.1 1.1 0 0 0 .2.6.6.6 0 0 0 .6.2.8.8 0 0 0 .2 0 .7.7 0 0 0 .3-.1.8.8 0 0 0 .2-.3 1 1 0 0 0 0-.4v-.4zm4.9-6.1v6.6a2 2 0 0 1-.1.8 2.2 2.2 0 0 1-.5.6 2.1 2.1 0 0 1-.6.4 2 2 0 0 1-.8.2 2 2 0 0 1-1.3-.6 2.2 2.2 0 0 1-.5-.6 1.9 1.9 0 0 1-.1-.8v-6.6h1.2v6.5a1 1 0 0 0 .2.7.8.8 0 0 0 .5.2.7.7 0 0 0 .6-.2 1 1 0 0 0 .2-.7v-6.5zm1.2 8.5v-8.5h1.1l1.6 4.5 1.6-4.5h1.1v8.5h-1.2V24l-1.2 3.7h-.6l-1.2-3.7v5.2zm6.7 0v-8.5h3.6v1.1h-2.4v2.5h2.1v1.2h-2V28h2.3v1.2zm4.3 0v-8.5h1.2l1.9 5.1v-5.1h1.2v8.5h-1.2l-1.8-5.1v5.1zm6.2 0v-7.4h-1.4v-1.1h4v1.1h-1.4v7.4zM549 14.8V6.3h1.8a2 2 0 0 1 1.6.5 2.2 2.2 0 0 1 .6 1.7v4a2.4 2.4 0 0 1-.6 1.8 2.3 2.3 0 0 1-1.7.5zm1.2-7.4v6.3h.6a.9.9 0 0 0 .7-.3 1.3 1.3 0 0 0 .2-.8V8.5a1.3 1.3 0 0 0-.2-.8.8.8 0 0 0-.7-.3zm3.8.9a2.2 2.2 0 0 1 .2-1 2 2 0 0 1 .5-.6 2.2 2.2 0 0 1 .6-.4 2.2 2.2 0 0 1 1.5 0 2.4 2.4 0 0 1 .7.4 2 2 0 0 1 .4.7 2.2 2.2 0 0 1 .2.9v4.5a2.1 2.1 0 0 1-.2 1 1.8 1.8 0 0 1-.5.6 2 2 0 0 1-.6.4 2 2 0 0 1-1.5 0 1.9 1.9 0 0 1-.6-.4 1.8 1.8 0 0 1-.5-.7 2.1 2.1 0 0 1-.2-.9zm1.2 4.5a.8.8 0 0 0 .3.6 1 1 0 0 0 1.1 0 .8.8 0 0 0 .3-.6V8.3a.8.8 0 0 0-.3-.7 1 1 0 0 0-1.1 0 .8.8 0 0 0-.3.7zm7.8-.4v.5a2 2 0 0 1 0 .8 2.4 2.4 0 0 1-.5.6 2 2 0 0 1-.6.4 1.8 1.8 0 0 1-.8.2 2.9 2.9 0 0 1-.7-.1 1.6 1.6 0 0 1-.6-.3 1.8 1.8 0 0 1-.5-.7 2.1 2.1 0 0 1-.2-1V8.2a2.2 2.2 0 0 1 .1-.8 1.8 1.8 0 0 1 1-1 2.2 2.2 0 0 1 .9-.2 1.9 1.9 0 0 1 1.4.6 2.1 2.1 0 0 1 .4.7 2.2 2.2 0 0 1 .1.8v.5h-1.2v-.5a1 1 0 0 0-.2-.6.8.8 0 0 0-1.2 0 1.5 1.5 0 0 0-.1.7v4.4a1.1 1.1 0 0 0 .2.6.6.6 0 0 0 .5.3.9.9 0 0 0 .3 0 .7.7 0 0 0 .2-.2.6.6 0 0 0 .2-.3 1 1 0 0 0 .1-.4v-.4zm5-6.1v6.6a2 2 0 0 1-.1.8 2.2 2.2 0 0 1-.5.6 2 2 0 0 1-.6.4 2 2 0 0 1-1.5 0 2.2 2.2 0 0 1-.7-.4 2.4 2.4 0 0 1-.4-.6 2 2 0 0 1-.2-.8V6.3h1.3v6.5a1 1 0 0 0 .2.6.7.7 0 0 0 .5.3.8.8 0 0 0 .6-.2 1 1 0 0 0 .2-.7V6.3zm1.2 8.5V6.3h1.1l1.6 4.5 1.6-4.5h1.2v8.5h-1.3V9.6l-1.2 3.7h-.6l-1.2-3.7v5.2zm6.7 0V6.3h3.6v1.1h-2.4V10h2v1.2h-2v2.5h2.4v1.2zm4.3 0V6.3h1.2l1.9 5.1V6.3h1.2v8.5h-1.2l-1.8-5.1v5.1zm6.2 0V7.4H585V6.3h4v1.1h-1.4v7.4zm5.4 0V6.3h3.7v1.1H593V10h2v1.2h-2v3.6zm4.5 0V6.3h1.2v8.5zm2.4 0V6.3h1.1l1.9 5.1V6.3h1.3v8.5h-1.2L600 9.7v5.1zm5.3 0V6.3h1.3v8.5zm6.5-6.1h-1.3v-.3a1.3 1.3 0 0 0-.2-.7.9.9 0 0 0-1-.2.7.7 0 0 0-.3.3 1 1 0 0 0 0 .3 1.9 1.9 0 0 0 0 .4V9a.8.8 0 0 0 0 .3.7.7 0 0 0 .2.3 1.9 1.9 0 0 0 .4.2l1 .3a2 2 0 0 1 .6.4 1.7 1.7 0 0 1 .4.5 2.1 2.1 0 0 1 .2.6 7 7 0 0 1 0 .9 4.5 4.5 0 0 1 0 1 2.1 2.1 0 0 1-.4.8 1.7 1.7 0 0 1-.7.5 2.3 2.3 0 0 1-1 .2 2.2 2.2 0 0 1-.8-.2 1.9 1.9 0 0 1-.7-.4 2.1 2.1 0 0 1-.4-.6 2 2 0 0 1-.2-.8v-.5h1.2v.4a1 1 0 0 0 .2.6.8.8 0 0 0 .7.3 1 1 0 0 0 .5-.1.6.6 0 0 0 .2-.3 1 1 0 0 0 .2-.4v-.5a4.4 4.4 0 0 0 0-.6 1 1 0 0 0-.1-.3.7.7 0 0 0-.3-.2l-.3-.2-.9-.4a2 2 0 0 1-1-.8 3 3 0 0 1-.3-1.4 3 3 0 0 1 .1-.9 2 2 0 0 1 .4-.7 1.8 1.8 0 0 1 .6-.5 2.2 2.2 0 0 1 1-.2 1.9 1.9 0 0 1 .8.2 2.3 2.3 0 0 1 .7.4 1.9 1.9 0 0 1 .5 1.3zm.9 6.1V6.3h1.2v3.6h1.5V6.3h1.2v8.5h-1.2V11h-1.5v3.8zm5.1 0V6.3h3.6v1.1h-2.4V10h2.1v1.2h-2v2.5h2.3v1.2zm8.4-6.1h-1.2v-.3a1.3 1.3 0 0 0-.2-.7.7.7 0 0 0-.7-.3.8.8 0 0 0-.4.1.8.8 0 0 0-.3.3 1.2 1.2 0 0 0-.1.3 2.7 2.7 0 0 0 0 .4V9a1.3 1.3 0 0 0 0 .3.7.7 0 0 0 .3.3 2.2 2.2 0 0 0 .4.2l1 .3a2.3 2.3 0 0 1 .6.4 1.7 1.7 0 0 1 .4.5 2.1 2.1 0 0 1 .2.6 5.4 5.4 0 0 1 0 .9 4.5 4.5 0 0 1-.2 1 2.1 2.1 0 0 1-.3.8 1.6 1.6 0 0 1-.7.5 2.4 2.4 0 0 1-1.8 0 1.9 1.9 0 0 1-.7-.4 2.4 2.4 0 0 1-.4-.7 2.1 2.1 0 0 1-.2-.8v-.4h1.3v.4a1 1 0 0 0 .2.6.8.8 0 0 0 .6.3 1 1 0 0 0 .5-.1.6.6 0 0 0 .3-.3 1 1 0 0 0 .1-.4v-.5a4.1 4.1 0 0 0 0-.6 1 1 0 0 0 0-.3.8.8 0 0 0-.3-.2l-.4-.2-.9-.4a2 2 0 0 1-1-.8 3 3 0 0 1-.3-1.4 3.3 3.3 0 0 1 .2-.9 2 2 0 0 1 .4-.7 1.9 1.9 0 0 1 .6-.5 2.2 2.2 0 0 1 1-.2 1.9 1.9 0 0 1 .8.2 2.2 2.2 0 0 1 .6.4 1.8 1.8 0 0 1 .6 1.3zm-53.7 20.5v-8.5h1.2V28h2.5v1.2zm4.4-6.5a2.2 2.2 0 0 1 .2-1 2 2 0 0 1 .5-.6 2.2 2.2 0 0 1 .6-.4 2.2 2.2 0 0 1 1.5 0 2.4 2.4 0 0 1 .7.4 2 2 0 0 1 .4.7 2.2 2.2 0 0 1 .2.9v4.5a2.1 2.1 0 0 1-.2 1 1.8 1.8 0 0 1-.5.6 2 2 0 0 1-.6.4 2 2 0 0 1-1.5 0 1.9 1.9 0 0 1-.6-.4 1.8 1.8 0 0 1-.5-.7 2.1 2.1 0 0 1-.2-.9zm1.2 4.5a.8.8 0 0 0 .3.7 1 1 0 0 0 1.1 0 .8.8 0 0 0 .3-.7v-4.5a.8.8 0 0 0-.3-.7 1 1 0 0 0-1.1 0 .8.8 0 0 0-.3.7zm3.2 2l2-8.5h1l1.9 8.5h-1.2l-.4-1.8h-1.6l-.4 1.8zm3-3l-.5-3-.6 3zm2.5 3v-8.5h1.8a2.1 2.1 0 0 1 1.6.6 2.3 2.3 0 0 1 .6 1.6v4a2.4 2.4 0 0 1-.6 1.8 2.3 2.3 0 0 1-1.7.5zm1.2-7.4v6.3h.6a.9.9 0 0 0 .7-.3 1.2 1.2 0 0 0 .3-.8v-4.1a1.3 1.3 0 0 0-.2-.8.8.8 0 0 0-.8-.3zm4 7.4v-8.5h1.2v8.5zm2.3 0v-8.5h1.2l1.8 5.1v-5.1h1.3v8.5H596l-1.9-5.1v5.1zm5.3-6.5a2.2 2.2 0 0 1 .2-1 2 2 0 0 1 .5-.6 2.2 2.2 0 0 1 .7-.4 2.2 2.2 0 0 1 1.4 0 2.4 2.4 0 0 1 .7.4 2 2 0 0 1 .5.7 2.2 2.2 0 0 1 .1.9v.4h-1.2v-.4a.8.8 0 0 0-.2-.7 1 1 0 0 0-1.2 0 .8.8 0 0 0-.2.7v4.5a.8.8 0 0 0 .2.7 1 1 0 0 0 1.2 0 .8.8 0 0 0 .3-.7v-1.6h-1v-1h2.1v2.6a2.1 2.1 0 0 1-.1 1 1.8 1.8 0 0 1-.5.6 2 2 0 0 1-.7.4 2 2 0 0 1-1.4 0 1.9 1.9 0 0 1-.7-.4 1.8 1.8 0 0 1-.5-.7 2.1 2.1 0 0 1-.2-.9zm-42.7 42.5v-8.5h1.8a2.7 2.7 0 0 1 1 .1 1.8 1.8 0 0 1 .6.5 1.9 1.9 0 0 1 .5.8 4.9 4.9 0 0 1 0 1.2 5.5 5.5 0 0 1 0 1 1.9 1.9 0 0 1-.3.7 1.7 1.7 0 0 1-.6.7 2.2 2.2 0 0 1-1.1.2h-.7v3.3zm1.2-7.4v3h.6a1.2 1.2 0 0 0 .6-.2.6.6 0 0 0 .3-.3 1 1 0 0 0 .1-.4v-1.2a1.2 1.2 0 0 0 0-.5.7.7 0 0 0-.4-.3 1.2 1.2 0 0 0-.5 0zm2.7 7.4l1.9-8.5h1l2 8.5H563l-.4-1.8H561l-.4 1.8zm3-3l-.6-3-.6 3zm2.4-3.5a2.2 2.2 0 0 1 .1-1 2 2 0 0 1 .5-.6 2.2 2.2 0 0 1 .7-.4 2.2 2.2 0 0 1 1.4 0 2.4 2.4 0 0 1 .7.4 2 2 0 0 1 .5.7 2.2 2.2 0 0 1 .2.9v.4h-1.3v-.4a.8.8 0 0 0-.2-.7 1 1 0 0 0-1.2 0 .8.8 0 0 0-.2.7v4.5a.8.8 0 0 0 .2.7 1 1 0 0 0 1.2 0 .8.8 0 0 0 .2-.7v-1.6h-1v-1h2.3v2.6a2.1 2.1 0 0 1-.2 1 1.8 1.8 0 0 1-.4.6 2 2 0 0 1-.7.4 2 2 0 0 1-1.5 0 1.9 1.9 0 0 1-.6-.4 1.8 1.8 0 0 1-.5-.7 2.1 2.1 0 0 1-.2-.9zm5.1 6.5v-8.5h3.6v1.1h-2.4v2.5h2.1v1.2h-2V64h2.4v1.2zm6.7 0v-8.5h2c1.4 0 2.2.8 2.2 2.5a3.3 3.3 0 0 1-.3 1.3 1.8 1.8 0 0 1-.8.8l1.3 4h-1.3l-1.1-3.7h-.7v3.6zm1.2-7.4v2.7h.7a1.3 1.3 0 0 0 .6-.1.7.7 0 0 0 .3-.3 1.2 1.2 0 0 0 0-.4 3.2 3.2 0 0 0 0-.6 3.3 3.3 0 0 0 0-.5 1.1 1.1 0 0 0 0-.4 1 1 0 0 0-1-.4zm3.9 7.4v-8.5h3.7v1.1H583v2.5h2v1.2h-2V64h2.4v1.2zm4.4 0v-8.5h1.2l1.8 5.1v-5.1h1.3v8.5h-1.2l-1.9-5.1v5.1zm5.4 0v-8.5h1.8a2 2 0 0 1 1.6.5 2.3 2.3 0 0 1 .6 1.7v4a2.4 2.4 0 0 1-.6 1.8 2.3 2.3 0 0 1-1.7.5zm1.2-7.4v6.3h.6a.9.9 0 0 0 .7-.3 1.2 1.2 0 0 0 .2-.8v-4.1a1.3 1.3 0 0 0-.2-.8.9.9 0 0 0-.7-.3zm3.9 7.4v-8.5h3.6v1.1H598v2.5h2.1v1.2H598V64h2.4v1.2zm4.4 0v-8.5h2c1.5 0 2.2.8 2.2 2.5a3 3 0 0 1-.2 1.3 1.8 1.8 0 0 1-.8.8l1.3 4h-1.3l-1.2-3.7h-.7v3.6zm1.3-7.4v2.7h.7a1.2 1.2 0 0 0 .5-.1.7.7 0 0 0 .3-.3 1 1 0 0 0 .1-.4 3.2 3.2 0 0 0 0-.6 3.3 3.3 0 0 0 0-.5 1.1 1.1 0 0 0-.1-.4 1 1 0 0 0-.9-.4zm3.9 7.4v-8.5h1.2v8.5zm2.4 0v-8.5h1.1l1.9 5.1v-5.1h1.2v8.5h-1.1l-2-5.1v5.1zm5.3-6.5a2.2 2.2 0 0 1 .2-1 2 2 0 0 1 .5-.6 2.1 2.1 0 0 1 .6-.4 2.1 2.1 0 0 1 1.5 0 2.3 2.3 0 0 1 .7.4 2.1 2.1 0 0 1 .4.7 2.2 2.2 0 0 1 .2.9v.4H617v-.4a.8.8 0 0 0-.3-.7 1 1 0 0 0-1.1 0 .8.8 0 0 0-.3.7v4.5a.8.8 0 0 0 .3.7 1 1 0 0 0 1.1 0 .8.8 0 0 0 .3-.7v-1.6h-1v-1h2.2v2.6a2.1 2.1 0 0 1-.2 1 2 2 0 0 1-.5.6 2 2 0 0 1-.6.4 2 2 0 0 1-1.5 0 2 2 0 0 1-1.1-1 2.1 2.1 0 0 1-.2-1zm-44.6 18.5v.5a2 2 0 0 1-.1.8 2.4 2.4 0 0 1-.5.6 2 2 0 0 1-.6.4 1.8 1.8 0 0 1-.7.2 2.9 2.9 0 0 1-.7-.1 1.6 1.6 0 0 1-.7-.3 1.8 1.8 0 0 1-.5-.7 2.1 2.1 0 0 1-.2-1V73a2.2 2.2 0 0 1 .2-.8 1.8 1.8 0 0 1 1-1 2.2 2.2 0 0 1 .8-.1 1.9 1.9 0 0 1 1.4.5 2.1 2.1 0 0 1 .4.7 2.2 2.2 0 0 1 .2.8v.5H568v-.4a1 1 0 0 0-.2-.6.8.8 0 0 0-1.1 0 1.5 1.5 0 0 0-.2.7v4.3a1.1 1.1 0 0 0 .2.7.6.6 0 0 0 .6.2.9.9 0 0 0 .2 0 .7.7 0 0 0 .3-.1.6.6 0 0 0 .2-.3 1 1 0 0 0 0-.4v-.4zm.9-4.2a2.2 2.2 0 0 1 .2-.8 2 2 0 0 1 .5-.7 2.3 2.3 0 0 1 .6-.4 2.1 2.1 0 0 1 1.5 0 2.3 2.3 0 0 1 .7.4 2.1 2.1 0 0 1 .5.7 2.2 2.2 0 0 1 .1.9v4.5a2.1 2.1 0 0 1-.2 1 2 2 0 0 1-.4.6 2 2 0 0 1-.7.3 2 2 0 0 1-1.5 0 2 2 0 0 1-.6-.3 1.8 1.8 0 0 1-.5-.7 2.1 2.1 0 0 1-.2-.9zm1.3 4.6a.8.8 0 0 0 .2.7 1 1 0 0 0 1.2 0 .8.8 0 0 0 .2-.7v-4.5a.8.8 0 0 0-.2-.7 1 1 0 0 0-1.2 0 .8.8 0 0 0-.2.7zm3.9 2v-8.5h1.2l1.6 4.5 1.5-4.5h1.2v8.5h-1.2v-5.2l-1.2 3.7h-.6l-1.2-3.7v5.2zm6.7 0v-8.5h1.8a2.6 2.6 0 0 1 .9.1 1.8 1.8 0 0 1 .7.5 1.8 1.8 0 0 1 .4.8 4.9 4.9 0 0 1 .1 1.2 6.8 6.8 0 0 1 0 1 2 2 0 0 1-.3.7 1.7 1.7 0 0 1-.7.7 2.2 2.2 0 0 1-1 .2h-.7v3.3zm1.2-7.4v3h.6a1.3 1.3 0 0 0 .6-.2.7.7 0 0 0 .3-.3 1.1 1.1 0 0 0 0-.4v-1.2a1.4 1.4 0 0 0 0-.5.7.7 0 0 0-.3-.3 1.2 1.2 0 0 0-.6 0zm3.6 7.4v-8.5h1.3v7.3h2.4v1.2zm4.5 0v-8.5h3.6v1.1h-2.4v2.5h2.1V76h-2v2.5h2.4v1.2zm5.3 0v-7.4h-1.5v-1.1h4v1.1H598v7.4zm3.2 0v-8.5h3.6v1.1H601v2.5h2.2V76h-2.1v2.5h2.4v1.2zm8.3-6.1h-1.2v-.2a1.3 1.3 0 0 0-.2-.8.9.9 0 0 0-1-.2.7.7 0 0 0-.3.3 1 1 0 0 0-.2.3 1.9 1.9 0 0 0 0 .4v.5a.8.8 0 0 0 .1.3.7.7 0 0 0 .2.2 1.9 1.9 0 0 0 .4.2l1 .3a2 2 0 0 1 .6.4 1.7 1.7 0 0 1 .4.5 2.1 2.1 0 0 1 .2.6 7 7 0 0 1 0 .9 4.5 4.5 0 0 1 0 1 2.1 2.1 0 0 1-.4.8 1.7 1.7 0 0 1-.7.5 2.3 2.3 0 0 1-1 .2 2.2 2.2 0 0 1-.8-.2 1.9 1.9 0 0 1-.7-.4 2.1 2.1 0 0 1-.4-.6 2 2 0 0 1-.2-.8v-.5h1.3v.4a1 1 0 0 0 .2.6.8.8 0 0 0 .6.3 1 1 0 0 0 .5-.1.6.6 0 0 0 .3-.3 1 1 0 0 0 .1-.4v-.5a4.4 4.4 0 0 0 0-.6 1 1 0 0 0-.1-.3.7.7 0 0 0-.2-.2l-.4-.2-.9-.4a2 2 0 0 1-1-.8 3.4 3.4 0 0 1-.2-2.3 2 2 0 0 1 .4-.7 1.8 1.8 0 0 1 .7-.5 2.2 2.2 0 0 1 1-.2 1.9 1.9 0 0 1 .7.2 2.3 2.3 0 0 1 .7.4 1.9 1.9 0 0 1 .5 1.3zm-483.5-8.3v-8.5h1.8a2.5 2.5 0 0 1 1 .1 1.8 1.8 0 0 1 1 1.2 2.7 2.7 0 0 1 .1.8v.3a2.5 2.5 0 0 1 0 .6 1.6 1.6 0 0 1-.2.4 1.8 1.8 0 0 1-.6.6 1.3 1.3 0 0 1 .6.6 2.3 2.3 0 0 1 .2 1v.6a2.5 2.5 0 0 1-.5 1.7 2.3 2.3 0 0 1-1.7.6zm1.2-7.4v2.4h.6a1 1 0 0 0 .8-.3 1.6 1.6 0 0 0 .2-1 1.4 1.4 0 0 0-.3-.8 1 1 0 0 0-.8-.3zm0 3.5V64h.5a1.3 1.3 0 0 0 .6-.1.8.8 0 0 0 .3-.3 1.3 1.3 0 0 0 .2-.5v-.5a4.5 4.5 0 0 0 0-.6 1.2 1.2 0 0 0-.2-.4.7.7 0 0 0-.3-.3 1.6 1.6 0 0 0-.6 0zm4 3.9v-8.5h2c1.3 0 2 .8 2 2.5a3 3 0 0 1-.2 1.3 1.8 1.8 0 0 1-.8.8l1.3 4H133l-1.1-3.7h-.8v3.6zm1.1-7.4v2.7h.7a1.2 1.2 0 0 0 .5-.1.7.7 0 0 0 .3-.3 1 1 0 0 0 .2-.4 3.2 3.2 0 0 0 0-.6 3.3 3.3 0 0 0 0-.5 1.1 1.1 0 0 0-.2-.4 1 1 0 0 0-.8-.4zm3.9.9a2.2 2.2 0 0 1 .2-1 2 2 0 0 1 .5-.6 2.2 2.2 0 0 1 .6-.4 2.1 2.1 0 0 1 .7-.1 2.1 2.1 0 0 1 .8.1 2.4 2.4 0 0 1 .7.4 2.1 2.1 0 0 1 .4.7 2.2 2.2 0 0 1 .2.9v4.5a2.1 2.1 0 0 1-.2 1 2 2 0 0 1-.4.6 2 2 0 0 1-.7.4 2.1 2.1 0 0 1-.7 0 2.1 2.1 0 0 1-.8 0 1.9 1.9 0 0 1-.6-.4 1.8 1.8 0 0 1-.5-.7 2.1 2.1 0 0 1-.2-.9zm1.2 4.5a.8.8 0 0 0 .3.6.8.8 0 0 0 .5.3.9.9 0 0 0 .6-.3.8.8 0 0 0 .3-.6v-4.5a.8.8 0 0 0-.3-.7.9.9 0 0 0-.5-.2.8.8 0 0 0-.6.2.8.8 0 0 0-.3.7zm10.1-6.5l-1.2 8.5h-1.2l-.9-5.5-1 5.5h-1.2l-1.2-8.5h1.3l.6 5.4 1-5.4h1l1 5.5.5-5.5zm4.7 2.4h-1.2V59a1.3 1.3 0 0 0-.2-.8.7.7 0 0 0-.6-.3.7.7 0 0 0-.4.1.8.8 0 0 0-.3.3 1.2 1.2 0 0 0-.1.3 2.8 2.8 0 0 0 0 .4v.5a1.3 1.3 0 0 0 0 .3.7.7 0 0 0 .3.2 2.2 2.2 0 0 0 .4.2l.9.3a2.3 2.3 0 0 1 .7.4 1.5 1.5 0 0 1 .4.5 2.1 2.1 0 0 1 .1.6 5.4 5.4 0 0 1 0 .9 4 4 0 0 1 0 1 2.1 2.1 0 0 1-.4.8 1.7 1.7 0 0 1-.6.5 2.4 2.4 0 0 1-1 .2 2.3 2.3 0 0 1-.9-.2 2 2 0 0 1-.6-.4 2.4 2.4 0 0 1-.5-.6 2.1 2.1 0 0 1-.1-.8v-.5h1.2v.4a1 1 0 0 0 .2.6.8.8 0 0 0 .7.3 1.1 1.1 0 0 0 .5-.1.7.7 0 0 0 .2-.3 1 1 0 0 0 .1-.4v-.5a4.1 4.1 0 0 0 0-.6.8.8 0 0 0 0-.3.8.8 0 0 0-.3-.2l-.3-.2-1-.4a2 2 0 0 1-1-.8 3 3 0 0 1-.2-1.4 3.3 3.3 0 0 1 0-.9 2 2 0 0 1 .5-.7 1.9 1.9 0 0 1 .6-.5 2.2 2.2 0 0 1 1-.2 2 2 0 0 1 .8.2 2.1 2.1 0 0 1 .6.4 1.8 1.8 0 0 1 .6 1.3zm1 6.1v-8.5h3.6v1.1h-2.4v2.5h2.1v1.2h-2.1V64h2.4v1.2zm4.4 0v-8.5h2c1.4 0 2.2.8 2.2 2.5a3.3 3.3 0 0 1-.3 1.3 1.8 1.8 0 0 1-.8.8l1.3 4h-1.3l-1.1-3.7h-.7v3.6zm1.2-7.4v2.7h.7a1.3 1.3 0 0 0 .5-.1.7.7 0 0 0 .3-.3 1.2 1.2 0 0 0 .2-.4 3.2 3.2 0 0 0 0-.6 3.3 3.3 0 0 0 0-.5 1.1 1.1 0 0 0-.2-.4 1 1 0 0 0-.8-.4zm6.2 7.4v-8.5h3.6v1.1H165v2.6h2.1v1.2H165v3.6zm4.4 0v-8.5h1.3v8.5zm2.4 0v-8.5h1.2l1.8 5.1v-5.1h1.2v8.5h-1.1l-1.9-5.1v5.1zm5.4 0v-8.5h1.8a2 2 0 0 1 1.6.5 2.3 2.3 0 0 1 .6 1.7v4a2.4 2.4 0 0 1-.6 1.8 2.3 2.3 0 0 1-1.7.5zm1.2-7.4v6.3h.6a.9.9 0 0 0 .7-.3 1.2 1.2 0 0 0 .2-.8v-4.1a1.3 1.3 0 0 0-.2-.8.9.9 0 0 0-.7-.3zm7.8 1.3h-1.2V59a1.2 1.2 0 0 0-.2-.8.8.8 0 0 0-1.3 0 .8.8 0 0 0-.1.4 1.9 1.9 0 0 0 0 .4v.4a.8.8 0 0 0 0 .3.7.7 0 0 0 .3.2 1.9 1.9 0 0 0 .4.2l.9.4a2.3 2.3 0 0 1 .6.4 1.7 1.7 0 0 1 .4.5 2.1 2.1 0 0 1 .2.6 7 7 0 0 1 0 .9 4.5 4.5 0 0 1 0 1 2.1 2.1 0 0 1-.4.7 1.7 1.7 0 0 1-.6.6 2.3 2.3 0 0 1-1 .2 2.2 2.2 0 0 1-.9-.2 1.9 1.9 0 0 1-.6-.4 2.1 2.1 0 0 1-.5-.7 2 2 0 0 1-.1-.8v-.4h1.2v.4a1 1 0 0 0 .2.6.8.8 0 0 0 .7.3 1.1 1.1 0 0 0 .4-.1.6.6 0 0 0 .3-.3 1 1 0 0 0 .1-.4 4.2 4.2 0 0 0 0-.5v-.6a1 1 0 0 0 0-.3.7.7 0 0 0-.3-.2l-.4-.2-.8-.4a2 2 0 0 1-1.1-.8 3.4 3.4 0 0 1-.2-2.3 2.2 2.2 0 0 1 .4-.8 2 2 0 0 1 .6-.5 2.2 2.2 0 0 1 1-.1 1.9 1.9 0 0 1 .8.1 2.1 2.1 0 0 1 .7.5 1.8 1.8 0 0 1 .5 1.3zm-66.3 20.5l1.9-8.5h1l1.9 8.5h-1.3l-.3-1.8h-1.7l-.3 1.8zm3-3l-.6-3-.6 3zm2.3 3v-8.5h1.2l1.8 5.1v-5.1h1.3v8.5H127l-1.9-5.1v5.1zm5.4 0v-8.5h1.8a2 2 0 0 1 1.6.5 2.2 2.2 0 0 1 .6 1.7v4a2.4 2.4 0 0 1-.6 1.7 2.3 2.3 0 0 1-1.7.6zm1.2-7.4v6.3h.6a.9.9 0 0 0 .7-.3 1.3 1.3 0 0 0 .2-.8v-4.1a1.3 1.3 0 0 0-.2-.8.8.8 0 0 0-.7-.3zm6.2 7.4v-8.5h2c1.4 0 2.1.8 2.1 2.5a3.3 3.3 0 0 1-.2 1.3 1.8 1.8 0 0 1-.8.8l1.3 4h-1.3l-1.2-3.7h-.7v3.6zm1.2-7.4V75h.7a1.3 1.3 0 0 0 .5-.1.7.7 0 0 0 .3-.3 1.2 1.2 0 0 0 .1-.4 4.5 4.5 0 0 0 0-.6 4.8 4.8 0 0 0 0-.5 1.1 1.1 0 0 0-.1-.4 1 1 0 0 0-.9-.4zm3.9 7.4v-8.5h3.6v1.1h-2.4v2.5h2.1V76h-2.1v2.5h2.4v1.2zm4.3-6.6a2.2 2.2 0 0 1 .2-.8 2 2 0 0 1 .5-.7 2.1 2.1 0 0 1 .6-.4 2.1 2.1 0 0 1 1.5 0 2.3 2.3 0 0 1 .7.4 2.1 2.1 0 0 1 .5.7 2.2 2.2 0 0 1 .1.9v4.5a2 2 0 0 1-.1.9l.7.6-.6.7-.7-.6a2 2 0 0 1-1.3.5 2.1 2.1 0 0 1-.8-.2 2 2 0 0 1-1-1 2.1 2.1 0 0 1-.3-.9zm1.3 4.6a.8.8 0 0 0 .2.7.9.9 0 0 0 .6.2.5.5 0 0 0 .2 0l-.5-.5.6-.7.5.4V73a.8.8 0 0 0-.2-.7 1 1 0 0 0-1.2 0 .8.8 0 0 0-.2.7zm7.9-6.6v6.7a2 2 0 0 1-.2.8 2.2 2.2 0 0 1-.4.6 2 2 0 0 1-.6.4 2 2 0 0 1-1.6 0 2.2 2.2 0 0 1-.6-.4 2.4 2.4 0 0 1-.4-.6 2 2 0 0 1-.2-.8V71h1.2v6.5a1 1 0 0 0 .3.6.7.7 0 0 0 .5.3.8.8 0 0 0 .5-.3 1 1 0 0 0 .2-.6V71zm1.1 8.6v-8.5h3.7v1.1h-2.4v2.5h2V76h-2v2.5h2.4v1.2zm8.5-6.1h-1.3v-.2a1.3 1.3 0 0 0-.2-.8.9.9 0 0 0-1-.2.7.7 0 0 0-.3.3 1 1 0 0 0-.2.3 1.9 1.9 0 0 0 0 .4v.5a.8.8 0 0 0 .1.3.7.7 0 0 0 .2.2 1.9 1.9 0 0 0 .4.2l1 .3a2 2 0 0 1 .6.4 1.7 1.7 0 0 1 .4.5 2.1 2.1 0 0 1 .2.6 7 7 0 0 1 0 .9 4.5 4.5 0 0 1 0 1 2.1 2.1 0 0 1-.4.8 1.7 1.7 0 0 1-.7.5 2.3 2.3 0 0 1-1 .2 2.2 2.2 0 0 1-.8-.2 1.9 1.9 0 0 1-.7-.4 2.1 2.1 0 0 1-.4-.6 2 2 0 0 1-.2-.8v-.5h1.3v.4a1 1 0 0 0 .2.6.8.8 0 0 0 .7.3 1 1 0 0 0 .4-.1.6.6 0 0 0 .3-.3 1 1 0 0 0 .1-.4v-.5a4.4 4.4 0 0 0 0-.6 1 1 0 0 0 0-.3.7.7 0 0 0-.3-.2l-.3-.2-1-.4a2 2 0 0 1-1-.8 3.4 3.4 0 0 1-.1-2.3 2 2 0 0 1 .4-.7 1.8 1.8 0 0 1 .6-.5 2.2 2.2 0 0 1 1-.2 1.9 1.9 0 0 1 .8.2 2.3 2.3 0 0 1 .6.4 1.9 1.9 0 0 1 .6 1.3zm1.6 6.1v-7.4h-1.4v-1.1h4v1.1H168v7.4zm7.2-6.1h-1.2v-.2a1.3 1.3 0 0 0-.2-.8.9.9 0 0 0-1.1-.2.6.6 0 0 0-.3.3 1 1 0 0 0-.1.3 2.8 2.8 0 0 0 0 .4 2.7 2.7 0 0 0 0 .5.8.8 0 0 0 0 .3.6.6 0 0 0 .3.2 1.8 1.8 0 0 0 .4.2l1 .3a2.3 2.3 0 0 1 .6.4 1.7 1.7 0 0 1 .4.5 3 3 0 0 1 .2.6 7.2 7.2 0 0 1 0 .9 4.5 4.5 0 0 1-.1 1 2.3 2.3 0 0 1-.4.8 1.7 1.7 0 0 1-.7.5 2.4 2.4 0 0 1-1.8 0 2 2 0 0 1-.6-.4 2.1 2.1 0 0 1-.5-.7 2 2 0 0 1-.1-.8v-.4h1.2v.4a1 1 0 0 0 .2.6.8.8 0 0 0 .6.3 1.1 1.1 0 0 0 .5-.1.7.7 0 0 0 .3-.3 1 1 0 0 0 .1-.4v-1.1a1 1 0 0 0 0-.3.8.8 0 0 0-.3-.2l-.4-.2-.8-.4a2 2 0 0 1-1.1-.8 3.3 3.3 0 0 1-.1-2.3 2 2 0 0 1 .3-.7 1.9 1.9 0 0 1 .7-.5 2.2 2.2 0 0 1 1-.2 2 2 0 0 1 .8.2 2.1 2.1 0 0 1 .6.4 1.8 1.8 0 0 1 .6 1.3zm7 3.7v.5a2 2 0 0 1-.1.8 2.2 2.2 0 0 1-.5.6 1.8 1.8 0 0 1-.6.4 1.8 1.8 0 0 1-.7.2 3 3 0 0 1-.7-.1 1.6 1.6 0 0 1-.7-.3 1.8 1.8 0 0 1-.5-.7 2.3 2.3 0 0 1-.1-1V73a2 2 0 0 1 .1-.8 2 2 0 0 1 .4-.6 1.9 1.9 0 0 1 .6-.4 2 2 0 0 1 .8-.2 1.9 1.9 0 0 1 1.4.6 2 2 0 0 1 .5.7 2.2 2.2 0 0 1 .1.8v.4h-1.2v-.4a1 1 0 0 0-.2-.6.7.7 0 0 0-.6-.3.6.6 0 0 0-.6.3 1.5 1.5 0 0 0-.1.8v4.3a1.1 1.1 0 0 0 .1.6.6.6 0 0 0 .6.3.8.8 0 0 0 .3 0 .7.7 0 0 0 .2-.1.8.8 0 0 0 .2-.3 1 1 0 0 0 0-.4v-.5zm5-3.7h-1.3v-.2a1.3 1.3 0 0 0-.1-.8.7.7 0 0 0-.7-.3.7.7 0 0 0-.4.1.8.8 0 0 0-.3.3 1.2 1.2 0 0 0-.1.3 2.8 2.8 0 0 0 0 .4v.4a1.3 1.3 0 0 0 0 .3.7.7 0 0 0 .3.3 2.2 2.2 0 0 0 .4.2l1 .3a2.3 2.3 0 0 1 .6.4 1.5 1.5 0 0 1 .4.5 2.1 2.1 0 0 1 .1.6 5.4 5.4 0 0 1 0 .9 4 4 0 0 1 0 1 2.1 2.1 0 0 1-.4.8 1.7 1.7 0 0 1-.6.5 2.4 2.4 0 0 1-1 .2 2.3 2.3 0 0 1-.8-.2 2 2 0 0 1-.7-.4 2.4 2.4 0 0 1-.4-.6 2.1 2.1 0 0 1-.2-.8v-.5h1.2v.4a1 1 0 0 0 .2.6.8.8 0 0 0 .7.3 1.1 1.1 0 0 0 .5-.1.7.7 0 0 0 .2-.3 1 1 0 0 0 .2-.4v-.5a4.1 4.1 0 0 0 0-.6.8.8 0 0 0-.1-.3.8.8 0 0 0-.3-.2l-.3-.2-1-.4a2 2 0 0 1-1-.8 3 3 0 0 1-.2-1.4 3.3 3.3 0 0 1 0-.9 2 2 0 0 1 .5-.7 1.9 1.9 0 0 1 .6-.5 2.2 2.2 0 0 1 1-.2 2 2 0 0 1 .8.2 2.1 2.1 0 0 1 .7.4 1.8 1.8 0 0 1 .5 1.3zm4.8 0h-1.2v-.2a1.3 1.3 0 0 0-.2-.8.9.9 0 0 0-1-.2.6.6 0 0 0-.3.3 1 1 0 0 0-.1.3 2.8 2.8 0 0 0 0 .4 2.7 2.7 0 0 0 0 .5.8.8 0 0 0 0 .3.6.6 0 0 0 .3.2 1.8 1.8 0 0 0 .3.2l1 .3a2.3 2.3 0 0 1 .6.4 1.7 1.7 0 0 1 .4.5 3 3 0 0 1 .2.6 7.2 7.2 0 0 1 0 .9 4.5 4.5 0 0 1 0 1 2.3 2.3 0 0 1-.4.8 1.7 1.7 0 0 1-.7.5 2.4 2.4 0 0 1-1.8 0 2 2 0 0 1-.7-.4 2.1 2.1 0 0 1-.4-.7 2 2 0 0 1-.2-.8v-.4h1.2v.4a1 1 0 0 0 .2.6.8.8 0 0 0 .7.3 1.1 1.1 0 0 0 .5-.1.7.7 0 0 0 .3-.3 1 1 0 0 0 0-.4v-1.1a1 1 0 0 0 0-.3.8.8 0 0 0-.2-.2l-.4-.2-.9-.4a2 2 0 0 1-1-.8 3.3 3.3 0 0 1-.2-2.3 2 2 0 0 1 .4-.7 1.9 1.9 0 0 1 .6-.5 2.2 2.2 0 0 1 1-.2 2 2 0 0 1 .8.2 2.1 2.1 0 0 1 .7.4 1.8 1.8 0 0 1 .5 1.3zm39-8.3v-8.5h1.8a2.6 2.6 0 0 1 1 .1 1.9 1.9 0 0 1 .6.5 1.8 1.8 0 0 1 .4.7 2.7 2.7 0 0 1 .1.8v.3a2.5 2.5 0 0 1 0 .6 1.6 1.6 0 0 1-.1.5 1.7 1.7 0 0 1-.7.5 1.3 1.3 0 0 1 .7.6 2.3 2.3 0 0 1 .2 1.1v.5a2.5 2.5 0 0 1-.6 1.7 2.2 2.2 0 0 1-1.7.6zm1.2-7.4v2.4h.6a1 1 0 0 0 .8-.3 1.6 1.6 0 0 0 .2-1 1.4 1.4 0 0 0-.2-.8 1 1 0 0 0-.9-.3zm0 3.4V64h.5a1.2 1.2 0 0 0 .6-.1.8.8 0 0 0 .3-.3 1.2 1.2 0 0 0 .2-.5v-.5a4.6 4.6 0 0 0 0-.6 1.2 1.2 0 0 0-.2-.4.7.7 0 0 0-.3-.3 1.6 1.6 0 0 0-.5 0zm3.9 4v-8.5h2c1.4 0 2.2.8 2.2 2.5a3 3 0 0 1-.3 1.3 1.8 1.8 0 0 1-.8.8l1.3 4h-1.3l-1.1-3.7h-.7v3.6zm1.2-7.4v2.7h.7a1.2 1.2 0 0 0 .5-.1.7.7 0 0 0 .3-.3 1 1 0 0 0 .2-.4 3.2 3.2 0 0 0 0-.6 3.1 3.1 0 0 0 0-.5 1 1 0 0 0-.2-.4 1 1 0 0 0-.8-.4zm3.8.9a2.2 2.2 0 0 1 .2-1 2 2 0 0 1 .5-.6 2.2 2.2 0 0 1 .7-.4 2.1 2.1 0 0 1 .7-.1 2.1 2.1 0 0 1 .7.1 2.4 2.4 0 0 1 .7.4 2.1 2.1 0 0 1 .5.7 2.2 2.2 0 0 1 .1.9v4.5a2.1 2.1 0 0 1-.1 1 2 2 0 0 1-.5.6 1.9 1.9 0 0 1-.7.4 2.1 2.1 0 0 1-.7 0 2.1 2.1 0 0 1-.7 0 1.7 1.7 0 0 1-.7-.4 1.8 1.8 0 0 1-.5-.7 2.1 2.1 0 0 1-.2-.9zm1.3 4.5a.8.8 0 0 0 .3.7.8.8 0 0 0 .5.2.9.9 0 0 0 .6-.2.8.8 0 0 0 .3-.7v-4.5a.8.8 0 0 0-.3-.7.9.9 0 0 0-.6-.2.8.8 0 0 0-.5.2.8.8 0 0 0-.3.7zm10.1-6.5l-1.2 8.5h-1.2l-1-5.5-.9 5.5h-1.1l-1.3-8.5h1.3l.6 5.4 1-5.4h1l1 5.5.6-5.5zm4.7 2.4h-1.2V59a1.3 1.3 0 0 0-.2-.8.7.7 0 0 0-.6-.3.8.8 0 0 0-.4.1.8.8 0 0 0-.3.3 1.2 1.2 0 0 0-.1.3 2.9 2.9 0 0 0 0 .4v.5a1.3 1.3 0 0 0 0 .3.9.9 0 0 0 .3.2l.4.2.9.3a2.5 2.5 0 0 1 .7.4 1.5 1.5 0 0 1 .3.5 2.1 2.1 0 0 1 .2.6 5.4 5.4 0 0 1 0 .9 4 4 0 0 1 0 1 2.1 2.1 0 0 1-.4.8 1.7 1.7 0 0 1-.7.5 2.4 2.4 0 0 1-1 .2 2.3 2.3 0 0 1-.8-.2 2 2 0 0 1-.7-.4 2.2 2.2 0 0 1-.4-.6 2.1 2.1 0 0 1-.2-.8v-.5h1.3v.4a1 1 0 0 0 .1.6.8.8 0 0 0 .7.3 1.1 1.1 0 0 0 .5-.1.7.7 0 0 0 .3-.3 1 1 0 0 0 0-.4v-.5a4.1 4.1 0 0 0 0-.6.8.8 0 0 0 0-.3.8.8 0 0 0-.2-.2l-.4-.2-.9-.4a2 2 0 0 1-1-.8 3 3 0 0 1-.3-1.4 3.4 3.4 0 0 1 .1-.9 2 2 0 0 1 .4-.7 1.9 1.9 0 0 1 .7-.5 2.2 2.2 0 0 1 .9-.2 2 2 0 0 1 .8.2 2.1 2.1 0 0 1 .7.4 1.8 1.8 0 0 1 .5 1.3zm1 6.1v-8.5h3.6v1.1H258v2.5h2.1v1.2H258V64h2.4v1.2zm4.4 0v-8.5h2c1.4 0 2.2.8 2.2 2.5a3.3 3.3 0 0 1-.3 1.3 1.8 1.8 0 0 1-.8.8l1.3 4h-1.3l-1.1-3.7h-.7v3.6zm1.2-7.4v2.7h.7a1.3 1.3 0 0 0 .5-.1.7.7 0 0 0 .3-.3 1.2 1.2 0 0 0 .2-.4 3.2 3.2 0 0 0 0-.6 3.1 3.1 0 0 0 0-.5 1 1 0 0 0-.2-.4 1 1 0 0 0-.8-.4zm6.2 7.4v-8.5h1.8a2.6 2.6 0 0 1 .9.1 1.8 1.8 0 0 1 .7.5 1.9 1.9 0 0 1 .4.8 4.9 4.9 0 0 1 .1 1.2 5.5 5.5 0 0 1 0 1 2 2 0 0 1-1 1.4 2.3 2.3 0 0 1-1.1.2h-.6v3.3zm1.2-7.4v3h.6a1.3 1.3 0 0 0 .5-.2.7.7 0 0 0 .3-.3 1.1 1.1 0 0 0 .2-.4v-1.2a1.4 1.4 0 0 0-.2-.5.7.7 0 0 0-.2-.3 1.2 1.2 0 0 0-.6 0zm2.6 7.4l2-8.5h1l1.8 8.5H276l-.3-1.8H274l-.4 1.8zm3-3l-.6-3-.6 3zm2.5 3v-8.5h2c1.4 0 2.1.8 2.1 2.5a3.3 3.3 0 0 1-.2 1.3 1.8 1.8 0 0 1-.8.8l1.3 4H281l-1.1-3.7h-.8v3.6zm1.2-7.4v2.7h.7a1.3 1.3 0 0 0 .5-.1.7.7 0 0 0 .3-.3 1.2 1.2 0 0 0 .1-.4 4 4 0 0 0 0-1.1 1 1 0 0 0-.1-.4 1 1 0 0 0-.9-.4zm7.9 1.3h-1.3V59a1.3 1.3 0 0 0-.2-.8.7.7 0 0 0-.6-.3.8.8 0 0 0-.5.1.6.6 0 0 0-.2.3 1 1 0 0 0-.1.3 2.9 2.9 0 0 0 0 .4 2.7 2.7 0 0 0 0 .5.8.8 0 0 0 0 .3.6.6 0 0 0 .3.2 2.5 2.5 0 0 0 .3.2l1 .3a2.5 2.5 0 0 1 .6.4 1.7 1.7 0 0 1 .4.5 3 3 0 0 1 .2.6 7.2 7.2 0 0 1 0 .9 4.5 4.5 0 0 1 0 1 2.3 2.3 0 0 1-.4.8 1.7 1.7 0 0 1-.7.5 2.4 2.4 0 0 1-1.8 0 2 2 0 0 1-.7-.4 2 2 0 0 1-.4-.7 2 2 0 0 1-.2-.8v-.4h1.3v.4a1 1 0 0 0 .2.6.8.8 0 0 0 .7.3 1.1 1.1 0 0 0 .5-.1.7.7 0 0 0 .2-.3 1 1 0 0 0 .1-.4v-1.1a1 1 0 0 0 0-.3.8.8 0 0 0-.3-.2l-.4-.2-.8-.4a2 2 0 0 1-1.1-.8 3 3 0 0 1-.3-1.4 3 3 0 0 1 .2-.9 2 2 0 0 1 .4-.7 1.9 1.9 0 0 1 .6-.5 2.2 2.2 0 0 1 1-.2 2 2 0 0 1 .8.2 2.1 2.1 0 0 1 .6.4 1.8 1.8 0 0 1 .6 1.3zm.9 6.1v-8.5h3.6v1.1h-2.4v2.5h2v1.2h-2V64h2.4v1.2zm8.4-6.1H295V59a1.2 1.2 0 0 0-.2-.8.7.7 0 0 0-.7-.3.8.8 0 0 0-.4.1.7.7 0 0 0-.2.3.8.8 0 0 0-.2.3 2 2 0 0 0 0 .4v.5a.8.8 0 0 0 .1.3.9.9 0 0 0 .2.2 2.7 2.7 0 0 0 .4.2l1 .3a2.5 2.5 0 0 1 .6.4 1.7 1.7 0 0 1 .4.5 2.1 2.1 0 0 1 .2.6 7 7 0 0 1 0 .9 4.5 4.5 0 0 1 0 1 2.1 2.1 0 0 1-.4.8 1.7 1.7 0 0 1-.7.5 2.3 2.3 0 0 1-1 .2 2.2 2.2 0 0 1-.8-.2 1.9 1.9 0 0 1-.7-.4 2 2 0 0 1-.4-.6 2 2 0 0 1-.2-.8v-.5h1.3v.4a1 1 0 0 0 .2.6.8.8 0 0 0 .6.3 1.1 1.1 0 0 0 .5-.1.6.6 0 0 0 .3-.3 1 1 0 0 0 .1-.4 4.2 4.2 0 0 0 0-.5v-.6a1 1 0 0 0-.1-.3.7.7 0 0 0-.2-.2l-.4-.2-.9-.4a2 2 0 0 1-1-.8 3 3 0 0 1-.3-1.4 3 3 0 0 1 .1-.9 2.2 2.2 0 0 1 .4-.7 2 2 0 0 1 .7-.5 2.2 2.2 0 0 1 1-.2 1.9 1.9 0 0 1 .7.2 2.1 2.1 0 0 1 .7.4 1.8 1.8 0 0 1 .5 1.3zm-57 18.1v.5a2 2 0 0 1-.2.8 2.4 2.4 0 0 1-.4.6 2 2 0 0 1-.6.4 1.8 1.8 0 0 1-.8.2 3 3 0 0 1-.7-.1 1.5 1.5 0 0 1-.6-.3 1.8 1.8 0 0 1-.5-.7 2.1 2.1 0 0 1-.2-1V73a2 2 0 0 1 .2-.8 1.9 1.9 0 0 1 .4-.6 2 2 0 0 1 .6-.4 2.2 2.2 0 0 1 .8-.2 1.9 1.9 0 0 1 1.4.6 2.1 2.1 0 0 1 .4.7 2.2 2.2 0 0 1 .2.8v.4H238v-.4a1 1 0 0 0-.2-.6.7.7 0 0 0-.6-.3.6.6 0 0 0-.6.3 1.5 1.5 0 0 0-.1.8v4.3a1.1 1.1 0 0 0 .1.6.6.6 0 0 0 .6.3.8.8 0 0 0 .3 0 .7.7 0 0 0 .2-.1.8.8 0 0 0 .2-.4 1.2 1.2 0 0 0 0-.4v-.4zm5-3.7H243v-.2a1.3 1.3 0 0 0-.2-.8.9.9 0 0 0-1-.2.7.7 0 0 0-.3.3 1 1 0 0 0-.2.3 2 2 0 0 0 0 .4v.5a.8.8 0 0 0 .1.3.7.7 0 0 0 .2.2 1.9 1.9 0 0 0 .4.2l1 .3a2.3 2.3 0 0 1 .6.4 1.7 1.7 0 0 1 .4.5 2.1 2.1 0 0 1 .2.6 7 7 0 0 1 0 .9 4.5 4.5 0 0 1 0 1 2.1 2.1 0 0 1-.4.8 1.7 1.7 0 0 1-.7.5 2.3 2.3 0 0 1-1 .2 2.2 2.2 0 0 1-.8-.2 1.9 1.9 0 0 1-.7-.4 2 2 0 0 1-.4-.6 2 2 0 0 1-.2-.8v-.5h1.3v.4a1 1 0 0 0 .2.6.8.8 0 0 0 .6.3 1 1 0 0 0 .5-.1.6.6 0 0 0 .3-.3 1 1 0 0 0 .1-.4v-.5a4.4 4.4 0 0 0 0-.6 1 1 0 0 0-.1-.3.7.7 0 0 0-.2-.2l-.4-.2-.9-.4a2 2 0 0 1-1-.8 3.4 3.4 0 0 1-.2-2.3 2 2 0 0 1 .4-.7 1.8 1.8 0 0 1 .7-.5 2.2 2.2 0 0 1 1-.2 1.9 1.9 0 0 1 .7.2 2.3 2.3 0 0 1 .7.4 1.9 1.9 0 0 1 .6 1.3zm4.8 0H248v-.2a1.3 1.3 0 0 0-.2-.8.9.9 0 0 0-1-.2.8.8 0 0 0-.3.3 1 1 0 0 0-.2.3 2.9 2.9 0 0 0 0 .4v.5a.8.8 0 0 0 .1.3.7.7 0 0 0 .2.2 1.9 1.9 0 0 0 .4.2l1 .3a2.5 2.5 0 0 1 .6.4 1.7 1.7 0 0 1 .4.5 2.1 2.1 0 0 1 .2.6 7 7 0 0 1 0 .9 4.5 4.5 0 0 1 0 1 2.1 2.1 0 0 1-.4.8 1.6 1.6 0 0 1-.7.5 2.4 2.4 0 0 1-1.8 0 1.9 1.9 0 0 1-.7-.4 2.2 2.2 0 0 1-.4-.7 2 2 0 0 1-.2-.8v-.4h1.3v.4a1 1 0 0 0 .2.6.8.8 0 0 0 .6.3 1 1 0 0 0 .5-.1.6.6 0 0 0 .3-.3.8.8 0 0 0 .1-.4v-.5a4.1 4.1 0 0 0 0-.6 1 1 0 0 0 0-.3.7.7 0 0 0-.3-.2l-.4-.2-.9-.4a2 2 0 0 1-1-.8 3.4 3.4 0 0 1-.2-2.3 2 2 0 0 1 .4-.7 1.9 1.9 0 0 1 .7-.5 2.2 2.2 0 0 1 1-.2 1.9 1.9 0 0 1 .7.2 2.2 2.2 0 0 1 .7.4 1.8 1.8 0 0 1 .6 1.3zm3.2 6.1v-8.5h2c1.4 0 2.1.8 2.1 2.5a3.3 3.3 0 0 1-.2 1.3 1.8 1.8 0 0 1-.8.8l1.3 4h-1.3l-1.2-3.7h-.7v3.6zm1.2-7.4V75h.7a1.3 1.3 0 0 0 .5-.1.7.7 0 0 0 .3-.3 1.2 1.2 0 0 0 .1-.4 3.2 3.2 0 0 0 0-.6 3.3 3.3 0 0 0 0-.5 1.1 1.1 0 0 0-.1-.4 1 1 0 0 0-.9-.4zm3.9 7.4v-8.5h3.6v1.1h-2.4v2.5h2.1V76h-2.1v2.5h2.4v1.2zm8.4-6.1h-1.3v-.2a1.2 1.2 0 0 0-.2-.8.8.8 0 0 0-1.3 0 .8.8 0 0 0-.1.4 2 2 0 0 0 0 .4v.4a.8.8 0 0 0 0 .3.7.7 0 0 0 .3.2 1.9 1.9 0 0 0 .4.2l1 .4a2.5 2.5 0 0 1 .6.4 1.7 1.7 0 0 1 .4.5 2.1 2.1 0 0 1 .1.6 7 7 0 0 1 0 .9 4.5 4.5 0 0 1 0 1 2.1 2.1 0 0 1-.4.7 1.7 1.7 0 0 1-.7.6 2.3 2.3 0 0 1-1 .2 2.2 2.2 0 0 1-.8-.2 1.9 1.9 0 0 1-.7-.4 2 2 0 0 1-.4-.7 2 2 0 0 1-.2-.8v-.4h1.3v.4a1 1 0 0 0 .2.6.8.8 0 0 0 .6.3 1.1 1.1 0 0 0 .5-.1.6.6 0 0 0 .3-.3 1 1 0 0 0 .1-.4 4.2 4.2 0 0 0 0-.5v-.6a1 1 0 0 0-.1-.3.7.7 0 0 0-.2-.2l-.4-.2-.9-.4a2 2 0 0 1-1-.8 3.4 3.4 0 0 1-.2-2.3 2.2 2.2 0 0 1 .4-.7 2 2 0 0 1 .7-.5 2.2 2.2 0 0 1 1-.2 1.9 1.9 0 0 1 .7.2 2.1 2.1 0 0 1 .7.4 1.8 1.8 0 0 1 .5 1.3zm.8-.5a2.2 2.2 0 0 1 .2-.8 2 2 0 0 1 .5-.7 2.2 2.2 0 0 1 .6-.4 2.1 2.1 0 0 1 .8-.1 2.1 2.1 0 0 1 .7.1 2.4 2.4 0 0 1 .7.4 2.1 2.1 0 0 1 .4.7 2.2 2.2 0 0 1 .2.9v4.5a2.1 2.1 0 0 1-.2 1 2 2 0 0 1-.4.6 1.9 1.9 0 0 1-.7.3 2.1 2.1 0 0 1-.7.2 2.1 2.1 0 0 1-.8-.2 1.7 1.7 0 0 1-.6-.3 1.8 1.8 0 0 1-.5-.7 2.1 2.1 0 0 1-.2-.9zm1.2 4.6a.8.8 0 0 0 .3.7.8.8 0 0 0 .6.2.9.9 0 0 0 .6-.2.8.8 0 0 0 .2-.7v-4.5a.8.8 0 0 0-.3-.7.9.9 0 0 0-.5-.2.8.8 0 0 0-.6.2.8.8 0 0 0-.3.7zm8-6.6v6.7a2 2 0 0 1-.2.8 2 2 0 0 1-.4.6 2 2 0 0 1-.6.4 2 2 0 0 1-.8.2 2 2 0 0 1-.8-.2 2 2 0 0 1-.6-.4 2 2 0 0 1-.4-.6 1.8 1.8 0 0 1-.2-.8V71h1.2v6.5a1 1 0 0 0 .2.6.8.8 0 0 0 1.1 0 1 1 0 0 0 .2-.6V71zm1.2 8.6v-8.5h2c1.4 0 2 .8 2 2.5a3.3 3.3 0 0 1-.2 1.3 1.8 1.8 0 0 1-.8.8l1.3 4H280l-1.1-3.7h-.8v3.6zm1.1-7.4V75h.7a1.3 1.3 0 0 0 .6-.1.7.7 0 0 0 .3-.3 1.2 1.2 0 0 0 0-.4 4.5 4.5 0 0 0 0-.6 4.8 4.8 0 0 0 0-.5 1.1 1.1 0 0 0 0-.4 1 1 0 0 0-1-.4zm7.9 5v.5a2 2 0 0 1-.2.8 2.4 2.4 0 0 1-.4.6 2 2 0 0 1-.7.4 1.8 1.8 0 0 1-.7.2 3 3 0 0 1-.7-.1 1.5 1.5 0 0 1-.7-.3 1.8 1.8 0 0 1-.5-.7 2.1 2.1 0 0 1-.1-1V73a2 2 0 0 1 .1-.8 1.9 1.9 0 0 1 .4-.6 2 2 0 0 1 .6-.4 2.2 2.2 0 0 1 .8-.2 1.9 1.9 0 0 1 1.5.6 2.1 2.1 0 0 1 .4.7 2.2 2.2 0 0 1 .1.8v.4h-1.2v-.4a1 1 0 0 0-.2-.6.7.7 0 0 0-.6-.3.6.6 0 0 0-.6.3 1.5 1.5 0 0 0-.1.8v4.3a1.1 1.1 0 0 0 .1.6.6.6 0 0 0 .6.3.8.8 0 0 0 .3 0 .7.7 0 0 0 .2-.1.8.8 0 0 0 .2-.3 1.2 1.2 0 0 0 0-.4v-.5zm1 2.4v-8.5h3.6v1.1H288v2.5h2.1V76h-2v2.5h2.4v1.2zm-54.2 36v-8.5h1.8a2.5 2.5 0 0 1 1 .1 1.8 1.8 0 0 1 1 1.2 2.7 2.7 0 0 1 .1.8v.3a2.5 2.5 0 0 1 0 .6 1.6 1.6 0 0 1-.2.5 1.8 1.8 0 0 1-.6.5 1.3 1.3 0 0 1 .6.6 2.3 2.3 0 0 1 .2 1.1v.5a2.5 2.5 0 0 1-.5 1.7 2.2 2.2 0 0 1-1.7.6zm1.2-7.4v2.4h.6a1 1 0 0 0 .8-.3 1.6 1.6 0 0 0 .2-1 1.4 1.4 0 0 0-.2-.8 1 1 0 0 0-.9-.3zm0 3.4v2.8h.5a1.2 1.2 0 0 0 .6-.1.8.8 0 0 0 .4-.3 1.2 1.2 0 0 0 0-.5v-.5a4.5 4.5 0 0 0 0-.6 1.2 1.2 0 0 0 0-.4.7.7 0 0 0-.4-.3 1.6 1.6 0 0 0-.5 0zm4 4v-8.5h2c1.3 0 2 .8 2 2.5a3 3 0 0 1-.2 1.3 1.8 1.8 0 0 1-.8.8l1.3 4H241l-1.1-3.7h-.8v3.6zm1.1-7.4v2.7h.7a1.2 1.2 0 0 0 .5-.1.7.7 0 0 0 .3-.3 1 1 0 0 0 .2-.4 3.2 3.2 0 0 0 0-.6 3.3 3.3 0 0 0 0-.5 1.1 1.1 0 0 0-.2-.4 1 1 0 0 0-.8-.4zm3.9.8a2.2 2.2 0 0 1 .2-.8 2 2 0 0 1 .5-.7 2.2 2.2 0 0 1 .6-.4 2.1 2.1 0 0 1 .7-.1 2.1 2.1 0 0 1 .7.1 2.4 2.4 0 0 1 .7.4 2.1 2.1 0 0 1 .5.7 2.2 2.2 0 0 1 .1.9v4.5a2.1 2.1 0 0 1-.1 1 2 2 0 0 1-.5.6 1.9 1.9 0 0 1-.7.3 2.1 2.1 0 0 1-.7.2 2.1 2.1 0 0 1-.7-.2 1.7 1.7 0 0 1-.7-.3 1.8 1.8 0 0 1-.5-.7 2.1 2.1 0 0 1-.1-.9zm1.2 4.6a.8.8 0 0 0 .3.7.8.8 0 0 0 .5.2.9.9 0 0 0 .6-.2.8.8 0 0 0 .3-.7v-4.5a.8.8 0 0 0-.3-.7.9.9 0 0 0-.5-.2.8.8 0 0 0-.6.2.8.8 0 0 0-.3.7zm10.1-6.6l-1.2 8.6h-1.2l-1-5.5-.9 5.5h-1l-1.3-8.5h1.3l.6 5.4 1-5.4h1l1 5.5.6-5.5zm4.7 2.5h-1.2v-.2a1.3 1.3 0 0 0-.2-.8.7.7 0 0 0-.6-.3.7.7 0 0 0-.4.1.8.8 0 0 0-.3.3 1.2 1.2 0 0 0-.1.3 2.9 2.9 0 0 0 0 .4v.4a1.3 1.3 0 0 0 0 .3.7.7 0 0 0 .3.3 2.2 2.2 0 0 0 .4.2l.9.3a2.5 2.5 0 0 1 .7.4 1.5 1.5 0 0 1 .3.5 2.1 2.1 0 0 1 .2.6 5.4 5.4 0 0 1 0 .9 4 4 0 0 1 0 1 2.1 2.1 0 0 1-.4.8 1.7 1.7 0 0 1-.6.5 2.4 2.4 0 0 1-1 .2 2.3 2.3 0 0 1-.9-.2 2 2 0 0 1-.6-.4 2.2 2.2 0 0 1-.5-.6 2.1 2.1 0 0 1-.1-.8v-.5h1.2v.4a1 1 0 0 0 .2.6.8.8 0 0 0 .7.3 1.1 1.1 0 0 0 .5-.1.7.7 0 0 0 .2-.3 1 1 0 0 0 .1-.4v-.5a4.1 4.1 0 0 0 0-.6.8.8 0 0 0 0-.3.8.8 0 0 0-.3-.2l-.3-.2-1-.4a2 2 0 0 1-1-.8 3 3 0 0 1-.2-1.4 3.3 3.3 0 0 1 0-.9 2 2 0 0 1 .5-.7 1.9 1.9 0 0 1 .6-.5 2.2 2.2 0 0 1 .9-.2 2 2 0 0 1 .8.2 2.1 2.1 0 0 1 .7.4 1.8 1.8 0 0 1 .5 1.3zm1 6.1v-8.5h3.6v1.1h-2.4v2.5h2.1v1.2h-2.1v2.5h2.4v1.2zm4.4 0v-8.5h2c1.5 0 2.2.8 2.2 2.5a3.3 3.3 0 0 1-.3 1.3 1.8 1.8 0 0 1-.8.8l1.3 4h-1.3l-1.1-3.7h-.8v3.6zm1.2-7.4v2.7h.7a1.3 1.3 0 0 0 .6-.1.7.7 0 0 0 .3-.3 1.2 1.2 0 0 0 0-.4 3.2 3.2 0 0 0 0-.6 3.3 3.3 0 0 0 0-.5 1.1 1.1 0 0 0 0-.4 1 1 0 0 0-1-.4zm6.2 7.4v-8.5h3.6v1.1H273v2.6h2.1v1.2H273v3.6zm4.4 0v-8.5h1.3v8.5zm2.4 0v-8.5h1.2l1.8 5.1v-5.1h1.2v8.5h-1.1l-1.9-5.1v5.1zm5.4 0v-8.5h1.8a2 2 0 0 1 1.6.5 2.3 2.3 0 0 1 .6 1.7v4a2.4 2.4 0 0 1-.6 1.8 2.3 2.3 0 0 1-1.7.5zm1.2-7.4v6.3h.6a.9.9 0 0 0 .7-.3 1.2 1.2 0 0 0 .2-.8v-4.1a1.3 1.3 0 0 0-.2-.8.9.9 0 0 0-.7-.3zm7.8 1.3h-1.2v-.2a1.2 1.2 0 0 0-.2-.8.8.8 0 0 0-1.3 0 .8.8 0 0 0-.1.4 2 2 0 0 0 0 .4v.4a.8.8 0 0 0 0 .3.7.7 0 0 0 .3.2 1.9 1.9 0 0 0 .3.2l1 .4a2.5 2.5 0 0 1 .6.4 1.7 1.7 0 0 1 .4.5 2.1 2.1 0 0 1 .2.6 7 7 0 0 1 0 .9 4.5 4.5 0 0 1 0 1 2.1 2.1 0 0 1-.4.7 1.7 1.7 0 0 1-.7.6 2.3 2.3 0 0 1-1 .2 2.2 2.2 0 0 1-.8-.2 1.9 1.9 0 0 1-.6-.4 2 2 0 0 1-.5-.7 2 2 0 0 1-.1-.8v-.4h1.2v.4a1 1 0 0 0 .2.6.8.8 0 0 0 .6.2 1.1 1.1 0 0 0 .5 0 .6.6 0 0 0 .3-.3 1 1 0 0 0 .1-.4 4.2 4.2 0 0 0 0-.5v-.6a1 1 0 0 0 0-.3.7.7 0 0 0-.3-.3l-.4-.1-.8-.4a2 2 0 0 1-1.1-.8 3.4 3.4 0 0 1-.1-2.3 2.2 2.2 0 0 1 .3-.8 2 2 0 0 1 .7-.4 2.2 2.2 0 0 1 .9-.2 1.9 1.9 0 0 1 .8.2 2.1 2.1 0 0 1 .7.4 1.8 1.8 0 0 1 .5 1.3zm-50.2 13.9l-1 3.3a2.1 2.1 0 0 0 0 .3 1.2 1.2 0 0 0 0 .3.5.5 0 0 0 0 .2.3.3 0 0 0 .2.1.9.9 0 0 0 .6-.2 2.6 2.6 0 0 0 .5-.6 3.3 3.3 0 0 0 .4-.9 2.8 2.8 0 0 0 .1-.8 2.5 2.5 0 0 0-.2-1.2 3 3 0 0 0-.7-1 3.5 3.5 0 0 0-1-.5 3.9 3.9 0 0 0-1.3-.2 3.5 3.5 0 0 0-1.4.3 4.2 4.2 0 0 0-1.1.8 3.9 3.9 0 0 0-.8 1.1 3.5 3.5 0 0 0-.3 1.4 3.3 3.3 0 0 0 .3 1.4 3.3 3.3 0 0 0 .8 1 3.8 3.8 0 0 0 1.1.8 3.8 3.8 0 0 0 1.4.3 3.7 3.7 0 0 0 1-.1 4.3 4.3 0 0 0 .7-.3 3.2 3.2 0 0 0 .7-.4 3.3 3.3 0 0 0 .6-.5h.9a4 4 0 0 1-.7.9 5.4 5.4 0 0 1-1 .6 5.2 5.2 0 0 1-1 .4 5.3 5.3 0 0 1-1.2.2 4.7 4.7 0 0 1-1.8-.4 4.5 4.5 0 0 1-1.4-.9 4.3 4.3 0 0 1-1-1.4 4.2 4.2 0 0 1-.4-1.7 4 4 0 0 1 .4-1.7 4.3 4.3 0 0 1 1-1.4 4.7 4.7 0 0 1 1.4-.9 4.7 4.7 0 0 1 1.7-.3 5 5 0 0 1 1.6.2 4.5 4.5 0 0 1 1.4.8 3.5 3.5 0 0 1 .9 1.1 3.3 3.3 0 0 1 .3 1.5 3.2 3.2 0 0 1-.3 1.3 3.8 3.8 0 0 1-.7 1 3.2 3.2 0 0 1-.9.7 2 2 0 0 1-.8.3 1 1 0 0 1-.7-.2.8.8 0 0 1-.3-.6l-.2.3-.4.2a1.6 1.6 0 0 1-.4.2 1.8 1.8 0 0 1-.4 0 1.6 1.6 0 0 1-.7 0 1.8 1.8 0 0 1-.6-.5 1.9 1.9 0 0 1-.5-1.3 3.4 3.4 0 0 1 .2-1.1 3.5 3.5 0 0 1 .6-1 2.9 2.9 0 0 1 .9-.8 2.2 2.2 0 0 1 1.1-.3 1.7 1.7 0 0 1 .9.2 1.2 1.2 0 0 1 .5.7l.3-.7zm-1.5 1.7a1 1 0 0 0-.2-.7.8.8 0 0 0-.7-.3 1.3 1.3 0 0 0-.7.2 2.2 2.2 0 0 0-.6.6 3 3 0 0 0-.4.7 2.3 2.3 0 0 0-.1.8 1 1 0 0 0 .2.8 1 1 0 0 0 .8.3 1.1 1.1 0 0 0 .6-.3 2.4 2.4 0 0 0 .6-.6 3.3 3.3 0 0 0 .4-.7 2.6 2.6 0 0 0 .1-.8zm4 4.9v-8.5h3.7v1.1h-2.4v2.6h2v1.2h-2v3.6zm4.4-6.5a2.2 2.2 0 0 1 .2-1 2 2 0 0 1 .4-.6 2.2 2.2 0 0 1 .7-.4 2.1 2.1 0 0 1 .7-.1 2.1 2.1 0 0 1 .8.1 2.5 2.5 0 0 1 .7.4 2.1 2.1 0 0 1 .4.7 2.2 2.2 0 0 1 .2.9v4.5a2.1 2.1 0 0 1-.2 1 2 2 0 0 1-.4.6 2 2 0 0 1-.7.3 2.1 2.1 0 0 1-.8.2 2.1 2.1 0 0 1-.7-.1 1.9 1.9 0 0 1-.7-.4 1.8 1.8 0 0 1-.4-.6 2.1 2.1 0 0 1-.2-1zm1.2 4.5a.8.8 0 0 0 .3.7.9.9 0 0 0 .5.2.8.8 0 0 0 .6-.2.8.8 0 0 0 .3-.7v-4.5a.8.8 0 0 0-.3-.7.8.8 0 0 0-.6-.2.9.9 0 0 0-.5.2.8.8 0 0 0-.3.7zm3.9 2v-8.5h1.2l1.9 5.1v-5.1h1.2v8.5H258l-1.9-5.1v5.1zm6.2 0v-7.4h-1.4v-1.1h4v1.1h-1.4v7.4zm2.4-2.7v-1.2h3.6v1.2zm4.7 2.7v-8.5h3.7v1.1h-2.5v2.6h2.1v1.2h-2v3.6zm3.3 0l2-8.5h1l1.8 8.5H275l-.4-1.8H273l-.4 1.8zm3-3l-.6-3.1-.6 3.1zm6.3.6v.5a2 2 0 0 1-.1.8 2.4 2.4 0 0 1-.4.6 2 2 0 0 1-.7.4 1.8 1.8 0 0 1-.7.2 3 3 0 0 1-.7-.1 1.5 1.5 0 0 1-.7-.4 1.8 1.8 0 0 1-.4-.6 2.1 2.1 0 0 1-.2-1v-4.7a2 2 0 0 1 .2-.8 1.9 1.9 0 0 1 .4-.6 2 2 0 0 1 .6-.4 2.2 2.2 0 0 1 .8-.2 1.9 1.9 0 0 1 1.4.6 2.1 2.1 0 0 1 .4.6 2.2 2.2 0 0 1 .2.9v.4h-1.3v-.4a1 1 0 0 0-.2-.6.7.7 0 0 0-.6-.3.6.6 0 0 0-.6.3 1.5 1.5 0 0 0-.1.8v4.4a1.1 1.1 0 0 0 .2.6.6.6 0 0 0 .5.3.8.8 0 0 0 .3 0 .7.7 0 0 0 .3-.2.8.8 0 0 0 .1-.2 1.2 1.2 0 0 0 .1-.4v-.5zm1 2.4v-8.5h3.7v1.1h-2.5v2.5h2.2v1.2h-2.2v2.5h2.5v1.2zm8.4-6H289v-.3a1.3 1.3 0 0 0-.2-.8.9.9 0 0 0-1-.2.7.7 0 0 0-.3.3 1 1 0 0 0-.2.3 1.9 1.9 0 0 0 0 .4v.5a.8.8 0 0 0 .1.3.7.7 0 0 0 .2.2 1.9 1.9 0 0 0 .4.2l1 .3a2 2 0 0 1 .6.4 1.7 1.7 0 0 1 .4.5 2.1 2.1 0 0 1 .2.6 7 7 0 0 1 0 .9 4.5 4.5 0 0 1 0 1 2.1 2.1 0 0 1-.4.8 1.7 1.7 0 0 1-.7.5 2.3 2.3 0 0 1-1 .2 2.2 2.2 0 0 1-.8-.2 1.9 1.9 0 0 1-.7-.4 2 2 0 0 1-.4-.6 2 2 0 0 1-.2-.8v-.5h1.2v.4a1 1 0 0 0 .2.6.8.8 0 0 0 .7.3 1 1 0 0 0 .5-.1.6.6 0 0 0 .3-.3 1 1 0 0 0 0-.4v-.5a4.4 4.4 0 0 0 0-.5 1 1 0 0 0 0-.4.7.7 0 0 0-.2-.2l-.4-.2-.9-.4a2 2 0 0 1-1-.8 3.4 3.4 0 0 1-.2-2.3 2 2 0 0 1 .4-.7 1.8 1.8 0 0 1 .7-.5 2.2 2.2 0 0 1 .9-.2 1.9 1.9 0 0 1 .8.2 2.3 2.3 0 0 1 .7.4 1.9 1.9 0 0 1 .5 1.3zm42.9-8.4v-8.5h1.8a2.5 2.5 0 0 1 1 .1 2 2 0 0 1 .7.5 1.8 1.8 0 0 1 .3.7 2.7 2.7 0 0 1 .2.8v.3a2.5 2.5 0 0 1-.1.6 1.3 1.3 0 0 1-.2.5 1.7 1.7 0 0 1-.6.5 1.2 1.2 0 0 1 .6.6 2.3 2.3 0 0 1 .3 1.1v.5a2.4 2.4 0 0 1-.6 1.7 2.2 2.2 0 0 1-1.7.6zm1.2-7.4v2.4h.6a1 1 0 0 0 .8-.3 1.6 1.6 0 0 0 .2-1 1.3 1.3 0 0 0-.2-.8 1 1 0 0 0-.9-.3zm0 3.4v2.8h.6a1.3 1.3 0 0 0 .5-.1.7.7 0 0 0 .3-.3 1 1 0 0 0 .2-.5 5.2 5.2 0 0 0 0-.5 4.3 4.3 0 0 0 0-.6 1 1 0 0 0-.2-.4.7.7 0 0 0-.3-.3 1.5 1.5 0 0 0-.5 0zm3.9 4v-8.5h2c1.5 0 2.2.8 2.2 2.5a3 3 0 0 1-.2 1.3 1.8 1.8 0 0 1-.9.8l1.4 4h-1.3L340 112h-.8v3.6zm1.2-7.4v2.7h.8a1.3 1.3 0 0 0 .5-.1.8.8 0 0 0 .3-.3 1.4 1.4 0 0 0 .1-.4 4.7 4.7 0 0 0 0-.6 5 5 0 0 0 0-.5 1.1 1.1 0 0 0-.1-.4 1 1 0 0 0-1-.4zm3.9.8a2.2 2.2 0 0 1 .2-.8 2 2 0 0 1 .4-.7 2.2 2.2 0 0 1 .7-.4 2.1 2.1 0 0 1 .7-.1 2.1 2.1 0 0 1 .8.1 2.5 2.5 0 0 1 .6.4 2.1 2.1 0 0 1 .5.7 2.2 2.2 0 0 1 .2.9v4.5a2.1 2.1 0 0 1-.2 1 2 2 0 0 1-.5.6 2 2 0 0 1-.6.4 2.1 2.1 0 0 1-.8 0 2.1 2.1 0 0 1-.7 0 1.9 1.9 0 0 1-.7-.4 1.8 1.8 0 0 1-.4-.7 2.1 2.1 0 0 1-.2-.9zm1.2 4.6a.8.8 0 0 0 .2.7.9.9 0 0 0 .6.2.8.8 0 0 0 .6-.2.8.8 0 0 0 .3-.7v-4.5a.8.8 0 0 0-.3-.7.8.8 0 0 0-.6-.2.9.9 0 0 0-.6.2.8.8 0 0 0-.2.7zm10.2-6.6l-1.3 8.6H352l-.9-5.5-1 5.5H349l-1.3-8.5h1.3l.6 5.4 1-5.4h1l1 5.5.6-5.5zm4.7 2.5H358v-.2a1.2 1.2 0 0 0-.2-.8.8.8 0 0 0-1.4 0 .8.8 0 0 0 0 .4 1.9 1.9 0 0 0 0 .4v.4a.8.8 0 0 0 0 .3.7.7 0 0 0 .2.2 1.9 1.9 0 0 0 .4.2l1 .4a2.3 2.3 0 0 1 .6.4 1.7 1.7 0 0 1 .4.5 2.1 2.1 0 0 1 .2.6 7 7 0 0 1 0 .9 4.5 4.5 0 0 1-.1 1 2.1 2.1 0 0 1-.3.7 1.7 1.7 0 0 1-.7.6 2.3 2.3 0 0 1-1 .2 2.2 2.2 0 0 1-.8-.2 1.9 1.9 0 0 1-.7-.4 2.1 2.1 0 0 1-.4-.7 2 2 0 0 1-.2-.8v-.4h1.2v.4a1 1 0 0 0 .2.6.8.8 0 0 0 .7.2 1.1 1.1 0 0 0 .5 0 .6.6 0 0 0 .2-.3 1 1 0 0 0 .2-.4 4.2 4.2 0 0 0 0-.5v-.6a1 1 0 0 0-.1-.3.7.7 0 0 0-.3-.3l-.3-.1-.9-.4a2 2 0 0 1-1-.8 3.4 3.4 0 0 1-.2-2.3 2.2 2.2 0 0 1 .4-.8 2 2 0 0 1 .6-.4 2.2 2.2 0 0 1 1-.2 1.9 1.9 0 0 1 .8.1 2.1 2.1 0 0 1 .6.5 1.8 1.8 0 0 1 .6 1.3zm.9 6.1v-8.5h3.6v1.1h-2.4v2.5h2.1v1.2h-2v2.5h2.3v1.2zm4.4 0v-8.5h2c1.5 0 2.2.8 2.2 2.5a3 3 0 0 1-.2 1.3 1.8 1.8 0 0 1-.9.8l1.4 4h-1.3l-1.2-3.7h-.7v3.6zm1.3-7.4v2.7h.7a1.2 1.2 0 0 0 .5-.1.7.7 0 0 0 .3-.3 1.1 1.1 0 0 0 .1-.4 4.7 4.7 0 0 0 0-.6 5 5 0 0 0 0-.5 1.3 1.3 0 0 0-.1-.4 1 1 0 0 0-.9-.4zm6.1 7.4v-8.5h3.6v1.1h-2.4v2.5h2.1v1.2h-2v2.5h2.3v1.2zm3.8 0l1.7-4.5-1.5-4h1.2l1 2.5 1-2.5h1.2l-1.6 4 1.7 4.5h-1.3l-1-2.9-1 3zm4.7 0l2-8.5h1l1.9 8.5H384l-.3-1.8H382l-.4 1.8zm3-3l-.6-3-.6 3zm2.5 3v-8.5h1.2l1.6 4.5 1.5-4.5h1.2v8.5h-1.2v-5.2l-1.3 3.7h-.6l-1.2-3.7v5.2zm6.7 0v-8.5h1.2v8.5zm2.3 0v-8.5h1.2l1.9 5.1v-5.1h1.2v8.5h-1.1l-2-5.1v5.1zm5.4 0v-8.5h3.7v1.1h-2.5v2.5h2.2v1.2h-2.2v2.5h2.5v1.2zm8.4-6.1h-1.2v-.2a1.3 1.3 0 0 0-.2-.8.7.7 0 0 0-.7-.3.7.7 0 0 0-.4.1.8.8 0 0 0-.2.3 1 1 0 0 0-.2.3 2.8 2.8 0 0 0 0 .4v.4a.8.8 0 0 0 .1.3.7.7 0 0 0 .2.3 1.9 1.9 0 0 0 .4.2l1 .3a2.3 2.3 0 0 1 .6.4 1.5 1.5 0 0 1 .4.5 2.1 2.1 0 0 1 .2.6 7 7 0 0 1 0 .9 4 4 0 0 1 0 1 2.3 2.3 0 0 1-.4.8 1.7 1.7 0 0 1-.7.5 2.4 2.4 0 0 1-1 .2 2.3 2.3 0 0 1-.8-.2 2 2 0 0 1-.7-.4 2.4 2.4 0 0 1-.4-.6 2 2 0 0 1-.2-.8v-.5h1.3v.4a1 1 0 0 0 .2.6.8.8 0 0 0 .6.3 1.1 1.1 0 0 0 .5-.1.6.6 0 0 0 .3-.3.8.8 0 0 0 .1-.4v-.5a4.1 4.1 0 0 0 0-.6.8.8 0 0 0 0-.3.7.7 0 0 0-.3-.2l-.4-.2-.9-.4a2 2 0 0 1-1-.8 3.4 3.4 0 0 1-.2-2.3 2 2 0 0 1 .4-.7 1.9 1.9 0 0 1 .7-.5 2.2 2.2 0 0 1 1-.2 2 2 0 0 1 .8.2 2.3 2.3 0 0 1 .6.4 1.8 1.8 0 0 1 .5 1.3zM350 130v-7.4h-1.3v-1.1h4v1.1h-1.4v7.4zm3.3 0v-8.5h3.6v1.1h-2.4v2.5h2.1v1.2h-2.1v2.5h2.4v1.2zm3.8 0l1.7-4.5-1.5-4h1.2l1 2.5.9-2.5h1.3l-1.6 4 1.7 4.5h-1.3l-1-2.9-1 2.9zm6.1 0v-7.4h-1.4v-1.1h4v1.1h-1.4v7.4zm5.4 0v-8.5h1.1l1.9 5.1v-5.1h1.2v8.5h-1.2l-1.8-5.1v5.1zm5.3-6.5a2.2 2.2 0 0 1 .1-1 2 2 0 0 1 .5-.6 2.3 2.3 0 0 1 .7-.4 2.1 2.1 0 0 1 1.4 0 2.3 2.3 0 0 1 .7.4 2.1 2.1 0 0 1 .5.7 2.2 2.2 0 0 1 .2.9v4.5a2.1 2.1 0 0 1-.2 1 2 2 0 0 1-.5.6 2 2 0 0 1-.7.3 2 2 0 0 1-1.4 0 2 2 0 0 1-.7-.3 1.8 1.8 0 0 1-.5-.7 2.1 2.1 0 0 1-.1-.9zm1.2 4.5a.8.8 0 0 0 .2.7 1 1 0 0 0 1.2 0 .8.8 0 0 0 .2-.7v-4.5a.8.8 0 0 0-.2-.7 1 1 0 0 0-1.2 0 .8.8 0 0 0-.2.7zm3.9 2v-8.5h1.8a2 2 0 0 1 1.6.5 2.2 2.2 0 0 1 .6 1.7v4a2.4 2.4 0 0 1-.6 1.7 2.3 2.3 0 0 1-1.7.6zm1.2-7.4v6.3h.6a.9.9 0 0 0 .7-.3 1.3 1.3 0 0 0 .2-.8v-4.1a1.3 1.3 0 0 0-.2-.8.8.8 0 0 0-.7-.3zm3.9 7.4v-8.5h3.7v1.1h-2.4v2.5h2v1.2h-2v2.5h2.4v1.2zm8.5-6h-1.3v-.3a1.3 1.3 0 0 0-.2-.8.9.9 0 0 0-1-.2.8.8 0 0 0-.3.3 1 1 0 0 0-.1.3 2.7 2.7 0 0 0 0 .4v.5a.8.8 0 0 0 0 .3.7.7 0 0 0 .3.2 1.9 1.9 0 0 0 .3.2l1 .3a2.3 2.3 0 0 1 .6.4 1.7 1.7 0 0 1 .4.5 2.1 2.1 0 0 1 .2.6 7 7 0 0 1 0 .9 4.5 4.5 0 0 1 0 1 2.1 2.1 0 0 1-.4.8 1.6 1.6 0 0 1-.7.5 2.4 2.4 0 0 1-1.8 0 1.9 1.9 0 0 1-.6-.4 2.4 2.4 0 0 1-.5-.7 2 2 0 0 1-.1-.8v-.4h1.2v.4a1 1 0 0 0 .2.6.8.8 0 0 0 .7.3 1 1 0 0 0 .4-.1.6.6 0 0 0 .3-.3.8.8 0 0 0 .1-.4v-.5a4.1 4.1 0 0 0 0-.5 1 1 0 0 0 0-.4.7.7 0 0 0-.3-.2l-.4-.2-.8-.4a2 2 0 0 1-1-.8 3.4 3.4 0 0 1-.2-2.3 2 2 0 0 1 .4-.7 1.8 1.8 0 0 1 .6-.5 2.2 2.2 0 0 1 1-.2 1.9 1.9 0 0 1 .8.2 2.2 2.2 0 0 1 .6.4 1.8 1.8 0 0 1 .6 1.3z"/><path class="cls-1" d="M518.4 102.8a5.2 5.2 0 0 1 5.2 5.2v21.6a5.2 5.2 0 0 1-5.2 5.2h-79.2a5.2 5.2 0 0 1-5.2-5.2V108a5.2 5.2 0 0 1 5.2-5.2h79.2m0-2h-79.2a7.2 7.2 0 0 0-7.2 7.2v21.6a7.2 7.2 0 0 0 7.2 7.2h79.2a7.2 7.2 0 0 0 7.2-7.2V108a7.2 7.2 0 0 0-7.2-7.2zm-108 2a5.2 5.2 0 0 1 5.2 5.2v21.6a5.2 5.2 0 0 1-5.2 5.2h-79.2a5.2 5.2 0 0 1-5.2-5.2V108a5.2 5.2 0 0 1 5.2-5.2h79.2m0-2h-79.2a7.2 7.2 0 0 0-7.2 7.2v21.6a7.2 7.2 0 0 0 7.2 7.2h79.2a7.2 7.2 0 0 0 7.2-7.2V108a7.2 7.2 0 0 0-7.2-7.2zM86.4 2a5.2 5.2 0 0 1 5.2 5.2v21.6a5.2 5.2 0 0 1-5.2 5.2H7.2A5.2 5.2 0 0 1 2 28.8V7.2A5.2 5.2 0 0 1 7.2 2h79.2m0-2H7.2A7.2 7.2 0 0 0 0 7.2v21.6A7.2 7.2 0 0 0 7.2 36h79.2a7.2 7.2 0 0 0 7.2-7.2V7.2A7.2 7.2 0 0 0 86.4 0zm108 2a5.2 5.2 0 0 1 5.2 5.2v21.6a5.2 5.2 0 0 1-5.2 5.2h-79.2a5.2 5.2 0 0 1-5.2-5.2V7.2a5.2 5.2 0 0 1 5.2-5.2h79.2m0-2h-79.2a7.2 7.2 0 0 0-7.2 7.2v21.6a7.2 7.2 0 0 0 7.2 7.2h79.2a7.2 7.2 0 0 0 7.2-7.2V7.2a7.2 7.2 0 0 0-7.2-7.2zm0 52.4a5.2 5.2 0 0 1 5.2 5.2v21.6a5.2 5.2 0 0 1-5.2 5.2h-79.2a5.2 5.2 0 0 1-5.2-5.2V57.6a5.2 5.2 0 0 1 5.2-5.2h79.2m0-2h-79.2a7.2 7.2 0 0 0-7.2 7.2v21.6a7.2 7.2 0 0 0 7.2 7.2h79.2a7.2 7.2 0 0 0 7.2-7.2V57.6a7.2 7.2 0 0 0-7.2-7.2zm108 2a5.2 5.2 0 0 1 5.2 5.2v21.6a5.2 5.2 0 0 1-5.2 5.2h-79.2a5.2 5.2 0 0 1-5.2-5.2V57.6a5.2 5.2 0 0 1 5.2-5.2h79.2m0-2h-79.2a7.2 7.2 0 0 0-7.2 7.2v21.6a7.2 7.2 0 0 0 7.2 7.2h79.2a7.2 7.2 0 0 0 7.2-7.2V57.6a7.2 7.2 0 0 0-7.2-7.2zm108 2a5.2 5.2 0 0 1 5.2 5.2v21.6a5.2 5.2 0 0 1-5.2 5.2h-79.2a5.2 5.2 0 0 1-5.2-5.2V57.6a5.2 5.2 0 0 1 5.2-5.2h79.2m0-2h-79.2a7.2 7.2 0 0 0-7.2 7.2v21.6a7.2 7.2 0 0 0 7.2 7.2h79.2a7.2 7.2 0 0 0 7.2-7.2V57.6a7.2 7.2 0 0 0-7.2-7.2zm-108 52.4a5.2 5.2 0 0 1 5.2 5.2v21.6a5.2 5.2 0 0 1-5.2 5.2h-79.2a5.2 5.2 0 0 1-5.2-5.2V108a5.2 5.2 0 0 1 5.2-5.2h79.2m0-2h-79.2a7.2 7.2 0 0 0-7.2 7.2v21.6a7.2 7.2 0 0 0 7.2 7.2h79.2a7.2 7.2 0 0 0 7.2-7.2V108a7.2 7.2 0 0 0-7.2-7.2zM626.4 2a5.2 5.2 0 0 1 5.2 5.2v21.6a5.2 5.2 0 0 1-5.2 5.2h-79.2a5.2 5.2 0 0 1-5.2-5.2V7.2a5.2 5.2 0 0 1 5.2-5.2h79.2m0-2h-79.2a7.2 7.2 0 0 0-7.2 7.2v21.6a7.2 7.2 0 0 0 7.2 7.2h79.2a7.2 7.2 0 0 0 7.2-7.2V7.2a7.2 7.2 0 0 0-7.2-7.2zm0 52.4a5.2 5.2 0 0 1 5.2 5.2v21.6a5.2 5.2 0 0 1-5.2 5.2h-79.2a5.2 5.2 0 0 1-5.2-5.2V57.6a5.2 5.2 0 0 1 5.2-5.2h79.2m0-2h-79.2a7.2 7.2 0 0 0-7.2 7.2v21.6a7.2 7.2 0 0 0 7.2 7.2h79.2a7.2 7.2 0 0 0 7.2-7.2V57.6a7.2 7.2 0 0 0-7.2-7.2z"/><path class="cls-1" d="M441 115.6v-8.5h1.7a2.5 2.5 0 0 1 1 .1 1.9 1.9 0 0 1 .7.5 1.8 1.8 0 0 1 .4.7 3.1 3.1 0 0 1 0 .8v.3a2.5 2.5 0 0 1 0 .6 1.6 1.6 0 0 1-.1.5 1.8 1.8 0 0 1-.7.5 1.3 1.3 0 0 1 .7.6 2.5 2.5 0 0 1 .2 1.1v.5a2.5 2.5 0 0 1-.6 1.7 2.3 2.3 0 0 1-1.7.6zm1.2-7.4v2.4h.5a1 1 0 0 0 .8-.3 1.6 1.6 0 0 0 .2-1 1.4 1.4 0 0 0-.2-.8 1 1 0 0 0-.8-.3zm0 3.4v2.8h.5a1.4 1.4 0 0 0 .6-.1.8.8 0 0 0 .3-.3 1.3 1.3 0 0 0 .1-.5v-.5a4.5 4.5 0 0 0 0-.6 1.2 1.2 0 0 0-.1-.4.7.7 0 0 0-.4-.3 1.6 1.6 0 0 0-.5 0zm3.8 4v-8.5h2c1.4 0 2.2.8 2.2 2.5a3.3 3.3 0 0 1-.3 1.3 1.8 1.8 0 0 1-.8.8l1.3 4h-1.3L448 112h-.7v3.6zm1.2-7.4v2.7h.7a1.2 1.2 0 0 0 .5-.1.7.7 0 0 0 .3-.3 1.2 1.2 0 0 0 .2-.4 3.2 3.2 0 0 0 0-.6 3.3 3.3 0 0 0 0-.5 1.1 1.1 0 0 0-.2-.4 1 1 0 0 0-.8-.4zm3.8.8a2.2 2.2 0 0 1 .2-.8 2.2 2.2 0 0 1 .5-.7 2.3 2.3 0 0 1 .7-.4 2.1 2.1 0 0 1 1.5 0 2.3 2.3 0 0 1 .6.4 2.1 2.1 0 0 1 .5.7 2.2 2.2 0 0 1 .2.9v4.5a2.1 2.1 0 0 1-.2 1 2 2 0 0 1-.5.6 2 2 0 0 1-.6.4 2 2 0 0 1-1.5 0 2 2 0 0 1-.7-.4 2 2 0 0 1-.4-.7 2.1 2.1 0 0 1-.2-.9zm1.3 4.6a.8.8 0 0 0 .2.7 1 1 0 0 0 1.2 0 .8.8 0 0 0 .3-.7v-4.5a.8.8 0 0 0-.3-.7 1 1 0 0 0-1.2 0 .8.8 0 0 0-.2.7zm10.2-6.6l-1.3 8.6H460l-1-5.5-.9 5.5H457l-1.3-8.5h1.3l.6 5.4 1-5.4h1l1 5.5.5-5.5zm4.7 2.5H466v-.2a1.3 1.3 0 0 0-.2-.8.9.9 0 0 0-1-.2.8.8 0 0 0-.3.3 1 1 0 0 0-.2.3 2.7 2.7 0 0 0 0 .4v.5a.8.8 0 0 0 .1.3.7.7 0 0 0 .2.2 1.9 1.9 0 0 0 .4.2l1 .3a2.3 2.3 0 0 1 .6.4 1.7 1.7 0 0 1 .4.5 2.1 2.1 0 0 1 .2.6 7 7 0 0 1 0 .9 4.5 4.5 0 0 1 0 1 2.1 2.1 0 0 1-.4.8 1.6 1.6 0 0 1-.7.5 2.4 2.4 0 0 1-1.8 0 1.9 1.9 0 0 1-.7-.4 2.4 2.4 0 0 1-.4-.7 2 2 0 0 1-.2-.8v-.4h1.3v.4a1 1 0 0 0 .2.6.8.8 0 0 0 .6.2 1 1 0 0 0 .5 0 .6.6 0 0 0 .3-.3.8.8 0 0 0 .1-.4v-.6a4.1 4.1 0 0 0 0-.5 1 1 0 0 0 0-.3.8.8 0 0 0-.3-.3l-.4-.1-.9-.4a2 2 0 0 1-1-.9 3.4 3.4 0 0 1-.2-2.2 2 2 0 0 1 .4-.8 1.9 1.9 0 0 1 .7-.5 2.2 2.2 0 0 1 1-.1 1.9 1.9 0 0 1 .7.1 2.2 2.2 0 0 1 .7.5 1.8 1.8 0 0 1 .5 1.3zm.9 6.1v-8.5h3.6v1.1h-2.4v2.5h2.1v1.2h-2v2.5h2.4v1.2zm4.4 0v-8.5h2c1.5 0 2.2.8 2.2 2.5a3.3 3.3 0 0 1-.2 1.3 1.8 1.8 0 0 1-.9.8l1.4 4h-1.3l-1.2-3.7h-.7v3.6zm1.3-7.4v2.7h.7a1.3 1.3 0 0 0 .5-.1.7.7 0 0 0 .3-.3 1.2 1.2 0 0 0 .1-.4 4.5 4.5 0 0 0 0-.6 4.8 4.8 0 0 0 0-.5 1.1 1.1 0 0 0-.1-.4 1 1 0 0 0-.9-.4zm6.1 7.4v-8.5h2c1.4 0 2.2.8 2.2 2.5a3 3 0 0 1-.3 1.3 1.8 1.8 0 0 1-.8.8l1.3 4H483l-1.2-3.7h-.7v3.6zm1.2-7.4v2.7h.7a1.2 1.2 0 0 0 .5-.1.7.7 0 0 0 .3-.3 1 1 0 0 0 .1-.4 3.2 3.2 0 0 0 0-.6 3.3 3.3 0 0 0 0-.5 1.1 1.1 0 0 0 0-.4 1 1 0 0 0-1-.4zm3.9 7.4v-8.5h3.6v1.1h-2.4v2.5h2.1v1.2h-2v2.5h2.3v1.2zm4.4-6.6a2.2 2.2 0 0 1 .2-.8 2 2 0 0 1 .4-.7 2.2 2.2 0 0 1 .7-.4 2.1 2.1 0 0 1 .7-.1 2.1 2.1 0 0 1 .8.1 2.4 2.4 0 0 1 .6.4 2.1 2.1 0 0 1 .5.7 2.2 2.2 0 0 1 .2.9v4.5a2 2 0 0 1-.2.9l.8.6-.7.7-.7-.6a2 2 0 0 1-1.3.5 2.1 2.1 0 0 1-.7-.1 1.9 1.9 0 0 1-.7-.4 1.8 1.8 0 0 1-.4-.7 2.1 2.1 0 0 1-.2-.9zm1.2 4.6a.8.8 0 0 0 .2.7.8.8 0 0 0 .6.2.5.5 0 0 0 .3 0l-.6-.5.6-.7.6.4V109a.8.8 0 0 0-.3-.6.9.9 0 0 0-.6-.2.8.8 0 0 0-.6.2.8.8 0 0 0-.2.6zm7.9-6.6v6.7a2 2 0 0 1-.6 1.4 2 2 0 0 1-.6.4 2 2 0 0 1-.8.2 2 2 0 0 1-.7-.2 2 2 0 0 1-.7-.4 2 2 0 0 1-.4-.6 1.9 1.9 0 0 1-.1-.8V107h1.2v6.5a1 1 0 0 0 .2.6.8.8 0 0 0 1 0 1 1 0 0 0 .3-.6V107zm1.2 8.6v-8.5h3.6v1.1H501v2.5h2.1v1.2H501v2.5h2.4v1.2zm8.3-6.1h-1.2v-.2a1.3 1.3 0 0 0-.2-.8.7.7 0 0 0-.6-.3.7.7 0 0 0-.4.1.8.8 0 0 0-.3.3 1.2 1.2 0 0 0-.1.3 2.8 2.8 0 0 0 0 .4v.4a1.3 1.3 0 0 0 0 .3.7.7 0 0 0 .3.3 2.2 2.2 0 0 0 .4.2l.9.3a2.3 2.3 0 0 1 .7.4 1.5 1.5 0 0 1 .3.5 2.1 2.1 0 0 1 .2.6 5.4 5.4 0 0 1 0 .9 4 4 0 0 1 0 1 2.1 2.1 0 0 1-.4.8 1.7 1.7 0 0 1-.6.5 2.4 2.4 0 0 1-1 .2 2.3 2.3 0 0 1-.9-.2 2 2 0 0 1-.6-.4 2.4 2.4 0 0 1-.5-.6 2.1 2.1 0 0 1-.1-.8v-.5h1.2v.4a1 1 0 0 0 .2.6.8.8 0 0 0 .7.3 1.1 1.1 0 0 0 .5-.1.7.7 0 0 0 .2-.3 1 1 0 0 0 .1-.4v-.5a4.1 4.1 0 0 0 0-.6.8.8 0 0 0 0-.3.8.8 0 0 0-.3-.2l-.3-.2-1-.4a2 2 0 0 1-1-.8 3 3 0 0 1-.3-1.4 3.3 3.3 0 0 1 .2-.9 2 2 0 0 1 .4-.7 1.9 1.9 0 0 1 .6-.5 2.2 2.2 0 0 1 .9-.2 2 2 0 0 1 .8.2 2.1 2.1 0 0 1 .7.4 1.8 1.8 0 0 1 .5 1.3zm1.8 6.1v-7.4h-1.4v-1.1h4v1.1H511v7.4zm7.2-6.1h-1.3v-.2a1.3 1.3 0 0 0-.2-.8.9.9 0 0 0-1-.2.7.7 0 0 0-.3.3 1 1 0 0 0-.2.3 1.9 1.9 0 0 0 0 .4v.5a.8.8 0 0 0 .1.3.7.7 0 0 0 .2.2 1.9 1.9 0 0 0 .4.2l1 .3a2 2 0 0 1 .6.4 1.7 1.7 0 0 1 .4.5 2.1 2.1 0 0 1 .2.6 7 7 0 0 1 0 .9 4.5 4.5 0 0 1-.1 1 2.1 2.1 0 0 1-.4.8 1.7 1.7 0 0 1-.6.5 2.3 2.3 0 0 1-1 .2 2.2 2.2 0 0 1-.9-.2 1.9 1.9 0 0 1-.6-.4 2.1 2.1 0 0 1-.5-.6 2 2 0 0 1-.1-.8v-.5h1.2v.4a1 1 0 0 0 .2.6.8.8 0 0 0 .7.3 1 1 0 0 0 .4-.1.6.6 0 0 0 .3-.3 1 1 0 0 0 .1-.4v-.5a4.4 4.4 0 0 0 0-.6 1 1 0 0 0 0-.3.7.7 0 0 0-.3-.2l-.3-.2-1-.4a2 2 0 0 1-1-.8 3.4 3.4 0 0 1-.1-2.3 2 2 0 0 1 .4-.7 1.8 1.8 0 0 1 .6-.5 2.2 2.2 0 0 1 1-.2 1.9 1.9 0 0 1 .8.2 2.3 2.3 0 0 1 .6.4 1.9 1.9 0 0 1 .6 1.3zM446.9 130v-8.5h3.6v1.1h-2.4v2.6h2v1.2h-2v3.6zm4.3-6.5a2.2 2.2 0 0 1 .2-1 2 2 0 0 1 .5-.6 2.2 2.2 0 0 1 .6-.4 2.2 2.2 0 0 1 1.5 0 2.4 2.4 0 0 1 .7.4 2 2 0 0 1 .4.7 2.2 2.2 0 0 1 .2.9v4.5a2.1 2.1 0 0 1-.2 1 1.8 1.8 0 0 1-.4.6 2 2 0 0 1-.7.3 2 2 0 0 1-1.5 0 1.9 1.9 0 0 1-.6-.3 1.8 1.8 0 0 1-.5-.7 2.1 2.1 0 0 1-.2-.9zm1.2 4.5a.8.8 0 0 0 .3.7 1 1 0 0 0 1.2 0 .8.8 0 0 0 .2-.7v-4.5a.8.8 0 0 0-.2-.7 1 1 0 0 0-1.2 0 .8.8 0 0 0-.3.7zm4 2v-8.5h1.1l1.9 5.1v-5.1h1.2v8.5h-1.1l-2-5.1v5.1zm6.1 0v-7.4h-1.4v-1.1h4v1.1h-1.3v7.4zm5.5 0v-8.5h2c1.4 0 2.2.8 2.2 2.5a3 3 0 0 1-.3 1.3 1.8 1.8 0 0 1-.8.8l1.3 3.9H471l-1.1-3.6h-.8v3.6zm1.2-7.4v2.7h.7a1.2 1.2 0 0 0 .5-.1.7.7 0 0 0 .3-.3 1 1 0 0 0 .2-.4 3.2 3.2 0 0 0 0-.6 3.3 3.3 0 0 0 0-.5 1.1 1.1 0 0 0-.2-.5 1 1 0 0 0-.8-.3zm3.8 7.4v-8.5h3.7v1.1h-2.4v2.5h2v1.2h-2v2.5h2.4v1.2zm8.5-6h-1.3v-.3a1.3 1.3 0 0 0-.2-.8.9.9 0 0 0-1-.2.7.7 0 0 0-.3.3 1 1 0 0 0-.1.3 1.9 1.9 0 0 0 0 .4v.5a.8.8 0 0 0 0 .3.7.7 0 0 0 .3.2 1.9 1.9 0 0 0 .4.2l.9.3a2 2 0 0 1 .6.4 1.7 1.7 0 0 1 .4.5 2.1 2.1 0 0 1 .2.6 7 7 0 0 1 0 .9 4.5 4.5 0 0 1 0 1 2.1 2.1 0 0 1-.4.8 1.7 1.7 0 0 1-.7.5 2.3 2.3 0 0 1-1 .2 2.2 2.2 0 0 1-.8-.2 1.9 1.9 0 0 1-.7-.4 2.1 2.1 0 0 1-.4-.6 2 2 0 0 1-.2-.8v-.5h1.2v.4a1 1 0 0 0 .2.6.8.8 0 0 0 .7.3 1 1 0 0 0 .5-.1.6.6 0 0 0 .3-.3 1 1 0 0 0 0-.4v-.5a4.4 4.4 0 0 0 0-.5 1 1 0 0 0 0-.4.7.7 0 0 0-.2-.2l-.4-.2-.9-.4a2 2 0 0 1-1-.8 3.4 3.4 0 0 1-.2-2.3 2 2 0 0 1 .4-.7 1.8 1.8 0 0 1 .7-.5 2.2 2.2 0 0 1 .9-.2 1.9 1.9 0 0 1 .8.2 2.3 2.3 0 0 1 .7.4 1.9 1.9 0 0 1 .5 1.3zm.8-.5a2.2 2.2 0 0 1 .2-1 2 2 0 0 1 .5-.6 2.2 2.2 0 0 1 .6-.4 2.2 2.2 0 0 1 1.5 0 2.4 2.4 0 0 1 .7.4 2 2 0 0 1 .4.7 2.2 2.2 0 0 1 .2.9v4.5a2.1 2.1 0 0 1-.2 1 1.8 1.8 0 0 1-.4.6 2 2 0 0 1-.7.3 2 2 0 0 1-1.5 0 1.9 1.9 0 0 1-.6-.3 1.8 1.8 0 0 1-.5-.7 2.1 2.1 0 0 1-.2-.9zm1.2 4.5a.8.8 0 0 0 .3.7 1 1 0 0 0 1.1 0 .8.8 0 0 0 .3-.7v-4.5a.8.8 0 0 0-.3-.7 1 1 0 0 0-1.1 0 .8.8 0 0 0-.3.7zm7.9-6.5v6.6a2 2 0 0 1-.1.8 2.2 2.2 0 0 1-.4.6 2.1 2.1 0 0 1-.7.4 2 2 0 0 1-.7.2 2 2 0 0 1-1.4-.6 2.2 2.2 0 0 1-.5-.6 1.9 1.9 0 0 1-.1-.8v-6.6h1.2v6.5a1 1 0 0 0 .2.7.8.8 0 0 0 .6.2.7.7 0 0 0 .5-.2 1 1 0 0 0 .2-.7v-6.5zm1.2 8.5v-8.5h2c1.4 0 2.1.8 2.1 2.5a3.3 3.3 0 0 1-.2 1.3 1.8 1.8 0 0 1-.8.8l1.3 3.9h-1.3l-1.1-3.6h-.8v3.6zm1.2-7.4v2.7h.7a1.3 1.3 0 0 0 .5-.1.7.7 0 0 0 .3-.3 1.2 1.2 0 0 0 .2-.4 3.2 3.2 0 0 0 0-.6 3.3 3.3 0 0 0 0-.5 1.1 1.1 0 0 0-.2-.5 1 1 0 0 0-.9-.3zm7.8 5v.5a2 2 0 0 1-.2.8 2.1 2.1 0 0 1-.4.6 2 2 0 0 1-.6.4 1.8 1.8 0 0 1-.8.2 3 3 0 0 1-.7-.1 1.7 1.7 0 0 1-.6-.4 1.8 1.8 0 0 1-.5-.6 2.3 2.3 0 0 1-.2-1v-4.7a2 2 0 0 1 .2-.7 1.8 1.8 0 0 1 .4-.7 1.9 1.9 0 0 1 .6-.4 2 2 0 0 1 .8-.1 1.9 1.9 0 0 1 1.4.5 2 2 0 0 1 .4.7 2.2 2.2 0 0 1 .2.8v.5h-1.2v-.4a1 1 0 0 0-.2-.6.7.7 0 0 0-.6-.3.6.6 0 0 0-.6.3 1.5 1.5 0 0 0-.1.7v4.4a1.1 1.1 0 0 0 .1.6.6.6 0 0 0 .6.3.8.8 0 0 0 .3 0 .7.7 0 0 0 .2-.2.8.8 0 0 0 .2-.2 1 1 0 0 0 0-.4v-.5zm1 2.4v-8.5h3.6v1.1h-2.4v2.5h2.1v1.2h-2v2.5h2.3v1.2zm8.4-6h-1.2v-.3a1.3 1.3 0 0 0-.2-.8.9.9 0 0 0-1.1-.2.8.8 0 0 0-.3.3 1 1 0 0 0 0 .3 1.9 1.9 0 0 0 0 .4v.5a.8.8 0 0 0 0 .3.7.7 0 0 0 .2.2 1.9 1.9 0 0 0 .4.2l1 .3a2.3 2.3 0 0 1 .6.4 1.7 1.7 0 0 1 .4.5 2.1 2.1 0 0 1 .2.6 7 7 0 0 1 0 .9 4.5 4.5 0 0 1 0 1 2.1 2.1 0 0 1-.4.8 1.6 1.6 0 0 1-.7.5 2.4 2.4 0 0 1-1.8 0 1.9 1.9 0 0 1-.7-.4 2.4 2.4 0 0 1-.4-.7 2 2 0 0 1-.2-.8v-.4h1.2v.4a1 1 0 0 0 .2.6.8.8 0 0 0 .7.3 1 1 0 0 0 .5-.1.6.6 0 0 0 .2-.3.8.8 0 0 0 .1-.4v-.5a4.1 4.1 0 0 0 0-.5 1 1 0 0 0 0-.4.7.7 0 0 0-.3-.2l-.3-.2-1-.4a2 2 0 0 1-1-.8 3.4 3.4 0 0 1-.1-2.3 2 2 0 0 1 .4-.7 1.8 1.8 0 0 1 .6-.5 2.2 2.2 0 0 1 1-.2 1.9 1.9 0 0 1 .8.2 2.2 2.2 0 0 1 .6.4 1.8 1.8 0 0 1 .6 1.3zM336.5 65.2v-8.5h1.8a2.5 2.5 0 0 1 1 .1 2 2 0 0 1 .6.5 1.8 1.8 0 0 1 .4.7 2.7 2.7 0 0 1 .1.8v.3a2.4 2.4 0 0 1 0 .6 1.3 1.3 0 0 1-.2.5 1.6 1.6 0 0 1-.6.5 1.2 1.2 0 0 1 .6.6 2.3 2.3 0 0 1 .2 1.1v.5a2.4 2.4 0 0 1-.5 1.7 2.2 2.2 0 0 1-1.8.6zm1.2-7.4v2.4h.5a1 1 0 0 0 .9-.3 1.6 1.6 0 0 0 .2-1 1.3 1.3 0 0 0-.3-.8 1 1 0 0 0-.8-.3zm0 3.4V64h.5a1.2 1.2 0 0 0 .6-.1.7.7 0 0 0 .3-.3 1 1 0 0 0 .1-.5 5.2 5.2 0 0 0 0-.5 4.5 4.5 0 0 0 0-.6 1 1 0 0 0 0-.4.7.7 0 0 0-.4-.3 1.5 1.5 0 0 0-.6 0zm3.9 4v-8.5h2c1.4 0 2.1.8 2.1 2.5a3 3 0 0 1-.2 1.3 1.8 1.8 0 0 1-.8.8l1.3 4h-1.3l-1.1-3.7h-.8v3.6zm1.2-7.4v2.7h.7a1.3 1.3 0 0 0 .5-.1.8.8 0 0 0 .3-.3 1.4 1.4 0 0 0 .1-.4 4.7 4.7 0 0 0 0-.6 4.6 4.6 0 0 0 0-.5 1 1 0 0 0-.1-.4 1 1 0 0 0-.9-.4zm3.8.9a2.2 2.2 0 0 1 .2-1 2 2 0 0 1 .5-.6 2.2 2.2 0 0 1 .6-.4 2.1 2.1 0 0 1 .8-.1 2.1 2.1 0 0 1 .7.1 2.5 2.5 0 0 1 .7.4 2.1 2.1 0 0 1 .4.7 2.2 2.2 0 0 1 .2.9v4.5a2.1 2.1 0 0 1-.2 1 1.9 1.9 0 0 1-1 1 2.1 2.1 0 0 1-.8 0 2.1 2.1 0 0 1-.8 0 1.7 1.7 0 0 1-.6-.5 1.8 1.8 0 0 1-.5-.6 2.1 2.1 0 0 1-.2-1zm1.2 4.5a.8.8 0 0 0 .3.6.9.9 0 0 0 .6.3.8.8 0 0 0 .6-.3.8.8 0 0 0 .2-.6v-4.5a.8.8 0 0 0-.3-.7.8.8 0 0 0-.5-.2.9.9 0 0 0-.6.2.8.8 0 0 0-.3.7zm10.2-6.5l-1.3 8.5h-1.1l-1-5.5-.9 5.5h-1.1l-1.3-8.5h1.3l.6 5.4 1-5.4h1l1 5.5.5-5.5zm4.7 2.4h-1.2V59a1.2 1.2 0 0 0-.2-.8.7.7 0 0 0-.7-.3.8.8 0 0 0-.4.1.7.7 0 0 0-.2.3.8.8 0 0 0-.1.3 2 2 0 0 0 0 .4v.5a.8.8 0 0 0 0 .3.9.9 0 0 0 .3.2 2.7 2.7 0 0 0 .3.2l1 .3a2.5 2.5 0 0 1 .6.4 1.7 1.7 0 0 1 .4.5 2.1 2.1 0 0 1 .2.6 7 7 0 0 1 0 .9 4.5 4.5 0 0 1 0 1 2.1 2.1 0 0 1-.4.8 1.7 1.7 0 0 1-.7.5 2.3 2.3 0 0 1-1 .2 2.2 2.2 0 0 1-.8-.2 1.9 1.9 0 0 1-.6-.4 2 2 0 0 1-.5-.6 2 2 0 0 1-.1-.8v-.5h1.2v.4a1 1 0 0 0 .2.6.8.8 0 0 0 .6.3 1.1 1.1 0 0 0 .5-.1.6.6 0 0 0 .3-.3 1 1 0 0 0 .1-.4 4.2 4.2 0 0 0 0-.5v-.6a1 1 0 0 0 0-.3.7.7 0 0 0-.3-.2l-.4-.2-.9-.4a2 2 0 0 1-1-.8 3 3 0 0 1-.3-1.4 3 3 0 0 1 .1-.9 2.2 2.2 0 0 1 .4-.7 2 2 0 0 1 .7-.5 2.2 2.2 0 0 1 1-.2 1.9 1.9 0 0 1 .7.2 2.1 2.1 0 0 1 .7.4 1.8 1.8 0 0 1 .6 1.3zm.9 6.1v-8.5h3.7v1.1h-2.4v2.5h2.1v1.2h-2.1V64h2.4v1.2zm4.4 0v-8.5h2c1.5 0 2.2.8 2.2 2.5a3 3 0 0 1-.2 1.3 1.8 1.8 0 0 1-.8.8l1.3 4h-1.3l-1.2-3.7h-.7v3.6zm1.3-7.4v2.7h.7a1.2 1.2 0 0 0 .5-.1.7.7 0 0 0 .3-.3 1.1 1.1 0 0 0 .2-.4 4.7 4.7 0 0 0 0-.6 4.6 4.6 0 0 0 0-.5 1.3 1.3 0 0 0-.2-.4 1 1 0 0 0-.9-.4zm5.6 7.4l1.9-8.5h1l1.9 8.5h-1.2l-.4-1.8h-1.7l-.3 1.8zm3-3l-.6-3-.6 3zm2.4 3v-8.5h1.8a2.7 2.7 0 0 1 1 .1 1.8 1.8 0 0 1 .6.5 2 2 0 0 1 .5.8 4.9 4.9 0 0 1 0 1.2 5.5 5.5 0 0 1 0 1 2 2 0 0 1-.3.7 1.8 1.8 0 0 1-.6.7 2.4 2.4 0 0 1-1.1.2h-.7v3.3zm1.2-7.4v3h.6a1.2 1.2 0 0 0 .6-.2.6.6 0 0 0 .3-.3 1 1 0 0 0 .1-.4v-1.2a1.2 1.2 0 0 0 0-.5.8.8 0 0 0-.4-.3 1.2 1.2 0 0 0-.5 0zm3.7 7.4v-8.5h1.8a2.6 2.6 0 0 1 .9.1 1.8 1.8 0 0 1 .7.5 1.9 1.9 0 0 1 .4.8 4.9 4.9 0 0 1 .1 1.2 6.8 6.8 0 0 1 0 1 2 2 0 0 1-.3.7 1.8 1.8 0 0 1-.7.7 2.3 2.3 0 0 1-1 .2h-.7v3.3zm1.2-7.4v3h.6a1.3 1.3 0 0 0 .6-.2.7.7 0 0 0 .3-.3 1.1 1.1 0 0 0 0-.4v-1.2a1.4 1.4 0 0 0 0-.5.7.7 0 0 0-.3-.3 1.2 1.2 0 0 0-.6 0zm3.6 7.4v-8.5h1.3V64h2.4v1.2zm4.6 0v-8.5h1.2v8.5zm2.4 0v-8.5h3.6v1.1h-2.4v2.5h2.1v1.2h-2.1V64h2.4v1.2zm8.4-6.1h-1.2V59a1.3 1.3 0 0 0-.3-.8.7.7 0 0 0-.6-.3.8.8 0 0 0-.4.1.8.8 0 0 0-.3.3 1.2 1.2 0 0 0-.1.3 2.9 2.9 0 0 0 0 .4v.5a1.3 1.3 0 0 0 0 .3.9.9 0 0 0 .3.2l.4.2 1 .3a2.5 2.5 0 0 1 .6.4 1.5 1.5 0 0 1 .4.5 2.1 2.1 0 0 1 .1.6 5.4 5.4 0 0 1 0 .9 4.5 4.5 0 0 1 0 1 2.1 2.1 0 0 1-.4.8 1.7 1.7 0 0 1-.6.5 2.4 2.4 0 0 1-1.9 0 2 2 0 0 1-.6-.4 2.2 2.2 0 0 1-.5-.7 2.1 2.1 0 0 1-.1-.8v-.4h1.2v.4a1 1 0 0 0 .2.6.8.8 0 0 0 .7.3 1.1 1.1 0 0 0 .5-.1.7.7 0 0 0 .2-.3 1 1 0 0 0 .1-.4v-.5a4.1 4.1 0 0 0 0-.6.8.8 0 0 0 0-.3.8.8 0 0 0-.3-.2l-.3-.2-1-.4a2 2 0 0 1-1-.8 3 3 0 0 1-.2-1.4 3.4 3.4 0 0 1 0-.9 2 2 0 0 1 .5-.7 1.9 1.9 0 0 1 .6-.5 2.2 2.2 0 0 1 1-.2 2 2 0 0 1 .8.2 2.3 2.3 0 0 1 .6.4 1.8 1.8 0 0 1 .6 1.3zM341 77.2v.5a2 2 0 0 1-.2.8 2.4 2.4 0 0 1-.4.6 2 2 0 0 1-.7.4 1.8 1.8 0 0 1-.7.2 2.9 2.9 0 0 1-.7-.1 1.5 1.5 0 0 1-.7-.3 1.8 1.8 0 0 1-.4-.7 2.1 2.1 0 0 1-.2-1V73a2.2 2.2 0 0 1 .1-.8 1.8 1.8 0 0 1 1-1 2.2 2.2 0 0 1 .9-.2 1.9 1.9 0 0 1 1.4.6 2.1 2.1 0 0 1 .4.6 2.2 2.2 0 0 1 .2.8v.5h-1.3v-.4a1 1 0 0 0-.2-.6.8.8 0 0 0-1.2 0 1.5 1.5 0 0 0-.1.7v4.4a1.1 1.1 0 0 0 .2.6.6.6 0 0 0 .5.3.9.9 0 0 0 .3 0 .7.7 0 0 0 .2-.2.6.6 0 0 0 .2-.2 1 1 0 0 0 .1-.5v-.4zm4.9-3.7h-1.2v-.2a1.2 1.2 0 0 0-.3-.8.8.8 0 0 0-1.3 0 .8.8 0 0 0-.1.4 2 2 0 0 0 0 .4v.4a.8.8 0 0 0 0 .3.7.7 0 0 0 .3.2 1.9 1.9 0 0 0 .4.2l1 .4a2.5 2.5 0 0 1 .6.4 1.7 1.7 0 0 1 .4.5 2.1 2.1 0 0 1 .1.6 7 7 0 0 1 .1.9 4.5 4.5 0 0 1-.1 1 2.1 2.1 0 0 1-.4.7 1.7 1.7 0 0 1-.6.6 2.3 2.3 0 0 1-1 .2 2.2 2.2 0 0 1-.8-.2 1.9 1.9 0 0 1-.7-.4 2 2 0 0 1-.4-.7 2 2 0 0 1-.2-.8v-.4h1.2v.4a1 1 0 0 0 .2.6.8.8 0 0 0 .7.3 1.1 1.1 0 0 0 .5-.1.6.6 0 0 0 .2-.3 1 1 0 0 0 .1-.4 4.2 4.2 0 0 0 0-.5v-.6a1 1 0 0 0 0-.3.7.7 0 0 0-.3-.2l-.3-.2-1-.4a2 2 0 0 1-1-.8 3.4 3.4 0 0 1-.1-2.3 2.2 2.2 0 0 1 .4-.7 2 2 0 0 1 .6-.5 2.2 2.2 0 0 1 1-.2 1.9 1.9 0 0 1 .8.2 2.1 2.1 0 0 1 .6.4 1.8 1.8 0 0 1 .6 1.3zm4.9 0h-1.3v-.2a1.3 1.3 0 0 0-.2-.8.9.9 0 0 0-1-.2.7.7 0 0 0-.3.3 1 1 0 0 0-.1.3 2 2 0 0 0 0 .4v.5a.8.8 0 0 0 0 .3.7.7 0 0 0 .3.2 1.9 1.9 0 0 0 .3.2l1 .3a2.3 2.3 0 0 1 .6.4 1.7 1.7 0 0 1 .4.5 2.1 2.1 0 0 1 .2.6 7 7 0 0 1 0 .9 4.5 4.5 0 0 1 0 1 2.1 2.1 0 0 1-.4.8 1.7 1.7 0 0 1-.7.5 2.3 2.3 0 0 1-1 .2 2.2 2.2 0 0 1-.8-.2 1.9 1.9 0 0 1-.6-.4 2 2 0 0 1-.5-.6 2 2 0 0 1-.1-.8v-.5h1.2v.4a1 1 0 0 0 .2.6.8.8 0 0 0 .6.3 1 1 0 0 0 .5-.1.6.6 0 0 0 .3-.3 1 1 0 0 0 .1-.4v-.5a4.4 4.4 0 0 0 0-.6 1 1 0 0 0 0-.3.7.7 0 0 0-.3-.2l-.4-.2-.8-.4a2 2 0 0 1-1.1-.8 3.4 3.4 0 0 1-.1-2.3 2 2 0 0 1 .4-.7 1.8 1.8 0 0 1 .6-.5 2.2 2.2 0 0 1 1-.2 1.9 1.9 0 0 1 .8.2 2.3 2.3 0 0 1 .6.4 1.9 1.9 0 0 1 .6 1.3zm3.9 6.1v-7.4h-1.4v-1.1h4v1.1H356v7.4zm3-6.6a2.2 2.2 0 0 1 .1-.8 2 2 0 0 1 .5-.7 2.2 2.2 0 0 1 .7-.4 2.1 2.1 0 0 1 .7-.1 2.1 2.1 0 0 1 .8.1 2.5 2.5 0 0 1 .6.4 2.1 2.1 0 0 1 .5.7 2.2 2.2 0 0 1 .2.9v4.5a2.1 2.1 0 0 1-.2 1 1.9 1.9 0 0 1-1.1 1 2.1 2.1 0 0 1-.8 0 2.1 2.1 0 0 1-.7 0 1.7 1.7 0 0 1-.7-.5 1.8 1.8 0 0 1-.5-.6 2.1 2.1 0 0 1-.1-1zm1.2 4.6a.8.8 0 0 0 .2.7.9.9 0 0 0 .6.2.8.8 0 0 0 .6-.2.8.8 0 0 0 .2-.7v-4.5a.8.8 0 0 0-.2-.7.8.8 0 0 0-.6-.2.9.9 0 0 0-.6.2.8.8 0 0 0-.2.7zm6.1 2v-8.5h1.9a2 2 0 0 1 1.6.5 2.3 2.3 0 0 1 .5 1.7v4a2.4 2.4 0 0 1-.5 1.8 2.3 2.3 0 0 1-1.7.5zm1.3-7.4v6.3h.6a.9.9 0 0 0 .7-.3 1.3 1.3 0 0 0 .2-.8v-4.1a1.3 1.3 0 0 0-.2-.8.9.9 0 0 0-.7-.3zm3.8.8a2.2 2.2 0 0 1 .2-.8 2 2 0 0 1 .5-.7 2.2 2.2 0 0 1 .6-.4 2.1 2.1 0 0 1 .8-.1 2.1 2.1 0 0 1 .7.1 2.4 2.4 0 0 1 .7.4 2.1 2.1 0 0 1 .4.7 2.2 2.2 0 0 1 .2.9v4.5a2.1 2.1 0 0 1-.2 1 2 2 0 0 1-.4.6 1.9 1.9 0 0 1-.7.3 2.1 2.1 0 0 1-.7.2 2.1 2.1 0 0 1-.8-.2 1.7 1.7 0 0 1-.6-.3 1.8 1.8 0 0 1-.5-.7 2.1 2.1 0 0 1-.2-.9zm1.2 4.6a.8.8 0 0 0 .3.7.8.8 0 0 0 .6.2.9.9 0 0 0 .6-.2.8.8 0 0 0 .2-.7v-4.5a.8.8 0 0 0-.3-.7.9.9 0 0 0-.5-.2.8.8 0 0 0-.6.2.8.8 0 0 0-.3.7zm7.9-.4v.5a2 2 0 0 1-.2.8 2.2 2.2 0 0 1-.4.6 1.9 1.9 0 0 1-.6.4 1.8 1.8 0 0 1-.8.2 2.9 2.9 0 0 1-.7-.1 1.5 1.5 0 0 1-.6-.3 2 2 0 0 1-.5-.7 2.3 2.3 0 0 1-.2-1V73a2.2 2.2 0 0 1 .2-.8 2 2 0 0 1 .4-.6 2 2 0 0 1 1.4-.6 1.9 1.9 0 0 1 1.4.6 2 2 0 0 1 .4.7 2.2 2.2 0 0 1 .2.8v.4H378v-.4a1 1 0 0 0-.2-.6.7.7 0 0 0-.6-.3.6.6 0 0 0-.6.3 1.5 1.5 0 0 0-.1.8v4.3a1.2 1.2 0 0 0 .2.6.7.7 0 0 0 .5.3.8.8 0 0 0 .3 0 .7.7 0 0 0 .3-.1.8.8 0 0 0 .1-.3 1 1 0 0 0 .1-.4v-.5zm4.9-6.2v6.7a2 2 0 0 1-.1.8 2 2 0 0 1-.4.6 2.1 2.1 0 0 1-.7.4 2 2 0 0 1-1.5 0 2.2 2.2 0 0 1-.6-.4 2 2 0 0 1-.5-.6 2 2 0 0 1-.1-.8V71h1.2v6.5a1 1 0 0 0 .2.6.8.8 0 0 0 .6.3.7.7 0 0 0 .5-.3 1 1 0 0 0 .2-.6V71zm1.2 8.6v-8.5h1.2l1.5 4.5 1.6-4.5h1.1v8.5h-1.2v-5.2l-1.2 3.7h-.6l-1.2-3.7v5.2zm6.7 0v-8.5h3.6v1.1h-2.4v2.5h2.1V76h-2v2.5h2.3v1.2zm4.4 0v-8.5h1.1l1.9 5.1v-5.1h1.2v8.5h-1.1l-2-5.1v5.1zm6.1 0v-7.4h-1.4v-1.1h4v1.1h-1.3v7.4z"/><g class="cls-2"><path class="cls-1" d="M415.6 2v32H326V2h89.6m2-2H324v36h93.6V0z"/></g><g class="cls-2"><path class="cls-1" d="M341 8.3a2.2 2.2 0 0 1 .2-1 2 2 0 0 1 .5-.6 2.2 2.2 0 0 1 .6-.4 2.1 2.1 0 0 1 .7-.1 2.1 2.1 0 0 1 .8.1 2.4 2.4 0 0 1 .7.4 2.1 2.1 0 0 1 .4.7 2.2 2.2 0 0 1 .2.9v4.5a2.1 2.1 0 0 1-.2 1 2 2 0 0 1-.4.6 2 2 0 0 1-.7.4 2.1 2.1 0 0 1-.7 0 2.1 2.1 0 0 1-.8 0 1.9 1.9 0 0 1-.6-.4 1.8 1.8 0 0 1-.5-.7 2.1 2.1 0 0 1-.2-.9zm1.2 4.5a.8.8 0 0 0 .3.6.8.8 0 0 0 .6.3.9.9 0 0 0 .5-.2.8.8 0 0 0 .3-.7V8.3a.8.8 0 0 0-.3-.7.9.9 0 0 0-.6-.2.8.8 0 0 0-.5.2.8.8 0 0 0-.3.7zm4.7 2V7.4h-1.5V6.3h4.1v1.1h-1.4v7.4zm3.1 0V6.3h1.2v3.6h1.5V6.3h1.3v8.5h-1.2V11h-1.5v3.8zm5.1 0V6.3h3.7v1.1h-2.4V10h2v1.2h-2v2.5h2.4v1.2zm4.5 0V6.3h2c1.4 0 2.1.8 2.1 2.5a3.3 3.3 0 0 1-.2 1.3 1.8 1.8 0 0 1-.8.8l1.3 4h-1.3l-1.1-3.7h-.8v3.6zm1.2-7.4v2.7h.7a1.3 1.3 0 0 0 .5-.1.7.7 0 0 0 .3-.3 1.2 1.2 0 0 0 .1-.4 4.5 4.5 0 0 0 0-.6 4.8 4.8 0 0 0 0-.5 1.1 1.1 0 0 0-.1-.4 1 1 0 0 0-.9-.4zm10.1 1.3h-1.2v-.3a1.2 1.2 0 0 0-.2-.7.8.8 0 0 0-1.4 0 .8.8 0 0 0 0 .4 1.9 1.9 0 0 0 0 .4v.4a.8.8 0 0 0 0 .3.7.7 0 0 0 .2.2 1.9 1.9 0 0 0 .4.2l1 .4a2.3 2.3 0 0 1 .6.4 1.7 1.7 0 0 1 .4.5 2.1 2.1 0 0 1 .2.6 7 7 0 0 1 0 .8 4.5 4.5 0 0 1-.1 1 2.1 2.1 0 0 1-.4.8 1.7 1.7 0 0 1-.7.6 2.3 2.3 0 0 1-1 .2 2.2 2.2 0 0 1-.8-.2 1.9 1.9 0 0 1-.6-.4 2.1 2.1 0 0 1-.5-.7 2 2 0 0 1-.1-.8v-.4h1.2v.4a1 1 0 0 0 .2.6.8.8 0 0 0 .6.3 1.1 1.1 0 0 0 .5-.1.6.6 0 0 0 .3-.3 1 1 0 0 0 .1-.4 4.2 4.2 0 0 0 0-.5v-.6a1 1 0 0 0 0-.3.7.7 0 0 0-.3-.2l-.4-.2-.8-.4a2 2 0 0 1-1.1-.8 3 3 0 0 1-.3-1.4 3 3 0 0 1 .2-.9 2.2 2.2 0 0 1 .4-.7 2 2 0 0 1 .6-.5 2.2 2.2 0 0 1 1-.2 1.9 1.9 0 0 1 .8.2 2.1 2.1 0 0 1 .6.4 1.8 1.8 0 0 1 .6 1.3zm1.7 6.1V7.4h-1.4V6.3h4v1.1h-1.4v7.4zm7.2-8.5v6.6a2 2 0 0 1-.2.8 2.2 2.2 0 0 1-.4.6 2.1 2.1 0 0 1-.7.4 2 2 0 0 1-.7.2 2 2 0 0 1-1.4-.6 2.2 2.2 0 0 1-.4-.6 1.9 1.9 0 0 1-.2-.8V6.3h1.2v6.5a1 1 0 0 0 .2.6.8.8 0 0 0 .5.3.7.7 0 0 0 .6-.2 1 1 0 0 0 .2-.7V6.3zm1.1 8.5V6.3h3.6v1.1h-2.4V10h2.1v1.2h-2v3.6zm4.4 0V6.3h3.7v1.1h-2.4V10h2v1.2h-2v3.6zm5.9-3.6V7.1h-1.5v-.8h3.9V7H392v4.1zm7.7 0V7.1l-1.7 4.1h-.5l-1.6-4.1v4.1h-.9v-5h1.4L397 10l1.4-3.6h1.4v5zm-44.7 18v-8.5h1.2v3.6h1.5v-3.6h1.2v8.5H357v-3.8h-1.5v3.8zm4.5 0l2-8.5h1l1.9 8.5h-1.3l-.3-1.8h-1.7l-.3 1.8zm3-3l-.6-3-.6 3zm2.5 3v-8.5h1.8a2.6 2.6 0 0 1 .9.1 1.8 1.8 0 0 1 .7.5 1.8 1.8 0 0 1 .4.8 4.9 4.9 0 0 1 .1 1.2 6.8 6.8 0 0 1 0 1 2 2 0 0 1-.3.7 1.7 1.7 0 0 1-.7.7 2.2 2.2 0 0 1-1 .2h-.7v3.3zm1.2-7.4v3h.6a1.3 1.3 0 0 0 .6-.2.7.7 0 0 0 .3-.3 1.1 1.1 0 0 0 0-.4v-1.2a1.4 1.4 0 0 0 0-.5.7.7 0 0 0-.3-.3 1.2 1.2 0 0 0-.6 0zm3.6 7.4v-8.5h1.9a2.7 2.7 0 0 1 .9.1 1.7 1.7 0 0 1 .7.5 1.8 1.8 0 0 1 .4.8 4.9 4.9 0 0 1 .1 1.2 6.6 6.6 0 0 1 0 1 2 2 0 0 1-.3.7 1.7 1.7 0 0 1-.7.7 2.2 2.2 0 0 1-1.1.2h-.6v3.3zm1.3-7.4v3h.6a1.3 1.3 0 0 0 .5-.2.6.6 0 0 0 .3-.3 1.1 1.1 0 0 0 .2-.4v-1.2a1.2 1.2 0 0 0-.1-.5.7.7 0 0 0-.3-.3 1.2 1.2 0 0 0-.6 0zm3.7 7.4v-8.5h3.6v1.1h-2.4v2.5h2v1.2h-2V28h2.4v1.2zm4.3 0v-8.5h1.2l1.8 5.1v-5.1h1.3v8.5h-1.2l-1.8-5.1v5.1zm9.4-6.1h-1.3v-.3a1.2 1.2 0 0 0-.2-.7.8.8 0 0 0-1.3 0 .8.8 0 0 0-.1.4 1.9 1.9 0 0 0 0 .4v.4a.8.8 0 0 0 0 .3.7.7 0 0 0 .3.2 1.9 1.9 0 0 0 .4.2l.9.4a2.3 2.3 0 0 1 .7.4 1.7 1.7 0 0 1 .4.5 2.1 2.1 0 0 1 .1.6 7 7 0 0 1 0 .9 4.5 4.5 0 0 1 0 1 2.1 2.1 0 0 1-.4.7 1.7 1.7 0 0 1-.6.6 2.3 2.3 0 0 1-1 .2 2.2 2.2 0 0 1-.9-.2 1.9 1.9 0 0 1-.6-.4 2.1 2.1 0 0 1-.5-.7 2 2 0 0 1-.1-.8v-.4h1.2v.4a1 1 0 0 0 .2.6.8.8 0 0 0 .7.3 1.1 1.1 0 0 0 .4-.1.6.6 0 0 0 .3-.3 1 1 0 0 0 0-.4 4.2 4.2 0 0 0 0-.5v-.5a1 1 0 0 0 0-.4.7.7 0 0 0-.2-.2l-.4-.2-.9-.3a2 2 0 0 1-1-.9 3.4 3.4 0 0 1-.2-2.2 2.2 2.2 0 0 1 .4-.8 2 2 0 0 1 .7-.5 2.2 2.2 0 0 1 .9-.2 1.9 1.9 0 0 1 .8.2 2.1 2.1 0 0 1 .7.4 1.8 1.8 0 0 1 .5 1.4z"/></g><path class="cls-3" d="M93.6 18H108l-6.1-6.1m0 12.2L108 18m93.6 50.4H216l-6.1-6.1m0 12.2l6.1-6.1"/><g class="cls-2"><path class="cls-3" d="M201.6 18H324l-6.1-6.1m0 12.2L324 18"/></g><g class="cls-2"><path class="cls-3" d="M417.6 18H540l-6.1-6.1m0 12.2L540 18"/></g><path class="cls-3" d="M417.6 68.4H540l-6.1-6.1m0 12.2l6.1-6.1m40.7 24.1l6.1-6.1m0 0l6.1 6.1M309.6 68.4H324l-6.1-6.1m0 12.2l6.1-6.1m93.6 50.4H432l-6.1-6.1m0 12.2l6.1-6.1m155.4-68.4V36l-6.1 6.1m12.2 0l-6.1-6.1m-277.8 82.8H324l-6.1-6.1m0 12.2l6.1-6.1m-61.2-32.4v14.4l6.1-6.1m-12.2 0l6.1 6.1M154.8 36v14.4l6.1-6.1m-12.2 0l6.1 6.1m370.8 68.4h61.2V86.4"/></svg>