<svg id="Layer_1" data-name="Layer 1" xmlns="http://www.w3.org/2000/svg" width="8.8in" height="1.9in" viewBox="0 0 633.6 136.8"><defs><style>.cls-1,.cls-4{font-size:12px;font-family:Economica-Bold,Economica;font-weight:700}.cls-1,.cls-2,.cls-4{fill:#fbfef9}.cls-3,.cls-4{opacity:.75}.cls-5{fill:none;stroke:#fbfef9;stroke-linecap:round;stroke-linejoin:round;stroke-width:2px}</style></defs><title>font-loading</title><text class="cls-1" transform="translate(5.3 14.8)">BROWSER REQUESTS<tspan x="19.9" y="14.4">DOCUMENT</tspan></text><text class="cls-1" transform="translate(118 14.8)">BROWSER PARSES<tspan x="15.1" y="14.4">DOCUMENT</tspan></text><text class="cls-1" transform="translate(546.6 14.8)">DOCUMENT FINISHES<tspan x="22.8" y="14.4">LOADING</tspan></text><text class="cls-1" transform="translate(552.3 65.2)">PAGE RENDERING<tspan x="11.6" y="14.4">COMPLETES</tspan></text><text class="cls-1" transform="translate(121.8 65.2)">BROWSER FINDS<tspan x="-5.5" y="14.4">AND REQUESTS CSS</tspan></text><text class="cls-1" transform="translate(226 65.2)">BROWSER PARSES<tspan x="7.2" y="14.4">CSS RESOURCE</tspan></text><text class="cls-1" transform="translate(229.8 115.6)">BROWSER FINDS<tspan x="5.7" y="14.4">@FONT-FACES</tspan></text><text class="cls-1" transform="translate(330.1 115.6)">BROWSER EXAMINES<tspan x="17.3" y="14.4">TEXT NODES</tspan></text><path class="cls-2" d="M518.4 102.8a5.2 5.2 0 0 1 5.2 5.2v21.6a5.2 5.2 0 0 1-5.2 5.2h-79.2a5.2 5.2 0 0 1-5.2-5.2V108a5.2 5.2 0 0 1 5.2-5.2h79.2m0-2h-79.2a7.2 7.2 0 0 0-7.2 7.2v21.6a7.2 7.2 0 0 0 7.2 7.2h79.2a7.2 7.2 0 0 0 7.2-7.2V108a7.2 7.2 0 0 0-7.2-7.2zm-108 2a5.2 5.2 0 0 1 5.2 5.2v21.6a5.2 5.2 0 0 1-5.2 5.2h-79.2a5.2 5.2 0 0 1-5.2-5.2V108a5.2 5.2 0 0 1 5.2-5.2h79.2m0-2h-79.2a7.2 7.2 0 0 0-7.2 7.2v21.6a7.2 7.2 0 0 0 7.2 7.2h79.2a7.2 7.2 0 0 0 7.2-7.2V108a7.2 7.2 0 0 0-7.2-7.2zM86.4 2a5.2 5.2 0 0 1 5.2 5.2v21.6a5.2 5.2 0 0 1-5.2 5.2H7.2A5.2 5.2 0 0 1 2 28.8V7.2A5.2 5.2 0 0 1 7.2 2h79.2m0-2H7.2A7.2 7.2 0 0 0 0 7.2v21.6A7.2 7.2 0 0 0 7.2 36h79.2a7.2 7.2 0 0 0 7.2-7.2V7.2A7.2 7.2 0 0 0 86.4 0zm108 2a5.2 5.2 0 0 1 5.2 5.2v21.6a5.2 5.2 0 0 1-5.2 5.2h-79.2a5.2 5.2 0 0 1-5.2-5.2V7.2a5.2 5.2 0 0 1 5.2-5.2h79.2m0-2h-79.2a7.2 7.2 0 0 0-7.2 7.2v21.6a7.2 7.2 0 0 0 7.2 7.2h79.2a7.2 7.2 0 0 0 7.2-7.2V7.2a7.2 7.2 0 0 0-7.2-7.2zm0 52.4a5.2 5.2 0 0 1 5.2 5.2v21.6a5.2 5.2 0 0 1-5.2 5.2h-79.2a5.2 5.2 0 0 1-5.2-5.2V57.6a5.2 5.2 0 0 1 5.2-5.2h79.2m0-2h-79.2a7.2 7.2 0 0 0-7.2 7.2v21.6a7.2 7.2 0 0 0 7.2 7.2h79.2a7.2 7.2 0 0 0 7.2-7.2V57.6a7.2 7.2 0 0 0-7.2-7.2zm108 2a5.2 5.2 0 0 1 5.2 5.2v21.6a5.2 5.2 0 0 1-5.2 5.2h-79.2a5.2 5.2 0 0 1-5.2-5.2V57.6a5.2 5.2 0 0 1 5.2-5.2h79.2m0-2h-79.2a7.2 7.2 0 0 0-7.2 7.2v21.6a7.2 7.2 0 0 0 7.2 7.2h79.2a7.2 7.2 0 0 0 7.2-7.2V57.6a7.2 7.2 0 0 0-7.2-7.2zm108 2a5.2 5.2 0 0 1 5.2 5.2v21.6a5.2 5.2 0 0 1-5.2 5.2h-79.2a5.2 5.2 0 0 1-5.2-5.2V57.6a5.2 5.2 0 0 1 5.2-5.2h79.2m0-2h-79.2a7.2 7.2 0 0 0-7.2 7.2v21.6a7.2 7.2 0 0 0 7.2 7.2h79.2a7.2 7.2 0 0 0 7.2-7.2V57.6a7.2 7.2 0 0 0-7.2-7.2zm-108 52.4a5.2 5.2 0 0 1 5.2 5.2v21.6a5.2 5.2 0 0 1-5.2 5.2h-79.2a5.2 5.2 0 0 1-5.2-5.2V108a5.2 5.2 0 0 1 5.2-5.2h79.2m0-2h-79.2a7.2 7.2 0 0 0-7.2 7.2v21.6a7.2 7.2 0 0 0 7.2 7.2h79.2a7.2 7.2 0 0 0 7.2-7.2V108a7.2 7.2 0 0 0-7.2-7.2zM626.4 2a5.2 5.2 0 0 1 5.2 5.2v21.6a5.2 5.2 0 0 1-5.2 5.2h-79.2a5.2 5.2 0 0 1-5.2-5.2V7.2a5.2 5.2 0 0 1 5.2-5.2h79.2m0-2h-79.2a7.2 7.2 0 0 0-7.2 7.2v21.6a7.2 7.2 0 0 0 7.2 7.2h79.2a7.2 7.2 0 0 0 7.2-7.2V7.2a7.2 7.2 0 0 0-7.2-7.2zm0 52.4a5.2 5.2 0 0 1 5.2 5.2v21.6a5.2 5.2 0 0 1-5.2 5.2h-79.2a5.2 5.2 0 0 1-5.2-5.2V57.6a5.2 5.2 0 0 1 5.2-5.2h79.2m0-2h-79.2a7.2 7.2 0 0 0-7.2 7.2v21.6a7.2 7.2 0 0 0 7.2 7.2h79.2a7.2 7.2 0 0 0 7.2-7.2V57.6a7.2 7.2 0 0 0-7.2-7.2z"/><text class="cls-1" transform="translate(437.3 115.6)">BROWSER REQUESTS<tspan x="7.5" y="14.4">FONT RESOURCES</tspan></text><text class="cls-1" transform="translate(333.2 65.2)">BROWSER APPLIES<tspan x="1" y="14.4">CSS TO DOCUMENT</tspan></text><g class="cls-3"><path class="cls-2" d="M415.6 2v32H326V2h89.6m2-2H324v36h93.6V0z"/></g><text class="cls-4" transform="translate(340.8 14.8)">OTHER STUFF™<tspan x="11.2" y="14.4">HAPPENS</tspan></text><path class="cls-5" d="M93.6 18H108l-6.1-6.1m0 12.2L108 18m93.6 50.4H216l-6.1-6.1m0 12.2l6.1-6.1"/><g class="cls-3"><path class="cls-5" d="M201.6 18H324l-6.1-6.1m0 12.2L324 18"/></g><g class="cls-3"><path class="cls-5" d="M417.6 18H540l-6.1-6.1m0 12.2L540 18"/></g><path class="cls-5" d="M417.6 68.4H540l-6.1-6.1m0 12.2l6.1-6.1m40.7 24.1l6.1-6.1m0 0l6.1 6.1M309.6 68.4H324l-6.1-6.1m0 12.2l6.1-6.1m93.6 50.4H432l-6.1-6.1m0 12.2l6.1-6.1m155.4-68.4V36l-6.1 6.1m12.2 0l-6.1-6.1m-277.8 82.8H324l-6.1-6.1m0 12.2l6.1-6.1m-61.2-32.4v14.4l6.1-6.1m-12.2 0l6.1 6.1M154.8 36v14.4l6.1-6.1m-12.2 0l6.1 6.1m370.8 68.4h61.2V86.4"/></svg>