<svg xmlns="http://www.w3.org/2000/svg" xmlns:xlink="http://www.w3.org/1999/xlink" width="2.67in" height="3.54in" viewBox="0 0 192 255">
  <defs>
    <style>
      .cls-1 {
        isolation: isolate;
      }

      .cls-2, .cls-3 {
        opacity: 0.5;
      }

      .cls-3, .cls-9 {
        fill: #9b422a;
      }

      .cls-3 {
        mix-blend-mode: darken;
      }

      .cls-4 {
        fill: #2b222b;
      }

      .cls-5 {
        fill: #1e181e;
      }

      .cls-6 {
        fill: #3a2e39;
      }

      .cls-7 {
        fill: #ff6c45;
      }

      .cls-8 {
        fill: #cf5c36;
      }

      .cls-10 {
        fill: #6b566a;
      }

      .cls-11 {
        opacity: 0.75;
        mix-blend-mode: soft-light;
        fill: url(#radial-gradient);
      }
    </style>
    <radialGradient id="radial-gradient" cx="71.08" cy="17.4" r="217.35" gradientUnits="userSpaceOnUse">
      <stop offset="0" stop-color="#fff"/>
      <stop offset="0.83" stop-color="#9b422a"/>
    </radialGradient>
  </defs>
  <title>jetpack</title>
  <g class="cls-1">
    <g id="Layer_2" data-name="Layer 2">
      <g class="cls-2">
        <path class="cls-3" d="M178.29,18.39a54.15,54.15,0,0,1,4.49-7c19.3,66.39,8.21,153-32.37,209.35Z" transform="translate(0 0)"/>
        <path class="cls-3" d="M112.64,14.64c-4.42,3.89-7.73,7.89-11.69,12C85.63,42.54,62.74,79.29,66.07,78.81c9.81-1.42,31.3-2.81,48,8.3,4.1,2.73,2.43,6.21,5.69,10.64C119.93,89,125.25,56.2,112.64,14.64Z" transform="translate(0 0)"/>
        <ellipse class="cls-3" cx="86.24" cy="242.66" rx="86.24" ry="12.34"/>
        <g>
          <path class="cls-4" d="M17.25,204.59a16.9,16.9,0,0,1-8.92-6.09l6.86-4.77,5.63,2.75Z" transform="translate(0 0)"/>
          <path class="cls-4" d="M146.2,229.34s-4.91,2.22-14.11,0l7-13.63,8.06,6.6Z" transform="translate(0 0)"/>
          <path class="cls-5" d="M7,213.68c-23.17,13.5,68.6,43.38,61.65,20.34l-1.67-14.18L21.76,205.08Z" transform="translate(0 0)"/>
          <path class="cls-5" d="M70.87,224.81a28.28,28.28,0,0,1,3.06-5.95l-13.72-28.6-46.1,7.9a32.33,32.33,0,0,1-1.41,5.21C33.09,197.45,58.82,207.58,70.87,224.81Z" transform="translate(0 0)"/>
          <path class="cls-6" d="M12.7,203.37A33.32,33.32,0,0,1,7,213.68S40.22,215.91,68.61,234a36.24,36.24,0,0,1,2.26-9.21C58.82,207.58,33.09,197.45,12.7,203.37Z" transform="translate(0 0)"/>
          <path class="cls-7" d="M53.3,71.35s2-.49,5.31-1C69.83,52.59,81.85,35.6,93.49,18.22,78.17,34.12,65.85,51.7,53.3,71.35Z" transform="translate(0 0)"/>
          <path class="cls-8" d="M106,6.22c-4.42,3.89-8.57,7.89-12.53,12C81.85,35.6,69.83,52.59,58.61,70.38c9.81-1.41,31.3-2.81,48,8.31q4.94-8,10.47-15.45A240.18,240.18,0,0,0,106,6.22Z" transform="translate(0 0)"/>
          <path class="cls-9" d="M106.57,78.69a44.09,44.09,0,0,1,11.16,10.64c.21-8.73,0-17.44-.69-26.09Q111.49,70.69,106.57,78.69Z" transform="translate(0 0)"/>
          <path class="cls-10" d="M58.61,70.38c-3.33.48-5.31,1-5.31,1-17,26.62-28,56.75-34.88,81,6.84-18.26,14.29-36.52,24.25-54.78C47.67,88.2,53.05,79.2,58.61,70.38Z" transform="translate(0 0)"/>
          <path class="cls-6" d="M106.57,78.69c-16.66-11.12-38.15-9.72-48-8.31C53.05,79.2,47.67,88.2,42.67,97.58c-10,18.26-17.41,36.52-24.25,54.78A357.77,357.77,0,0,0,8.33,198.5s33.51-4.1,59.58,15.32a12.33,12.33,0,0,0,3.21-7.29,12,12,0,0,0-6-3.13C70.66,159.92,83.82,115.49,106.57,78.69Z" transform="translate(0 0)"/>
          <path class="cls-4" d="M106.57,78.69c-22.75,36.8-35.91,81.23-41.4,124.71a12,12,0,0,1,6,3.13,12.33,12.33,0,0,1-3.21,7.29,66.25,66.25,0,0,1,11,10.27s7.75-14,15.51-31c14.49-31.88,22.48-67.86,23.34-103.75A44.09,44.09,0,0,0,106.57,78.69Z" transform="translate(0 0)"/>
          <path class="cls-5" d="M70.48,218.38c-24.38,14.21,72.22,45.67,64.9,21.42l-1.76-14.93L86.07,209.33Z" transform="translate(0 0)"/>
          <path class="cls-5" d="M136.86,232.7a32.43,32.43,0,0,1,4.12-8.86l-14.44-30.11L78,202a34.63,34.63,0,0,1-1.42,5.32C100.37,204.84,123.77,214.61,136.86,232.7Z" transform="translate(0 0)"/>
          <path class="cls-6" d="M76.59,207.36a35.14,35.14,0,0,1-6.11,11s35,2.35,64.9,21.42a37.85,37.85,0,0,1,1.48-7.1C123.77,214.61,100.37,204.84,76.59,207.36Z" transform="translate(0 0)"/>
          <path class="cls-7" d="M119.26,68.56s2-.5,5.46-1a514.7,514.7,0,0,1,32.28-50C143,33,131.2,49.87,119.26,68.56Z" transform="translate(0 0)"/>
          <path class="cls-8" d="M174.76,0A226.34,226.34,0,0,0,157,17.52a514.7,514.7,0,0,0-32.28,50c12.2-1.78,42-3.6,59.91,16.88.67-7.14,1.31-14.25,2-21.3A254.07,254.07,0,0,0,174.76,0Z" transform="translate(0 0)"/>
          <path class="cls-9" d="M184.63,84.44c.84,1,1.67,2,2.46,3,.2-8.13,0-16.26-.49-24.34C185.94,70.19,185.3,77.3,184.63,84.44Z" transform="translate(0 0)"/>
          <path class="cls-10" d="M119.26,68.56c-21.42,33.53-33.8,72.35-40.48,99.53,12.73-34.53,27.66-68.3,45.94-100.53C121.31,68.06,119.26,68.56,119.26,68.56Z" transform="translate(0 0)"/>
          <path class="cls-6" d="M124.72,67.56c-18.28,32.23-33.21,66-45.94,100.53a346.35,346.35,0,0,0-6.85,34.32s46.52-5.72,74.27,26.93c0,0,8.16-14.69,16.32-32.65,1.85-4.06,3.59-8.2,5.24-12.38,9.88-32.24,13.73-66.42,16.87-99.87C166.73,64,136.92,65.78,124.72,67.56Z" transform="translate(0 0)"/>
          <path class="cls-4" d="M184.63,84.44c-3.14,33.45-7,67.63-16.87,99.87a285.37,285.37,0,0,0,19.33-96.83C186.3,86.41,185.47,85.41,184.63,84.44Z" transform="translate(0 0)"/>
        </g>
        <path class="cls-11" d="M186.6,63.14A254.07,254.07,0,0,0,174.76,0,226.34,226.34,0,0,0,157,17.52C143,33,131.2,49.87,119.26,68.56h0c-.59.92-1.17,1.86-1.75,2.79-.12-2.71-.27-5.42-.47-8.11a240.18,240.18,0,0,0-11-57c-4.42,3.89-8.57,7.89-12.53,12C78.17,34.12,65.85,51.7,53.3,71.35h0c-17,26.62-28,56.75-34.88,81A357.77,357.77,0,0,0,8.33,198.5a17.37,17.37,0,0,0,4.59,4.21l-.22.66A33.32,33.32,0,0,1,7,213.68H7c-23.17,13.5,68.6,43.38,61.65,20.34h0a36.12,36.12,0,0,1,.83-4.67c13.78,14.29,71.67,29.42,65.94,10.45h0a37.85,37.85,0,0,1,1.48-7.1c.27-.88.56-1.7.85-2.46,5.56.41,8.49-.9,8.49-.9s8.16-14.69,16.32-32.65c1.85-4.06,3.59-8.2,5.24-12.38a285.37,285.37,0,0,0,19.33-96.83h0C187.29,79.35,187.1,71.22,186.6,63.14Z" transform="translate(0 0)"/>
      </g>
    </g>
  </g>
</svg>
