<svg id="Layer_1" data-name="Layer 1" xmlns="http://www.w3.org/2000/svg" width="384" height="283.2" viewBox="0 0 384 283.2"><defs><style>.cls-1{fill:#4c4c4c}</style></defs><title>paint</title><path class="cls-1" d="M270 121.3c.4-5.6-.3-10.8-1.1-16a80.5 80.5 0 0 1-1.2-14c.3-5.6-.5-10.8-1.3-16a80.4 80.4 0 0 1-1.3-14 71 71 0 0 0-1.4-16 83 83 0 0 1-1.5-14l-.7-.7a74 74 0 0 0-16.6-1 91.7 91.7 0 0 1-14.7-.6c-5.7-1-11.3-.9-16.7-.7a95 95 0 0 1-14-.1l-2.5-6-1.2-3.2-.6-1.5-.3-.8-.5-1.5-2.2-.2-1.3-.1-2.7-.2c-5.6-.2-11.2 0-17-.5a71 71 0 0 0-19.1 1l-2.3.4h-.6l-.1.2-.3.8-.4 1-1.6 3.8a34 34 0 0 1-4.2 6.7 81.8 81.8 0 0 0-17 .3 96.5 96.5 0 0 1-15 .6 78 78 0 0 0-17.2.7 102.1 102.1 0 0 1-15.1 1l-.8.7A65.6 65.6 0 0 0 76 47.5a99.4 99.4 0 0 1-.7 14.4 66.6 66.6 0 0 0-.6 16.3 95.4 95.4 0 0 1 0 14.4A68.2 68.2 0 0 0 75 109a90.3 90.3 0 0 1 .6 14.3 69 69 0 0 0 .8 16.3 96.7 96.7 0 0 1 1.2 14.3l.8.8a214 214 0 0 0 25.7-1.1 184 184 0 0 1 22.6-1c8.8.7 17.4 0 25.6-.4a189.3 189.3 0 0 1 22.6-.5c8.8.8 17.4.3 25.7 0a184.3 184.3 0 0 1 22.5-.2 199.4 199.4 0 0 0 25.7.4 198.5 198.5 0 0 1 22.6.2l.8-.8a76 76 0 0 0-1-16 79.6 79.6 0 0 1-1.1-14zm-21.4 28.8a193.9 193.9 0 0 1-25.6-.4 190.9 190.9 0 0 0-22.7.1c-8.2.4-16.8.9-25.5 0a193.5 193.5 0 0 0-22.7.6c-8.3.5-16.8 1-25.6.5a187.7 187.7 0 0 0-22.7.9 216.8 216.8 0 0 1-24.4 1 103 103 0 0 0-1.2-13.4 67.6 67.6 0 0 1-.8-16.2 93.2 93.2 0 0 0-.7-14.4 66.3 66.3 0 0 1-.1-16.2 97.2 97.2 0 0 0 0-14.4 64.9 64.9 0 0 1 .5-16.1 101.8 101.8 0 0 0 .7-14.4A65.2 65.2 0 0 1 79 32.5a108 108 0 0 0 14.5-1c5.5-.6 11.1-1.2 17-.6a97.3 97.3 0 0 0 15.2-.6 74 74 0 0 1 17-.3l1-.4a35.4 35.4 0 0 0 4.6-7.4 56 56 0 0 0 1.7-4l.2-.4a2.8 2.8 0 0 0 .1-.4l.1-.1h.3l.5-.1 1-.2c6-.9 12.4-1.6 19-.9 5.8.5 11.4.3 16.8.5.9 0 1.8 0 2.6.2l2.3.2 1 2.7 1.3 3.2 2.6 6.5.9.6a91 91 0 0 0 14.7.2 73 73 0 0 1 16.5.7 91.6 91.6 0 0 0 14.8.5 76.2 76.2 0 0 1 15.5.9 88.7 88.7 0 0 0 1.5 13.4c.9 5 1.7 10.3 1.4 15.8a81.8 81.8 0 0 0 1.3 14.1c.8 5 1.6 10.4 1.2 15.9a81 81 0 0 0 1.3 14c.7 5.2 1.5 10.5 1 16a81.2 81.2 0 0 0 1.3 14 74.7 74.7 0 0 1 1 14.8 206.4 206.4 0 0 0-21.7-.3zM85.2 25.4a11.3 11.3 0 0 0 4.9-.8 7.2 7.2 0 0 0 3.7-3.5 5.7 5.7 0 0 0 .7-3v-.8l-.2-.8a4.9 4.9 0 0 0-.7-1.5 5.2 5.2 0 0 0-2.6-2 7 7 0 0 0-3-.4 11.8 11.8 0 0 0-4.7 1.5 29.3 29.3 0 0 0-3.8 3.1 4 4 0 0 0-1.4 3.1 4.5 4.5 0 0 0 1.6 3.2 8.8 8.8 0 0 0 5.5 1.9zm-4-7.2a11.5 11.5 0 0 1 7-3.8 4.2 4.2 0 0 1 4 1.6 4.3 4.3 0 0 1-.2 4.5 5.4 5.4 0 0 1-2.6 2.4 9.3 9.3 0 0 1-4 .7A7.1 7.1 0 0 1 81 22a2.7 2.7 0 0 1-1-2c0-.6 1.1-1.9 1.1-1.9zm20.6 5a8.8 8.8 0 0 0 5.7.6 11.3 11.3 0 0 0 4.5-2 7.2 7.2 0 0 0 2.8-4.3 5.8 5.8 0 0 0 0-3.1l-.2-.8-.4-.7a4.6 4.6 0 0 0-1-1.3 5 5 0 0 0-3-1.3 7 7 0 0 0-3 .4 11.8 11.8 0 0 0-4.2 2.6 28.8 28.8 0 0 0-3 3.9 4 4 0 0 0-.6 3.3 4.5 4.5 0 0 0 2.4 2.7zm5.9-10.7a4.2 4.2 0 0 1 4.3.5 4.3 4.3 0 0 1 1 4.4 5.4 5.4 0 0 1-2 3 9.2 9.2 0 0 1-3.7 1.6 7 7 0 0 1-4.7-.4 2.7 2.7 0 0 1-1.4-1.7 2.4 2.4 0 0 1 .5-2s3.4-4.5 6-5.4z"/><path class="cls-1" d="M123 21.6a11.2 11.2 0 0 0 4.4 2.4 7.1 7.1 0 0 0 5-.5 5.6 5.6 0 0 0 2.5-1.9l.4-.6.4-.8a5 5 0 0 0 .4-1.6 5.2 5.2 0 0 0-.8-3.1 7 7 0 0 0-2.1-2.1 11.7 11.7 0 0 0-4.6-1.8 12.5 12.5 0 0 0-5 .1s-2.2.6-3 1.6a4.5 4.5 0 0 0-.6 3.5 8.7 8.7 0 0 0 3 4.8zm-.8-7.4c.4-.5 2-.8 2-.8a11.6 11.6 0 0 1 7.8 1.4 4.2 4.2 0 0 1 2.2 3.7 4.4 4.4 0 0 1-2.8 3.5 5.4 5.4 0 0 1-3.6.2 9.2 9.2 0 0 1-3.5-1.9 7.1 7.1 0 0 1-2.6-4 2.7 2.7 0 0 1 .5-2zm85.6 84.4a12.4 12.4 0 0 0 .8-4.8 4.8 4.8 0 0 1 1.7-3.8l-1.4-1.1a6 6 0 0 0-2 4.4 26.8 26.8 0 0 1-.5 4 22 22 0 0 0-3.8-1.4 28.5 28.5 0 0 0-5-.7c-2.8-.3-5.7-.2-8.6-1.2a23.4 23.4 0 0 0-10-.6c-2.8.2-5.7.7-8.7.2a24.5 24.5 0 0 0-10 .6 37.4 37.4 0 0 1-8.6 1.3 24.5 24.5 0 0 0-9.8 1.6 48.3 48.3 0 0 1-7.2 1.9 3.7 3.7 0 0 0-.8-2.8 8.7 8.7 0 0 1-1.7-2.9l-1.4 1.3c.1.9.8 1.5 1.4 2.2s1.2 2 .3 3c-.6 1-.3 1.9-.3 2.8a2.6 2.6 0 0 1-1.4 3l1.5.8a3.3 3.3 0 0 0 1.6-3.2 14.8 14.8 0 0 1 0-2.3 39.4 39.4 0 0 0 8.4-2c3-1 6.2-2 9.6-1.6a37.4 37.4 0 0 0 8.6-1.3 23.6 23.6 0 0 1 9.8-.6c3 .4 5.9 0 8.7-.2a22.3 22.3 0 0 1 9.7.6c2.9 1 5.8.9 8.6 1.2a21 21 0 0 1 8.6 2.2 6.7 6.7 0 0 0 1 4c.8 1.7 1.9 3 2 5l1.6-.9c0-1.9-1-3.1-1.8-4.5a5.2 5.2 0 0 1-.9-4.2z"/><path class="cls-1" d="M330.9 155.9c4.8 1.2 9.8.6 14.7-1a16.1 16.1 0 0 0 5.6-3.8l1.2-1.2 1-1.3a24.3 24.3 0 0 0 1.8-2.7c2.4-4.2 4-8.7 6-13.4a26.1 26.1 0 0 0 1-13 33.5 33.5 0 0 0-1.6-6.2l-.6-1.6-.7-1.4a8.7 8.7 0 0 0-.8-1.5l-1-1.7a10.1 10.1 0 0 1-1.8-.6c-2-.8-4-1.5-5.7-2.4a4.7 4.7 0 0 1-1.9-1.5V100a.6.6 0 0 0 0-.1l4.3 3 9.1 7 4.5 4 .7.6.4.3c.1.1.3.4.4.2l1.7-1.1a22.4 22.4 0 0 0 2.4-2 12.1 12.1 0 0 0 1.5-1.9 8.6 8.6 0 0 0 .6-1l.6-2-4-3-1.2-.9v-.2a28.4 28.4 0 0 0 .5-3.9 2 2 0 0 0-.3-1.4 2.2 2.2 0 0 0-1.3-1 2.6 2.6 0 0 0-1.4 0l.2-.5a2 2 0 0 0-.2-1.7 2.2 2.2 0 0 0-.6-.7 2 2 0 0 0-.9-.4 2.9 2.9 0 0 0-2.1.3 2 2 0 0 0 0-.4 2.6 2.6 0 0 0-1-1.5 2.5 2.5 0 0 0-1.7-.5 3 3 0 0 0-1.3.5c-1 .7-1.7 1.5-2.8 2l-2-1.6a7.9 7.9 0 0 1 2.5.5l.3-1.8a8.3 8.3 0 0 0-4.1-.3l-.6.1a79.2 79.2 0 0 1-9-8.5 35.1 35.1 0 0 1 6.3-7.8l.2-1a28 28 0 0 0-2.5-4.3l-1.4-2-2.4-3.2-1.4 2-.6 1-.3.5-.4.6c-2.5-3.4-5.2-6.6-7.7-9.9a40.6 40.6 0 0 1-7.4-13.4l-.3-.9-.6-1.5-1.3-3-.7-1.5-.3-.7a3.3 3.3 0 0 0-.2-.4v.4l-.9 3-.6 3.2-.1.8-.1.4v.2l-.1.9a49.7 49.7 0 0 0-.2 7.4v2.9c.1.3 0 .1-.2 0a3.8 3.8 0 0 1-.4-.4 6.4 6.4 0 0 1-.8-.8 12.5 12.5 0 0 1-1-1.5 18.2 18.2 0 0 1-1.6-3.6l-1.2-3.2-1.3-3.7-.2 1.4-.1 2.4v7.9a52.8 52.8 0 0 0 .8 4.5l1 4.1.2.5v.3l.3.6.5 1.3c.7 1.1-.5 0-1-.4a7.1 7.1 0 0 1-.7-.8 2.4 2.4 0 0 1-.2-.4l-.4-.6a100.2 100.2 0 0 1-6.2-9l-3-5 1 5.5.5 2.5c1 4.8 2.3 9.7 3.3 14.8l-3.8-3-2.9-2.4q-1.9-1.5-3.7-3.2l-.5-.4h-.1v.4l.1 1.2.3 2.6.3 2.2.2 2a23.3 23.3 0 0 0 2.2 6.9 25.5 25.5 0 0 0 1.9 3l.2.3.2.1.2.2.5.5-.6.1-1.1.1a45 45 0 0 0-3.7.4l-.9.1-1.1.2-2.4.5-2.5.7a21 21 0 0 0-2.6.8l1 .3 2.7.7 3.1.8 2.4.6 1.6.4 6.7 1.4c4.5 1 9.3 2.1 13.5 4.8a27.7 27.7 0 0 0-2.6 3.1l3.7 1.5 2.1 1 2.2.8a9.7 9.7 0 0 1 1.3.7l.8.5.4.3a2.3 2.3 0 0 0 .3-.5l1-1.7.7-1.2 1.3-2.3a29.3 29.3 0 0 1 3.4-4.3l1.1-1.3c3.3 2.6 6.6 5 9.9 7.4l-.2 1.2v2.3a3.8 3.8 0 0 0 .2 1.1 5.7 5.7 0 0 0 2.6 2.4 63.7 63.7 0 0 0 6.1 2.5l.8.4c.4 0 .4.1.4.2a5.3 5.3 0 0 0 .6 1l.4.7.3.7.7 1.3.5 1.4a31.1 31.1 0 0 1 1.6 5.8 24.3 24.3 0 0 1-1.1 12.4c-2 4.5-3.5 8.9-5.7 12.8-2 3.4-5 6.9-9 8.3a29 29 0 0 1-6.7 1.4 20.6 20.6 0 0 1-17.2-6.8c-3-4-6.5-7.2-9.7-10.6-1.5-1.4-2.8-3-4.2-4.6a35.5 35.5 0 0 1-3.5-5.4 87.6 87.6 0 0 0-7.5-12.3 49.9 49.9 0 0 1-6-11.2 73.7 73.7 0 0 0-6-13.1A61.4 61.4 0 0 1 279 80a129.8 129.8 0 0 0-1.5-19.2 151.5 151.5 0 0 1-1.7-18.7c.2-7.3-.9-14.4-1.8-21.1a143.3 143.3 0 0 1-2-18.6l-.8-.8a187.4 187.4 0 0 0-27-.9c-4 0-7.9.2-11.9.1s-8 0-12-.3c-9.3-.9-18.3-.4-27 0-7.8.3-15.8.7-23.9.3-9.4-.7-18.4 0-27.1.5-7.7.6-15.7 1.2-23.8 1-9.4-.5-18.4.3-27.1 1.2C83.6 4.2 75.7 5 67.6 5l-.8.6A99.3 99.3 0 0 0 65 26.8a174.8 174.8 0 0 1-.7 18.6c-1 7.3-.8 14.4-.5 21.2.2 4.8.5 9.7.4 14.7A38.4 38.4 0 0 0 53.5 88c-3.6 3-7 6.2-11.1 8.9a39.5 39.5 0 0 0-8.7 9.2c-2.7 3.8-5.1 7.9-8.3 11.7a35 35 0 0 0-5.4 11.5c-1.3 4.5-2.3 9-3.9 13.7a34.4 34.4 0 0 0-.8 12.7c.2 4.3 1 8.5 1.1 13a9.5 9.5 0 0 0-5.1 2.3c-1.9 1.4-3.4 3-5.6 4a8.8 8.8 0 0 0-3.4 5c-.7 2.1-1 4.3-2.3 6.4l1.8.3c1.3-2 1.5-4 2.1-5.9a7.5 7.5 0 0 1 3.1-4.5c2-1 3.4-2.5 5-3.7l1-.7a15.8 15.8 0 0 0-2 4c-1 3.2-1.2 6.4-2.2 9.7-.7 3 0 6 .7 8.7l1.4 4.6a18.5 18.5 0 0 1 1 4.8l1.7-.6a17.9 17.9 0 0 0-1-4.7c-.3-1.6-.8-3-1.3-4.5-.7-2.6-1.4-5.4-.7-8.2 1-3.2 1.2-6.1 2.1-9a12.7 12.7 0 0 1 1.8-3.7 8.5 8.5 0 0 1 1.4-1.6 11.3 11.3 0 0 0 .5 4.6c.7 2.2 1.7 4.3 1.7 6.9a11.6 11.6 0 0 0 2.8 5.6c1.4 1.9 3 3.6 3.7 6l1.5-1c-.7-2.5-2.3-4-3.7-5.8a10.7 10.7 0 0 1-2.6-5.4c0-2.5-1-4.5-1.6-6.6a9.6 9.6 0 0 1-.4-4.6 13 13 0 0 0 3 1c1.5.4 3 1 3.7 2.7a10.8 10.8 0 0 0 2.6 3 4.4 4.4 0 0 1 1.7 4l1.8-.5a5.4 5.4 0 0 0-2-4.6 14.2 14.2 0 0 1-3-3.2 5.4 5.4 0 0 0-4-3 16.7 16.7 0 0 1-3.4-1.2c0-4.8-.9-9.3-1.1-13.7a46 46 0 0 1-.2-6.2 27.8 27.8 0 0 1 1-6.1c1.5-4.7 2.5-9.1 3.8-13.5a33.3 33.3 0 0 1 5.3-11.1c3.1-3.8 5.5-7.7 8.2-11.4a38 38 0 0 1 8.4-9c4.2-2.7 7.5-5.9 11-8.8a38.5 38.5 0 0 1 9.6-6.2l-.1 2a114 114 0 0 0 .5 21 166 166 0 0 1 1 18.7c-.5 7.3.5 14.3 1.3 21a142.5 142.5 0 0 1 1.7 18.6l.8.8a272.6 272.6 0 0 0 28.3-1.4 219 219 0 0 1 25-1l8.6.2a54 54 0 0 0-6 14.8l-2.5 9.7c-.7 3.3-1.7 6.5-2.8 9.9a58.3 58.3 0 0 0-1.9 9c-.4 3-.8 6-1 8.8l-.8 10a79 79 0 0 1-1.4 10.2 86.1 86.1 0 0 0-.8 9.1v9l.2 10a85 85 0 0 1-.5 10.2l-.2 3.4v1.7l-1.3-.2-2.9-.3a53.2 53.2 0 0 0-5.6-.1 113.6 113.6 0 0 0-20.2 3l.6 1.7a111.6 111.6 0 0 1 19.7-3 52 52 0 0 1 5.4.1l2.7.3 1.5.3c.6 0 1.3.3 2 .4v-4c0-1.1 0-2.3.2-3.4a88.1 88.1 0 0 0 .4-10.3l-.1-10c-.1-3-.2-5.9 0-8.9a81 81 0 0 1 .8-9 81.7 81.7 0 0 0 1.4-10.2l.8-10c.1-2.8.5-5.7 1-8.7a56.6 56.6 0 0 1 1.9-8.8c1-3.3 2-6.6 2.8-9.9.9-3.2 1.5-6.5 2.4-9.6a69.6 69.6 0 0 1 2.8-8.3 33.4 33.4 0 0 1 3.6-7c6 0 11.8-.4 17.5-.7a226 226 0 0 1 25-.6 189.1 189.1 0 0 0 20.8.3c1.8 5.5 4 10.8 6.1 16 2.4 6 4.8 12.4 5.9 19.3.6 3 1.4 6 2.2 8.9l2.5 8.5c2 6.2 3.8 12.8 4.4 19.7.3 3.1.9 6 1.5 9l2 8.7 2 9.8a62.7 62.7 0 0 1 1 10.2 80.5 80.5 0 0 0 1.1 10.7l3.5-1 2-.4 4.2-.7c6.4-.8 13.4-.5 19.7 2.4l.5-1.8A38 38 0 0 0 235 279l-4.3.7a35.3 35.3 0 0 0-3.6.9 52.6 52.6 0 0 1-1-8.7 63.6 63.6 0 0 0-1-10.3c-.5-3.4-1.1-6.7-2-9.9l-1.9-8.6-1.5-9a95 95 0 0 0-4.4-20l-2.5-8.5a126 126 0 0 1-2.2-8.8c-1.1-7-3.5-13.4-6-19.5-2-5-4-10-5.8-15.4l5.6-.2a220.5 220.5 0 0 1 24.9 0 246.2 246.2 0 0 0 28.4.5 240.2 240.2 0 0 1 24.9.4l.8-.7c.7-7.4 0-14.5-.6-21.3a148.2 148.2 0 0 1-1-18.7c.4-7.4-.4-14.4-1.2-21.2-.6-5-1.2-10.2-1.3-15.5l3 6.2c2.3 4 4.6 8.3 6 13.1a52 52 0 0 0 6.2 11.3 85.8 85.8 0 0 1 7.5 12.4 37.2 37.2 0 0 0 3.6 5.4c1.4 1.7 2.8 3.3 4.3 4.8 3.2 3.4 6.8 6.6 9.9 10.7a21.8 21.8 0 0 0 11 6.8zm38.3-50.4l1.7 1.2 1.3 1a2.6 2.6 0 0 1-.2.6 6 6 0 0 1-.4.8 9.8 9.8 0 0 1-1.3 1.6 19.4 19.4 0 0 1-2.2 1.8l-.6.3v-.1l-.3-.3a142.6 142.6 0 0 0-13.7-10.8l-5-3.7a9 9 0 0 1 2-4 5.5 5.5 0 0 1 1.5-1.2l7 5.4a3.7 3.7 0 0 1-.6.9 1.9 1.9 0 0 1-1.7.6l.6 1.7a3.8 3.8 0 0 0 3.2-2.2l2.4 1.8a2 2 0 0 1-1.8.9l.9 1.6a3.6 3.6 0 0 0 2.4-1.5l1.5 1.1 1 .7a1.3 1.3 0 0 1-1.5.4l.7 1.7a2.8 2.8 0 0 0 2.2-1zm-3-6.6a1.5 1.5 0 0 1 1.3-.5.8.8 0 0 1 .4 1.1 3 3 0 0 0-.2 1.1l-.2 1.4-.6-.5-1.6-1.2v-.2l.2-.4.7-.8zm-1.6-3.9a.7.7 0 0 1 .4 1.1 9.6 9.6 0 0 0-1 2.5 5 5 0 0 1-.5.4l-2.2-1.5a19.5 19.5 0 0 0 1.8-1.9 1.7 1.7 0 0 1 1.5-.6zm-5-1.7c.5-.3 1-.5 1.4-.2a.8.8 0 0 1-.1 1.3 6 6 0 0 0-1 2l-2-1.5a20 20 0 0 0 1.7-1.5zM334 91.4a30 30 0 0 0-3.4 4.4l-1.4 2.4-.6 1.1a1.2 1.2 0 0 0-.2.4v.2c0 .2-.2 0-.3 0a2 2 0 0 1-.4-.2l-.6-.2-2.2-1a39.5 39.5 0 0 1-3.8-1.7 3 3 0 0 1 .5-.5 8.3 8.3 0 0 0 .8-.7 52.1 52.1 0 0 0 6.3-9c2-3.3 4.2-6.8 7.4-9.6a49.5 49.5 0 0 0 6.5-8.8l.3-.5.2-.2.3-.6.4.4.2.2.4.5 1.4 2a27.7 27.7 0 0 1 2 3.5 39.6 39.6 0 0 0-6.4 8.1 46 46 0 0 1-7.4 9.8zm3.9-1.5a61.5 61.5 0 0 0 4.4-6.3 80.7 80.7 0 0 0 8.2 7.9 7.1 7.1 0 0 0-1.4 1 10.2 10.2 0 0 0-2.2 4.2c-3-2.2-6-4.4-9-6.8zM278.7 101a117 117 0 0 1 1 21.1 155 155 0 0 0 1.1 18.8 119.5 119.5 0 0 1 .8 20 252 252 0 0 0-24.2-.4 241.2 241.2 0 0 1-28.2-.5 223.4 223.4 0 0 0-25 0c-9.2.3-18.6.8-28.3 0a231 231 0 0 0-25.1.5c-5.9.3-11.9.7-18 .8l-.2-.1v.1c-3.3 0-6.7 0-10-.2a221 221 0 0 0-25 1c-8.8.8-17.9 1.6-27.2 1.4a152.4 152.4 0 0 0-1.7-17.7c-.8-6.7-1.8-13.7-1.3-21a173.7 173.7 0 0 0-1-18.7 109.2 109.2 0 0 1-.5-21c.5-6.4 0-12.6-.2-18.6a106 106 0 0 1 .5-21 179.5 179.5 0 0 0 .7-18.7c0-6.5.1-13.2 1.6-20 8-.1 15.6-.9 23.1-1.6 8.7-.8 17.7-1.6 27-1.1 8.2.1 16.2-.5 24-1 8.7-.6 17.7-1.2 27-.5 8.1.3 16.1 0 24-.4 8.6-.4 17.7-.8 27 .1 4 .3 8 .4 12 .4l11.9-.1a186.8 186.8 0 0 1 26 .8 152.8 152.8 0 0 0 2 18c1 6.7 2 13.7 1.8 21A152 152 0 0 0 276 61a132.6 132.6 0 0 1 1.6 18.4 2.8 2.8 0 0 0 0 .8v1.9a151.5 151.5 0 0 0 1 18.8z"/><path class="cls-1" d="M143.8 77.8a9 9 0 0 0 3 2.8 4.3 4.3 0 0 0 4.3.1 4.6 4.6 0 0 0 1.5-1.5 15.4 15.4 0 0 0 1-1.8 26.2 26.2 0 0 0 1.6-3.8 19.4 19.4 0 0 0 1-9.2 21.6 21.6 0 0 0-3-8.6 11 11 0 0 0-2.8-3 10.1 10.1 0 0 0-1-.6 4.2 4.2 0 0 0-1.1-.2 3.5 3.5 0 0 0-2.2.7 9.7 9.7 0 0 0-2.5 3.3 20.8 20.8 0 0 0-1.5 3.8l.9.2h-.8a30.6 30.6 0 0 0-1 9 16.9 16.9 0 0 0 2.6 8.8zm36.1-2.3a11.3 11.3 0 0 0 2.7 3.1 10 10 0 0 0 1 .6 3.8 3.8 0 0 0 1.1.2 3.4 3.4 0 0 0 2.2-.7 9.6 9.6 0 0 0 2.5-3.2 21 21 0 0 0 1.5-3.9l-.8-.1h.9a30.5 30.5 0 0 0 1-9 16.8 16.8 0 0 0-2.5-8.8 8.9 8.9 0 0 0-3-2.9 4.3 4.3 0 0 0-4.3-.2 4.7 4.7 0 0 0-1.5 1.6 13.4 13.4 0 0 0-1 1.7 26.2 26.2 0 0 0-1.7 3.8 19.4 19.4 0 0 0-1 9.3 21.5 21.5 0 0 0 2.9 8.5zM383.7 264l-.2-4.2v-47.3c.2-5.3.5-11.2-1.1-16-1.8-5.3-7.3-5.5-11.7-5.7l-1.7-.1c-6.8-.4-13.5-.8-20.2-.6-8.4.3-15 1.8-21.3 4.8-4.6 2.2-13 6.2-12.4 12.9a1748.1 1748.1 0 0 1 3.3 50.8c0 7 0 14.8 4.8 19.5 3.9 3.6 9 4.3 14 4.7 3.5.2 7.2.4 10.8.4q3.5 0 6.9-.2c5.3-.3 12.2-.9 18.4-3.2 3.8-1.4 10.1-3.8 10.6-9.6a36.8 36.8 0 0 0-.2-6.1zm-55.5-67.4a50 50 0 0 1 20.7-4.7 197.2 197.2 0 0 1 20 .6l1.8.1c3 .1 6.2.3 8.2 1.9-3 1.6-12.5 6.2-27 8.2a69.7 69.7 0 0 1-30.2-2.5 46.6 46.6 0 0 1 6.5-3.6zm54 73.5c-.4 4.3-5 6.3-9.5 8-6 2.2-12.8 2.8-18 3a129.7 129.7 0 0 1-17.4-.2c-4.8-.4-9.4-1-12.8-4.2-4.4-4-4.3-11.5-4.3-18.1V253c-.6-10.4-1.3-20.6-2.2-31.8a7.9 7.9 0 0 1 5.2-.2 6.5 6.5 0 0 1 3.6 3.8c3 7.2 5.3 11.5 9 11.3 1.7-.1 3.5-1.5 5.4-3s4-3 5.6-2.8c1 .2 2.6 2.8 4 5 2 3.6 4.5 7.7 8 7.7s5.5-3.3 8.1-6.8c2-2.6 3.9-5.3 6-6.1 4.3-1.9 8.6 2.9 8.6 3l.2-.2v26.8a44.5 44.5 0 0 0 .3 4.5 34.5 34.5 0 0 1 .1 5.8z"/></svg>