<svg id="Layer_1" data-name="Layer 1" xmlns="http://www.w3.org/2000/svg" width="4in" height="2.97in" viewBox="0 0 288 213.78">
  <defs>
    <style>
      .cls-1 {
        fill: #4c4c4c;
      }
    </style>
  </defs>
  <title>request</title>
  <g>
    <path class="cls-1" d="M118.54,15.4a4.05,4.05,0,0,0,2.11.52,5.75,5.75,0,0,0,3.6-1.48,7.06,7.06,0,0,0,1.91-2.67,4.78,4.78,0,0,0,.16-3.45h0a3.12,3.12,0,0,0-1.45-1.76A4.1,4.1,0,0,0,122.77,6a5.7,5.7,0,0,0-3.6,1.48,7,7,0,0,0-1.92,2.67,4.84,4.84,0,0,0-.16,3.47A3.14,3.14,0,0,0,118.54,15.4Zm.14-4.59a5.45,5.45,0,0,1,1.38-2,4.28,4.28,0,0,1,2.74-1.2A2,2,0,0,1,125,9.09l.69-.4-.72.42a3.56,3.56,0,0,1-.23,2,5.3,5.3,0,0,1-1.38,2,4.23,4.23,0,0,1-2.72,1.2,2,2,0,0,1-2.17-1.5A3.66,3.66,0,0,1,118.68,10.81Z"/>
    <path class="cls-1" d="M131.21,14.74a4.05,4.05,0,0,0,2.11.52,5.75,5.75,0,0,0,3.6-1.48,7.06,7.06,0,0,0,1.91-2.67A4.78,4.78,0,0,0,139,7.66h0a3.15,3.15,0,0,0-1.46-1.77,4.15,4.15,0,0,0-2.12-.51,5.7,5.7,0,0,0-3.6,1.48,7,7,0,0,0-1.92,2.67,4.84,4.84,0,0,0-.16,3.47A3.14,3.14,0,0,0,131.21,14.74Zm.14-4.59a5.33,5.33,0,0,1,1.38-2,4.26,4.26,0,0,1,2.74-1.2,2,2,0,0,1,2.19,1.5l0,0a3.65,3.65,0,0,1-.23,2,5.3,5.3,0,0,1-1.38,2,4.17,4.17,0,0,1-2.72,1.19,2,2,0,0,1-2.17-1.49A3.66,3.66,0,0,1,131.35,10.15Z"/>
    <path class="cls-1" d="M143.88,15.07a4.05,4.05,0,0,0,2.11.52,5.75,5.75,0,0,0,3.6-1.48,7.06,7.06,0,0,0,1.91-2.67A4.78,4.78,0,0,0,151.66,8l-1.36.79a3.65,3.65,0,0,1-.23,2,5.3,5.3,0,0,1-1.38,2A4.23,4.23,0,0,1,146,14a2,2,0,0,1-2.18-1.5,3.76,3.76,0,0,1,.23-2,5.33,5.33,0,0,1,1.38-2,4.26,4.26,0,0,1,2.73-1.2,2,2,0,0,1,2.2,1.5L151.69,8a3.1,3.1,0,0,0-1.46-1.76,4.06,4.06,0,0,0-2.12-.52,5.7,5.7,0,0,0-3.6,1.48,7,7,0,0,0-1.92,2.67,4.84,4.84,0,0,0-.16,3.47A3.1,3.1,0,0,0,143.88,15.07Z"/>
    <path class="cls-1" d="M287.92,88a14.35,14.35,0,0,0-3.26-7.87,24,24,0,0,0-5.52-4.88,45,45,0,0,0-6-3.29c.07-.41.13-.81.21-1.21a107.2,107.2,0,0,0,.93-14.68c.13-5.35.23-10.9,1.48-16.47A111.19,111.19,0,0,0,277.05,25a83.66,83.66,0,0,1,1.89-16.42l-.69-1c-3.43-.72-6.84-1.26-10.22-1.71l-5-.61-5-.38c-3.7-.27-7.46-.56-11.27-.94s-7.67-.75-11.55-1.46a95.85,95.85,0,0,0-10.31-.94c-3.4-.15-6.76-.28-10.06-.28-3.71,0-7.48,0-11.31-.14S195.82.83,191.9.36A97.35,97.35,0,0,0,181.56,0c-3.41,0-6.76.11-10.06.3-3.71.19-7.48.36-11.3.45S152.5.85,148.56.6c-3.49-.1-6.94,0-10.34.16s-6.74.5-10,.8a227.57,227.57,0,0,1-22.9,1.5l-.83.78a92.18,92.18,0,0,0-.92,14.78,95.11,95.11,0,0,1-1,16.6A95,95,0,0,0,101.9,50a106.23,106.23,0,0,1-.48,14.62,42.33,42.33,0,0,0-11.09,4.55c-2,1-3.93,2.27-6,3.3a49.55,49.55,0,0,1-6.35,3,49,49,0,0,0-5.44,3.13c-1.67,1.21-3.26,2.49-4.82,3.74-1.78,1.37-3.4,3-5.22,4.42S58.89,89.72,56.87,91c-3.54,2.4-6.12,5.72-8.74,8.72-1.38,1.77-2.69,3.65-4.17,5.42-.72.91-1.54,1.74-2.27,2.66s-1.51,1.8-2.35,2.66a37.39,37.39,0,0,0-3.77,5c-1,1.81-1.93,3.63-2.83,5.42-.5,1-1,2-1.53,3s-.89,2.11-1.38,3.16a44.13,44.13,0,0,1-3.06,5.57,17.65,17.65,0,0,0-8,1.65c-2.88,1.22-5.55,2.79-8.66,4.08a14.49,14.49,0,0,0-6,6.1L3,146.59c-.32.72-.6,1.46-.94,2.18l-.52,1.07c-.14.38-.28.75-.44,1.12A20.87,20.87,0,0,1,0,153.17l1.52.4a16.83,16.83,0,0,0,1.08-2.11c.15-.35.29-.71.42-1.06l.49-1c.33-.67.58-1.37.88-2l1-2A13.15,13.15,0,0,1,11,139.7c3-1.22,5.5-2.71,8.26-3.9.46-.19.94-.38,1.43-.55a20.64,20.64,0,0,0-2.81,2.42c-2.66,2.73-4.6,6-6.92,9.23-.45.76-.87,1.54-1.24,2.33s-.55,1.65-.79,2.48a29,29,0,0,0-.83,5c-.21,1.84-.13,3.73-.34,5.61a31,31,0,0,1-.56,5.77l1.57,0a31.9,31.9,0,0,0,.55-5.67c.21-1.83.12-3.68.33-5.46a25.63,25.63,0,0,1,.8-4.79c.22-.79.46-1.58.74-2.36s.76-1.49,1.19-2.2c2.25-3.14,4.08-6.18,6.56-8.75a17.73,17.73,0,0,1,3.74-3c.24-.14.5-.26.75-.39a15.48,15.48,0,0,0-1.75,2.79c-1.19,2.41-1.9,4.93-3.3,7.43a10.5,10.5,0,0,0-.87,3.57,18.45,18.45,0,0,0,.06,3.57c.06,1.3.38,2.61.43,3.93a16.35,16.35,0,0,1,0,4.08l1.56-.25a15.94,15.94,0,0,0,0-4c-.05-1.28-.37-2.54-.43-3.8a17.4,17.4,0,0,1-.06-3.39,9.29,9.29,0,0,1,.84-3.36c1.35-2.38,2-4.74,3.1-7a9.92,9.92,0,0,1,3.87-4.55,16.54,16.54,0,0,0,3.17,1.9,4.7,4.7,0,0,1,2.75,3.36,11.43,11.43,0,0,0,1.87,3.43,5.35,5.35,0,0,1,1.16,4.28l1.55-.32a6.09,6.09,0,0,0-1.27-4.56,13.27,13.27,0,0,1-2-3.69,5.61,5.61,0,0,0-3.06-3.7c-1-.57-2-1-3-1.7a44.86,44.86,0,0,0,3.15-5.73c.48-1,.93-2.08,1.36-3.12s1-2,1.52-3c.89-1.76,1.79-3.56,2.79-5.33a35.19,35.19,0,0,1,3.7-4.9c.83-.86,1.6-1.75,2.33-2.66s1.54-1.74,2.25-2.63c1.47-1.76,2.76-3.62,4.13-5.37,2.58-3,5.12-6.23,8.59-8.55,2-1.32,3.79-2.82,5.61-4.21s3.41-3,5.17-4.37c1.54-1.23,3.1-2.5,4.75-3.69a45.83,45.83,0,0,1,5.34-3.05,52.86,52.86,0,0,0,6.33-3c2-1,3.95-2.26,5.93-3.28a42,42,0,0,1,10.14-4.28c0,.12,0,.23,0,.34a98.36,98.36,0,0,0-.35,14.8,94.15,94.15,0,0,1-.5,16.62,97.77,97.77,0,0,0-.12,14.8c.23,5.38.54,10.94-.24,16.63l.92.92c6.78,0,13.41-.49,19.82-.93a139.53,139.53,0,0,1,22.34-.21c4.59.3,9.11.26,13.54.16a43.8,43.8,0,0,0-7.88,4.68A146.67,146.67,0,0,0,136,145.21,36.38,36.38,0,0,0,128.1,158c-2,5.13-3.25,10.55-4.9,16.12a47.67,47.67,0,0,0-.86,14.94c.44,5.45,1.37,10.93,1.62,16.72.1,1.28.33,2.53.54,3.78l.07.38v0s.05.11,0,.09h-.1l-.08,0-.45-.2a7.82,7.82,0,0,0-.91-.36,16.93,16.93,0,0,0-3.72-.84,26.91,26.91,0,0,0-8.38.68c-2.75.63-5.43,1.57-8.24,2.43l.68,1.42c2.74-.85,5.34-1.73,8-2.34a24.73,24.73,0,0,1,7.82-.63,15.53,15.53,0,0,1,3.33.74,8,8,0,0,1,.81.32l.4.18a6,6,0,0,1,.59.34,6.64,6.64,0,0,1,1.21.87c.41.34.86.74,1.3,1.13,0-.07.06-.18.11-.18l-.13-.64-.27-1.3-.48-2.44a35.62,35.62,0,0,1-.53-3.73c-.27-5.78-1.17-11.2-1.62-16.56-.3-4.72-.39-9.72.86-14.56,1.63-5.53,2.88-10.82,4.81-15.82a34.73,34.73,0,0,1,7.64-12.33,142.68,142.68,0,0,1,12.4-10.87,35.05,35.05,0,0,1,12.15-6.07l1.13,0a146.23,146.23,0,0,1,22.34.55c5.32.5,10.55.56,15.66.56a29.27,29.27,0,0,0-7.65,7,63,63,0,0,0-4.34,6.4c-1.31,2.26-2.57,4.57-3.9,6.94a34.13,34.13,0,0,0-3.16,13.57c-.25,5.08.06,10.23-.1,15.61a47.9,47.9,0,0,0,2.51,13.62c.66,2.43,1.62,4.81,2.32,7.3a78.27,78.27,0,0,1,2.11,7.59l.34,1.21.18.6c.05.14,0,.12,0,.13v0c0,.06,0,.09,0,.08s0,0-.1,0a3.59,3.59,0,0,0-.37-.12l-.55-.16a10.78,10.78,0,0,0-1.12-.28,24.56,24.56,0,0,0-4.46-.58,36.79,36.79,0,0,0-7.74.6c-2.57.48-5.12,1.15-7.77,1.84l.62,1.45c5.1-1.35,9.9-2.54,14.81-2.33a24.05,24.05,0,0,1,4.18.54c.35.07.69.16,1,.26l.51.15.61.21a21.66,21.66,0,0,1,3.06,1.47c0-.09.11,0,0-.19l-.15-.4-.29-.8-.56-1.64-.27-.81-.18-.59-.34-1.19a75.76,75.76,0,0,0-2.11-7.58c-.69-2.47-1.63-4.83-2.3-7.23a46.38,46.38,0,0,1-2.44-13.33c.15-5.35-.15-10.4.1-15.36a32.55,32.55,0,0,1,3.06-13.08c1.31-2.33,2.54-4.57,3.81-6.76a63.68,63.68,0,0,1,4.18-6.18,25.06,25.06,0,0,1,9.93-8h.72a147.44,147.44,0,0,1,22.32,1.1,193.35,193.35,0,0,0,19.86,1A156.82,156.82,0,0,1,269.56,134l1-.84a111.71,111.71,0,0,0,.3-14.69c-.06-2.67-.11-5.38,0-8.13a38,38,0,0,0,5.18-3,36.6,36.6,0,0,0,5.59-4.72,28.36,28.36,0,0,0,4.56-6,11.6,11.6,0,0,0,1-2c.21-.71.38-1.43.55-2.15.07-.36.18-.71.22-1.08l.06-1.11A10.2,10.2,0,0,0,287.92,88Zm-18.64,30.49a116.89,116.89,0,0,1-.24,13.84,164.33,164.33,0,0,0-21.8-1.48,193.14,193.14,0,0,1-19.75-1,152.54,152.54,0,0,0-22.46-1.1h-.73l0-.09-.21.09c-6.12,0-12.42.05-18.78-.56a148.42,148.42,0,0,0-22.49-.54h-.5a3.25,3.25,0,0,0-.72,0c-6,.17-12.26.38-18.56,0a142.46,142.46,0,0,0-22.49.22c-6.15.43-12.48.89-18.94.92a98.12,98.12,0,0,0,.16-16,93.81,93.81,0,0,1,.14-14.69,97.29,97.29,0,0,0,.48-16.71,95.45,95.45,0,0,1,.36-14.69,95.86,95.86,0,0,0,.75-16.7,94.68,94.68,0,0,1,.61-14.68,97.35,97.35,0,0,0,1-16.68,96.63,96.63,0,0,1,.83-14c7.77,0,15.23-.8,22.47-1.5,3.27-.31,6.6-.59,10-.8s6.8-.25,10.24-.15c4,.25,7.88.27,11.72.15s7.59-.26,11.3-.45c3.28-.19,6.63-.25,10-.3a97.81,97.81,0,0,1,10.23.36c4,.46,7.85.61,11.69.74s7.6.13,11.31.14c3.29,0,6.62.12,10,.27a93,93,0,0,1,10.19,1c3.93.7,7.8,1.14,11.62,1.45s7.57.68,11.27.94l4.95.39,5,.6c3.11.41,6.24.92,9.36,1.56a86.25,86.25,0,0,0-1.77,16A111,111,0,0,1,274.2,39.5c-1.24,5.66-1.35,11.21-1.48,16.58a105.4,105.4,0,0,1-.94,14.6,85.93,85.93,0,0,0-1.1,16.61,106.49,106.49,0,0,1-.64,14.62,59.72,59.72,0,0,0-.75,7.44c-.4.18-.81.37-1.22.53a30.55,30.55,0,0,1-6.66,1.77c0-.63,0-1.25-.07-1.86a62.3,62.3,0,0,1,.29-12,63.24,63.24,0,0,0,.62-13.58,64.1,64.1,0,0,1,.46-11.94,62.87,62.87,0,0,0,.82-13.57,64.37,64.37,0,0,1,.62-11.94,63.07,63.07,0,0,0,1-13.55A61.91,61.91,0,0,1,266,21.34l-.52-.75a57.81,57.81,0,0,0-14.94-2.27,113.94,113.94,0,0,1-13.23-1.09,60.79,60.79,0,0,0-15.08-.75,123.67,123.67,0,0,1-12.81.17,27.7,27.7,0,0,0-4.08-5.87,34.75,34.75,0,0,0-2.58-2.57l-.47-.41-.3-.27-.41,0h-2.8a98.19,98.19,0,0,1-12.66-.34,45,45,0,0,0-14.46.41l-.94.18c-.09,0-.22,0-.29.08l-.2.25-.31.4L169,9.72c-.65.83-1.3,1.65-2,2.46a50.62,50.62,0,0,1-4.06,4.37,49.42,49.42,0,0,0-12.76-.31,67.53,67.53,0,0,1-11.4.18,51.85,51.85,0,0,0-13,.23,66,66,0,0,1-11.4.55l-.68.58a58.3,58.3,0,0,0-1.58,13.7,77,77,0,0,1-1,12.08c-1.12,4.69-1.09,9.3-1.1,13.75a74,74,0,0,1-.55,12.11,58,58,0,0,0-.63,13.78,72.48,72.48,0,0,1-.14,12.13,57.44,57.44,0,0,0-.12,13.79,79.78,79.78,0,0,1,.35,12.13l.69.69c6.94.38,13.58-.35,20-.83,2.85-.24,5.75-.48,8.69-.62s5.91-.13,8.91,0a151.85,151.85,0,0,0,20-.1,127.88,127.88,0,0,1,17.61,0,147.73,147.73,0,0,0,20,.56,129.1,129.1,0,0,1,17.6.59,150,150,0,0,0,20,1.19A121.12,121.12,0,0,1,260.14,124l.77-.63a48.8,48.8,0,0,0,.55-10.17,32.53,32.53,0,0,0,7.24-1.89l.53-.24C269.18,113.6,269.22,116.09,269.28,118.53Zm-9.78,3.82a128,128,0,0,0-16.94-1.1,146.22,146.22,0,0,1-19.92-1.19,129.86,129.86,0,0,0-17.74-.58,146.15,146.15,0,0,1-20-.57,129.9,129.9,0,0,0-17.75,0,147.43,147.43,0,0,1-20,.08c-3-.16-6-.14-9,0s-5.87.4-8.74.63c-6.13.46-12.43,1.14-19,.86a85.42,85.42,0,0,0-.38-11.38,55.62,55.62,0,0,1,.14-13.69,76.33,76.33,0,0,0,.13-12.17,56,56,0,0,1,.63-13.67,73.72,73.72,0,0,0,.54-12.16c0-4.44,0-9,1.11-13.65a79.12,79.12,0,0,0,1-12.13,58.75,58.75,0,0,1,1.39-12.78,68.83,68.83,0,0,0,10.83-.58A50.66,50.66,0,0,1,138.8,18a67,67,0,0,0,11.45-.19,47.15,47.15,0,0,1,12.85.36l.72-.27a54.06,54.06,0,0,0,4.39-4.73c.68-.81,1.34-1.64,2-2.46l.95-1.24a.71.71,0,0,0,.1-.15s0-.05.07-.06l.05,0,.18,0,.38-.07a43.86,43.86,0,0,1,14.18-.38,102.4,102.4,0,0,0,12.68.34h1.74c.26,0,.66,0,.73,0s.19.11.46.32a32.5,32.5,0,0,1,2.49,2.49,25.53,25.53,0,0,1,4.06,5.93l.75.4A119.25,119.25,0,0,0,222.28,18a58.91,58.91,0,0,1,14.92.76,117.43,117.43,0,0,0,13.24,1.08,58.46,58.46,0,0,1,13.89,2,67.51,67.51,0,0,0-.72,11.34,61.69,61.69,0,0,1-1,13.49,65.4,65.4,0,0,0-.62,12,61.48,61.48,0,0,1-.82,13.51,64.34,64.34,0,0,0-.45,12,61.86,61.86,0,0,1-.64,13.51,65,65,0,0,0-.27,12c0,.67.05,1.35.08,2-4.85.61-9.52,1.32-14.16,1.58a39.93,39.93,0,0,1-16.13-2c-4.73-1.52-9.38-2.75-13.84-4.29a45.66,45.66,0,0,1-14.41-7.63l0,0a7.47,7.47,0,0,0-4.58-1.89c-.12-.69-.23-1.39-.36-2.09a10.64,10.64,0,0,0,3.85-7.32c.46-3.6.44-8.43-2.2-11-3-2.92-8.87-2.52-12.76-2.26l-.61,0a17.53,17.53,0,0,0-1.89.27,10.9,10.9,0,0,1-2.75.25,15.93,15.93,0,0,1-4.87-2.11c-.67-.37-1.3-.72-1.86-1-5.61-2.72-11.15-5.29-16.47-7.65-10-4.44-20.78-9-32-12.33a5.76,5.76,0,0,0-5.17.69c-6.09,4.1-7.38,19.7-7.43,20.36-1,12.91.76,22.33,5.25,28a6.58,6.58,0,0,0,5.49,2.77,20.51,20.51,0,0,0,4.57-.74l1-.24c6.34-1.45,12.56-2.78,18.48-4,9.61-1.91,17.66-3.3,25.35-4.38.57-.08,1.21-.2,1.87-.34a15.3,15.3,0,0,1,4.22-.46,5.19,5.19,0,0,1,2.35,1l.1.06a70.74,70.74,0,0,1,1,12.94,10.45,10.45,0,0,1-2.89-1l-.37,1.53a11.37,11.37,0,0,0,3.11,1.07l0,.37-.34,1.81c-.18.58-.33,1.18-.54,1.77l-.43,1c-.1.38-.52.87.06,1a6.13,6.13,0,0,0,1.14.58c.31.13.63.24,1,.35a18.44,18.44,0,0,0,1.94.51,39.52,39.52,0,0,0,4,.67,24.55,24.55,0,0,0,7.08-.48l1.27-.26c.7.07.61-.7.76-1.18l.11-.62.06-.43.11-.87c.08-.89.13-1.78.14-2.66l.38-.29c2-1.23,2.59-3.55,2.72-5.48.1-1.35.07-2.65.22-4a48.72,48.72,0,0,0,13.89,7.13c4.52,1.56,9.25,2.81,14,4.34a41.65,41.65,0,0,0,16.57,2c4.63-.26,9.31-1,14.12-1.56A51.71,51.71,0,0,1,259.5,122.35ZM198,109.4c0-.81,0-1.61-.08-2.42.24-.26.48-.52.69-.79a14.08,14.08,0,0,0,1-1.51c0,.17,0,.35,0,.52A6.16,6.16,0,0,1,198,109.4Zm-15.68,4.75c.22-.64.39-1.29.58-1.92.17-.8.3-1.6.4-2.39.8,0,1.6,0,2.38,0,1-.12,2.08-.22,3.12-.29s2.11-.1,3.22-.19a7,7,0,0,0,4.38-1.17c0,.76.08,1.53.08,2.3a19,19,0,0,1-3.11,2,5.81,5.81,0,0,1-5.4.06l-.26,1.55a7,7,0,0,0,6.12-.11,16.24,16.24,0,0,0,2.55-1.5c0,.43,0,.85-.06,1.28l-.1.82-.1.7,0,.24c0,.08-.13,0-.2.09l-.66.14a23.08,23.08,0,0,1-6.74.44c-1.3-.16-2.56-.38-3.77-.65a16,16,0,0,1-1.75-.47c-.28-.1-.56-.19-.82-.3-.1,0,0,0-.06,0S181.93,115.05,182.31,114.15ZM131.44,90.69a111.11,111.11,0,0,0,2.41-12.53c1-5-.29-10.09-2.28-14.33a83.33,83.33,0,0,0-5.37-9.27q5.19,1.59,10.27,3.5a56.08,56.08,0,0,1,3.94,9.35,21.6,21.6,0,0,1,.6,11.64c-.19.89-.34,1.76-.45,2.63s-.31,1.73-.43,2.59c-.18,1.73-.55,3.41-.8,5.1a44,44,0,0,1-1.4,5.68,28.15,28.15,0,0,1-2.45,5.11q-3.6.8-7.28,1.63l-1,.24-.87.2A37.85,37.85,0,0,0,131.44,90.69Zm8,4.83a45.62,45.62,0,0,0,1.44-5.81c.26-1.73.63-3.44.82-5.22.12-.88.27-1.76.44-2.64s.26-1.78.46-2.68A23.21,23.21,0,0,0,141.92,67a53.82,53.82,0,0,0-3.3-8.12c6,2.33,11.9,4.87,17.54,7.36,5.3,2.35,10.83,4.92,16.41,7.63.54.26,1.15.6,1.79,1,1.77,1,3.78,2.1,5.45,2.29a11.67,11.67,0,0,0,3.2-.26,16.6,16.6,0,0,1,1.72-.25l.62,0c3.61-.24,9.07-.61,11.56,1.82,1.7,1.67,2.32,5.11,1.74,9.7a8.78,8.78,0,0,1-4.4,7c-3,1.63-7.2,1.42-11.21-.55a14,14,0,0,1-1.4-.79,6.66,6.66,0,0,0-3-1.18,16.59,16.59,0,0,0-4.7.48c-.63.13-1.24.25-1.79.32-7.72,1.08-15.8,2.48-25.43,4.39q-4.51.9-9.23,1.91A28.22,28.22,0,0,0,139.42,95.52Zm55.51,1q.49,2.78.87,5.48a5,5,0,0,1-4.05.51,19.8,19.8,0,0,0-4.34-.13,6.18,6.18,0,0,1-4.18-1.2c-.17-1.69-.39-3.39-.62-5.11C187,98.17,191.55,98.34,194.93,96.55Zm-7.78,7.4a24.86,24.86,0,0,1,4.71.16,5.77,5.77,0,0,0,4.16-.46c.1.91.2,1.81.27,2.71a6,6,0,0,1-4.6,1.49,26.55,26.55,0,0,0-3,.17c-1,.06-2,.17-3,.28-.75,0-1.52,0-2.3,0a42.15,42.15,0,0,0-.07-5.15A7.6,7.6,0,0,0,187.15,104Zm10.35-1.11c.6-.38,1.2-.75,1.81-1.1a16.93,16.93,0,0,1-1.61,3C197.63,104.12,197.58,103.48,197.5,102.84Zm-.25-1.67c-.09-.63-.17-1.26-.28-1.9a5.6,5.6,0,0,1,2.23.75A20.32,20.32,0,0,0,197.25,101.17Zm89.13-10.92-.05,1c-.05.34-.14.67-.22,1-.16.65-.31,1.32-.51,2a10.66,10.66,0,0,1-.89,1.79,32.62,32.62,0,0,1-9.61,10.06,38.4,38.4,0,0,1-4.21,2.52,55.23,55.23,0,0,1,.72-6.6,107.88,107.88,0,0,0,.63-14.69,99.59,99.59,0,0,1,.65-13.7c4,1.93,7.88,4.26,10.54,7.55a12.88,12.88,0,0,1,2.95,7.1A10.38,10.38,0,0,1,286.38,90.25Z"/>
    <path class="cls-1" d="M202.77,78.38c.23,2.53.77,4.93.82,7.67a10.44,10.44,0,0,0,3.18,6.13l1.35,1.34c.49.4,1,.8,1.46,1.23l.69.65c.26.2.5.4.75.62a13.77,13.77,0,0,1,1.39,1.45l.83-1.33a10.73,10.73,0,0,0-1.3-1.38c-.22-.2-.46-.39-.69-.58l-.65-.61c-.43-.4-.9-.76-1.35-1.13L208,91.21a9.22,9.22,0,0,1-2.9-5.6c0-2.58-.53-4.82-.76-7.21a11.06,11.06,0,0,1,.92-6.32l-1.48-.5A12.28,12.28,0,0,0,202.77,78.38Z"/>
    <path class="cls-1" d="M164.54,52a5.42,5.42,0,0,0,1.65,1.74,5.3,5.3,0,0,0,.65.28,4.82,4.82,0,0,0,.75.1,5.23,5.23,0,0,0,.73-.15,5.86,5.86,0,0,0,.61-.32,6.77,6.77,0,0,0,2-3.28,24.4,24.4,0,0,0,.86-3.52c.43-2.37.65-4.78.89-7.23h0a23.31,23.31,0,0,0-.5-8.41,14.2,14.2,0,0,0-1.6-4A5.31,5.31,0,0,0,169,25.45a4.27,4.27,0,0,0-.66-.29,4.82,4.82,0,0,0-.75-.1,5.7,5.7,0,0,0-.74.15,5.92,5.92,0,0,0-.61.33,6.74,6.74,0,0,0-2.05,3.29,25.44,25.44,0,0,0-.86,3.52c-.43,2.37-.64,4.78-.89,7.22a23.07,23.07,0,0,0,.49,8.41A14.38,14.38,0,0,0,164.54,52Z"/>
    <path class="cls-1" d="M194.27,50.39a6.89,6.89,0,0,0,2.31,3.21,2.43,2.43,0,0,0,1.37.34,2.28,2.28,0,0,0,1.24-.51,4.78,4.78,0,0,0,1.34-1.76,19.23,19.23,0,0,0,1.32-3.87c.63-2.64,1.34-6.85,1.34-6.85l.15-1.25a25.32,25.32,0,0,0-.27-7.38,19.51,19.51,0,0,0-1-3.56,6.94,6.94,0,0,0-2.31-3.23,2.49,2.49,0,0,0-1.38-.34,2.51,2.51,0,0,0-1.26.51,5,5,0,0,0-1.34,1.77,19.11,19.11,0,0,0-1.32,3.88c-.63,2.64-1,5.33-1.46,8.1a25,25,0,0,0,.28,7.38A19.47,19.47,0,0,0,194.27,50.39Z"/>
  </g>
</svg>
