<svg id="Layer_1" data-name="Layer 1" xmlns="http://www.w3.org/2000/svg" width="298.6" height="305.3" viewBox="0 0 224 228.62"><defs><style>.cls-1{fill:#fcfaf9}</style></defs><title>resource</title><path class="cls-1" d="M143.7 78.7c-4 .4-7.8 1-11.6 1.7a50.9 50.9 0 0 1-13 .7 90.4 90.4 0 0 0-11.8.3 53.4 53.4 0 0 1-13.1-.3l-.1 1.4a55.1 55.1 0 0 0 13.3.3 90.2 90.2 0 0 1 11.6-.3 52 52 0 0 0 13.3-.7c3.8-.7 7.6-1.3 11.6-1.7a23 23 0 0 0 3.4-.4h.2a3.3 3.3 0 0 0-.1.3.5.5 0 0 1 0 .2l-.1.4-.2.7a13 13 0 0 1-.5 1.5 11.1 11.1 0 0 1-.5 1.5 12 12 0 0 1-.7 1.4 16.5 16.5 0 0 1-8.2 7.6 109.8 109.8 0 0 1-12.4 4 31.9 31.9 0 0 1-11.4.9l-.1 1.4a33.3 33.3 0 0 0 11.8-1 112.3 112.3 0 0 0 12.8-4 17.9 17.9 0 0 0 8.7-8.2 16 16 0 0 0 .7-1.5 12 12 0 0 0 .6-1.6 12.8 12.8 0 0 0 .5-1.6l.2-.8.2-.4V80l.5-2.2-2.3.5a20.4 20.4 0 0 1-3.3.4z"/><path class="cls-1" d="M224 115.8a32.7 32.7 0 0 0-.6-3.6l-.7-3.2a17.7 17.7 0 0 1-.5-3.3 12.3 12.3 0 0 0-.8-3.7 21.3 21.3 0 0 0-1.7-3.3c-.5-1-1-1.9-1.7-2.8l-.8-1.4-.8-1.4a10.6 10.6 0 0 0-2.1-3.3 20 20 0 0 0-2.9-2.4 53.1 53.1 0 0 1-5.3-3.9 14.6 14.6 0 0 0-6.6-3.4 39.5 39.5 0 0 1-6.2-2 15.2 15.2 0 0 0-7.3-1.6 52.9 52.9 0 0 1-5.6-.3c0-1.6-.2-3.2-.3-4.7A50.3 50.3 0 0 1 180 61a59 59 0 0 0 .3-11.8 45 45 0 0 1 .5-10.1v-.4a12.9 12.9 0 0 0-2.2-6l-1.4-2.4a11 11 0 0 1-1-2.6 8.7 8.7 0 0 0-1.3-3 18.7 18.7 0 0 0-1.8-2.5 20 20 0 0 1-3.2-4.6 8.9 8.9 0 0 0-1.6-2.8 19.3 19.3 0 0 0-2.2-2.3 19.4 19.4 0 0 1-3.6-4.2 13.3 13.3 0 0 0-4.4-4.6 21.7 21.7 0 0 1-4.2-3.6s0-.2-.5-.2a80.3 80.3 0 0 0-9.8 1.2 34.2 34.2 0 0 1-8.6.9 41.1 41.1 0 0 0-9.9.5 35.8 35.8 0 0 1-8.7.4 40.9 40.9 0 0 0-9.9 0A36.1 36.1 0 0 1 98 3a40.4 40.4 0 0 0-9.9-.4 85.4 85.4 0 0 1-8.7-.5.6.6 0 0 0-.7.5 95.2 95.2 0 0 0-1.2 17.9l-.1 7.7c-.1 2.6-.2 5.3-.5 8a78 78 0 0 0-.5 9c0 3 .1 6 .3 8.8l.3 7.8v8a74.8 74.8 0 0 0 0 9.1l.4 4a30.6 30.6 0 0 0-4.4 3.7 16.3 16.3 0 0 1-6 4 26.9 26.9 0 0 0-5.3 3.4 15.3 15.3 0 0 1-6.5 3 21.1 21.1 0 0 0-3 1.1l-2.8 1.4a14 14 0 0 1-6.8 1.9 16.3 16.3 0 0 0-3.1.3l-3 .5a16 16 0 0 1-3.5.3 8.9 8.9 0 0 1-1.8-.3 12 12 0 0 1-1.7-.6 24.4 24.4 0 0 0-3-1l-2.8-1c-2-.9-4.3-2-5.5-4.3a11 11 0 0 0-1-1.2l-1-1.2c-.7-.8-1.4-1.5-2-2.4a17.5 17.5 0 0 1-1.8-2.5 7.5 7.5 0 0 1-1-2.4 2.3 2.3 0 0 0 .9 0 7.5 7.5 0 0 0 .8-.1 9.6 9.6 0 0 0 1.6-.6 11.9 11.9 0 0 0 2.7-1.9 12.8 12.8 0 0 0 4-6.3H20a13.3 13.3 0 0 1-1.4 2.8 11 11 0 0 1-2 2.4 10.8 10.8 0 0 1-2.6 1.7 9.6 9.6 0 0 1-1.5.5l-.3.1a15.4 15.4 0 0 0 1.7-4.9c.5-2.4.6-4.9 1.3-7.5a10.6 10.6 0 0 0 0-3.5c0-.6-.3-1.1-.4-1.7a9.8 9.8 0 0 0-.6-1.6l-.7-1.7-.8-1.7-.4-.9a14 14 0 0 1-.5-.8 14.6 14.6 0 0 1-.7-1.9l-1.1.8a12.9 12.9 0 0 0 .7 1.8l.4.8.4.8.7 1.6.8 1.6a8.8 8.8 0 0 1 .5 1.5 13.8 13.8 0 0 1 .4 1.6 9.2 9.2 0 0 1 0 3.3c-.8 2.5-.9 4.8-1.4 7.2a16.3 16.3 0 0 1-1.1 3.7 14.9 14.9 0 0 0-.8-4.5 51.2 51.2 0 0 1-1.8-6 12.1 12.1 0 0 0-3.2-6.4c-1.3-1.6-2.7-3-4-4.8l-1 1c1.2 1.6 2.6 3 3.9 4.6a11 11 0 0 1 3 6 46.6 46.6 0 0 0 1.7 5.8 14.3 14.3 0 0 1 .8 3.9l-.6-.7A8.7 8.7 0 0 1 6.9 78a5.8 5.8 0 0 0-2.7-2.6 11.2 11.2 0 0 1-3.6-2.3L0 74.5a9.1 9.1 0 0 0 3.3 2.1A5.1 5.1 0 0 1 6 79c.4 1.4 1.5 2.3 2.3 3.3A9.9 9.9 0 0 1 10 86l.4 1.1a16.4 16.4 0 0 0 .7 1.6 18.3 18.3 0 0 0 2 2.6c.6 1 1.4 1.7 2 2.5l1 1.3a15 15 0 0 1 1 1.3c1.4 2.3 3.7 3.5 6 4.5l3 1a27.1 27.1 0 0 1 3 1 13.2 13.2 0 0 0 1.8.7 10.6 10.6 0 0 0 1.9.2 17 17 0 0 0 3.6-.2l3.2-.5a17.3 17.3 0 0 1 3.2-.4 14.9 14.9 0 0 0 7-2l2.9-1.3a18.8 18.8 0 0 1 3-1.1A16.4 16.4 0 0 0 62 95a27 27 0 0 1 5.4-3.4 16.9 16.9 0 0 0 6-4 36.6 36.6 0 0 1 3.7-3.1l.3 3.1.8 7.7.5 8a84.3 84.3 0 0 0 .6 9l1.4 8.7.7 3.8.8 3.9c.5 2.5.9 5.2 1.1 7.8l.5.6a46.1 46.1 0 0 0 13.2 1.4h6.3a21 21 0 0 0-2.5 6.4l-1 4.2a20 20 0 0 1-1.5 4.2A25.2 25.2 0 0 0 97 161c-.2 2.8-.2 5.8-1.2 8.7a30 30 0 0 0-.5 7.7 30.3 30.3 0 0 1-.2 8.7 32.3 32.3 0 0 0 .2 7.8 28 28 0 0 1 .4 8.7 29.1 29.1 0 0 0 .9 7.7 34.6 34.6 0 0 1 1 8.7 21.4 21.4 0 0 0 .2 3.1l.2.8v.5a1.1 1.1 0 0 1 .2.3 1.3 1.3 0 0 1-.4 0c-2.8-.6-5.7-.8-8.7-1.5a17.6 17.6 0 0 0-7.8.6 80.7 80.7 0 0 1-8.5 2.5l.5 1.2a78.2 78.2 0 0 0 8.3-2.3 16.3 16.3 0 0 1 7.5-.7c3 .8 5.6 1 8.4 1.6l2.4.7-.5-2.3-.1-.9-.1-.7a20 20 0 0 1-.3-3.1 19.7 19.7 0 0 0-.2-4.5l-.8-4.2a28.3 28.3 0 0 1-.8-7.6 28.5 28.5 0 0 0-.5-8.7 31 31 0 0 1-.2-7.7 30.5 30.5 0 0 0 .3-8.7 28.7 28.7 0 0 1 .5-7.6c1-3 1-5.8 1.2-8.6a24.4 24.4 0 0 1 1.3-7.5 20 20 0 0 0 1.5-4.2l1-4.1a18.3 18.3 0 0 1 2.9-6.9l3.6.3a50.8 50.8 0 0 0 13.2-.2c2-.2 3.8-.5 5.8-.6a47.7 47.7 0 0 1 5.8-.3 35 35 0 0 0 6.8-.4q3.2-.4 6.2-1.1a31.6 31.6 0 0 0-.6 7.1 35.6 35.6 0 0 1-.6 9.1 30 30 0 0 0 0 8.1 35.5 35.5 0 0 1 0 9.1 21.8 21.8 0 0 0 0 4.1l.6 4c.5 3 1.2 6 .9 9a30 30 0 0 0 1.3 8c.8 3 1.8 5.8 1.8 9a33.1 33.1 0 0 0 2.2 7.9 33.9 33.9 0 0 1 2.9 8.6 23.9 23.9 0 0 0 1.4 4 6.7 6.7 0 0 0 .7 1.2 3.2 3.2 0 0 1 .2.3l.1.2.1.1a6.3 6.3 0 0 1-.8 0l-2.2-.6-4.6-1.2a17.8 17.8 0 0 0-8.2.3c-2.9.6-5.7 1.6-9 2l.5 1.4c3.1-.5 5.9-1.4 8.7-2a16.7 16.7 0 0 1 7.9-.3l4.3 1.2 2.2.5 2 .7 1.8.8v-.1l-2.4-5.1a23.2 23.2 0 0 1-1.4-3.8 34 34 0 0 0-2.9-8.6 32 32 0 0 1-2.2-7.7c0-3.2-1-6-1.7-9a29.3 29.3 0 0 1-1.3-7.8c.3-3.2-.4-6.1-.9-9l-.6-4a21 21 0 0 1 0-4 36.3 36.3 0 0 0 0-9.1 29.8 29.8 0 0 1 0-8 36 36 0 0 0 .6-9 29.2 29.2 0 0 1 .7-7.6l4.3-.9c2-.3 3.9-.7 5.9-.9 4.6-.2 8.8-1.6 12.9-2.8a82.6 82.6 0 0 1 11.2-3.4l.5-.6a53 53 0 0 0-.9-11.7 53.2 53.2 0 0 1-.7-10.4 55.5 55.5 0 0 0-.6-11.7 51.4 51.4 0 0 1-.4-10.4 35.5 35.5 0 0 0 .2-5.6 48.8 48.8 0 0 0 5.4.3 14.5 14.5 0 0 1 7 1.5 37.5 37.5 0 0 0 6 2 13.6 13.6 0 0 1 6.4 3.4 48.8 48.8 0 0 0 5.1 3.7 18.4 18.4 0 0 1 2.8 2.3 9.8 9.8 0 0 1 2 3.1 16.1 16.1 0 0 0 .7 1.4 15.4 15.4 0 0 0 .9 1.4c.6.9 1 1.8 1.7 2.6a21 21 0 0 1 1.6 3.2 11.2 11.2 0 0 1 .7 3.6 17.4 17.4 0 0 0 .5 3.2l.7 3.1c.3 1 .5 2.3.6 3.5a11.3 11.3 0 0 1 0 1.9l-.1 1c-.1.6-2 .5-2.5.5a15.6 15.6 0 0 0-3 .7c-2.4.8-4.5 2-7 3a8.6 8.6 0 0 0-2.6 2.3l-.9 1.4a6.8 6.8 0 0 0-.7 1.5c-1 2.4-1.1 4.8-2.2 7.2l1.4.2c1-2.3 1.2-4.6 2-6.8l.3-.7.4-.6a15.2 15.2 0 0 1 .8-1.4 7.2 7.2 0 0 1 2.4-2c2.3-1 4.2-2 6.4-2.8a15 15 0 0 1 2.5-.6 11.3 11.3 0 0 0-2.3 2c-1.2 1.5-2.2 3-3.4 4.3a8.4 8.4 0 0 0-2.3 5.8l-.1 2.6a11.4 11.4 0 0 1-.3 2.7h1.4a10.5 10.5 0 0 0 .2-2.5l.1-2.6a7.4 7.4 0 0 1 2.2-5.2c1.2-1.3 2-2.7 3.1-4a9 9 0 0 1 3-2.4 10 10 0 0 0-.7 2.6 14.9 14.9 0 0 1-1 4.9 7.5 7.5 0 0 0 0 4.5c.5 1.6 1 3 .9 5l1.3-.4c.2-1.8-.4-3.2-.7-4.8a6.8 6.8 0 0 1-.1-4.1 13.4 13.4 0 0 0 1-4.7 7.2 7.2 0 0 1 1.2-3.5 3 3 0 0 0 .4-1l.1-.7v-.5l.2-1a10.8 10.8 0 0 0 0-1.9zm-66.8-111a12.6 12.6 0 0 1 4.2 4.6 19 19 0 0 0 3.7 4.1 19.4 19.4 0 0 1 2.1 2.2 8.4 8.4 0 0 1 1.6 2.8 19.8 19.8 0 0 0 3.1 4.5 18 18 0 0 1 1.8 2.5 8 8 0 0 1 1.2 3A11.1 11.1 0 0 0 176 31l1.4 2.4a12.2 12.2 0 0 1 2 5.5l-.4 2.8a80.9 80.9 0 0 1-9.4 2.9 26 26 0 0 1-9 .7 60 60 0 0 0-10.3-.5h-2.4v-.2l.2-.8a44.8 44.8 0 0 1 1.2-4.5 32.9 32.9 0 0 0 2-10.2 53.8 53.8 0 0 1 1.2-9 34.7 34.7 0 0 0 1.1-10.3 68.1 68.1 0 0 1 .3-7.5 31.1 31.1 0 0 0 3.3 2.6zm23.5 111a55.5 55.5 0 0 1 .8 11 90 90 0 0 0-10.7 3.1c-4 1.3-8.2 2.7-12.8 2.8-2 .2-4 .6-5.8 1l-5.6 1.1a62 62 0 0 1-6.4 1.2 34 34 0 0 1-6.7.3 47.7 47.7 0 0 0-5.8.3l-5.8.6a49.3 49.3 0 0 1-13 .2 106.5 106.5 0 0 0-11.7-.3 46.3 46.3 0 0 1-12.4-1.2c-.2-2.6-.6-5-1-7.5l-.8-3.8-.7-3.8L81 112a78 78 0 0 1-.6-9c0-2.7-.2-5.3-.5-8l-.8-7.7-.8-8.7a71.2 71.2 0 0 1 .1-9v-8c0-2.6-.3-5.2-.4-7.8l-.2-8.7a80.8 80.8 0 0 1 .5-9c.5-5.4.5-10.6.5-15.8A96.8 96.8 0 0 1 80 3.6a37.6 37.6 0 0 0 8 .4 39.6 39.6 0 0 1 9.9.5 37 37 0 0 0 8.7 0 39.7 39.7 0 0 1 10 0 36.4 36.4 0 0 0 8.7-.5 40.2 40.2 0 0 1 9.8-.5 35 35 0 0 0 8.8-1 47.4 47.4 0 0 1 8.8-1.2 60.8 60.8 0 0 0-.4 8.4 33.5 33.5 0 0 1-1.1 10.2A54 54 0 0 0 150 29a32 32 0 0 1-2 10 41 41 0 0 0-1.3 4.4l-.4 1.8c-.5 1 .7.7 1.3.9h2.6a61.8 61.8 0 0 1 10.4.5 27 27 0 0 0 9.2-.7 77.2 77.2 0 0 0 9-2.7v6a57.2 57.2 0 0 1-.3 11.8 51.9 51.9 0 0 0 .2 10.4 54.6 54.6 0 0 1 .1 11.7 52.7 52.7 0 0 0 .5 10.5 55.3 55.3 0 0 1 .5 11.7 53.7 53.7 0 0 0 .8 10.5z"/><path class="cls-1" d="M105.8 64.1a3.4 3.4 0 0 0 2.7 1.4 2.7 2.7 0 0 0 2.2-1.2 6.4 6.4 0 0 0 1-2.6 38.4 38.4 0 0 0 .6-5.5 21 21 0 0 0-.5-6.5 10.3 10.3 0 0 0-1.2-3A3 3 0 0 0 108 45a3 3 0 0 0-2.1 1.5 9.3 9.3 0 0 0-1 2.5 25.6 25.6 0 0 0-.8 5.6 20.7 20.7 0 0 0 .4 6.5 7.7 7.7 0 0 0 1.3 3zm24.4.1a2.5 2.5 0 0 0 2.7 1 3.6 3.6 0 0 0 1.8-1.8 10.3 10.3 0 0 0 1-2.4 32.8 32.8 0 0 0 .7-5.3 17 17 0 0 0-.5-6.2 8 8 0 0 0-1.4-2.8 3.2 3.2 0 0 0-1.2-1 2 2 0 0 0-1.5 0 3.8 3.8 0 0 0-1.8 1.8 11 11 0 0 0-1 2.4 28 28 0 0 0-.7 5.3 16.7 16.7 0 0 0 .5 6.2 8 8 0 0 0 1.4 2.8z"/></svg>