<svg id="Layer_1" data-name="Layer 1" xmlns="http://www.w3.org/2000/svg" width="3.11in" height="3.18in" viewBox="0 0 224 228.62">
  <defs>
    <style>
      .cls-1 {
        fill: #4f4b48;
      }
    </style>
  </defs>
  <title>resource</title>
  <path class="cls-1" d="M143.66,78.71c-4,.41-7.8,1.06-11.53,1.71a50.87,50.87,0,0,1-13.12.73,90.39,90.39,0,0,0-11.7.29,53.43,53.43,0,0,1-13.15-.36l-.07,1.39a55.14,55.14,0,0,0,13.29.35,90.18,90.18,0,0,1,11.67-.28,52,52,0,0,0,13.28-.75c3.76-.65,7.61-1.3,11.59-1.71a23,23,0,0,0,3.43-.43c.15,0,.09,0,.12,0a3.25,3.25,0,0,0-.08.38.47.47,0,0,1,0,.15l-.1.38-.2.76a13,13,0,0,1-.46,1.5,11.12,11.12,0,0,1-.56,1.45,11.92,11.92,0,0,1-.66,1.4,16.54,16.54,0,0,1-8.21,7.61,109.82,109.82,0,0,1-12.37,4,31.86,31.86,0,0,1-11.47.91l-.07,1.38a33.28,33.28,0,0,0,11.84-.94,112.34,112.34,0,0,0,12.74-4.09,17.87,17.87,0,0,0,8.75-8.17,16.08,16.08,0,0,0,.72-1.51,12.06,12.06,0,0,0,.59-1.55,12.84,12.84,0,0,0,.49-1.6l.22-.81.11-.4.09-.53.42-2.13-2.25.47A20.35,20.35,0,0,1,143.66,78.71Z"/>
  <path class="cls-1" d="M224,115.81a32.7,32.7,0,0,0-.57-3.63c-.27-1.05-.54-2.09-.74-3.16a17.66,17.66,0,0,1-.51-3.28,12.31,12.31,0,0,0-.74-3.76,21.34,21.34,0,0,0-1.69-3.3c-.59-.9-1.13-1.84-1.76-2.74-.3-.46-.58-.93-.84-1.42s-.56-1-.8-1.46a10.63,10.63,0,0,0-2.09-3.23,20,20,0,0,0-2.84-2.4,53.11,53.11,0,0,1-5.29-3.89,14.57,14.57,0,0,0-6.6-3.47,39.49,39.49,0,0,1-6.22-2A15.18,15.18,0,0,0,186,76.5a52.88,52.88,0,0,1-5.58-.27c-.08-1.61-.22-3.2-.34-4.77A50.31,50.31,0,0,1,180,61.11a59,59,0,0,0,.31-11.76,45,45,0,0,1,.45-10.2l0-.36a12.87,12.87,0,0,0-2.17-6c-.48-.78-.94-1.58-1.37-2.41a11,11,0,0,1-1.09-2.59,8.68,8.68,0,0,0-1.22-3,18.66,18.66,0,0,0-1.85-2.53,20,20,0,0,1-3.16-4.58,8.9,8.9,0,0,0-1.61-2.82,19.27,19.27,0,0,0-2.16-2.26,19.36,19.36,0,0,1-3.68-4.16,13.27,13.27,0,0,0-4.35-4.6,21.67,21.67,0,0,1-4.2-3.68s-.09-.19-.45-.18a80.31,80.31,0,0,0-9.81,1.18,34.22,34.22,0,0,1-8.64.91,41.13,41.13,0,0,0-9.87.56,35.83,35.83,0,0,1-8.69.4,40.86,40.86,0,0,0-9.89,0,36.1,36.1,0,0,1-8.69,0A40.41,40.41,0,0,0,88,2.61a85.4,85.4,0,0,1-8.67-.48.62.62,0,0,0-.69.51,95.19,95.19,0,0,0-1.29,17.84c0,2.55,0,5.14-.06,7.76s-.16,5.27-.44,7.94a78,78,0,0,0-.55,9.08c0,3,.15,5.91.27,8.78.1,2.55.3,5.14.37,7.76s.07,5.28,0,8a74.79,74.79,0,0,0,0,9.1c.09,1.37.2,2.72.32,4.06a30.62,30.62,0,0,0-4.4,3.64,16.27,16.27,0,0,1-5.93,4,26.88,26.88,0,0,0-5.37,3.36A15.29,15.29,0,0,1,55.11,97a21.14,21.14,0,0,0-3,1.11l-2.79,1.38a14,14,0,0,1-6.82,1.87,16.25,16.25,0,0,0-3.15.34c-1,.12-2,.41-3,.54a16,16,0,0,1-3.47.23,8.87,8.87,0,0,1-1.77-.24,12.07,12.07,0,0,1-1.7-.64,24.43,24.43,0,0,0-2.94-1c-1-.34-1.93-.65-2.89-1-2.06-.87-4.29-2-5.48-4.25a11,11,0,0,0-1-1.25c-.32-.41-.62-.84-1-1.22-.66-.79-1.41-1.51-2-2.34A17.48,17.48,0,0,1,12.26,88c-.47-.9-1.08-2.24-.89-2.4a2.32,2.32,0,0,0,.8.06,7.54,7.54,0,0,0,.82-.2,9.59,9.59,0,0,0,1.57-.6A11.89,11.89,0,0,0,17.32,83a12.75,12.75,0,0,0,4.05-6.34l-1.39,0a13.3,13.3,0,0,1-1.37,2.86,11.05,11.05,0,0,1-2.1,2.41A10.76,10.76,0,0,1,14,83.57a9.56,9.56,0,0,1-1.46.56l-.37.09a15.43,15.43,0,0,0,1.71-4.89c.48-2.46.64-4.93,1.33-7.53a10.55,10.55,0,0,0,0-3.5c-.1-.57-.27-1.13-.41-1.67a9.78,9.78,0,0,0-.56-1.6c-.24-.57-.49-1.15-.73-1.73s-.59-1.12-.85-1.69l-.38-.87c-.16-.28-.3-.57-.44-.86A14.64,14.64,0,0,1,11.14,58L10,58.79a12.9,12.9,0,0,0,.68,1.78c.13.28.26.55.41.81l.36.83c.24.55.53,1.07.8,1.6l.7,1.63a8.81,8.81,0,0,1,.53,1.49,13.85,13.85,0,0,1,.39,1.57,9.22,9.22,0,0,1,0,3.27C13.13,74.26,13,76.6,12.54,79a16.31,16.31,0,0,1-1.15,3.7,14.9,14.9,0,0,0-.83-4.54,51.2,51.2,0,0,1-1.78-6,12.12,12.12,0,0,0-3.15-6.35c-1.34-1.58-2.76-3-4.07-4.79l-.91,1c1.15,1.61,2.57,3,3.84,4.53a11.07,11.07,0,0,1,3,6.06,46.64,46.64,0,0,0,1.73,5.77A14.31,14.31,0,0,1,10,82.29c-.21-.25-.42-.48-.63-.71a8.69,8.69,0,0,1-2.43-3.47,5.82,5.82,0,0,0-2.77-2.58A11.22,11.22,0,0,1,.56,73.18L0,74.45a9.12,9.12,0,0,0,3.31,2.16A5.12,5.12,0,0,1,5.89,79c.42,1.45,1.49,2.25,2.32,3.3A9.87,9.87,0,0,1,9.86,86c.15.38.31.76.47,1.15a16.44,16.44,0,0,0,.72,1.53A18.27,18.27,0,0,0,13,91.35c.61.86,1.38,1.61,2.07,2.43.36.41.67.85,1,1.28a14.94,14.94,0,0,1,1,1.3c1.31,2.32,3.66,3.57,5.85,4.51l3,1a27.11,27.11,0,0,1,3.1,1.07,13.19,13.19,0,0,0,1.82.66,10.64,10.64,0,0,0,1.86.24,16.94,16.94,0,0,0,3.65-.23c1-.14,2.08-.43,3.14-.55a17.27,17.27,0,0,1,3.23-.35,14.88,14.88,0,0,0,7-1.94l2.85-1.4a18.83,18.83,0,0,1,3-1.11,16.38,16.38,0,0,0,6.5-3.24,26.92,26.92,0,0,1,5.41-3.38,16.85,16.85,0,0,0,6-4,36.61,36.61,0,0,1,3.7-3.18c.11,1.05.21,2.11.31,3.15.25,2.54.62,5.11.85,7.72s.37,5.26.48,7.93a84.34,84.34,0,0,0,.56,9.09c.4,3,.94,5.84,1.45,8.68.23,1.25.45,2.52.68,3.79s.51,2.55.76,3.84c.48,2.58.88,5.2,1.13,7.87l.45.53a46.12,46.12,0,0,0,13.21,1.4c2.08,0,4.2,0,6.34,0a21.09,21.09,0,0,0-2.5,6.45c-.35,1.39-.61,2.81-1,4.21a20,20,0,0,1-1.49,4.19A25.24,25.24,0,0,0,97.13,161c-.25,2.84-.23,5.75-1.23,8.66a30,30,0,0,0-.46,7.75,30.26,30.26,0,0,1-.28,8.73,32.28,32.28,0,0,0,.24,7.76,28,28,0,0,1,.44,8.71,29.11,29.11,0,0,0,.85,7.7,34.64,34.64,0,0,1,1,8.66,21.44,21.44,0,0,0,.24,3.13l.13.76.07.38c0,.17,0,.07,0,.12a1.15,1.15,0,0,1,.15.33,1.28,1.28,0,0,1-.37,0c-2.76-.59-5.7-.8-8.68-1.53a17.61,17.61,0,0,0-7.84.67,80.71,80.71,0,0,1-8.48,2.43l.53,1.28a78.2,78.2,0,0,0,8.24-2.35,16.31,16.31,0,0,1,7.5-.64c3,.73,5.61.88,8.47,1.51.81.21,1.6.52,2.32.77-.1-.75-.29-1.59-.42-2.31l-.16-.89-.12-.75a20.07,20.07,0,0,1-.23-3.11,19.73,19.73,0,0,0-.25-4.44c-.23-1.43-.47-2.84-.76-4.22a28.29,28.29,0,0,1-.84-7.62,28.51,28.51,0,0,0-.44-8.7,31,31,0,0,1-.23-7.66,30.5,30.5,0,0,0,.27-8.71,28.69,28.69,0,0,1,.47-7.64c1-2.91,1-5.81,1.21-8.61a24.42,24.42,0,0,1,1.37-7.52,20,20,0,0,0,1.48-4.17c.42-1.37.66-2.78,1-4.13a18.34,18.34,0,0,1,2.84-6.82c1.21,0,2.42.11,3.64.24a50.84,50.84,0,0,0,13.24-.18c1.88-.23,3.79-.45,5.72-.6a47.74,47.74,0,0,1,5.88-.32,34.92,34.92,0,0,0,6.74-.36q3.2-.42,6.22-1.12a31.6,31.6,0,0,0-.56,7.13,35.64,35.64,0,0,1-.62,9.09,30.07,30.07,0,0,0-.07,8.09,35.45,35.45,0,0,1,.1,9.1,21.81,21.81,0,0,0,0,4.12c.15,1.34.37,2.66.59,4,.44,2.92,1.14,5.89.85,9.07a30,30,0,0,0,1.32,8c.76,2.86,1.75,5.74,1.75,9a33.1,33.1,0,0,0,2.22,7.8,33.85,33.85,0,0,1,2.88,8.65,23.86,23.86,0,0,0,1.44,3.87,6.65,6.65,0,0,0,.69,1.3,3.17,3.17,0,0,1,.2.27l.13.19c0,.06.14.19.08.16a6.31,6.31,0,0,1-.81-.11l-2.2-.53c-1.5-.35-3-.67-4.55-1.17a17.83,17.83,0,0,0-8.2.24c-2.94.65-5.78,1.64-9,2.1l.48,1.3c3.12-.44,5.86-1.4,8.7-2a16.72,16.72,0,0,1,7.84-.22c1.5.49,2.94.8,4.36,1.13.73.18,1.37.31,2.16.52s1.35.49,2,.7l1.87.78,0-.08-2.47-5.12a23.22,23.22,0,0,1-1.41-3.79,34,34,0,0,0-2.86-8.6,32,32,0,0,1-2.18-7.68c0-3.21-1-6.07-1.75-8.91a29.33,29.33,0,0,1-1.29-7.88c.27-3.19-.41-6.14-.86-9.05-.21-1.28-.44-2.59-.58-3.92a21.08,21.08,0,0,1,0-4.05,36.25,36.25,0,0,0-.11-9.09,29.81,29.81,0,0,1,.08-8,36.05,36.05,0,0,0,.61-9.07,29.24,29.24,0,0,1,.66-7.53c1.44-.31,2.88-.62,4.35-.89,1.91-.35,3.83-.74,5.82-.91,4.62-.19,8.85-1.59,12.93-2.83A82.59,82.59,0,0,1,182.4,128l.47-.6a53.09,53.09,0,0,0-.85-11.74,53.22,53.22,0,0,1-.77-10.32,55.53,55.53,0,0,0-.52-11.76,51.36,51.36,0,0,1-.48-10.34,35.47,35.47,0,0,0,.24-5.61,48.77,48.77,0,0,0,5.38.25,14.5,14.5,0,0,1,7,1.53,37.46,37.46,0,0,0,6.09,2,13.61,13.61,0,0,1,6.35,3.35,48.77,48.77,0,0,0,5.13,3.77,18.42,18.42,0,0,1,2.73,2.29,9.76,9.76,0,0,1,2,3.1,16.12,16.12,0,0,0,.78,1.42,15.42,15.42,0,0,0,.81,1.37c.61.87,1.13,1.77,1.71,2.64a21,21,0,0,1,1.63,3.17,11.17,11.17,0,0,1,.68,3.61,17.38,17.38,0,0,0,.5,3.2c.2,1,.47,2.07.74,3.09s.44,2.33.56,3.53a11.34,11.34,0,0,1,0,1.84c0,.3-.08.61-.12.92-.1.68-2,.54-2.51.63A15.6,15.6,0,0,0,217,120c-2.35.82-4.47,2-6.92,3a8.58,8.58,0,0,0-2.67,2.26c-.33.47-.61,1-.89,1.46a6.78,6.78,0,0,0-.69,1.53c-1,2.3-1.15,4.75-2.19,7.19l1.38.16c1-2.34,1.16-4.64,2.05-6.75l.26-.73c.1-.22.24-.44.36-.67a15.23,15.23,0,0,1,.81-1.33,7.15,7.15,0,0,1,2.42-2c2.28-.94,4.22-2,6.41-2.8a14.92,14.92,0,0,1,2.43-.62,11.28,11.28,0,0,0-2.27,2.08c-1.16,1.38-2.15,2.86-3.41,4.25a8.38,8.38,0,0,0-2.31,5.73c-.09.88,0,1.79-.12,2.68a11.45,11.45,0,0,1-.28,2.71l1.39,0a10.49,10.49,0,0,0,.27-2.58c.09-.84,0-1.7.1-2.53a7.36,7.36,0,0,1,2.14-5.27c1.19-1.28,2.09-2.65,3.16-4a9,9,0,0,1,2.91-2.4,9.92,9.92,0,0,0-.64,2.59,14.9,14.9,0,0,1-1,4.92,7.51,7.51,0,0,0,.08,4.48c.37,1.62,1,3.13.81,5l1.34-.39c.2-1.76-.41-3.19-.78-4.72a6.77,6.77,0,0,1-.07-4.2,13.42,13.42,0,0,0,1-4.69,7.15,7.15,0,0,1,1.17-3.45,3.08,3.08,0,0,0,.45-1l.1-.75.09-.5c0-.32.08-.63.11-1A10.85,10.85,0,0,0,224,115.81ZM157.18,4.88a12.63,12.63,0,0,1,4.25,4.51,18.92,18.92,0,0,0,3.67,4.13,19.41,19.41,0,0,1,2.12,2.22,8.36,8.36,0,0,1,1.56,2.77A19.76,19.76,0,0,0,171.92,23a17.91,17.91,0,0,1,1.81,2.48,8,8,0,0,1,1.17,2.95A11.1,11.1,0,0,0,176,31c.42.81.88,1.59,1.35,2.36a12.24,12.24,0,0,1,2.06,5.52h-.05c-.17,1-.29,1.92-.37,2.87a80.86,80.86,0,0,1-9.41,2.83,26.06,26.06,0,0,1-9,.69,60.08,60.08,0,0,0-10.28-.5l-1.11,0h-1.26v-.06l0-.14c0-.2.05-.35.15-.79a44.76,44.76,0,0,1,1.26-4.45,32.9,32.9,0,0,0,2-10.2,53.78,53.78,0,0,1,1.16-9,34.71,34.71,0,0,0,1.11-10.32,68.13,68.13,0,0,1,.25-7.52A31.15,31.15,0,0,0,157.18,4.88Zm23.47,110.93a55.45,55.45,0,0,1,.87,11,90,90,0,0,0-10.71,3.13c-4.05,1.23-8.25,2.62-12.79,2.78-2,.18-3.93.58-5.84.93s-3.78.76-5.62,1.17a62.09,62.09,0,0,1-6.36,1.16,34.09,34.09,0,0,1-6.65.34,47.69,47.69,0,0,0-5.89.32c-1.94.15-3.84.38-5.72.6a49.31,49.31,0,0,1-13.09.17,106.48,106.48,0,0,0-11.64-.29,46.3,46.3,0,0,1-12.36-1.23c-.26-2.54-.63-5-1.09-7.48q-.37-1.94-.75-3.84c-.23-1.27-.46-2.54-.69-3.79-.5-2.82-1-5.69-1.43-8.63a78,78,0,0,1-.54-9c-.12-2.7-.24-5.36-.5-8S79.25,90,79,87.42c-.29-2.85-.58-5.76-.76-8.71a71.24,71.24,0,0,1,.06-9q.14-4,0-8c-.07-2.63-.27-5.22-.37-7.77-.12-2.86-.27-5.78-.27-8.74a80.76,80.76,0,0,1,.55-9c.54-5.38.48-10.65.5-15.76A96.76,96.76,0,0,1,79.87,3.62,37.64,37.64,0,0,0,88,4a39.65,39.65,0,0,1,9.86.46,36.93,36.93,0,0,0,8.79,0,39.72,39.72,0,0,1,9.87,0A36.41,36.41,0,0,0,125.26,4a40.18,40.18,0,0,1,9.86-.54,34.92,34.92,0,0,0,8.74-.94,47.38,47.38,0,0,1,8.79-1.19,60.75,60.75,0,0,0-.35,8.37,33.55,33.55,0,0,1-1.11,10.21A54,54,0,0,0,150,29,32,32,0,0,1,148,39a41,41,0,0,0-1.26,4.44l-.4,1.81c-.54,1,.65.7,1.26.81l.52,0,.4,0h1.7a61.84,61.84,0,0,1,10.35.52,27,27,0,0,0,9.22-.72,77.18,77.18,0,0,0,9.07-2.71c-.09,2.06,0,4.1,0,6.1a57.23,57.23,0,0,1-.32,11.73,51.86,51.86,0,0,0,.12,10.44,54.56,54.56,0,0,1,.14,11.73,52.72,52.72,0,0,0,.49,10.42,55.34,55.34,0,0,1,.52,11.72A53.74,53.74,0,0,0,180.65,115.81Z"/>
  <path class="cls-1" d="M105.83,64.11a3.36,3.36,0,0,0,2.64,1.37,2.67,2.67,0,0,0,2.25-1.16,6.38,6.38,0,0,0,1-2.59,38.35,38.35,0,0,0,.54-5.58,20.92,20.92,0,0,0-.44-6.5,10.27,10.27,0,0,0-1.25-3A3,3,0,0,0,108,45a3,3,0,0,0-2.11,1.51A9.32,9.32,0,0,0,104.84,49a25.59,25.59,0,0,0-.71,5.57h0a20.71,20.71,0,0,0,.35,6.5A7.74,7.74,0,0,0,105.83,64.11Z"/>
  <path class="cls-1" d="M130.18,64.21a2.48,2.48,0,0,0,2.68,1,3.6,3.6,0,0,0,1.85-1.76,10.3,10.3,0,0,0,.93-2.46,32.84,32.84,0,0,0,.74-5.3,17,17,0,0,0-.51-6.2,8,8,0,0,0-1.37-2.8,3.24,3.24,0,0,0-1.22-1,2,2,0,0,0-1.46,0A3.77,3.77,0,0,0,130,47.47a10.94,10.94,0,0,0-.95,2.44,28.08,28.08,0,0,0-.74,5.3h0a16.68,16.68,0,0,0,.53,6.21A8,8,0,0,0,130.18,64.21Z"/>
</svg>
