<svg id="Layer_1" data-name="Layer 1" xmlns="http://www.w3.org/2000/svg" width="5.1in" height="366.7" viewBox="0 0 367.13 275.27"><defs><style>.cls-1{fill:#fcfaf9}</style></defs><title>response</title><path class="cls-1" d="M133.2 89.5a7.7 7.7 0 0 0-5.2-2.3 21.3 21.3 0 0 0-5 .2l-1.4.3-1.3.7a4.4 4.4 0 0 0-1.1 1 11 11 0 0 0-1 1.1l-.8-.8a10.5 10.5 0 0 1 1-1.2l.7-.6a5.2 5.2 0 0 1 .6-.4l1.5-.7 1.5-.5a21.7 21.7 0 0 1 5.5-.2 8.7 8.7 0 0 1 5.7 2.5l4 3.8-.9.6c-1.3-1-2.5-2.4-3.8-3.5zm-27.7-3.8a7 7 0 0 0-4.6-2.6 13.7 13.7 0 0 0-4.5-.1 5.8 5.8 0 0 0-4.1 3.2l-.8-.7A6.7 6.7 0 0 1 96 82a14.2 14.2 0 0 1 5.2 0 7.9 7.9 0 0 1 5 3c1 1.2 2 2.5 3.3 3.7l-.8.6a46.6 46.6 0 0 1-3.3-3.6z"/><path class="cls-1" d="M0 230a25 25 0 0 1 7.1 5.5l5.4 6a17.6 17.6 0 0 1 4.6 7.5l.3 1a4.1 4.1 0 0 1 .1.4 5.5 5.5 0 0 0 .2.6 7.2 7.2 0 0 1 .2 1l.1 1.2v.6l.1.8.2 1.6.1-.4.1-.1.1-.2.4-1 .7-1.8.7-1.7.3-1a24.6 24.6 0 0 1 4.3-8l2.4-3.2c.8-1.2 1.6-2.1 2.3-3.3a21.2 21.2 0 0 1 2.6-3.8l3.2-3.2a70.9 70.9 0 0 0 5.7-5.6 30 30 0 0 1 6.8-6 57.6 57.6 0 0 0 6.3-5 32.4 32.4 0 0 1 7.4-5.2 54.6 54.6 0 0 0 6.8-4.3 32.6 32.6 0 0 1 7.8-4.7 64.3 64.3 0 0 0 7-3.6c4.6.6 9.3 1 14 1.3a156 156 0 0 1 19.3 2c5.6.8 11.3 1.7 17.1 2.1l4.5.1a92.8 92.8 0 0 1 8.7 10.9c3 4.2 6 8.5 9.4 12.7a52.8 52.8 0 0 1 4 5.8 28.6 28.6 0 0 1 1.6 3 10.3 10.3 0 0 1 .7 3.2 9.4 9.4 0 0 1-.5 3.6 16.7 16.7 0 0 1-1.7 3.3c-1.4 2.1-3.1 4.1-4.8 6.3-3.1 3.6-6.7 6.6-9.8 10a50.7 50.7 0 0 0-5 6l-1.2 1.7a15 15 0 0 0-1 1.8 19.8 19.8 0 0 0-.9 1.8l-.4 1-.2.6-.3.7-.4 1.1-.3.5v.4l1.2-.7 1.1-.5a2.2 2.2 0 0 1 .3 0l.2-.1.4-.2a7 7 0 0 1 .7-.2l1.5-.3a15.3 15.3 0 0 1 1.5-.2 28 28 0 0 1 6 0c5 .5 10 2 15.2 3.5l.4-1c-5.2-1.5-10.3-3-15.4-3.6a28.9 28.9 0 0 0-6.3 0 14.5 14.5 0 0 0-1.6.2 17.1 17.1 0 0 0-2.3.6l-.4.1-.2.1-.2.1c-.1 0 0 0 0-.2a.8.8 0 0 1 0-.1.2.2 0 0 1 0-.1v-.2l.5-1a19.8 19.8 0 0 1 .8-1.8l1-1.7 1.1-1.6a47.7 47.7 0 0 1 5-6c3-3.2 6.6-6.3 9.8-10 1.7-2.1 3.4-4.1 4.9-6.4a16.7 16.7 0 0 0 1.8-3.5 10.5 10.5 0 0 0 .6-4 11.4 11.4 0 0 0-.8-3.5 31 31 0 0 0-.8-1.7l-.9-1.5a56 56 0 0 0-4-6c-3.4-4.1-6.4-8.4-9.4-12.6a100.4 100.4 0 0 0-8-10.1l2.7.3a31 31 0 0 0 7.8.3 47 47 0 0 1 8.8-.3 30.4 30.4 0 0 0 7.7-.6l.5-.6a73 73 0 0 1 1.7-12.4 88.2 88.2 0 0 0 1.7-11 69.3 69.3 0 0 1 1.8-12.3 88 88 0 0 0 1.8-11 54 54 0 0 1 1.1-8.3 20.4 20.4 0 0 0 3.1 1.3 56 56 0 0 0 10.2 2.9 20.2 20.2 0 0 0 12-1.6l2.4-1.1 2.4-1.2 2.2-1.3 1.2-.6 1-.8a30.6 30.6 0 0 0 8.8-8.2c1-1.5 2.1-2.8 3.2-4.2l3.2-4.1c1.1-1.6 2.3-3.2 3.3-4.9a48.8 48.8 0 0 0 2.4-4.6 11.8 11.8 0 0 1 2.2.1c.9 0 1.8.3 2.6.3a9 9 0 0 0 2.4-.2 5 5 0 0 0 1.5-.5l1.1.3 4 .9c-1.4 1.3-2.9 2.4-4.2 3.7a18.8 18.8 0 0 0-5 6c-1 2.2-2.3 4-3.4 6a14.8 14.8 0 0 0-2.3 7.6c0 2.4-.3 4.7-.2 7a13.9 13.9 0 0 0 2.5 7.5l1.9 3 .8 1.4 1 1.5a21.6 21.6 0 0 0 2.5 3 16.4 16.4 0 0 0 3 2.5h.2a6.3 6.3 0 0 1 3 1.8 11.1 11.1 0 0 0 3.2 2.5 6 6 0 0 1 2.3 2.7 14.1 14.1 0 0 0 1.9 3.5l1-.3a16.6 16.6 0 0 1-2-3.8 6.7 6.7 0 0 0-2.5-2.9 12 12 0 0 1-3.3-2.6 14.5 14.5 0 0 0-1.1-1 17.4 17.4 0 0 1 2.7.7 30.1 30.1 0 0 0 5.7 1.4 10.6 10.6 0 0 1 4.6 2.2c1.4 1.2 2.7 2.5 4.4 3.6l.8-.7c-1.7-1.2-3.1-2.6-4.7-3.8a11.6 11.6 0 0 0-4.8-2.4 31.2 31.2 0 0 1-5.8-1.4 17.6 17.6 0 0 0-3-.6 10 10 0 0 1 2.9-.6c1.5-.1 3 0 4.6-.2a7.7 7.7 0 0 1 5.1 1l2 1a11.3 11.3 0 0 0 2.1 1l.6-.9a12.8 12.8 0 0 1-2.2-1l-2.1-1.2a8.6 8.6 0 0 0-5.4-1c-1.7.2-3.3.1-4.9.2a10 10 0 0 0-3.9 1 5.3 5.3 0 0 1 1-.8 13 13 0 0 0 2.7-2 3.9 3.9 0 0 1 2.8-.8 8.6 8.6 0 0 0 3.4-.1l.1-1.1a5 5 0 0 1-1.8.2H249a4.6 4.6 0 0 0-3.2.8 18.4 18.4 0 0 1-3 2.2 4.7 4.7 0 0 0-1.7 2 15 15 0 0 1-2.2-2 22.6 22.6 0 0 1-2.4-3l-.9-1.3-.8-1.4-1.9-2.9a12.9 12.9 0 0 1-2.3-7.1c-.2-2.2.1-4.4.2-6.7a13.8 13.8 0 0 1 2.1-7.2c1-2 2.4-3.8 3.4-5.8a17.8 17.8 0 0 1 4.8-6c1.6-1.3 3.2-2.7 4.7-4.2a25.6 25.6 0 0 0 3.8.4 39 39 0 0 1 7.9 1.5 43.7 43.7 0 0 0 9 1.9 38 38 0 0 1 7.7 1.8 46.7 46.7 0 0 0 8.9 2.3l.7-.3a43.8 43.8 0 0 1 2.7-8.8 37.1 37.1 0 0 0 2.3-7.8 29.6 29.6 0 0 1 1-4.6l.6-2.6a39 39 0 0 1 8 5.6c2.8 2.4 5.5 5.2 8.8 7.6a45.4 45.4 0 0 1 3.7 3.6l3.2 4 3.4 4.6a51.6 51.6 0 0 0 3.6 4.7 39.8 39.8 0 0 1 5 8.9l1.1 2.6 1 2.6 1.3 2.7.6 1.4.6 1.3 1 2.6 1 3.2 1.2-1.3a6.2 6.2 0 0 1 .5-.5l.4-.3a18.4 18.4 0 0 1 1.9-1.4 29.4 29.4 0 0 1 10.4-4.1l-.1-1.2a30.9 30.9 0 0 0-11 4.3 22.8 22.8 0 0 0-2 1.5l-.5.4-.2.2-.1.1h-.1l-.4-1.3a42 42 0 0 0-1.6-4l-.7-1.3-1.2-2.7-1-2.7c-.3-1-.8-1.8-1.2-2.6a41 41 0 0 0-5-9.1 49.2 49.2 0 0 1-3.7-4.7l-3.4-4.7-3.2-4a45.5 45.5 0 0 0-3.8-3.6c-3.3-2.4-6-5.2-9-7.6a39 39 0 0 0-8.2-5.9l.2-.6a38 38 0 0 0 1.8-8 28 28 0 0 1 .5-4.7l1-4.4.8-4a27 27 0 0 0 .3-2.9 28.4 28.4 0 0 1 10 .8c2 .4 3.8 1 5.8 1.6L317 79a31.8 31.8 0 0 1 9.3 5.2c3.1 2.4 6 5.2 9.3 7.9a36.6 36.6 0 0 1 6.8 8.3c2 3.3 4 6.9 6.3 10.4a22.7 22.7 0 0 1 1.5 2.6l.6 1.4.9 1.8a10.8 10.8 0 0 1 1.1-1.3l1-.7a16.8 16.8 0 0 1 2-1.2c3.4-1.8 7.3-2.6 11.4-3.6l-.1-1.1c-4.2 1-8.2 1.8-11.8 3.7a18.1 18.1 0 0 0-2.2 1.3l-1 .8-.2-.2-.6-1.4a24 24 0 0 0-1.5-2.6l-6.4-10.5a37.8 37.8 0 0 0-6.9-8.5c-3.3-2.7-6.2-5.5-9.4-8a32.9 32.9 0 0 0-9.7-5.3l-6-1.9a54 54 0 0 0-5.9-1.6 29.5 29.5 0 0 0-10.2-.8v-.1a49.6 49.6 0 0 1 .8-9.2 33 33 0 0 0 .4-8.1l-.5-.4-10.2-3.7-5.8-1.9a39.6 39.6 0 0 0-6.1-1.2l-5.4-1-5.2-1.3a61 61 0 0 0-10.7-1.9l-1-6.3a16.5 16.5 0 0 0-2.7-7.2c-1.3-2-2.3-4-3.5-6a16.1 16.1 0 0 0-5.3-5.6c-2-1.3-3.7-2.8-5.5-4a17.4 17.4 0 0 0-7-3.5c-2.3-.6-4.4-1.4-6.5-2.1a31.3 31.3 0 0 0-3.7-1.1 17.7 17.7 0 0 0-4-.4 6.4 6.4 0 0 1-3.1-1.2 11.5 11.5 0 0 0-3.5-2 5.2 5.2 0 0 1-2.6-2.2 30.4 30.4 0 0 0-1.9-3.3l-1 .3c.9 1.3 1.4 2.5 2.1 3.7a6 6 0 0 0 2.8 2.5 12.7 12.7 0 0 1 3.7 2c.3.3.7.5 1.2.7a17.9 17.9 0 0 1-3.4-.2c-2.1-.3-4.1-.8-6.4-.9a10.4 10.4 0 0 1-5-2.4c-1.7-1.3-3-2.9-4.5-4.5l-1 .6c1.7 1.7 3 3.4 4.8 4.8a11.3 11.3 0 0 0 5.4 2.6c2.4.1 4.5.6 6.6.9a15.6 15.6 0 0 0 4.8 0 4.2 4.2 0 0 1-.7.6 6.9 6.9 0 0 1-2 1c-1.5.4-3.1.5-4.9 1a6.8 6.8 0 0 1-2.3.2 22.3 22.3 0 0 1-2.2-.4l-2.4-.7a8.8 8.8 0 0 0-2.7-.3l-.2 1.1a9 9 0 0 1 2.7.3l2.5.7c.8.3 1.5.3 2.3.4a7.7 7.7 0 0 0 2.5-.2c1.8-.5 3.5-.7 5.2-1.2.4 0 .8-.2 1.2-.4a7.6 7.6 0 0 0 1-.6l.3-.2a3.7 3.7 0 0 1-.2.3 7 7 0 0 0-1.2 2.6 3 3 0 0 1-1.8 1.8 6.5 6.5 0 0 0-2.5 1.5l.4 1a8.2 8.2 0 0 1 2.7-1.6 3.6 3.6 0 0 0 2-2 9 9 0 0 1 1.4-2.9 4.2 4.2 0 0 0 .6-2.2 17.2 17.2 0 0 1 3 .3 29.6 29.6 0 0 1 3.7 1c2 .7 4.1 1.6 6.4 2.1a16.4 16.4 0 0 1 6.8 3.3c1.8 1.3 3.4 2.8 5.4 4a15.3 15.3 0 0 1 5.1 5.5c1.2 1.8 2.2 3.8 3.4 5.7a15.6 15.6 0 0 1 2.7 7l.9 6h-.3a104.4 104.4 0 0 1-10.8-1.3l-6-.9a50.2 50.2 0 0 0-6.2-.1h-2.8l-2.7-.1a175 175 0 0 1-5.4-.4 63.3 63.3 0 0 0-12.3-.2l-.6.5a21.1 21.1 0 0 1-.8 7 27.4 27.4 0 0 0-1 6.1 22 22 0 0 1-1 7 27.7 27.7 0 0 0-1.1 6 22.2 22.2 0 0 1-1.2 7 27.5 27.5 0 0 0-1.3 6 22.3 22.3 0 0 1-1.4 7 26.3 26.3 0 0 0-1.3 6l.2.6a22.2 22.2 0 0 1 5.3 4.5 25.3 25.3 0 0 0 4.6 4 22.2 22.2 0 0 1 5.3 4.4 25 25 0 0 0 4.6 4l.4-.5v.5a41.5 41.5 0 0 1 8 1l6.5 1.1a45.3 45.3 0 0 1-2.7 5.4c-1 1.7-2.2 3.2-3.3 4.8l-3.1 4-3.2 4.2a29.3 29.3 0 0 1-8.5 8l-1 .8-1.2.6-2.2 1.2-2.3 1.2-2.4 1.1a19 19 0 0 1-11.5 1.7 55.1 55.1 0 0 1-9.9-2.8 20 20 0 0 1-3.3-1.4l.6-3a88.7 88.7 0 0 0 2-11 68.4 68.4 0 0 1 2.3-12.2 98 98 0 0 0 2.3-10.9l-.2-.5a68.3 68.3 0 0 1-7-7.3 39 39 0 0 0-6.4-6.1 72.9 72.9 0 0 1-7.9-6.3 34 34 0 0 0-7.4-5l-19-4.8a131.7 131.7 0 0 0-17.1-3.2C111 72 104.7 71 98.4 70a134.7 134.7 0 0 0-17.2-1.7l-.7.5a129 129 0 0 1-3 16.2 138 138 0 0 0-3 14.4 136.4 136.4 0 0 1-2.8 16.3l-1.6 7.6-6.1 1.6a21.2 21.2 0 0 0-7.4 3.1 55.2 55.2 0 0 1-6.2 3.3 54 54 0 0 0-3.4 2 19.7 19.7 0 0 0-3.1 2.5l-2.7 2.4-2.7 2.1-3 2.6A17.4 17.4 0 0 0 33 146a61.3 61.3 0 0 1-4.5 5.4 22.4 22.4 0 0 0-2.5 3.1c-.7 1-2.3 4.5-2.6 5l-.7 1.3a4.4 4.4 0 0 0-.6 3.4 7.7 7.7 0 0 1-.3 3 4.8 4.8 0 0 0 .3 3.3h1a4.5 4.5 0 0 1-.1-3.4 7.2 7.2 0 0 0 .2-2.9 3.8 3.8 0 0 1 .6-3 16.3 16.3 0 0 0 1-2 9.9 9.9 0 0 1 2.8 3.1c1 1.6 1.6 3.3 2.8 4.9a7.2 7.2 0 0 1 .9 2.3 12.7 12.7 0 0 1 .1 2.5c0 1.8-.4 3.6-.2 5.6l1 .2c-.1-2 .3-4 .3-5.9a12.8 12.8 0 0 0-.2-2.6 8.3 8.3 0 0 0-1-2.5c-1.1-1.7-1.8-3.5-2.8-5.1a12.5 12.5 0 0 0-2.1-2.7 11.2 11.2 0 0 1 3.2 1.4c1.7 1 3.2 2.4 5.1 3.5a10 10 0 0 1 3.3 4.4 59.2 59.2 0 0 0 2.5 5.7l1-.3a64.4 64.4 0 0 1-2.6-6 11 11 0 0 0-3.5-4.6c-1.9-1.2-3.5-2.5-5.3-3.7a11.5 11.5 0 0 0-4.1-1.6 2 2 0 0 1 .4-.1 5 5 0 0 1 1.9-.2c1.4.2 2.7.7 4.2.8a4.8 4.8 0 0 1 1.9.7 13.3 13.3 0 0 1 1.5 1.3l1.6 1.5a6.5 6.5 0 0 0 1.9 1.4l.7-.8a7 7 0 0 1-1.9-1.4l-1.6-1.6a14.8 14.8 0 0 0-1.7-1.3 5.5 5.5 0 0 0-2-.8c-1.6-.2-3-.7-4.7-.9a6.5 6.5 0 0 0-2.2.2l1-1.5a23.1 23.1 0 0 1 2.3-3 60.7 60.7 0 0 0 4.5-5.3 16 16 0 0 1 2.4-3.2l3-2.5 2.7-2.1 2.6-2.3a19 19 0 0 1 3-2.6l3.4-2a58.7 58.7 0 0 0 6.2-3.2 20.3 20.3 0 0 1 7.1-3l5.7-1.5a86 86 0 0 0-.8 5.7 140 140 0 0 1-2.6 16.3 131 131 0 0 0-2.3 14.5 145 145 0 0 1-2.2 16.3 112.8 112.8 0 0 0-1.7 14.6l.6.7a135.4 135.4 0 0 1 19.3 1.2l1.3.2c-1.9 1-3.8 2-5.8 2.8a33.3 33.3 0 0 0-7.8 4.7 54.6 54.6 0 0 1-6.8 4.3 32.8 32.8 0 0 0-7.5 5.3 57.3 57.3 0 0 1-6.3 5 31.7 31.7 0 0 0-6.9 6.1 66.6 66.6 0 0 1-5.7 5.7 51 51 0 0 0-3.2 3.2 23.1 23.1 0 0 0-2.7 3.8l-2.3 3.4c-.7 1.1-1.7 2.1-2.4 3.2a25.7 25.7 0 0 0-4.4 8.1l-.5 1.6-.2.6-.1.3v-.2l-.2-1.2v-.4a4 4 0 0 0-.2-.5l-.3-1a18.5 18.5 0 0 0-4.8-8c-2-2-3.6-4-5.5-6a25.6 25.6 0 0 0-7.3-5.6zM197.3 94.9l5.7-.3a22.2 22.2 0 0 0 8-1.3c2.4-.8 4.7-1.2 7-1.9a17 17 0 0 0 6.5-3 17.6 17.6 0 0 1-1.2 4.7 39.8 39.8 0 0 0-2 6.6 17.2 17.2 0 0 1-2.5 5.5 43.3 43.3 0 0 0-3.3 5.6 27.5 27.5 0 0 1-4.1-3.7 22.4 22.4 0 0 0-5.3-4.4 24.6 24.6 0 0 1-4.6-4 27.1 27.1 0 0 0-4.2-3.8zm43.5 19.5h-.1a27.4 27.4 0 0 0 3.5-3.3 6.8 6.8 0 0 0 1.7-4.5h-1.1a5.8 5.8 0 0 1-1.5 4 37.7 37.7 0 0 1-3.6 3.2l-.4.3-3.2-.7h.1a6.5 6.5 0 0 0 3.3-4.5c.2-2.2.5-4.1.5-6.1a11 11 0 0 0-1-5.3l-1 .3a9.9 9.9 0 0 1 1 5c0 2-.3 3.8-.4 5.8a5.5 5.5 0 0 1-3 3.9 10.6 10.6 0 0 1-1.4.7l-1.3-.1h-.9l.8-1.2a4.5 4.5 0 0 0 .7-3.6 15.6 15.6 0 0 1 0-3.3 4.8 4.8 0 0 0-1.2-3.5l-1 .4a4.3 4.3 0 0 1 1 3.3 12.3 12.3 0 0 0 0 3 3.8 3.8 0 0 1-.6 3.3l-1 1.5a53.4 53.4 0 0 1-7-1 45.9 45.9 0 0 0-7-1 51.5 51.5 0 0 1 3-5.2 17.9 17.9 0 0 0 2.7-5.7 39 39 0 0 1 2-6.7 16.3 16.3 0 0 0 1.2-6.1h-.6l-.4-.5a14.4 14.4 0 0 1-7 3.6c-2.1.7-4.5 1-6.8 2a21.6 21.6 0 0 1-7.8 1.2 63.5 63.5 0 0 0-6.5.3 29.3 29.3 0 0 1 1.2-5.3 23.3 23.3 0 0 0 1.4-7 27 27 0 0 1 1.3-6 22.9 22.9 0 0 0 1.2-7 26.5 26.5 0 0 1 1.1-6.1 22.6 22.6 0 0 0 1-7 27.5 27.5 0 0 1 1-6.1 23.2 23.2 0 0 0 1-6.6 64 64 0 0 1 11.6.1l5.3.5h2.8l2.7.1a47.3 47.3 0 0 1 6.2.1l6 .8A106.3 106.3 0 0 0 251 46a56.6 56.6 0 0 1 12 2l5.2 1.3 5.4 1a37.5 37.5 0 0 1 6 1.3c2 .5 4 1.2 5.8 1.8 3.2 1.2 6.6 2.5 10 3.6a34 34 0 0 1-.4 7.5 51 51 0 0 0-.8 9.1 22.9 22.9 0 0 1-.4 4.1 95.2 95.2 0 0 0-1.7 8.3 27 27 0 0 0-.6 4.7 37.6 37.6 0 0 1-1.7 7.9c-.5 1.4-1 2.8-1.3 4.3a30.6 30.6 0 0 0-.9 4.6 37 37 0 0 1-2.3 7.7 48 48 0 0 0-2.6 8.3 48.4 48.4 0 0 1-8.3-2.1 39.2 39.2 0 0 0-7.9-2 42.6 42.6 0 0 1-8.9-1.7 40.6 40.6 0 0 0-8-1.7 42.2 42.2 0 0 1-8.8-1.5zm-6.5.2h-.8l.8-.3c1 0 2 .2 3 .4a10.4 10.4 0 0 1-1.8 0 7 7 0 0 1-1.2 0zm-81.2-33.2a121.2 121.2 0 0 1-1.9 13.4 126.3 126.3 0 0 0-2.2 15.7 121.6 121.6 0 0 1-2.2 13.7l-7.3-3.7a35.1 35.1 0 0 0-9.5-3.5 36.3 36.3 0 0 1-4.4-1.2l-4.2-1.3a51.6 51.6 0 0 0-9.9-2.3 36.4 36.4 0 0 1-4.5-.7 97 97 0 0 1-4.3-1 40.7 40.7 0 0 0-10-1.3 58.3 58.3 0 0 1-9-1 49.2 49.2 0 0 0-9.2-.6 70 70 0 0 0 1.2-8 135.7 135.7 0 0 1 2.8-14.3 136.6 136.6 0 0 0 3.1-16A137.7 137.7 0 0 1 98.2 71c6.3 1 12.7 2 19.4 2.5a129.5 129.5 0 0 1 17 3.2c6 1.5 12 3.2 18.5 4.7zm-18.6 117a133.7 133.7 0 0 1 3-15 117.4 117.4 0 0 0 2.7-13.7A127.7 127.7 0 0 1 143 154a121.2 121.2 0 0 0 2.5-14 127.5 127.5 0 0 1 2.4-15.5 122.4 122.4 0 0 0 2.2-14 123 123 0 0 1 2.2-15.6 123.9 123.9 0 0 0 1.9-13.2 35 35 0 0 1 6.4 4.6 73.1 73.1 0 0 0 7.9 6.2 38.4 38.4 0 0 1 6.4 6 70.7 70.7 0 0 0 6.8 7.1 100.5 100.5 0 0 1-2.3 10.5 69.3 69.3 0 0 0-2.2 12.4 87.5 87.5 0 0 1-2 10.9l-.6 2.7a33.2 33.2 0 0 1-5.5-4.2 130 130 0 0 1-7.3-7.5 10.4 10.4 0 0 1-.1-2.5 5.9 5.9 0 0 0-.4-3.2l-.6.2a5.4 5.4 0 0 1 .3 3 32.8 32.8 0 0 0-.5 3.4 4.9 4.9 0 0 1-1.4 2.7 34.5 34.5 0 0 0-2.3 2.6l.4.6c.8-1.1 1.8-1.8 2.5-2.7a5.4 5.4 0 0 0 1.5-3l7.1 7.1a33.2 33.2 0 0 0 6 4.6 56.8 56.8 0 0 0-1.2 8.6 84.5 84.5 0 0 1-1.8 10.9 71.5 71.5 0 0 0-1.8 12.5 83 83 0 0 1-1.7 10.9 76 76 0 0 0-1.6 12.2 31 31 0 0 1-7.2.6 47.8 47.8 0 0 0-8.7.3 30.7 30.7 0 0 1-7.7-.3 54.3 54.3 0 0 0-8.1-.7zm-54-5.7a140.7 140.7 0 0 0-19-1.3 113.4 113.4 0 0 1 1.6-13.9 148.6 148.6 0 0 0 2.2-16.5 126.5 126.5 0 0 1 2.3-14.4 145.6 145.6 0 0 0 2.6-16.4 125.5 125.5 0 0 1 2.6-14.3l1.5-7.2a47.7 47.7 0 0 1 9.3.6 60.6 60.6 0 0 0 8.9 1 39.7 39.7 0 0 1 10 1.3l4.3 1a40.2 40.2 0 0 0 4.5.7 24.3 24.3 0 0 1 2.6.2 42 42 0 0 1 7.2 2l4.2 1.3a37.9 37.9 0 0 0 4.4 1.2 33.8 33.8 0 0 1 9.4 3.5l7.6 3.8a121.4 121.4 0 0 0-2.3 14.7 119.8 119.8 0 0 1-2.4 13.8 130.6 130.6 0 0 0-2.8 15.6 115.9 115.9 0 0 1-2.7 13.7 135.3 135.3 0 0 0-3.1 15.2c-5.6-.4-11.2-1.2-16.5-2a160.3 160.3 0 0 0-19.4-2c-5.8-.3-11.5-1-17-1.7z"/><path class="cls-1" d="M117.7 101a14.9 14.9 0 0 0 0 4.8 5.2 5.2 0 0 0 2.7 4 4.1 4.1 0 0 0 3 .2 5.6 5.6 0 0 0 2.4-1.6 9 9 0 0 0 2.2-5.2 11.5 11.5 0 0 0 .2-4.7 5.5 5.5 0 0 0-2.9-3.9 4.3 4.3 0 0 0-2.9-.2 5 5 0 0 0-1.3.6 11.4 11.4 0 0 0-1.2.9 9 9 0 0 0-2.3 5.1zm9.8 2zM97.2 91.2a4.5 4.5 0 0 1 4.7 0c2.2 1.5 3.2 4.4 2.8 8-.5 4.7-3.3 6.8-5.8 6.8-2.4 0-4.9-2.1-5-6.5-.3-4 1-7 3.3-8.3zm159.5-25.5a17.5 17.5 0 0 1 5.4-8.2l.9-.6c.2-.2 0-.2-.1-.2h-.4a4.4 4.4 0 0 0-1.2.2 5 5 0 0 0-2.5 1.7l-.8-.7a6.1 6.1 0 0 1 3-2l.5-.1h.2l.4-.2a6.7 6.7 0 0 1 1.4 0h1.3a10.5 10.5 0 0 1 1 .1l-1.6 1.5-.7.6-.6.5a16.3 16.3 0 0 0-5.2 7.8 45.8 45.8 0 0 0-2 8c-.3 3 0 6.4 1.7 9.1a18 18 0 0 0 2.3 3.3 6.4 6.4 0 0 0 3.3 1.7 6.8 6.8 0 0 0 4.4-.5 5 5 0 0 0 2.7-3.5c.7-2.6-.3-5.2-1-8a15.8 15.8 0 0 1-.3-4.8 5.4 5.4 0 0 1 .7-2.5 2.4 2.4 0 0 1 1.1-1 6 6 0 0 1 .8 0h.7l-.2 1h-.5l-.5.1a1.3 1.3 0 0 0-.5.5 4.7 4.7 0 0 0-.5 2 14.9 14.9 0 0 0 .3 4.4c.6 2.6 1.7 5.5 1 8.6a6 6 0 0 1-3.3 4.1 7.8 7.8 0 0 1-5 .7 7.5 7.5 0 0 1-4-2 19.7 19.7 0 0 1-2.5-3.6 15 15 0 0 1-1.7-9.6 46.7 46.7 0 0 1 2-8.4zm-17.9-3a24 24 0 0 1-4.5-1.3 11.3 11.3 0 0 1-2.1-1.2 3.3 3.3 0 0 1-1.5-2.1 2.6 2.6 0 0 1 .3-1.7 3.3 3.3 0 0 1 1.2-1.2 6.6 6.6 0 0 1 2.8-.8 17 17 0 0 1 5.4.5 31.8 31.8 0 0 1 4.4 1.4 15.5 15.5 0 0 1 2.2 1 4.9 4.9 0 0 1 1 .8 1.8 1.8 0 0 1 .6 1.3 2.5 2.5 0 0 1-.4 1.7 3.8 3.8 0 0 1-1.2 1.1 7.6 7.6 0 0 1-2.8.8 17.2 17.2 0 0 1-5.4-.3zm2.9 18a18.3 18.3 0 0 1-4.8-.4 22.9 22.9 0 0 1-5-1.5 8.5 8.5 0 0 1-2.4-1.5 3.2 3.2 0 0 1-.9-1.3 2.9 2.9 0 0 1 0-1.6l.5.2-.6-.2a2.4 2.4 0 0 1 1.1-1.3 5.5 5.5 0 0 1 1.3-.5 11.2 11.2 0 0 1 2.5-.4 21.4 21.4 0 0 1 4.7.2 23.3 23.3 0 0 1 5.1 1.4 7.6 7.6 0 0 1 2.4 1.5 2.8 2.8 0 0 1 .8 3 3.7 3.7 0 0 1-2.2 1.8 9.3 9.3 0 0 1-2.5.6z"/></svg>