<svg id="Layer_1" data-name="Layer 1" xmlns="http://www.w3.org/2000/svg" width="5.1in" height="3.82in" viewBox="0 0 367.13 275.27">
  <defs>
    <style>
      .cls-1 {
        fill: #4c4c4c;
      }
    </style>
  </defs>
  <title>response</title>
  <g>
    <path class="cls-1" d="M133.23,89.5A7.73,7.73,0,0,0,128,87.18a21.33,21.33,0,0,0-5,.2l-1.37.36c-.44.21-.87.44-1.3.68a4.44,4.44,0,0,0-1.16.92,10.92,10.92,0,0,0-1,1.16l-.76-.78a10.48,10.48,0,0,1,1.07-1.23c.19-.2.39-.38.59-.56a5.22,5.22,0,0,1,.68-.43c.46-.27.94-.52,1.41-.74l1.52-.43a21.66,21.66,0,0,1,5.53-.22,8.67,8.67,0,0,1,5.7,2.52c1.36,1.19,2.55,2.5,4,3.72L137,93C135.68,91.92,134.5,90.63,133.23,89.5Z"/>
    <path class="cls-1" d="M105.52,85.72a6.94,6.94,0,0,0-4.6-2.64A13.73,13.73,0,0,0,96.41,83a5.77,5.77,0,0,0-4.11,3.18l-.85-.7a6.73,6.73,0,0,1,4.64-3.51,14.22,14.22,0,0,1,5.16.09,7.89,7.89,0,0,1,5,2.89c1.12,1.23,2.1,2.54,3.39,3.73l-.89.63A46.56,46.56,0,0,1,105.52,85.72Z"/>
    <path class="cls-1" d="M0,230a24.92,24.92,0,0,1,7.11,5.54c1.82,1.87,3.47,4,5.41,5.88a17.57,17.57,0,0,1,4.61,7.63l.26.93a4.12,4.12,0,0,1,.13.47,5.45,5.45,0,0,0,.14.58,7.17,7.17,0,0,1,.2,1l.14,1.19.07.61.07.77.13,1.57.18-.39.06-.13.09-.2.37-.89.75-1.83c.22-.59.45-1.19.68-1.78l.32-1A24.59,24.59,0,0,1,25,242c.75-1.06,1.58-2.09,2.38-3.17s1.59-2.17,2.29-3.36a21.2,21.2,0,0,1,2.66-3.76q1.53-1.68,3.15-3.17a70.89,70.89,0,0,0,5.74-5.65,30,30,0,0,1,6.74-6,57.6,57.6,0,0,0,6.38-4.92,32.35,32.35,0,0,1,7.35-5.31,54.61,54.61,0,0,0,6.83-4.3,32.61,32.61,0,0,1,7.79-4.64,64.28,64.28,0,0,0,7.06-3.59c4.56.53,9.24,1.06,14,1.27a156.06,156.06,0,0,1,19.27,2c5.52.81,11.22,1.68,17.1,2.12,0,0,3,0,4.44.12l0,0a92.8,92.8,0,0,1,8.73,10.85c3,4.16,5.94,8.49,9.42,12.72a52.75,52.75,0,0,1,3.95,5.82,28.62,28.62,0,0,1,1.62,3,10.28,10.28,0,0,1,.74,3.18,9.43,9.43,0,0,1-.5,3.56,16.73,16.73,0,0,1-1.7,3.31c-1.4,2.13-3.15,4.13-4.87,6.27-3.07,3.6-6.62,6.68-9.76,10a50.74,50.74,0,0,0-5.05,6.05c-.39.54-.76,1.1-1.11,1.69s-.7,1.16-1,1.77a19.76,19.76,0,0,0-.9,1.85l-.41.95-.25.61-.29.74-.44,1.11-.21.52-.11.25c0,.06,0,.06,0,.12l1.28-.69c.41-.21.75-.33,1.12-.49a2.18,2.18,0,0,1,.27-.11l.19-.06.36-.12a6.91,6.91,0,0,1,.74-.22c.5-.13,1-.25,1.5-.33a15.25,15.25,0,0,1,1.51-.22,28.06,28.06,0,0,1,6,0c5,.51,10,2,15.23,3.51l.4-1c-5.26-1.48-10.32-3-15.48-3.57a28.9,28.9,0,0,0-6.24,0,14.46,14.46,0,0,0-1.59.22c-.53.09-1.06.21-1.58.35-.26.06-.53.14-.79.22l-.39.13-.19.07h0l-.2.13c-.08,0,0-.09,0-.2a.78.78,0,0,1,0-.14.2.2,0,0,1,0-.1l.09-.23.4-.92a19.79,19.79,0,0,1,.86-1.8c.3-.59.63-1.16,1-1.72s.7-1.11,1.08-1.64a47.67,47.67,0,0,1,4.95-5.94c3.1-3.28,6.63-6.34,9.79-10,1.7-2.14,3.48-4.16,4.95-6.39a16.67,16.67,0,0,0,1.84-3.56,10.51,10.51,0,0,0,.58-4,11.4,11.4,0,0,0-.81-3.52c-.24-.55-.52-1.11-.79-1.64l-.88-1.52a56.08,56.08,0,0,0-4-5.92c-3.46-4.2-6.44-8.54-9.41-12.71a100.41,100.41,0,0,0-8-10.09l2.71.34a30.93,30.93,0,0,0,7.78.28,47,47,0,0,1,8.75-.31,30.37,30.37,0,0,0,7.77-.61l.5-.54a72.92,72.92,0,0,1,1.66-12.41,88.22,88.22,0,0,0,1.68-11,69.27,69.27,0,0,1,1.81-12.38,87.92,87.92,0,0,0,1.82-11,53.92,53.92,0,0,1,1.11-8.25,20.38,20.38,0,0,0,3.11,1.3,56.09,56.09,0,0,0,10.18,2.85,20.18,20.18,0,0,0,11.91-1.57c.81-.41,1.66-.7,2.45-1.12s1.58-.81,2.38-1.19,1.52-.87,2.29-1.29l1.14-.64,1.07-.72a30.63,30.63,0,0,0,8.71-8.23c1-1.5,2.16-2.84,3.22-4.23s2.17-2.73,3.2-4.1c1.12-1.56,2.29-3.14,3.35-4.84a48.84,48.84,0,0,0,2.36-4.62,11.82,11.82,0,0,1,2.24.1c.87,0,1.73.25,2.6.26a9.06,9.06,0,0,0,2.37-.13,5,5,0,0,0,1.53-.51l1.09.25c1.29.3,2.6.62,3.93.88-1.38,1.31-2.81,2.48-4.18,3.69a18.78,18.78,0,0,0-4.93,6.1c-1.07,2.1-2.38,4-3.49,6a14.83,14.83,0,0,0-2.26,7.55c0,2.37-.32,4.67-.15,7a13.89,13.89,0,0,0,2.42,7.52c.71.95,1.24,2,1.89,2.94l.89,1.48,1,1.41a21.58,21.58,0,0,0,2.41,3,16.44,16.44,0,0,0,3.12,2.53l.14,0a6.35,6.35,0,0,1,3,1.83,11.11,11.11,0,0,0,3.19,2.48,6.07,6.07,0,0,1,2.27,2.71,14.11,14.11,0,0,0,1.89,3.51l1-.36a16.55,16.55,0,0,1-2-3.75,6.7,6.7,0,0,0-2.41-2.9,12.07,12.07,0,0,1-3.33-2.58,14.53,14.53,0,0,0-1.12-.93,17.42,17.42,0,0,1,2.73.59,30.11,30.11,0,0,0,5.65,1.37,10.62,10.62,0,0,1,4.58,2.23c1.47,1.18,2.74,2.49,4.42,3.64l.83-.71c-1.75-1.22-3.11-2.61-4.66-3.84a11.61,11.61,0,0,0-4.8-2.35,31.23,31.23,0,0,1-5.81-1.41,17.56,17.56,0,0,0-3.1-.63,9.92,9.92,0,0,1,2.95-.59c1.52-.09,3,0,4.61-.22a7.66,7.66,0,0,1,5.1,1c.68.3,1.32.76,2,1.08a11.28,11.28,0,0,0,2.13,1l.58-.92a12.85,12.85,0,0,1-2.21-1.05c-.73-.34-1.4-.81-2.12-1.14a8.58,8.58,0,0,0-5.42-1.06c-1.66.18-3.26.14-4.86.24a10,10,0,0,0-3.88,1,5.27,5.27,0,0,1,1-.87,13.08,13.08,0,0,0,2.66-2,3.9,3.9,0,0,1,2.85-.74,8.62,8.62,0,0,0,3.41-.16l.09-1.09a5,5,0,0,1-1.84.25c-.6,0-1.2-.09-1.8-.08a4.62,4.62,0,0,0-3.17.83,18.43,18.43,0,0,1-3,2.22,4.71,4.71,0,0,0-1.67,2,14.92,14.92,0,0,1-2.26-1.91,22.61,22.61,0,0,1-2.34-3l-.92-1.37c-.29-.47-.57-.95-.86-1.43-.64-.93-1.14-1.93-1.85-2.86a12.9,12.9,0,0,1-2.31-7.14c-.16-2.18.12-4.37.15-6.67a13.77,13.77,0,0,1,2.15-7.23c1.08-1.91,2.36-3.74,3.42-5.82a17.82,17.82,0,0,1,4.79-5.94c1.55-1.36,3.21-2.71,4.73-4.23a25.61,25.61,0,0,0,3.77.38,38.93,38.93,0,0,1,7.87,1.58,43.72,43.72,0,0,0,8.94,1.82,38,38,0,0,1,7.8,1.88,46.69,46.69,0,0,0,8.84,2.23l.71-.29a43.75,43.75,0,0,1,2.73-8.75,37.11,37.11,0,0,0,2.31-7.82,29.55,29.55,0,0,1,.89-4.57c.22-.89.48-1.77.74-2.64a39,39,0,0,1,7.9,5.6c2.86,2.43,5.56,5.18,8.83,7.58a45.4,45.4,0,0,1,3.73,3.6c1.11,1.31,2.15,2.64,3.18,4,1.11,1.51,2.18,3.09,3.37,4.62a51.56,51.56,0,0,0,3.63,4.67,39.77,39.77,0,0,1,5,8.91c.38.85.77,1.72,1.15,2.59s.68,1.79,1.05,2.68.75,1.79,1.17,2.68c.21.44.43.89.64,1.34s.4.91.61,1.37c.37.86.7,1.73,1,2.6.36,1.06.7,2.12,1.05,3.18.37-.45.77-.92,1.16-1.32a6.19,6.19,0,0,1,.48-.46c.14-.13.28-.26.43-.38a18.39,18.39,0,0,1,1.84-1.38,29.4,29.4,0,0,1,10.46-4.11L347,147a30.87,30.87,0,0,0-11,4.3,22.75,22.75,0,0,0-2,1.47c-.16.13-.31.27-.46.41l-.23.21-.11.11h0c-.07.06-.09.06-.1.06a.37.37,0,0,1,0-.08l-.42-1.24c-.3-.89-.64-1.77-1-2.64-.21-.46-.41-.91-.61-1.37s-.43-.9-.65-1.35c-.42-.89-.81-1.79-1.17-2.69s-.71-1.81-1.06-2.71-.77-1.75-1.16-2.61a41,41,0,0,0-5.1-9.08,49.16,49.16,0,0,1-3.64-4.68c-1.2-1.54-2.28-3.13-3.4-4.66-1-1.33-2.1-2.68-3.22-4a45.55,45.55,0,0,0-3.8-3.67c-3.26-2.38-6-5.16-8.88-7.62a39,39,0,0,0-8.29-5.82c.07-.22.14-.44.2-.66a38,38,0,0,0,1.78-8,28,28,0,0,1,.54-4.63c.29-1.5.61-3,1-4.42.31-1.28.57-2.6.8-4a27,27,0,0,0,.31-2.88,28.37,28.37,0,0,1,10,.74c1.91.45,3.81,1,5.74,1.6S314.94,78.42,317,79a31.79,31.79,0,0,1,9.32,5.24c3.12,2.4,6,5.15,9.3,7.83a36.57,36.57,0,0,1,6.76,8.32c2.06,3.35,4,6.87,6.34,10.42a22.66,22.66,0,0,1,1.46,2.64l.64,1.35c.21.43.56,1.29.84,1.79a10.78,10.78,0,0,1,1.19-1.28c.3-.26.61-.5.92-.73a16.75,16.75,0,0,1,2-1.19c3.45-1.79,7.35-2.61,11.42-3.62l-.13-1.08c-4.13,1-8.16,1.85-11.78,3.73a18.14,18.14,0,0,0-2.14,1.29c-.33.25-.68.5-1,.79l-.11.09h0l0,0,0,0,0-.06c0-.06.05.1-.1-.23s-.43-.91-.64-1.37a24.07,24.07,0,0,0-1.48-2.67c-2.32-3.53-4.3-7.1-6.39-10.5a37.82,37.82,0,0,0-6.89-8.5c-3.29-2.68-6.25-5.49-9.42-7.93A32.89,32.89,0,0,0,317.39,78c-2-.62-4-1.23-6-1.86s-3.9-1.17-5.85-1.62a29.5,29.5,0,0,0-10.2-.79s0-.09,0-.14a49.62,49.62,0,0,1,.78-9.15,33,33,0,0,0,.36-8.18l-.46-.4c-3.55-1.11-6.91-2.41-10.23-3.63-1.87-.67-3.78-1.36-5.76-1.89a39.65,39.65,0,0,0-6.15-1.26c-1.82-.3-3.62-.64-5.38-1l-5.2-1.28a60.93,60.93,0,0,0-10.71-1.9c-.36-2.15-.57-4.21-.92-6.25a16.46,16.46,0,0,0-2.77-7.28c-1.3-1.94-2.32-4-3.5-5.88a16.13,16.13,0,0,0-5.33-5.68c-2-1.27-3.65-2.81-5.48-4.1a17.39,17.39,0,0,0-7-3.39c-2.26-.58-4.37-1.42-6.47-2.16a31.26,31.26,0,0,0-3.68-1.07,17.71,17.71,0,0,0-3.95-.35v0a6.37,6.37,0,0,1-3.21-1.27,11.5,11.5,0,0,0-3.51-1.88,5.16,5.16,0,0,1-2.56-2.33A30.39,30.39,0,0,0,202.3,0l-1.05.3c.91,1.27,1.41,2.49,2.16,3.69a5.93,5.93,0,0,0,2.77,2.53,12.66,12.66,0,0,1,3.67,2c.39.25.8.49,1.22.71A17.87,17.87,0,0,1,207.7,9c-2.1-.29-4.14-.76-6.4-.88a10.39,10.39,0,0,1-5.09-2.37c-1.59-1.36-2.82-2.93-4.43-4.51l-.93.56c1.68,1.69,3,3.39,4.73,4.83A11.35,11.35,0,0,0,201,9.18c2.35.13,4.46.62,6.62.91a15.55,15.55,0,0,0,4.77,0,4.16,4.16,0,0,1-.66.6,6.86,6.86,0,0,1-2,.92c-1.57.44-3.18.56-4.91,1.12a6.84,6.84,0,0,1-2.29.16,22.34,22.34,0,0,1-2.22-.42c-.81-.25-1.63-.48-2.46-.65a8.77,8.77,0,0,0-2.64-.31L195,12.6a9,9,0,0,1,2.68.31c.86.18,1.7.41,2.53.66s1.52.34,2.31.44a7.69,7.69,0,0,0,2.43-.16c1.8-.57,3.53-.7,5.27-1.2.37-.13.75-.27,1.13-.43a7.57,7.57,0,0,0,1.09-.64l.27-.22a3.72,3.72,0,0,1-.19.34,7,7,0,0,0-1.24,2.61,3,3,0,0,1-1.81,1.79,6.49,6.49,0,0,0-2.48,1.52l.42,1A8.17,8.17,0,0,1,210.08,17a3.63,3.63,0,0,0,2-2,9,9,0,0,1,1.38-2.9,4.23,4.23,0,0,0,.67-2.22,17.16,17.16,0,0,1,3.06.31,29.55,29.55,0,0,1,3.61,1c2.07.73,4.14,1.56,6.38,2.14A16.38,16.38,0,0,1,234,16.6c1.79,1.27,3.42,2.77,5.36,4a15.26,15.26,0,0,1,5.16,5.48c1.14,1.86,2.13,3.83,3.41,5.75a15.57,15.57,0,0,1,2.69,7c.33,1.94.54,4,.87,6l-.34,0a104.39,104.39,0,0,1-10.73-1.38c-2-.3-4-.62-6-.83a50.16,50.16,0,0,0-6.27-.13c-.92,0-1.84,0-2.75,0s-1.82,0-2.72-.1c-1.81-.11-3.59-.27-5.34-.43A63.25,63.25,0,0,0,205,41.83l-.58.44a21.14,21.14,0,0,1-.8,7,27.43,27.43,0,0,0-1,6.15,22.05,22.05,0,0,1-1,6.94,27.7,27.7,0,0,0-1.14,6.13,22.18,22.18,0,0,1-1.21,6.91A27.5,27.5,0,0,0,198,81.47a22.31,22.31,0,0,1-1.35,6.88,26.27,26.27,0,0,0-1.39,6.08l.23.6a22.21,22.21,0,0,1,5.29,4.43,25.28,25.28,0,0,0,4.6,4,22.16,22.16,0,0,1,5.28,4.43,25,25,0,0,0,4.61,4l.4-.48,0,.45a41.47,41.47,0,0,1,8,1c2.14.45,6.56,1.19,6.56,1.19a45.33,45.33,0,0,1-2.69,5.35c-1,1.68-2.2,3.23-3.31,4.78-1,1.36-2.13,2.67-3.17,4.07s-2.21,2.71-3.21,4.2a29.34,29.34,0,0,1-8.47,8l-1.05.71-1.11.63c-.75.4-1.48.85-2.23,1.26s-1.55.74-2.32,1.15-1.6.69-2.39,1.1A19,19,0,0,1,188.82,147a55.12,55.12,0,0,1-9.9-2.76,20.09,20.09,0,0,1-3.33-1.42c.21-1,.43-2,.66-3a88.67,88.67,0,0,0,2-10.94,68.36,68.36,0,0,1,2.23-12.31,98.06,98.06,0,0,0,2.28-10.87l-.17-.54a68.32,68.32,0,0,1-6.95-7.24,39,39,0,0,0-6.48-6.13,72.88,72.88,0,0,1-7.86-6.25,33.91,33.91,0,0,0-7.37-5.08s-13-3.21-19.09-4.75a131.74,131.74,0,0,0-17.06-3.2c-6.68-.53-13.1-1.61-19.34-2.53a134.71,134.71,0,0,0-17.28-1.69l-.62.51A129,129,0,0,1,77.41,85a137.93,137.93,0,0,0-2.82,14.4,136.44,136.44,0,0,1-2.89,16.25c-.55,2.49-1.09,5-1.57,7.62-2.09.64-4.14,1.08-6.16,1.58A21.22,21.22,0,0,0,56.62,128a55.19,55.19,0,0,1-6.2,3.28c-1.14.6-2.3,1.22-3.44,1.93a19.7,19.7,0,0,0-3.11,2.64c-.88.8-1.72,1.64-2.65,2.35s-1.9,1.36-2.76,2.11-2,1.65-3,2.56A17.36,17.36,0,0,0,33,146a61.33,61.33,0,0,1-4.47,5.4A22.42,22.42,0,0,0,26,154.51c-.67,1-2.33,4.52-2.57,5l-.74,1.31a4.39,4.39,0,0,0-.63,3.35,7.73,7.73,0,0,1-.23,3,4.76,4.76,0,0,0,.23,3.35l1.09-.11A4.46,4.46,0,0,1,23,167.1a7.19,7.19,0,0,0,.24-2.85,3.83,3.83,0,0,1,.57-3.13,16.33,16.33,0,0,0,1.07-2,9.89,9.89,0,0,1,2.72,3.19c.92,1.59,1.62,3.26,2.77,4.88a7.22,7.22,0,0,1,.89,2.35,12.72,12.72,0,0,1,.16,2.45c0,1.83-.4,3.6-.2,5.59l1.07.21c-.19-2.07.24-3.94.21-5.88a12.77,12.77,0,0,0-.17-2.6,8.3,8.3,0,0,0-.94-2.51c-1.19-1.7-1.93-3.45-2.9-5.11A12.47,12.47,0,0,0,26.39,159a11.18,11.18,0,0,1,3.21,1.42c1.72,1.07,3.24,2.35,5.1,3.49A10.08,10.08,0,0,1,38,168.26a59.23,59.23,0,0,0,2.52,5.7l1-.3a64.43,64.43,0,0,1-2.61-5.92,11,11,0,0,0-3.47-4.61c-1.93-1.21-3.55-2.55-5.36-3.68A11.52,11.52,0,0,0,26,157.81a2,2,0,0,1,.39-.14,5.06,5.06,0,0,1,1.89-.13c1.41.13,2.68.63,4.26.75a4.83,4.83,0,0,1,1.85.74,13.3,13.3,0,0,1,1.52,1.25c.51.52,1,1.06,1.58,1.54a6.53,6.53,0,0,0,1.88,1.34l.77-.77A7,7,0,0,1,38.2,161c-.58-.5-1.11-1-1.65-1.6a14.82,14.82,0,0,0-1.61-1.31,5.53,5.53,0,0,0-2-.82c-1.68-.15-3.1-.7-4.71-.83a6.45,6.45,0,0,0-2.25.21c.3-.52.61-1,.94-1.52a23.1,23.1,0,0,1,2.4-3,60.68,60.68,0,0,0,4.45-5.35,16,16,0,0,1,2.46-3.15c1-.89,2-1.71,2.94-2.51S41,139.73,41.9,139s1.75-1.54,2.64-2.33a19,19,0,0,1,3-2.6c1.11-.69,2.26-1.3,3.38-1.89a58.67,58.67,0,0,0,6.15-3.24,20.26,20.26,0,0,1,7.18-3.07c1.85-.45,3.76-.87,5.65-1.43-.32,1.86-.61,3.73-.81,5.64a140.08,140.08,0,0,1-2.59,16.3,131.06,131.06,0,0,0-2.28,14.5,144.91,144.91,0,0,1-2.18,16.37,112.77,112.77,0,0,0-1.77,14.59l.6.66a135.4,135.4,0,0,1,19.33,1.21l1.31.15c-1.9,1.07-3.85,1.95-5.76,2.83a33.29,33.29,0,0,0-7.88,4.68,54.63,54.63,0,0,1-6.81,4.31A32.81,32.81,0,0,0,53.65,211,57.33,57.33,0,0,1,47.26,216a31.69,31.69,0,0,0-6.84,6.12,66.62,66.62,0,0,1-5.74,5.67c-1.1,1-2.16,2.08-3.2,3.21a23.12,23.12,0,0,0-2.71,3.83c-.7,1.19-1.53,2.28-2.3,3.38s-1.64,2.13-2.4,3.2a25.66,25.66,0,0,0-4.35,8.12l-.5,1.58-.23.58-.12.27s0,.06,0,.05v-.08l0-.17c-.05-.43-.11-.85-.17-1.17,0,0,0-.24-.09-.4a3.92,3.92,0,0,0-.13-.49l-.27-1a18.54,18.54,0,0,0-4.78-7.94c-2-2-3.66-4.08-5.5-6A25.58,25.58,0,0,0,.62,229.1ZM197.27,94.88c2-.18,3.88-.19,5.77-.23a22.22,22.22,0,0,0,8-1.32c2.31-.84,4.67-1.24,6.92-1.89a16.94,16.94,0,0,0,6.51-3.11,17.61,17.61,0,0,1-1.13,4.8,39.84,39.84,0,0,0-2,6.61,17.21,17.21,0,0,1-2.58,5.51,43.29,43.29,0,0,0-3.29,5.54,27.51,27.51,0,0,1-4.08-3.66,22.45,22.45,0,0,0-5.3-4.46,24.59,24.59,0,0,1-4.58-4A27.1,27.1,0,0,0,197.27,94.88Zm43.51,19.53-.09,0a27.44,27.44,0,0,0,3.5-3.28,6.82,6.82,0,0,0,1.7-4.53l-1.09-.09a5.85,5.85,0,0,1-1.51,4,37.72,37.72,0,0,1-3.55,3.29c-.13.1-.27.18-.41.27-1.05-.24-2.11-.46-3.18-.63l.1-.06a6.45,6.45,0,0,0,3.29-4.46c.18-2.18.44-4.12.49-6.13A10.91,10.91,0,0,0,239,97.47l-1,.37a9.89,9.89,0,0,1,1,5c-.05,1.91-.31,3.72-.44,5.71a5.45,5.45,0,0,1-2.87,3.92,10.57,10.57,0,0,1-1.53.7c-.43,0-.86-.09-1.3-.1s-.56,0-.84,0c.24-.38.5-.75.74-1.15a4.48,4.48,0,0,0,.75-3.65,15.62,15.62,0,0,1-.1-3.27,4.79,4.79,0,0,0-1.11-3.53l-1,.43a4.26,4.26,0,0,1,1,3.27,12.26,12.26,0,0,0,.08,3,3.83,3.83,0,0,1-.67,3.32c-.32.51-.67,1-1,1.52a53.43,53.43,0,0,1-6.94-1.1,45.9,45.9,0,0,0-7.16-1,51.53,51.53,0,0,1,3.1-5.12,17.9,17.9,0,0,0,2.65-5.65,39,39,0,0,1,2.06-6.7,16.33,16.33,0,0,0,1.17-6.17l-.62,0-.37-.48a14.41,14.41,0,0,1-6.94,3.66c-2.2.64-4.52,1-6.82,1.86A21.65,21.65,0,0,1,203,93.57a63.51,63.51,0,0,0-6.55.32,29.3,29.3,0,0,1,1.29-5.28,23.31,23.31,0,0,0,1.36-6.93,27,27,0,0,1,1.26-6.08,22.89,22.89,0,0,0,1.23-7,26.53,26.53,0,0,1,1.13-6.1,22.57,22.57,0,0,0,1.06-7,27.52,27.52,0,0,1,1-6.14,23.2,23.2,0,0,0,.85-6.53,64,64,0,0,1,11.68.1c1.75.16,3.53.33,5.34.43.9.05,1.81.09,2.73.1s1.84.06,2.77.05a47.29,47.29,0,0,1,6.2.12c2,.21,4,.53,6,.82A106.31,106.31,0,0,0,251,45.89a56.6,56.6,0,0,1,12,2l5.2,1.28c1.76.42,3.56.76,5.39,1.07a37.5,37.5,0,0,1,6.07,1.22c2,.53,3.86,1.21,5.72,1.88,3.24,1.2,6.58,2.48,10,3.57a33.94,33.94,0,0,1-.4,7.5,51.06,51.06,0,0,0-.79,9.14,22.9,22.9,0,0,1-.36,4.07c-.22,1.33-.47,2.64-.79,3.92-.34,1.44-.67,2.91-.95,4.41a27,27,0,0,0-.55,4.64,37.6,37.6,0,0,1-1.75,7.88c-.45,1.41-.9,2.85-1.27,4.33a30.55,30.55,0,0,0-.89,4.59,37,37,0,0,1-2.28,7.74,48.08,48.08,0,0,0-2.66,8.26,48.39,48.39,0,0,1-8.29-2.13,39.19,39.19,0,0,0-7.87-1.91,42.61,42.61,0,0,1-8.92-1.8,40.63,40.63,0,0,0-7.94-1.61A42.23,42.23,0,0,1,240.78,114.41Zm-6.47.24c-.28,0-.56-.06-.84-.09.27-.08.54-.18.8-.27,1,.1,2,.26,3,.45a10.37,10.37,0,0,1-1.76,0A7.09,7.09,0,0,1,234.31,114.65ZM153.14,81.37a121.23,121.23,0,0,1-1.89,13.39A126.31,126.31,0,0,0,149,110.51a121.6,121.6,0,0,1-2.18,13.7c-2.53-1.24-4.93-2.53-7.33-3.74A35.1,35.1,0,0,0,130,117a36.26,36.26,0,0,1-4.36-1.17q-2.14-.68-4.2-1.38c-1.55-.55-3.16-1-4.81-1.41-.82-.2-1.66-.39-2.51-.54s-1.72-.21-2.61-.27a36.36,36.36,0,0,1-4.46-.72c-1.46-.27-2.9-.6-4.32-.93a40.66,40.66,0,0,0-10.07-1.33,58.3,58.3,0,0,1-8.88-1,49.22,49.22,0,0,0-9.26-.65c.49-2.62.92-5.29,1.18-8a135.67,135.67,0,0,1,2.8-14.31,136.58,136.58,0,0,0,3.12-15.91A137.7,137.7,0,0,1,98.22,71c6.24.92,12.66,2,19.4,2.55a129.5,129.5,0,0,1,16.9,3.16C140.53,78.24,146.67,79.93,153.14,81.37Zm-18.66,117a133.72,133.72,0,0,1,3-14.91,117.39,117.39,0,0,0,2.74-13.8A127.66,127.66,0,0,1,143,154.05a121.2,121.2,0,0,0,2.45-13.86,127.52,127.52,0,0,1,2.46-15.63,122.42,122.42,0,0,0,2.22-13.89A123,123,0,0,1,152.31,95a123.87,123.87,0,0,0,1.88-13.19,35,35,0,0,1,6.43,4.55,73.1,73.1,0,0,0,7.83,6.23,38.4,38.4,0,0,1,6.4,6,70.67,70.67,0,0,0,6.81,7.11,100.52,100.52,0,0,1-2.22,10.53,69.33,69.33,0,0,0-2.26,12.39,87.55,87.55,0,0,1-2,10.88l-.6,2.69a33.19,33.19,0,0,1-5.52-4.23c-2.46-2.3-4.82-4.86-7.23-7.42a10.4,10.4,0,0,1-.15-2.52,5.89,5.89,0,0,0-.34-3.27l-.69.21a5.36,5.36,0,0,1,.3,3,32.81,32.81,0,0,0-.47,3.44,4.89,4.89,0,0,1-1.35,2.73,34.45,34.45,0,0,0-2.35,2.55l.45.58c.74-1.08,1.72-1.77,2.48-2.71a5.36,5.36,0,0,0,1.47-2.93c0-.07,4.7,4.82,7.14,7.1a33.22,33.22,0,0,0,6,4.55,56.82,56.82,0,0,0-1.19,8.62,84.45,84.45,0,0,1-1.8,10.91,71.48,71.48,0,0,0-1.84,12.46,83.09,83.09,0,0,1-1.66,10.93,76,76,0,0,0-1.66,12.17A31,31,0,0,1,159,199a47.81,47.81,0,0,0-8.73.31,30.68,30.68,0,0,1-7.68-.27A54.3,54.3,0,0,0,134.48,198.34Zm-54.06-5.7a140.72,140.72,0,0,0-19-1.24,113.36,113.36,0,0,1,1.72-13.92A148.64,148.64,0,0,0,65.33,161a126.51,126.51,0,0,1,2.26-14.4,145.61,145.61,0,0,0,2.61-16.38,125.53,125.53,0,0,1,2.56-14.35c.5-2.35,1-4.74,1.51-7.18a47.67,47.67,0,0,1,9.33.63,60.63,60.63,0,0,0,8.89,1,39.73,39.73,0,0,1,10,1.3c1.41.33,2.85.66,4.31.94a40.24,40.24,0,0,0,4.48.73,24.3,24.3,0,0,1,2.57.25c.83.15,1.66.33,2.48.53,1.63.41,3.22.85,4.76,1.4,1.37.47,2.76.93,4.19,1.37a37.88,37.88,0,0,0,4.37,1.19,33.82,33.82,0,0,1,9.42,3.42c2.48,1.25,5,2.61,7.6,3.86a121.41,121.41,0,0,0-2.29,14.7,119.78,119.78,0,0,1-2.42,13.77,130.63,130.63,0,0,0-2.77,15.65,115.86,115.86,0,0,1-2.72,13.71,135.34,135.34,0,0,0-3.07,15.18c-5.64-.43-11.16-1.27-16.51-2.06a160.3,160.3,0,0,0-19.39-2C91.66,194,86,193.27,80.42,192.64Z"/>
    <path class="cls-1" d="M117.65,101a14.87,14.87,0,0,0,0,4.8,5.22,5.22,0,0,0,2.74,4,4.13,4.13,0,0,0,2.92.17,5.6,5.6,0,0,0,2.47-1.58,9,9,0,0,0,2.26-5.14h0a11.51,11.51,0,0,0,.14-4.78,5.5,5.5,0,0,0-2.84-3.84,4.31,4.31,0,0,0-2.9-.25,5.06,5.06,0,0,0-1.38.58,11.4,11.4,0,0,0-1.15.93A9.09,9.09,0,0,0,117.65,101Zm9.88,2.08Z"/>
    <path class="cls-1" d="M97.17,91.15a4.49,4.49,0,0,1,4.77.14c2.14,1.41,3.14,4.33,2.73,8-.5,4.63-3.3,6.7-5.74,6.7h-.12c-2.32-.06-4.76-2.11-5-6.53C93.63,95.52,94.85,92.48,97.17,91.15Z"/>
    <path class="cls-1" d="M256.66,65.66a17.54,17.54,0,0,1,5.43-8.13l.9-.67c.25-.14,0-.12-.1-.15l-.41,0a4.38,4.38,0,0,0-1.16.21,5,5,0,0,0-2.49,1.71l-.8-.75a6.11,6.11,0,0,1,3-2l.43-.11.24-.06.39-.06a6.67,6.67,0,0,1,1.44-.1c.46,0,.83,0,1.24.08a10.52,10.52,0,0,1,1.1.12l-1.68,1.41c-.28.23-.5.44-.72.63l-.61.56a16.34,16.34,0,0,0-5.18,7.78,45.82,45.82,0,0,0-1.9,8c-.35,3-.17,6.38,1.58,9.11a18.05,18.05,0,0,0,2.37,3.27,6.41,6.41,0,0,0,3.3,1.74,6.77,6.77,0,0,0,4.38-.56,5,5,0,0,0,2.68-3.53c.67-2.58-.29-5.2-.93-7.94a15.76,15.76,0,0,1-.35-4.85,5.42,5.42,0,0,1,.71-2.47,2.39,2.39,0,0,1,1.13-.91,6.06,6.06,0,0,1,.74-.15h.73l-.24,1.07-.52,0-.43.12a1.31,1.31,0,0,0-.55.52,4.67,4.67,0,0,0-.49,1.92,14.86,14.86,0,0,0,.32,4.46c.59,2.62,1.73,5.51.91,8.58a6,6,0,0,1-3.24,4.14,7.8,7.8,0,0,1-5,.65,7.48,7.48,0,0,1-3.89-2,19.69,19.69,0,0,1-2.59-3.58c-1.86-3-2-6.54-1.66-9.66A46.67,46.67,0,0,1,256.66,65.66Z"/>
    <path class="cls-1" d="M238.84,62.73a24,24,0,0,1-4.51-1.36,11.32,11.32,0,0,1-2.14-1.14,3.31,3.31,0,0,1-1.54-2.16,2.6,2.6,0,0,1,.34-1.66,3.27,3.27,0,0,1,1.18-1.16,6.62,6.62,0,0,1,2.83-.84,17,17,0,0,1,5.37.5,31.79,31.79,0,0,1,4.47,1.43,15.47,15.47,0,0,1,2.17,1,4.88,4.88,0,0,1,1,.76,1.76,1.76,0,0,1,.59,1.3h0a2.54,2.54,0,0,1-.4,1.68A3.83,3.83,0,0,1,247,62.21a7.58,7.58,0,0,1-2.8.84A17.17,17.17,0,0,1,238.84,62.73Z"/>
    <path class="cls-1" d="M241.69,80.65a18.34,18.34,0,0,1-4.77-.32,22.9,22.9,0,0,1-5.08-1.56,8.51,8.51,0,0,1-2.35-1.48,3.18,3.18,0,0,1-.86-1.26,2.89,2.89,0,0,1-.09-1.65l.57.2-.58-.23a2.36,2.36,0,0,1,1.12-1.2,5.53,5.53,0,0,1,1.25-.52,11.24,11.24,0,0,1,2.46-.43,21.39,21.39,0,0,1,4.75.24,23.28,23.28,0,0,1,5.14,1.37,7.64,7.64,0,0,1,2.37,1.48,2.83,2.83,0,0,1,.74,3,3.74,3.74,0,0,1-2.19,1.8A9.28,9.28,0,0,1,241.69,80.65Z"/>
  </g>
</svg>
