<svg id="Layer_1" data-name="Layer 1" xmlns="http://www.w3.org/2000/svg" width="341.8" height="397.4" viewBox="0 0 256 298.38"><defs><style>.cls-1{fill:#4c4c4c}</style></defs><title>server</title><path class="cls-1" d="M103.5 28.2a6 6 0 0 0-3.2-2.4 5.1 5.1 0 0 0-2-.2 3.9 3.9 0 0 0-2 .9 6.9 6.9 0 0 0-2 3.4 13.8 13.8 0 0 0-.5 4 46.2 46.2 0 0 0 .1 8.8 21.6 21.6 0 0 0 2.5 8.4 7.6 7.6 0 0 0 1.4 1.6 5 5 0 0 0 1.9 1 4 4 0 0 0 4-.9 8.3 8.3 0 0 0 2-3.5 23.1 23.1 0 0 0 .8-3.8 28 28 0 0 0 .1-9 19.3 19.3 0 0 0-3-8.3zm34.8-3.1a6 6 0 0 0-1.2-1.6l-.8-.7-.8-.6a4 4 0 0 0-4.2-.1 6.9 6.9 0 0 0-2.5 3.2 11.5 11.5 0 0 0-.9 4 51.5 51.5 0 0 0-.6 9 21.7 21.7 0 0 0 1.8 8.6 7 7 0 0 0 2.8 3 5 5 0 0 0 2 .8 3.1 3.1 0 0 0 2.1-.6 7.3 7.3 0 0 0 2.3-3.4 25.9 25.9 0 0 0 1.1-3.9 31.1 31.1 0 0 0 .9-9 22.3 22.3 0 0 0-2-8.7zM91.5 13a8.4 8.4 0 0 1 1-1.2 5.1 5.1 0 0 1 1-1 3.9 3.9 0 0 1 1.5-.6l.7-.2a5 5 0 0 1 .8 0 21.1 21.1 0 0 1 5 .2 8.5 8.5 0 0 1 2.8 1 7.4 7.4 0 0 1 2.2 2.2l1-1.2a8.3 8.3 0 0 0-2.4-2.3 9.7 9.7 0 0 0-3.1-1.1 20.6 20.6 0 0 0-5.9-.3 5.7 5.7 0 0 0-1 0 6.9 6.9 0 0 0-.8.3 5 5 0 0 0-1.5.8 6.3 6.3 0 0 0-1.3 1.1 8.9 8.9 0 0 0-1 1.3c-1.1 1.6-2 3.2-3.2 4.8l1.4.6c1-1.3 1.9-3 2.8-4.4zm36.7-3.6c1.5-1 3.4-2 5.4-1.4a40.8 40.8 0 0 1 4.6.9 5.5 5.5 0 0 1 3.6 4l1.4-.7a6.7 6.7 0 0 0-4.2-4.6 32 32 0 0 0-5.4-1.1c-2.3-.6-4.4.4-6 1.5a30.7 30.7 0 0 1-4.6 3l1 1.2a24.6 24.6 0 0 0 4.2-2.7z"/><path class="cls-1" d="M255.9 139.2v-4a8.4 8.4 0 0 0 0-2.5 22.2 22.2 0 0 0-.4-2.3l-.8-2.2a13.3 13.3 0 0 0-1-2c-.6-1.2-1.2-2.4-2-3.6l-.9-1.8-.9-1.8a14.3 14.3 0 0 0-2.4-4 31.4 31.4 0 0 0-3.3-3.2 61.2 61.2 0 0 1-6-5.4 20.6 20.6 0 0 0-7.3-5.4 45 45 0 0 1-7-4 14.3 14.3 0 0 0-1.4-1l.1-1.5a116.8 116.8 0 0 0-.8-15 91.7 91.7 0 0 1-.6-16.9 114.2 114.2 0 0 0-.6-15 89.6 89.6 0 0 1-.4-16.9l-.4-.8a96.5 96.5 0 0 0-10.5-5.4 47.3 47.3 0 0 1-11.3-7 88.7 88.7 0 0 0-9.9-6.6 48 48 0 0 1-10.6-8l-.4-.2a70.5 70.5 0 0 0-13.2-1.3c-2.4 0-4.8 0-7.3-.2a65 65 0 0 1-7.5-.8c-4.5-.7-9-.3-13.2 0l-7.3.5a73.3 73.3 0 0 1-7.6 0A66.7 66.7 0 0 0 108 2a91 91 0 0 1-15 1.7A66.6 66.6 0 0 0 80 6a108.1 108.1 0 0 1-14.6 3.2l-.6 1c.7 7.3 2 14.5 3 21.4a163.4 163.4 0 0 1 2.6 24.1c.3 7.4 1.2 14.6 2 21.6a172.3 172.3 0 0 1 1.6 24.2v5a47.8 47.8 0 0 0-4 6.5 22.3 22.3 0 0 1-5.4 7.2 46 46 0 0 0-5.3 6.1 19.7 19.7 0 0 1-6.7 6c-2.4 1.4-4.4 3-6.6 4.5a13.9 13.9 0 0 1-8.3 3 59.1 59.1 0 0 1-7.8 0c-2.8-.4-5.8-1.6-7.5-4.3-1.6-2.1-3.2-4-4.5-6.3a15.9 15.9 0 0 1-2.8-8.5 75.4 75.4 0 0 0-1.1-8 16 16 0 0 1 .5-8.9l.4-1v-.2H16a15.2 15.2 0 0 0 1.5-.3 17.3 17.3 0 0 0 3-1 25.9 25.9 0 0 0 7.4-5.8l-1.3-.8a24.8 24.8 0 0 1-6.7 5.1 14.4 14.4 0 0 1-2.6 1h-.2a13.6 13.6 0 0 0 2.2-3 54.4 54.4 0 0 1 3.4-6 8.3 8.3 0 0 0 1-3 14 14 0 0 0 .1-3.1c0-2.3-.7-4.5-.5-7l-1.5.4c-.2 2.4.4 4.4.5 6.5a13.1 13.1 0 0 1 0 2.9 7.5 7.5 0 0 1-1 2.8 43.9 43.9 0 0 0-3.2 5.7 12.5 12.5 0 0 1-2 2.8 19.3 19.3 0 0 0 .5-5.4c0-2.8-.4-5.6-.3-8.6a13.2 13.2 0 0 0-2.8-7.2c-1.7-2.3-3.9-4-5.8-6.4l-.9 1.2c1.8 2.3 3.8 3.9 5.4 6a12 12 0 0 1 2.6 6.7c-.2 2.9.2 5.5.3 8.2a19 19 0 0 1-.5 4.9 14 14 0 0 0-1.5-2.6 20.8 20.8 0 0 1-3.2-4.9 8.1 8.1 0 0 0-4.1-3.3C4 87.6 2 87.2.2 86.2L0 87.8a37 37 0 0 0 5 1.8 7 7 0 0 1 3.8 3 18.4 18.4 0 0 0 3 4.7 8.2 8.2 0 0 1 2 4.5l-.3.7-.4 1c-1.2 3.2-1 6.4-.5 9.4.4 2.6 1 5.3 1.2 8.1a17.1 17.1 0 0 0 2.8 9 78.8 78.8 0 0 0 4.9 6.6c1.8 3 5.2 4.3 8.2 4.7a57.6 57.6 0 0 0 8.4 0 16 16 0 0 0 8.8-3.2c2.2-1.5 4.3-3.2 6.8-4.6a20.7 20.7 0 0 0 6.9-6.2 46.6 46.6 0 0 1 5.3-6.1 23.6 23.6 0 0 0 5.6-7.4c.9-1.6 1.8-3.3 2.8-4.8.2 4.7.7 9.5 1 14 .3 4 .7 8 .8 12s.2 8.2 0 12.4c-.1 7.4.2 14.6.6 21.6a182.2 182.2 0 0 1 0 24.3l1 .9c3.2-.3 6.3-.8 9.3-1.2a30.4 30.4 0 0 0-3.6 4.3 94.7 94.7 0 0 1-6.4 8.5 26.3 26.3 0 0 0-4.2 8.5 81.3 81.3 0 0 1-3.4 10A20.8 20.8 0 0 0 68 229l-.4 4.7-.2 5.2a36.8 36.8 0 0 1-.6 5.3 30.4 30.4 0 0 0 .4 9.4l.9 5.2a27 27 0 0 1 .3 5.3 32.9 32.9 0 0 0 2.1 9.2l1.7 5a32.7 32.7 0 0 1 1.1 5.2 33.9 33.9 0 0 0 3.3 8.8l.7 1.5.3.5.1.3c0 .1.2.3 0 .2l-5.6-1.6a19.5 19.5 0 0 0-9.5.6c-3.4 1-6.6 2.4-10.2 3.2l.6 1.4c3.6-.8 6.7-2.2 10-3a18.2 18.2 0 0 1 9-.7l3 .9a20.6 20.6 0 0 1 2.1.6l1.7.7 1.7.7-1.5-3.7-.4-.8-.2-.5-.5-1a32.6 32.6 0 0 1-3.2-8.6 33.2 33.2 0 0 0-1.1-5.2l-1.7-5a31.7 31.7 0 0 1-2-9 26.8 26.8 0 0 0-.4-5.3l-.8-5a29.2 29.2 0 0 1-.4-9.2 38 38 0 0 0 .6-5.3l.2-5.2a27 27 0 0 1 1.7-9 79.4 79.4 0 0 0 3.4-10 25 25 0 0 1 4-8.2 93.3 93.3 0 0 0 6.1-8.4 23.3 23.3 0 0 1 5.4-5.7h.8l12.7-2a196.6 196.6 0 0 1 29-2.7c8.8-.2 17.4-.9 25.8-1.4a194.6 194.6 0 0 1 22.7-.2 32 32 0 0 0-2.2 8c-.3 1.7-.5 3.4-.9 5a26 26 0 0 1-1.5 5.2 33 33 0 0 0-1.3 9.1l-.2 5.1a25 25 0 0 1-1 5.2c-.6 3.2-.3 6.3-.2 9.3.2 3.3.6 6.8 0 10.3a40.5 40.5 0 0 0 .7 9.3 36.5 36.5 0 0 1 1.1 10.3 41.3 41.3 0 0 0 1.8 9c.9 3.3 2.1 6.6 2.2 10.2l.4 2.3a37.5 37.5 0 0 0 2.3 6.5l1 2.4.3.8.2.4v.2s.1.2 0 .1l-1.8-.5a78 78 0 0 1-2.6-.9 19.8 19.8 0 0 0-9.3-.1c-3.4.7-6.7 1.8-10.3 2.5l.6 1.4c3.5-.7 6.6-1.8 9.9-2.4a18.5 18.5 0 0 1 8.9.1l2.5.8 1.9.7c.8.2 1.8.6 2.6 1l-.8-2.5-.4-1.2-.2-.6v-.3l-1-2.4-1.7-4.2-.7-2.2-.3-2.3c-.1-3.6-1.4-6.8-2.3-10a39.2 39.2 0 0 1-1.7-9 36.9 36.9 0 0 0-1-10.3 39.4 39.4 0 0 1-.8-9c.7-3.6.3-7 0-10.4 0-3-.4-6 .3-9.1a25.2 25.2 0 0 0 1-5.2l.2-5a32.2 32.2 0 0 1 1.3-9 25.5 25.5 0 0 0 1.4-5.2l1-5a29.8 29.8 0 0 1 2.3-8.3l4.7.5h.4a42.4 42.4 0 0 0 9.7-6 66.3 66.3 0 0 1 10.5-7 52.1 52.1 0 0 0 9-7 61.5 61.5 0 0 1 10-7.7l.3-.7a113 113 0 0 0-1.3-15 89.8 89.8 0 0 1-1.2-16.9 115.8 115.8 0 0 0-1-15 110.1 110.1 0 0 1-1-13.5l.6.5a43.9 43.9 0 0 0 7 3.9 19.7 19.7 0 0 1 7.1 5.3 58.7 58.7 0 0 0 6 5.2 28.4 28.4 0 0 1 3.1 3 13.3 13.3 0 0 1 2.3 4 18.8 18.8 0 0 0 .9 1.8l1 1.7 1.8 3.4a12.2 12.2 0 0 1 .9 2l.8 2a20 20 0 0 1 .3 2.3 7.3 7.3 0 0 1 0 2.3v4c0 1.4.2 2.6 0 3.8a18.6 18.6 0 0 1-.3 4.4 24 24 0 0 1-.6 2.2 10.7 10.7 0 0 1-1 2 61.6 61.6 0 0 0-3 7.4c-.4 1.2-1 2.5-1.6 3.7a9.4 9.4 0 0 0-5.2-1.2 39.5 39.5 0 0 1-6.4 0 8.7 8.7 0 0 0-5.3 2c-1.7 1-3.1 2.6-5.2 3.5l1 1.1c2-.8 3.3-2.2 5-3.3a10.7 10.7 0 0 1 2.2-1.3 6.1 6.1 0 0 1 2.6-.5 32.5 32.5 0 0 0 6 0 12.5 12.5 0 0 1 2.1.2 12.6 12.6 0 0 0-3.5 1.7c-2.1 1.4-3.8 3.2-6 5a9.2 9.2 0 0 0-2 2.8 14.4 14.4 0 0 0-.6 1.6l-.4 1.7c-.3 1.2-.3 2.5-.5 3.7a16.4 16.4 0 0 1-.9 3.8h1.6a15.2 15.2 0 0 0 .8-3.6c.2-1.1.2-2.4.5-3.5l.3-1.5c0-.5.4-1 .6-1.5a7.8 7.8 0 0 1 1.8-2.7c2-1.5 3.5-3.1 5.5-4.5a10 10 0 0 1 4.5-1.8l-.2.1-1.8 1.6a9.7 9.7 0 0 0-2.2 3.7 10.8 10.8 0 0 0-.3 4.2c.2 3.2 1.7 5.9 3 8.9l1.2-1c-1.1-2.8-2.4-5.2-2.7-8a9.4 9.4 0 0 1 .3-3.6 8.3 8.3 0 0 1 2-3.3l1.7-1.5.8-.7.2-.1.4-.4.3-.6a58 58 0 0 0 1.9-4.2 61.8 61.8 0 0 1 3-7.5 12.3 12.3 0 0 0 1-2.1 22.1 22.1 0 0 0 .6-2.3 20.6 20.6 0 0 0 .5-4.5l-.2-4zM72 55.5a167.3 167.3 0 0 0-2.5-24.3c-1.1-6.7-2.3-13.6-3-20.6a114.9 114.9 0 0 0 14-3 65 65 0 0 1 12.8-2.4 93.7 93.7 0 0 0 14.8-1.7 65 65 0 0 1 13-1.2c2.6.2 5 .2 7.6 0l7.3-.5c4.2-.2 8.6-.6 13 0a68 68 0 0 0 7.5.7l7.4.3A68.9 68.9 0 0 1 176 4a204.2 204.2 0 0 0 .6 21 210.6 210.6 0 0 1 .8 24.2c0 3.6 0 7.3.3 10.9a70.1 70.1 0 0 0-13.1-.2 80 80 0 0 1-12.5.2 61.2 61.2 0 0 0-14.3.4c-2 .2-4 .5-6.1.6a51.1 51.1 0 0 1-6.4.2 40.6 40.6 0 0 0-7.2.2c-2.4.2-4.7.5-7 1A90.4 90.4 0 0 1 98.8 64a55.6 55.6 0 0 0-14.1 2.2c-3.8 1-7.6 2-11.6 2.7-.5-4.3-1-8.8-1.1-13.4zM157.9 185c-8.4.5-17 1.2-25.8 1.4A201 201 0 0 0 103 189l-12.6 2a6.6 6.6 0 0 0-1 0c-3.7.6-7.4 1.2-11 1.5a191.1 191.1 0 0 0-.2-23.7c-.4-7-.7-14.2-.6-21.5.3-4.2.2-8.4 0-12.4l-.8-12c-.4-5.2-.9-10.5-1-16-.2-1.8-.2-3.6-.2-5.5A176.6 176.6 0 0 0 74 77l-.7-6.5c4-.7 8-1.8 11.8-2.8a54.3 54.3 0 0 1 13.9-2 93.5 93.5 0 0 0 12.5-1.6l6.9-1a38.1 38.1 0 0 1 7.1-.1 53.5 53.5 0 0 0 6.4-.2l6.2-.7a59.6 59.6 0 0 1 14-.3 81.8 81.8 0 0 0 12.7-.2 68 68 0 0 1 13 .1l.8 9a209 209 0 0 1 1.1 24.2 206.2 206.2 0 0 0 1.4 21.4 209.2 209.2 0 0 1 1.6 24.2 198.5 198.5 0 0 0 1.7 21.4c.9 7.5 2 15.2 2 23.2a181 181 0 0 0-28.5-.1zm65.1-58.4a92.1 92.1 0 0 0 1.2 17 116.8 116.8 0 0 1 1.4 14.5 64 64 0 0 0-9.8 7.7 51 51 0 0 1-8.9 6.7 68.3 68.3 0 0 0-10.5 7.1 44.6 44.6 0 0 1-8.5 5.4 227.7 227.7 0 0 0-2-23.3 192.8 192.8 0 0 1-1.7-21.3 216.8 216.8 0 0 0-1.6-24.2 202.2 202.2 0 0 1-1.3-21.3 214.3 214.3 0 0 0-1.2-24.3 201 201 0 0 1-1-21.3 214.2 214.2 0 0 0-.8-24.3c-.4-6.4-.9-13-.7-19.8a53 53 0 0 0 9.7 7.1 89.9 89.9 0 0 1 9.9 6.5 48.5 48.5 0 0 0 11.5 7 100.4 100.4 0 0 1 10 5.3 94.3 94.3 0 0 0 .3 16.7 110 110 0 0 1 .6 15 94.4 94.4 0 0 0 .6 17 111 111 0 0 1 .9 14.9v.6a31.1 31.1 0 0 0-5.4-2 51.7 51.7 0 0 1-6.8-2.5 3.4 3.4 0 0 1 .7-.8 3.8 3.8 0 0 0 .6-3.1 6 6 0 0 1 0-3.6l-1.4.2a4.8 4.8 0 0 0-.1 3.2 3 3 0 0 1-.6 2.8 4.8 4.8 0 0 0-1.5 2.8 3.3 3.3 0 0 1-1.7 2.3l1.1 1a3.9 3.9 0 0 0 2-2.6l.3-1a49.8 49.8 0 0 0 7 2.5 27.6 27.6 0 0 1 5.8 2.4 104.8 104.8 0 0 0 1 14.7 112 112 0 0 1 1 15z"/></svg>