<svg id="Layer_1" data-name="Layer 1" xmlns="http://www.w3.org/2000/svg" width="3.56in" height="4.14in" viewBox="0 0 256 298.38">
  <defs>
    <style>
      .cls-1 {
        fill: #4c4c4c;
      }
    </style>
  </defs>
  <title>server</title>
  <g>
    <path class="cls-1" d="M103.55,28.23a6,6,0,0,0-3.25-2.42,5.1,5.1,0,0,0-2.07-.2,3.85,3.85,0,0,0-1.93.85,6.89,6.89,0,0,0-2,3.46,13.75,13.75,0,0,0-.51,4h0a46.18,46.18,0,0,0,.11,8.8,21.57,21.57,0,0,0,2.54,8.38,7.6,7.6,0,0,0,1.35,1.56,5,5,0,0,0,1.87,1,4,4,0,0,0,4-.83,8.34,8.34,0,0,0,2-3.5,23.1,23.1,0,0,0,.84-3.86,28.07,28.07,0,0,0,.11-8.91A19.34,19.34,0,0,0,103.55,28.23Z"/>
    <path class="cls-1" d="M138.32,25.14a6,6,0,0,0-1.24-1.68c-.25-.23-.48-.47-.75-.68l-.86-.59a4.09,4.09,0,0,0-4.14-.13,6.88,6.88,0,0,0-2.55,3.21,11.47,11.47,0,0,0-.88,4h0a51.49,51.49,0,0,0-.61,8.94,21.72,21.72,0,0,0,1.83,8.72,7,7,0,0,0,2.76,3,4.94,4.94,0,0,0,2,.72,3.1,3.1,0,0,0,2.15-.55,7.29,7.29,0,0,0,2.28-3.4,25.86,25.86,0,0,0,1.13-3.86,31.15,31.15,0,0,0,.83-9A22.32,22.32,0,0,0,138.32,25.14Z"/>
    <path class="cls-1" d="M91.55,13a8.45,8.45,0,0,1,.91-1.16,5.1,5.1,0,0,1,1.13-1A3.87,3.87,0,0,1,95,10.19c.24-.07.49-.14.73-.19a5,5,0,0,1,.78,0,21.15,21.15,0,0,1,5,.2,8.51,8.51,0,0,1,2.8,1,7.42,7.42,0,0,1,2.23,2.2l1-1.15a8.26,8.26,0,0,0-2.45-2.34A9.66,9.66,0,0,0,102,8.78a20.61,20.61,0,0,0-5.89-.24,5.67,5.67,0,0,0-.92,0,6.9,6.9,0,0,0-.86.24,4.91,4.91,0,0,0-1.56.8,6.28,6.28,0,0,0-1.28,1.12,8.89,8.89,0,0,0-1,1.28c-1.11,1.59-1.93,3.23-3.19,4.82l1.39.63C89.77,16.08,90.56,14.48,91.55,13Z"/>
    <path class="cls-1" d="M128.21,9.37c1.51-1,3.43-2,5.4-1.38a40.8,40.8,0,0,1,4.63.9,5.46,5.46,0,0,1,3.58,4l1.34-.73A6.74,6.74,0,0,0,139,7.55a32,32,0,0,0-5.44-1.09c-2.27-.55-4.35.45-6,1.55A30.72,30.72,0,0,1,123,10.87l1,1.19A24.62,24.62,0,0,0,128.21,9.37Z"/>
    <path class="cls-1" d="M255.89,139.21c.05-1.35-.12-2.7,0-4.1a8.39,8.39,0,0,0,0-2.4,22.2,22.2,0,0,0-.39-2.33c-.24-.74-.51-1.47-.79-2.18a13.26,13.26,0,0,0-.94-2.06c-.64-1.17-1.23-2.37-2-3.51-.33-.59-.65-1.18-.94-1.8s-.65-1.2-.93-1.83a14.33,14.33,0,0,0-2.4-4.06,31.38,31.38,0,0,0-3.25-3.18,61.17,61.17,0,0,1-6-5.35A20.65,20.65,0,0,0,230.9,101a44.93,44.93,0,0,1-7-3.92,14.25,14.25,0,0,0-1.35-1c0-.52,0-1,.08-1.57a116.79,116.79,0,0,0-.85-15,91.65,91.65,0,0,1-.6-16.9,114.23,114.23,0,0,0-.62-15,89.59,89.59,0,0,1-.32-16.91l-.44-.77a96.48,96.48,0,0,0-10.48-5.48,47.34,47.34,0,0,1-11.32-7,88.66,88.66,0,0,0-9.89-6.52c-3.68-2.24-7.49-4.64-10.61-8l-.4-.23a70.52,70.52,0,0,0-13.16-1.33c-2.41,0-4.86-.06-7.33-.21A64.91,64.91,0,0,1,149.1.37c-4.51-.66-8.95-.28-13.22,0-2.4.16-4.84.44-7.31.53a73.28,73.28,0,0,1-7.55,0A66.72,66.72,0,0,0,107.86,2,91,91,0,0,1,93.1,3.73a66.63,66.63,0,0,0-13,2.32A108.14,108.14,0,0,1,65.54,9.2l-.66,1c.76,7.34,2,14.47,3.09,21.37a163.39,163.39,0,0,1,2.54,24.17c.27,7.4,1.21,14.57,2,21.52a172.32,172.32,0,0,1,1.59,24.25c0,1.69,0,3.37.09,5a47.75,47.75,0,0,0-4,6.48,22.32,22.32,0,0,1-5.52,7.21,46,46,0,0,0-5.26,6.11,19.67,19.67,0,0,1-6.73,6c-2.41,1.36-4.43,3.05-6.58,4.51-2.38,1.62-5.21,3.1-8.35,2.94a59.12,59.12,0,0,1-7.76,0c-2.78-.31-5.84-1.55-7.48-4.22-1.59-2.14-3.2-4.13-4.56-6.34a15.89,15.89,0,0,1-2.72-8.52,75.44,75.44,0,0,0-1.15-7.92c-.43-2.87-.73-6.06.53-8.92.13-.33.24-.66.37-1s.09-.21.11-.22l.05,0h.16c.19,0,.51,0,.76-.06a15.17,15.17,0,0,0,1.55-.28,17.3,17.3,0,0,0,2.91-1,25.86,25.86,0,0,0,7.51-5.78l-1.3-.8A24.81,24.81,0,0,1,20,99.85a14.39,14.39,0,0,1-2.65,1l-.16,0a13.57,13.57,0,0,0,2.25-3,54.43,54.43,0,0,1,3.39-6.08,8.35,8.35,0,0,0,1.06-3,13.92,13.92,0,0,0,.05-3.09c-.1-2.3-.77-4.45-.54-6.93l-1.49.36c-.24,2.37.4,4.38.51,6.52a13.13,13.13,0,0,1,0,2.87,7.55,7.55,0,0,1-1,2.76,43.86,43.86,0,0,0-3.18,5.7,12.51,12.51,0,0,1-2.13,2.87,19.34,19.34,0,0,0,.56-5.42c-.06-2.82-.42-5.57-.27-8.61a13.21,13.21,0,0,0-2.79-7.19c-1.72-2.31-3.88-4.06-5.82-6.44l-.89,1.25c1.82,2.26,3.8,3.88,5.43,6a11.92,11.92,0,0,1,2.57,6.67c-.16,2.9.19,5.52.25,8.23a19,19,0,0,1-.43,4.84,14,14,0,0,0-1.53-2.53,20.81,20.81,0,0,1-3.23-4.93,8.1,8.1,0,0,0-4.1-3.35C4,87.57,2.13,87.24.18,86.25L0,87.77a37.05,37.05,0,0,0,5.05,1.86,7,7,0,0,1,3.72,3.05,18.41,18.41,0,0,0,3.05,4.66,8.24,8.24,0,0,1,2,4.44c-.11.25-.21.5-.27.68-.16.37-.27.73-.41,1.09-1.29,3.15-1,6.38-.54,9.35.4,2.65,1,5.3,1.17,8.11a17.1,17.1,0,0,0,2.87,8.9,78.81,78.81,0,0,0,4.84,6.74c1.86,2.86,5.21,4.25,8.26,4.62a57.63,57.63,0,0,0,8.31,0c3.38.1,6.35-1.45,8.84-3.13,2.24-1.5,4.33-3.24,6.77-4.62a20.72,20.72,0,0,0,6.91-6.2,46.58,46.58,0,0,1,5.32-6.17,23.58,23.58,0,0,0,5.61-7.35c.89-1.62,1.77-3.26,2.81-4.85.24,4.79.66,9.5,1,14.1.31,3.92.65,7.91.83,12s.17,8.17,0,12.34c-.16,7.4.14,14.62.56,21.61a182.19,182.19,0,0,1,.07,24.3l1,.87c3.12-.31,6.19-.73,9.23-1.17a30.45,30.45,0,0,0-3.63,4.29A94.72,94.72,0,0,1,77,205.83a26.32,26.32,0,0,0-4.15,8.5,81.32,81.32,0,0,1-3.46,10A20.8,20.8,0,0,0,68.14,229c-.26,1.56-.33,3.13-.44,4.65,0,1.73-.11,3.47-.2,5.22a36.79,36.79,0,0,1-.64,5.35,30.39,30.39,0,0,0,.43,9.41c.33,1.69.61,3.4.86,5.14a27,27,0,0,1,.38,5.36,32.87,32.87,0,0,0,2.08,9.17q.83,2.43,1.66,4.94a32.7,32.7,0,0,1,1.14,5.24,33.87,33.87,0,0,0,3.26,8.81c.27.54.63,1.31.74,1.47l.29.54.14.3c0,.1.16.27,0,.18-.86-.3-3.53-.95-5.66-1.56a19.47,19.47,0,0,0-9.5.62c-3.36.94-6.57,2.31-10.19,3.15l.63,1.39c3.55-.82,6.66-2.15,9.89-3.06a18.24,18.24,0,0,1,9-.58l3.13.86a20.56,20.56,0,0,1,2.08.62c.56.22,1.07.38,1.66.63l1.7.71c-.48-1.2-1-2.49-1.52-3.62l-.37-.85-.24-.52-.43-.88a32.56,32.56,0,0,1-3.2-8.68,33.2,33.2,0,0,0-1.15-5.23l-1.65-4.9a31.71,31.71,0,0,1-2-9,26.77,26.77,0,0,0-.38-5.34c-.24-1.72-.53-3.41-.85-5.08a29.19,29.19,0,0,1-.41-9.21,38,38,0,0,0,.63-5.3c.1-1.74.16-3.45.19-5.14a27,27,0,0,1,1.67-9.05,79.44,79.44,0,0,0,3.4-9.89,25,25,0,0,1,4-8.25,93.28,93.28,0,0,0,6.15-8.43,23.27,23.27,0,0,1,5.34-5.65l.88-.13,12.61-1.93a196.63,196.63,0,0,1,29-2.67c8.86-.19,17.47-.89,25.84-1.38a194.59,194.59,0,0,1,22.71-.27,32,32,0,0,0-2.21,8.07c-.25,1.67-.53,3.36-.88,5.05a26.09,26.09,0,0,1-1.47,5.08,33,33,0,0,0-1.31,9.14c0,1.69-.17,3.39-.28,5.12a25,25,0,0,1-.86,5.2c-.7,3.13-.43,6.25-.31,9.23.26,3.37.64,6.81,0,10.39a40.52,40.52,0,0,0,.7,9.21A36.5,36.5,0,0,1,175.34,263a41.25,41.25,0,0,0,1.73,9.07c.91,3.24,2.15,6.49,2.26,10.13.08.79.21,1.57.36,2.34s.43,1.5.69,2.23c.5,1.46,1.08,2.87,1.65,4.25.31.78.63,1.56.95,2.35l.33.83.16.41.07.21s.11.2,0,.13l-1.83-.59c-.85-.27-1.71-.55-2.58-.86a19.77,19.77,0,0,0-9.36-.1c-3.38.66-6.63,1.78-10.22,2.52l.59,1.41c3.49-.71,6.6-1.78,9.84-2.42a18.46,18.46,0,0,1,8.92.1c.83.3,1.66.57,2.46.83l1.94.62c.85.27,1.79.66,2.64,1-.27-.83-.54-1.65-.8-2.47l-.42-1.21-.2-.58-.11-.29-.95-2.36c-.56-1.37-1.14-2.76-1.63-4.2-.25-.72-.48-1.45-.68-2.2s-.26-1.52-.34-2.3c-.13-3.65-1.36-6.87-2.26-10.1a39.19,39.19,0,0,1-1.7-8.94,36.9,36.9,0,0,0-1.13-10.29,39.44,39.44,0,0,1-.68-9.07c.63-3.59.25-7,0-10.35-.12-3-.39-6,.31-9.1a25.2,25.2,0,0,0,.86-5.2c.11-1.72.23-3.41.27-5.09a32.17,32.17,0,0,1,1.3-9,25.47,25.47,0,0,0,1.46-5.07c.35-1.68.63-3.35.87-5a29.82,29.82,0,0,1,2.36-8.3c1.57.12,3.14.26,4.71.45l.46-.07a42.39,42.39,0,0,0,9.67-5.88,66.25,66.25,0,0,1,10.48-7.12,52.14,52.14,0,0,0,9-6.83,61.5,61.5,0,0,1,10-7.78l.35-.73a113,113,0,0,0-1.37-15,89.79,89.79,0,0,1-1.15-16.88,115.82,115.82,0,0,0-1.09-15,110.14,110.14,0,0,1-1-13.52c.23.18.46.35.68.54a43.86,43.86,0,0,0,6.94,3.88,19.67,19.67,0,0,1,7.19,5.27,58.74,58.74,0,0,0,5.92,5.25,28.45,28.45,0,0,1,3.15,3.07,13.25,13.25,0,0,1,2.28,3.91,18.78,18.78,0,0,0,.91,1.79c.28.6.58,1.17.91,1.74.7,1.1,1.26,2.25,1.88,3.38a12.17,12.17,0,0,1,.91,2c.27.68.53,1.37.76,2.08a20,20,0,0,1,.35,2.21,7.27,7.27,0,0,1,0,2.28c-.12,1.36,0,2.65,0,4s.18,2.59.08,3.86a18.59,18.59,0,0,1-.41,4.37c-.16.73-.35,1.45-.58,2.17a10.69,10.69,0,0,1-1,2.05,61.61,61.61,0,0,0-2.91,7.35c-.52,1.25-1.06,2.52-1.7,3.77a9.39,9.39,0,0,0-5.2-1.23,39.53,39.53,0,0,1-6.35,0,8.67,8.67,0,0,0-5.34,1.91c-1.75,1.16-3.12,2.68-5.23,3.57l1.05,1.12c2-.84,3.28-2.26,4.9-3.35a10.72,10.72,0,0,1,2.26-1.3,6.11,6.11,0,0,1,2.62-.44,32.46,32.46,0,0,0,5.92,0,12.52,12.52,0,0,1,2.18.16,12.56,12.56,0,0,0-3.53,1.71c-2.11,1.45-3.81,3.23-6,4.91a9.2,9.2,0,0,0-2,2.91,14.41,14.41,0,0,0-.6,1.62l-.36,1.65c-.32,1.2-.28,2.48-.55,3.71a16.39,16.39,0,0,1-.83,3.77l1.53.07a15.23,15.23,0,0,0,.8-3.62c.25-1.16.22-2.39.51-3.51.11-.51.21-1,.32-1.55s.36-1,.56-1.49a7.84,7.84,0,0,1,1.83-2.64c2-1.53,3.55-3.15,5.47-4.5a10,10,0,0,1,4.54-1.84l-.18.15-1.81,1.6A9.7,9.7,0,0,0,242.2,170a10.84,10.84,0,0,0-.35,4.22c.3,3.14,1.75,5.83,3,8.84l1.26-.87c-1.13-2.86-2.39-5.27-2.69-8a9.4,9.4,0,0,1,.28-3.71,8.27,8.27,0,0,1,2-3.3l1.67-1.46.81-.68.19-.16c.16-.15.34-.21.41-.4l.32-.6c.71-1.37,1.3-2.76,1.88-4.13a61.79,61.79,0,0,1,3-7.5,12.26,12.26,0,0,0,1.06-2.15,22.12,22.12,0,0,0,.6-2.26,20.61,20.61,0,0,0,.44-4.54C256.07,141.9,255.89,140.55,255.89,139.21ZM72,55.54A167.25,167.25,0,0,0,69.46,31.2c-1.09-6.68-2.24-13.55-3-20.6a114.86,114.86,0,0,0,14-3.08A65,65,0,0,1,93.33,5.24a93.72,93.72,0,0,0,14.76-1.76,64.94,64.94,0,0,1,13-1.14c2.58.16,5.09.12,7.57,0s4.9-.38,7.29-.53c4.24-.24,8.64-.62,13.07,0a68,68,0,0,0,7.53.73c2.47.15,4.9.18,7.31.21A68.89,68.89,0,0,1,176.07,4a204.24,204.24,0,0,0,.68,21,210.58,210.58,0,0,1,.77,24.16c-.07,3.69,0,7.32.26,10.9a70.1,70.1,0,0,0-13.1-.11,80,80,0,0,1-12.51.2,61.18,61.18,0,0,0-14.24.37c-2,.23-4.08.44-6.16.6a51.12,51.12,0,0,1-6.33.2,40.63,40.63,0,0,0-7.25.15c-2.37.23-4.68.56-7,1a90.44,90.44,0,0,1-12.42,1.56,55.63,55.63,0,0,0-14.09,2.19c-3.77,1-7.6,2-11.63,2.73C72.62,64.56,72.19,60.08,72,55.54Zm85.9,129.36c-8.37.5-17,1.2-25.75,1.38A201,201,0,0,0,103,189l-12.6,1.93h0a6.58,6.58,0,0,0-1.08.16c-3.63.55-7.29,1.06-11,1.45a191.14,191.14,0,0,0-.12-23.73c-.42-7-.72-14.18-.55-21.5.21-4.22.18-8.37,0-12.45s-.52-8.07-.83-12c-.39-5.18-.89-10.49-1.11-15.88l.07-.09-.07,0c-.07-1.81-.11-3.63-.09-5.46A176.6,176.6,0,0,0,74,77c-.24-2.14-.49-4.31-.73-6.48,4-.72,8-1.79,11.82-2.77A54.29,54.29,0,0,1,99,65.57,93.46,93.46,0,0,0,111.48,64c2.25-.4,4.55-.74,6.89-1a38.15,38.15,0,0,1,7.18-.13,53.5,53.5,0,0,0,6.36-.21c2.09-.16,4.15-.38,6.17-.61a59.64,59.64,0,0,1,14.11-.35,81.77,81.77,0,0,0,12.56-.21,68,68,0,0,1,13.13.14c.2,3,.44,6.06.7,9a209,209,0,0,1,1.15,24.15,206.15,206.15,0,0,0,1.38,21.45,209.21,209.21,0,0,1,1.55,24.13,198.49,198.49,0,0,0,1.77,21.42c.86,7.51,1.89,15.24,2,23.25C176.59,184,167.09,184.39,157.93,184.9ZM223,126.54a92.13,92.13,0,0,0,1.18,17A116.78,116.78,0,0,1,225.56,158a64,64,0,0,0-9.79,7.66,51.08,51.08,0,0,1-8.87,6.75,68.31,68.31,0,0,0-10.48,7.12,44.61,44.61,0,0,1-8.5,5.32,227.66,227.66,0,0,0-2-23.25,192.85,192.85,0,0,1-1.74-21.28,216.83,216.83,0,0,0-1.57-24.25,202.21,202.21,0,0,1-1.36-21.31,214.34,214.34,0,0,0-1.17-24.26,201,201,0,0,1-1-21.33,214.23,214.23,0,0,0-.79-24.28c-.44-6.41-.86-13-.68-19.76a53,53,0,0,0,9.72,7.07,89.89,89.89,0,0,1,9.87,6.52,48.46,48.46,0,0,0,11.46,7.06A100.41,100.41,0,0,1,218.68,31,94.35,94.35,0,0,0,219,47.71a110,110,0,0,1,.61,14.95,94.37,94.37,0,0,0,.61,17,110.92,110.92,0,0,1,.84,14.94c0,.21,0,.41,0,.61a31.14,31.14,0,0,0-5.38-2.09,51.73,51.73,0,0,1-6.82-2.39,3.42,3.42,0,0,1,.72-.82,3.77,3.77,0,0,0,.62-3.12,6,6,0,0,1,.07-3.56l-1.51.2a4.76,4.76,0,0,0-.07,3.2,3,3,0,0,1-.55,2.76,4.84,4.84,0,0,0-1.52,2.83,3.27,3.27,0,0,1-1.71,2.28l1.1,1.06a3.89,3.89,0,0,0,1.88-2.52c.11-.32.21-.64.32-1a49.79,49.79,0,0,0,6.93,2.45A27.61,27.61,0,0,1,221,96.92a104.77,104.77,0,0,0,1,14.69A112.09,112.09,0,0,1,223,126.54Z"/>
  </g>
</svg>
