<svg xmlns="http://www.w3.org/2000/svg" xmlns:xlink="http://www.w3.org/1999/xlink" width="256.3" height="357.1" viewBox="0 0 192 268.05"><defs><style>.cls-1{isolation:isolate}.cls-2{fill:#fff}.cls-3{fill:#666}.cls-4,.cls-5{opacity:.5;mix-blend-mode:multiply}.cls-4{fill:url(#radial-gradient)}.cls-6{fill:url(#radial-gradient-2)}.cls-7{fill:url(#radial-gradient-6)}.cls-8{fill:url(#radial-gradient-23)}</style><radialGradient id="radial-gradient" cx="101.3" cy="68.7" r="367.3" gradientTransform="scale(.76)" gradientUnits="userSpaceOnUse"><stop offset="0" stop-color="#fbfef9"/><stop offset="1" stop-color="#170a1c"/></radialGradient><radialGradient id="radial-gradient-2" cx="55.8" cy="-8.3" r="309.5" gradientTransform="scale(.76)" gradientUnits="userSpaceOnUse"><stop offset="0" stop-color="#333"/><stop offset="1" stop-color="#666"/></radialGradient><radialGradient id="radial-gradient-6" cx="24.2" cy="278" r="4.1" xlink:href="#radial-gradient-2"/><radialGradient id="radial-gradient-23" cx="26.9" cy="149.9" r="1.2" xlink:href="#radial-gradient-2"/></defs><title>skull</title><g class="cls-1"><g id="Vector"><path class="cls-2" d="M192 121.7c0-27.8-23.8-52.3-23.8-52.3s6.6-4.6 6-23.8-26-45.6-26-45.6 5.6 14.9 2 24.1-13 18.9-13.9 27c0 0-14.8-9.2-38.4-9.2S45.6 61.7 45.6 61.7C41 57.8 35.4 56.8 30.4 54a23.8 23.8 0 0 1-10.6-20c0-10 7.4-20.2 7.4-20.2S6 29 6.5 54.2v1C6.7 57.5 9 80 27.5 84c0 0-1 11.5-9.5 19.4-2.7 3.1-5.6 5.5-4.4 8.1.2.5 2 2.8 2.2 4 .3 2.5-1.7 6.2-1.8 8.8-.2 7.2 3.1 14.7 4 21.5s.1 9.8-1.5 14.2a3.1 3.1 0 0 0 0 2.6c.7 2.2 3.7 3.6 1.8 6.2a15.9 15.9 0 0 0-3.8 10c0 8.1 3.2 11.3 2.8 16.8s0 8.6-1.5 10.6-.7 4.2 1 6c0 0-26.2 20-13.4 51.5 0 0 1.2-25 21.4-40.4a8.2 8.2 0 0 0 1.8-1.9s-4.9 9.2.3 18.5c1.2-11.4 6.7-17.6 6.7-17.6s-.4 5.4 2.5 9c0 0 1.3-6.6 4.3-9.3 0 0 1.1 6 3 9.3a50 50 0 0 0 4.4-8.2 10 10 0 0 0 4.2 8.6 20 20 0 0 1 5.3-9.3A11.6 11.6 0 0 0 62 232s.3-5.6 4.3-8.8c0 0-3.4 12.4 8.3 22.5-5-7.9-3-16.3-1.8-18.5a8.1 8.1 0 0 0 .8-4.6 6.4 6.4 0 0 0 3.9-1.5s0 2.6 3.6 9c8 15.3 3.6 38 3.6 38 23.3-36.4 8.8-52.5 8.8-52.5s2.6 0 7.3-4 17.2-4 23.8-7.2 10.6-6 16.5-7.3 8.6 5.3 14.6 6.6 15.2-6.6 14.5-13.2.7-14 4.7-19.2a78.4 78.4 0 0 0 17.1-49.6zM36.9 159.2c-3.5 3.6-9.7 3.4-13.2 1.9s-3-3.1-3-7.4l-.1-1.5c-.6-5.4-.4-10.5-1.6-15.9a34.2 34.2 0 0 1-.6-18 28 28 0 0 1 1.3-3.8 7 7 0 0 1 1.3-2.3v-.1a16.3 16.3 0 0 1 4.7-3.7c5.3-2.9 7.9.2 11 0s9.5 4.9 10.7 9.4a135 135 0 0 0 1.6 5.7 29.2 29.2 0 0 1 1 2.8v.1a33.4 33.4 0 0 1 .8 12.4s-.6 8.3-4.4 13-6 3.8-9.5 7.4zm25.2 19c-1.2-1.4-2.5-3.7-4.6-3.5s-3.8 1.2-6 .5c-1.5-.6-2.1-1-3.7.2a10.4 10.4 0 0 0-3 3 44.6 44.6 0 0 1 5-7.8c1.8-2.3 4.7-4.3 5.2-7.2.2.6.9 2.7 1.7 2.8 1.2 0 2.7-2.3 2.8-3.3.6 2.6 1.9 4.8 2.7 7.2 1 2.9.6 5.3 0 8zm80.7-27.3c-5.4 2.7-15.8 2.8-18.2 9.2-1.4 3.7-2 6-6 7.8-4.3 2-8.7 1.5-13.1.1-4-1.2-8.9-5-13-4.8-2.7 0-3.2 1.4-5.6-.8-1.3-1.2-2-2.8-3.5-3.7-1.8-1-3.8-1-5.4-2.4-3.8-3-4-9.5-3.6-13.9 1-6.7 4.6-12.4 7-18.7 2.2-5.3 2-13.2 6.7-17 6-5.1 15.8-5.8 23.3-5.6 8 .2 16.5 2.2 22.4 8 8.3 8.3 25.3 33.7 9 41.8z"/><path class="cls-3" d="M93.4 215.6s2.7 0 7.3-4 17.2-4 23.8-7.2 10.6-6 16.6-7.3 8.6 5.3 14.5 6.6 15.2-6.6 14.6-13.2.6-14 4.6-19.2a78.4 78.4 0 0 0 17.2-49.6c0-27.8-23.8-52.3-23.8-52.3s6.6-4.6 6-23.8a28.7 28.7 0 0 0-.8-5.3A34.5 34.5 0 0 1 157.2 73c3.5 1.3 7.8 4.9 10.1 7.9a105.6 105.6 0 0 1 9.2 13.7c3.8 6.8 5.1 15.2 6.6 22.8a68.1 68.1 0 0 1 1.2 27.4 61.9 61.9 0 0 1-19.5 32.6 36.5 36.5 0 0 0-5.7 6.6c4.5-2 7.6-1.7 8.3 3.5 0 0 1.8 10.1-6 12.4s-9.2-2.4-12.4-4.1-7.5-3.1-10.8-1.6c-1.3.5-4.3 2.8-5 .6s3.5-4.4 4.9-4.8c-3.8.2-6.5 2-9 4.7a22.6 22.6 0 0 1-12.8 7.1 47 47 0 0 0-15.6 6.3c-5.2 3.5-8.2 6.4-14.3 4.2-5.8-1.9-8.2 4-8.2 4s4.5-5.7 9.7-1.9 7.5 16.8 6.2 24.8a119.3 119.3 0 0 1-9.5 29c23.3-36.4 8.8-52.5 8.8-52.5zm-20 6c-1.7-.2-2.9-1.5-4.6-.7 1.8.2 3.2.8 3.3 2.7.3 2.5-.7 4.6-1.3 7a19.1 19.1 0 0 0 3.7 15.1c-5-8-2.9-16.3-1.7-18.5a8.1 8.1 0 0 0 .7-4.6 6.4 6.4 0 0 0 3.9-1.5 9.5 9.5 0 0 1-4 .5zM62 232s.3-5.6 4.3-8.8c2.2-2.3-3-3.1-4.3-2.8 1.1-.1 4.8.6 3.2 2.3A13.7 13.7 0 0 0 62 232zm-9.9-.2a20 20 0 0 1 5.4-9.3c1.7-1.8-1-3-2.7-3.1a3.9 3.9 0 0 0-3 1.6 3.8 3.8 0 0 1 4.2-.7c1.2.8.6 2-.1 3-1.9 2.5-3.7 5.1-3.8 8.5zm-33.4-21c-2.6-.3-3.9-2-3.4-3.5-.7 1.7.2 3.4 1.6 4.9a3.8 3.8 0 0 1 4.7.9 3.2 3.2 0 0 0-3-2.3zM150.4 71.4A16 16 0 0 1 137.7 60s-2.6 11.2 12.7 11.4zM46.9 220.6c-1.8-1.7-4.6-.4-4.6-.4s2.8-2.5 4.6.4zm-3.4 10.7a50 50 0 0 0 4.4-8.1c-2.2 2.2-3 5.4-4.4 8.1zm-12.9-11.4c3.3 1.5 1.2 2.5-1.4 8.6-2 4.8-2.2 11.4-2.2 11.4 1.2-11.4 6.7-17.6 6.7-17.6 1.2-2.7-3.1-2.4-3.1-2.4zm-5.7 3.4a8.2 8.2 0 0 0 1.8-1.8 3.7 3.7 0 0 1 1.8-1.2 4.4 4.4 0 0 0-4-4s4 1.7 2.5 3.6-13.8 9.2-18.5 21a74.9 74.9 0 0 0-5 22.9s1.2-25 21.4-40.5zm11.2 8s1.4-6.6 4.3-9.2c0 0-3.8 2.1-4.3 9.2z"/><path class="cls-3" d="M78 156.3c1.6 1.3 3.6 1.3 5.4 2.4 1.6 1 2.2 2.5 3.5 3.7 2.4 2.2 3 .9 5.6.8 4.2-.1 9 3.6 13 4.9a18 18 0 0 0 13.1-.2c4-1.8 4.6-4.1 6-7.8 2.4-6.4 12.8-6.5 18.2-9.2a12.6 12.6 0 0 0 4.3-3.4c-5.8 6-16.6 1.9-23 7.6-2.5 2.3-3.6 5.5-7 6.9s-8.1 1.2-11.7 1c-3.3-.3-7.5-.9-10.3-2.9-3.5-2.6-5.2-4.7-9.8-6 0 0-12.6-2.4-8.3-20a35.8 35.8 0 0 0-2.5 8.4c-.4 4.3-.3 10.7 3.5 13.8zm10.1-49.7c-2.3 2-3.5 5-4.3 8.3.2-.5 2.3-7 10.8-8.8 8.8-1.8 18.8-2.5 24.8-1.3s16.7 6.7 24.5 17.9a69.4 69.4 0 0 0-10-13.5 32.3 32.3 0 0 0-22.4-8.1c-7.5-.2-17.3.5-23.4 5.5zM55 163.5s2 4.1 4.5-.4c-.1 1-1.5 3.2-2.7 3.2-.9 0-1.5-2.2-1.8-2.8zm-7.2 12.7c1.6-.3 2.7 1 4.2 1.1 2 .2 3.5-1 5.6-.5a10.7 10.7 0 0 1 4.3 2.5l.3-1.2c-1.3-1.3-2.6-3.6-4.7-3.4s-3.8 1.2-6 .5c-1.5-.6-2.1-1-3.7.2a10.4 10.4 0 0 0-3 3 6.3 6.3 0 0 1 3-2.2zm-17-99.6s1.5-7 10.8-10.8a127.6 127.6 0 0 0-10.8 10.8zM38.9 220a6.6 6.6 0 0 0-3.8-.3 2.9 2.9 0 0 1 3.8.2zm14.9-4.7a28 28 0 0 0 5.7-15.5 15.7 15.7 0 0 1-.8 8.9 16.9 16.9 0 0 1-4.9 6.6zm-12.4.1a77.6 77.6 0 0 0 6.3-15.4 25.5 25.5 0 0 1-6.3 15.4zm8.6-89zm-24.3-18a16.3 16.3 0 0 0-4.6 3.7c1.5-1.9 3.7-2.8 7.5-2.8a20.4 20.4 0 0 1 16.6 7.4 24 24 0 0 1 3.8 6.8l-1.6-5.7c-1.2-4.5-7.7-9.7-10.8-9.4s-5.7-2.9-10.9 0zm-6 6.1a11 11 0 0 1 1.3-2.3 7 7 0 0 0-1.3 2.3zm26.7 37.3c3.8-4.7 4.4-13 4.4-13-.7 6-3.2 11.4-8 14.4-3.2 2.1-16 7.5-20 5-2-1-2-2.6-2.2-4.5.1 4.3-.5 5.8 3 7.4s9.7 1.8 13.2-1.9 5.7-2.5 9.6-7.3zM23.4 86s-.2 7.7-2 12.2a18 18 0 0 1-3.4 5.2c8.5-8 9.4-19.5 9.4-19.5C9.1 80 6.7 57.5 6.5 55.2c.8 24.3 17 30.8 17 30.8z"/><path class="cls-4" d="M192 121.7c0-27.8-23.8-52.3-23.8-52.3s6.6-4.6 6-23.8l-.1-1.1v-.3l-.2-1.1V43l-.2-1.3-.2-1.4C169.1 22 148.3 0 148.3 0s5.6 14.9 2 24.1-13 18.9-13.9 27c0 0-14.8-9.2-38.4-9.2S45.6 61.7 45.6 61.7C41 57.8 35.4 56.8 30.4 54a23.8 23.8 0 0 1-10.6-20c0-10 7.4-20.2 7.4-20.2S6 29 6.5 54.2v1c.8 24.3 17 30.8 17 30.8s-.3 7.7-2 12.2a18 18 0 0 1-3.5 5.2c-2.8 3.1-5.7 5.5-4.4 8.1.2.5 2 2.8 2.2 4 .3 2.5-1.8 6.2-1.8 8.8-.2 7.2 3.1 14.7 4 21.4s.1 9.9-1.5 14.3a3.1 3.1 0 0 0 0 2.5c.7 2.3 3.7 3.7 1.7 6.3a15.9 15.9 0 0 0-3.8 10c0 8.1 3.2 11.3 3 16.8s0 8.6-1.6 10.6a4 4 0 0 0-.6 1 2.9 2.9 0 0 0-.2.7 3.6 3.6 0 0 0 0 1.2 4.6 4.6 0 0 0 .2.6 5.7 5.7 0 0 0 .6 1.2l.4.6h.1l.5.5s-26.2 20.2-13.4 51.6c0 0 1.2-25 21.3-40.4a8.2 8.2 0 0 0 1.9-1.8s-5 9.1.2 18.4c1.2-11.4 6.7-17.6 6.7-17.6s-.4 5.4 2.5 9c0 0 1.4-6.6 4.3-9.3 0 0 1.2 6 3 9.3a50 50 0 0 0 4.4-8.2 10 10 0 0 0 4.2 8.6 20 20 0 0 1 5.4-9.2A11.6 11.6 0 0 0 62 232l.1-1a13 13 0 0 1 4.2-7.8s-3.4 12.5 8.3 22.5c-5-7.9-3-16.2-1.8-18.5a8.1 8.1 0 0 0 .8-4.6 6.4 6.4 0 0 0 3.8-1.5s0 2.6 3.7 9c8 15.3 3.6 38 3.6 38 23.3-36.4 8.8-52.5 8.8-52.5s2.6 0 7.3-4 17.2-4 23.8-7.2 10.6-6 16.5-7.3a7 7 0 0 1 1.6-.2c4.9 0 7.6 5.6 13 6.8a6.2 6.2 0 0 0 1.2.1c5.9.2 14-7.1 13.4-13.3-.7-6.6.6-14 4.6-19.2a78.4 78.4 0 0 0 17.1-49.6zM42.9 153.2c-3.2 2.1-16 7.5-20.2 5-1.8-1-2-2.6-2-4.5l-.2-1.5c-.5-5.4-.3-10.4-1.5-15.9a34.2 34.2 0 0 1-.6-18 28 28 0 0 1 1.3-3.8 11 11 0 0 1 1.3-2.3v-.1c1.6-1.9 3.8-2.8 7.6-2.8a20.4 20.4 0 0 1 16.6 7.4 24 24 0 0 1 3.8 6.8v-.2.2a29.2 29.2 0 0 1 1 2.8v.1a33.4 33.4 0 0 1 .8 12.4c-.7 6-3.2 11.4-8 14.4zm8-14.4zM62.2 178c-1.2-1.3-2.6-3.6-4.7-3.4a21.2 21.2 0 0 0-2.5.5 8.6 8.6 0 0 1-1.8.2 5 5 0 0 1-1.6-.2l-.6-.2a2.9 2.9 0 0 0-3.3.4 10.4 10.4 0 0 0-3 3 44.6 44.6 0 0 1 5-7.8c1.8-2.2 4.7-4.3 5.2-7.2l.2.3-.2-.2c.3.6 1 2.7 1.8 2.8 1.2 0 2.6-2.3 2.8-3.2a1.2 1.2 0 0 0 0-.1c.5 2.6 1.8 4.7 2.7 7.1 1 2.9.6 5.3 0 8zm81.7-55.4zm3.2 24.8c-5.8 6-16.6 1.9-23 7.6-2.5 2.3-3.6 5.5-7 6.9s-8.1 1.2-11.7 1c-3.3-.3-7.5-.9-10.3-2.9-3.5-2.6-5.2-4.7-9.8-6 0 0-12.6-2.4-8.4-20 1.5-3.5 3.2-6.8 4.6-10.4 1-2.6 1.6-5.8 2.4-8.9.2-.7 2.5-7 10.7-8.7 8.8-1.8 18.8-2.5 24.8-1.2s16.7 6.7 24.5 17.8c5 8.5 8.2 18.6 3.2 24.8z"/><g class="cls-5"><path class="cls-6" d="M93.4 215.6s2.7 0 7.3-4 17.2-4 23.8-7.2 10.6-6 16.6-7.3 8.6 5.3 14.5 6.6 15.2-6.6 14.6-13.2.6-14 4.6-19.2a78.4 78.4 0 0 0 17.2-49.6c0-27.8-23.8-52.3-23.8-52.3s6.6-4.6 6-23.8a28.7 28.7 0 0 0-.8-5.3A34.5 34.5 0 0 1 157.2 73c3.5 1.3 7.8 4.9 10.1 7.9a105.6 105.6 0 0 1 9.2 13.7c3.8 6.8 5.1 15.2 6.6 22.8a68.1 68.1 0 0 1 1.2 27.4 61.9 61.9 0 0 1-19.5 32.6 36.5 36.5 0 0 0-5.7 6.6c4.5-2 7.6-1.7 8.3 3.5 0 0 1.8 10.1-6 12.4s-9.2-2.4-12.4-4.1-7.5-3.1-10.8-1.6c-1.3.5-4.3 2.8-5 .6s3.5-4.4 4.9-4.8c-3.8.2-6.5 2-9 4.7a22.6 22.6 0 0 1-12.8 7.1 47 47 0 0 0-15.6 6.3c-5.2 3.5-8.2 6.4-14.3 4.2-5.8-1.9-8.2 4-8.2 4s4.5-5.7 9.7-1.9 7.5 16.8 6.2 24.8a119.3 119.3 0 0 1-9.5 29c23.3-36.4 8.8-52.5 8.8-52.5zm-20 6c-1.7-.2-2.9-1.5-4.6-.7 1.8.2 3.2.8 3.3 2.7.3 2.5-.7 4.6-1.3 7a19.1 19.1 0 0 0 3.7 15.1c-5-8-2.9-16.3-1.7-18.5a8.1 8.1 0 0 0 .7-4.6 6.4 6.4 0 0 0 3.9-1.5 9.5 9.5 0 0 1-4 .5zM62 232s.3-5.6 4.3-8.8c2.2-2.3-3-3.1-4.3-2.8 1.1-.1 4.8.6 3.2 2.3A13.7 13.7 0 0 0 62 232zm-9.9-.2a20 20 0 0 1 5.4-9.3c1.7-1.8-1-3-2.7-3.1a3.9 3.9 0 0 0-3 1.6 3.8 3.8 0 0 1 4.2-.7c1.2.8.6 2-.1 3-1.9 2.5-3.7 5.1-3.8 8.5z"/><path class="cls-7" d="M18.7 210.8c-2.6-.3-3.9-2-3.4-3.5-.7 1.7.2 3.4 1.6 4.9a3.8 3.8 0 0 1 4.7.9 3.2 3.2 0 0 0-3-2.3z"/><path class="cls-6" d="M150.4 71.4A16 16 0 0 1 137.7 60s-2.6 11.2 12.7 11.4zM46.9 220.6c-1.8-1.7-4.6-.4-4.6-.4s2.8-2.5 4.6.4zm-3.4 10.7a50 50 0 0 0 4.4-8.1c-2.2 2.2-3 5.4-4.4 8.1zm-12.9-11.4c3.3 1.5 1.2 2.5-1.4 8.6-2 4.8-2.2 11.4-2.2 11.4 1.2-11.4 6.7-17.6 6.7-17.6 1.2-2.7-3.1-2.4-3.1-2.4zm-5.7 3.4a8.2 8.2 0 0 0 1.8-1.8 3.7 3.7 0 0 1 1.8-1.2 4.4 4.4 0 0 0-4-4s4 1.7 2.5 3.6-13.8 9.2-18.5 21a74.9 74.9 0 0 0-5 22.9s1.2-25 21.4-40.5zm11.2 8s1.4-6.6 4.3-9.2c0 0-3.8 2.1-4.3 9.2zm41.9-75c1.6 1.3 3.6 1.3 5.4 2.4 1.6 1 2.2 2.5 3.5 3.7 2.4 2.2 3 .9 5.6.8 4.2-.1 9 3.6 13 4.9a18 18 0 0 0 13.1-.2c4-1.8 4.6-4.1 6-7.8 2.4-6.4 12.8-6.5 18.2-9.2a12.6 12.6 0 0 0 4.3-3.4c-5.8 6-16.6 1.9-23 7.6-2.5 2.3-3.6 5.5-7 6.9s-8.1 1.2-11.7 1c-3.3-.3-7.5-.9-10.3-2.9-3.5-2.6-5.2-4.7-9.8-6 0 0-12.6-2.4-8.3-20a35.8 35.8 0 0 0-2.5 8.4c-.4 4.3-.3 10.7 3.5 13.8zm10.1-49.7c-2.3 2-3.5 5-4.3 8.3.2-.5 2.3-7 10.8-8.8 8.8-1.8 18.8-2.5 24.8-1.3s16.7 6.7 24.5 17.9a69.4 69.4 0 0 0-10-13.5 32.3 32.3 0 0 0-22.4-8.1c-7.5-.2-17.3.5-23.4 5.5zM55 163.5s2 4.1 4.5-.4c-.1 1-1.5 3.2-2.7 3.2-.9 0-1.5-2.2-1.8-2.8zm-7.2 12.7c1.6-.3 2.7 1 4.2 1.1 2 .2 3.5-1 5.6-.5a10.7 10.7 0 0 1 4.3 2.5l.3-1.2c-1.3-1.3-2.6-3.6-4.7-3.4s-3.8 1.2-6 .5c-1.5-.6-2.1-1-3.7.2a10.4 10.4 0 0 0-3 3 6.3 6.3 0 0 1 3-2.2zm-17-99.6s1.5-7 10.8-10.8a127.6 127.6 0 0 0-10.8 10.8zM38.9 220a6.6 6.6 0 0 0-3.8-.3 2.9 2.9 0 0 1 3.8.2zm14.9-4.7a28 28 0 0 0 5.7-15.5 15.7 15.7 0 0 1-.8 8.9 16.9 16.9 0 0 1-4.9 6.6zm-12.4.1a77.6 77.6 0 0 0 6.3-15.4 25.5 25.5 0 0 1-6.3 15.4zm8.6-89zm-24.3-18a16.3 16.3 0 0 0-4.6 3.7c1.5-1.9 3.7-2.8 7.5-2.8a20.4 20.4 0 0 1 16.6 7.4 24 24 0 0 1 3.8 6.8l-1.6-5.7c-1.2-4.5-7.7-9.7-10.8-9.4s-5.7-2.9-10.9 0z"/><path class="cls-8" d="M19.7 114.5a11 11 0 0 1 1.3-2.3 7 7 0 0 0-1.3 2.3z"/><path class="cls-6" d="M46.4 151.8c3.8-4.7 4.4-13 4.4-13-.7 6-3.2 11.4-8 14.4-3.2 2.1-16 7.5-20 5-2-1-2-2.6-2.2-4.5.1 4.3-.5 5.8 3 7.4s9.7 1.8 13.2-1.9 5.7-2.5 9.6-7.3zM23.4 86s-.2 7.7-2 12.2a18 18 0 0 1-3.4 5.2c8.5-8 9.4-19.5 9.4-19.5C9.1 80 6.7 57.5 6.5 55.2c.8 24.3 17 30.8 17 30.8z"/></g></g></g></svg>