<svg xmlns="http://www.w3.org/2000/svg" width="1111" height="800" viewBox="0 0 1111.04 800"><defs><style>.cls-1{isolation:isolate}.cls-2{fill:#f1f7ed;opacity:.25}.cls-3{fill:#f97412}.cls-4{fill:#fcb21d}.cls-5{fill:#fbfef9}.cls-19,.cls-23,.cls-24,.cls-26,.cls-5{opacity:.75}.cls-6{fill:#ff6c45}.cls-19,.cls-7{fill:#3a2e39}.cls-8{fill:#1e181e}.cls-9{fill:#cf5c36}.cls-10{fill:#9b422a}.cls-11{fill:#6b566a}.cls-12,.cls-23{fill:#ccb293}.cls-13,.cls-24{fill:#f0dbbd}.cls-14{fill:#b28b60}.cls-15{fill:#ccab81}.cls-16{fill:#666}.cls-17{fill:#444}.cls-18{fill:#222}.cls-20{fill:#7c5e48}.cls-21{fill:#4c321b}.cls-22{fill:#3a2312}.cls-25{opacity:.33;mix-blend-mode:soft-light}.cls-26{fill:url(#radial-gradient)}</style><radialGradient id="radial-gradient" cx="496.8" cy="189.4" r="1000.2" gradientUnits="userSpaceOnUse"><stop offset="0" stop-color="#fff"/><stop offset=".8" stop-color="#1d3461"/></radialGradient></defs><title>title-card</title><g class="cls-1"><g id="Vector"><path class="cls-2" d="M0 398.1l229.9 29.1c-19-44.9-68.6-57.3-112.8-52C76.8 380 39 386.2 0 389.1z"/><path class="cls-3" d="M126 559.9l-15 1.5c-5.5 6-10.6 7.8-26.2 40.2S4.7 793.3 1.8 800h39.5c11-20.8 21.8-39.5 30.3-53.1a899.6 899.6 0 0 1 67.9-93.2c32.2-39.5 38.4-67.7 38.4-67.7z"/><path class="cls-4" d="M153.4 569.4a64.6 64.6 0 0 0-6.3-3.1h-.2c-18.5-8.4-32.1-8.8-32.1-8.8l-3.8 3.9c-18.8 24.7-31.2 59.3-41.7 85.1-20.7 51.1-41.7 102.2-62 153.5h25.5a632.5 632.5 0 0 1 73-113.1c20-24.7 48.3-55.7 60.7-76.4 8.4-14 11-24.9 11-24.9a128.8 128.8 0 0 0-24-16.2z"/><path class="cls-5" d="M126.4 635.6c8.8-10.8 37.3-44.5 33-61.2s-22.7-12.8-31.1-4.4c-15 15.1-20.4 36.3-27.6 55.6a862 862 0 0 1-42.2 96 829.7 829.7 0 0 1 67.9-86z"/><path class="cls-2" d="M774 162.8l337 42.6c-16.6-28.6-52.8-21.8-79.7-27.8-38-8.3-52.2-44.7-87.3-57.2-28.5-10.1-44.8-.3-66.6 13.8-33.5 21.8-61.7 28.1-103.4 28.6zM536.2 566.9l288.3 36.5s-15.7-44-72.1-51.1-73 23.8-216.2 14.6zm-309.7-540l196.4 24.8s-6-15.9-42.8-15.8C348 36 346.6-1.4 309.8 0c-32.4 1.3-11.3 26.1-83.3 26.9zm301.6 297.7l182.6 23.1c-29.4-65.2-131.4-22-182.6-23z"/><path class="cls-6" d="M325.4 286l-.7 8.7c9-9.6 17.8-19.7 27.5-28.8-12.9 8-26.8 20-26.8 20z"/><path class="cls-7" d="M120.8 543.1a42 42 0 0 1-6 14.4s29.7 26.5 57.9 28.5c-6.8-21.3-28.8-34.2-52-42.9z"/><path class="cls-8" d="M198.6 559.7c13-8-78.1-33.9-78.1-33.9a37 37 0 0 1 .3 17.3c23.1 8.7 45.1 21.6 51.9 42.9a45.7 45.7 0 0 0 5.2 0s7.6-18.3 20.7-26.3z"/><path class="cls-9" d="M363.6 273.4a74.5 74.5 0 0 0-1.3-12.8 66.7 66.7 0 0 0-10.1 5.3c-9.7 9.1-18.4 19.2-27.5 28.8l-4.6 62.2c17-26.1 40.3-52.3 43.5-83.5z"/><path class="cls-10" d="M351.5 336.3a157 157 0 0 0 12-63c-3 31.4-26.4 57.5-43.4 83.6l-.6 8z"/><path class="cls-6" d="M235 312.6l2.2 3q10.8-13.6 22.3-26.7a383 383 0 0 0-24.5 23.7z"/><path class="cls-9" d="M304.6 357.3c14.4-35 25.4-71.1 31.6-108.5l-1.2-10.6s-35 15-75.5 50.7q-11.6 13-22.3 26.7c15.7 20.4 40.8 34.3 67.4 41.7z"/><path class="cls-10" d="M319.5 356s23.4-35.1 16.7-107.1a498.4 498.4 0 0 1-31.6 108.4 253 253 0 0 0 12.5 3z"/><path class="cls-11" d="M237.3 315.6l-2.3-3a350 350 0 0 0-49 66c-58 101.6-67.7 139-69 144.4a3.6 3.6 0 0 0 .3 2c33-73 70-145.7 120-209.4z"/><path class="cls-7" d="M304.6 357.3c-26.6-7.4-51.7-21.3-67.4-41.7-50 63.7-87 136.4-120 209.4 2.6 6.9 19.9 21.6 32.6 27.7a102 102 0 0 0 29.8 9.8c49-63.4 94.7-131.7 125-205.2z"/><path class="cls-8" d="M245 491.6c29-54.8 62.8-114.9 72-131.3-4.1-.9-8.3-1.9-12.4-3-30.3 73.5-76 141.8-125 205.2a53.8 53.8 0 0 0 19.9-.8s11.6-6 45.6-70.1z"/><path class="cls-12" d="M474 281.5a23.6 23.6 0 0 1 3.4-1.6c-12.7-7.6-24.3-16-30.1-29.8a32.9 32.9 0 0 1-2.4-6c3.5 15.5 15.4 27.5 29.2 37.4z"/><path class="cls-13" d="M466 290.4a19.8 19.8 0 0 1 8-9c-13.7-9.8-25.6-21.8-29.1-37.4-6.2-21.6 12.3-42.4 10.9-65.2-9-1.9-14.7-8-20.1-14.6-.9 3-1.6 6-2.3 9-5 23.2 7.5 51-4.5 71.8a155.8 155.8 0 0 1-43.7 46.7c26.7-.6 49.7 14.3 64.2 35.1a34.2 34.2 0 0 1 7.1-11c3.6-3.8 6.5-5.9 7.7-11.1 1-5-.6-9.3 1.7-14.3z"/><path class="cls-12" d="M385.2 291.7a177 177 0 0 1-13.9 9.2l76.3 40a32.5 32.5 0 0 1 1.8-14 76.9 76.9 0 0 0-64.2-35.2z"/><path class="cls-14" d="M465.7 179.5l.3-2.1c-1.9-.2-3.4.7-5.1.6l3.3-4.6c-11.6 2.6-16.6-10.8-25.8-17.5-1 2.8-2 5.5-2.7 8.3 5.4 6.7 11.1 12.8 20 14.7v1.4c3.2-1.5 6.5-.8 10-.8z"/><path class="cls-15" d="M523.6 105.8a89.2 89.2 0 0 0-52.4 9c-16.3 8.4-26.6 24-32.8 41 9.2 6.8 14.2 20.2 25.8 17.6 11.2-15 22.5-28.8 25-47.6a61.4 61.4 0 0 0 7 4.3c20.7 5.6 41 8.5 62 2l3.4-1.4a55.6 55.6 0 0 0-38-24.9z"/><path class="cls-14" d="M443.8 230.7a33.8 33.8 0 0 0 3.4 19.4c5.9 13.9 17.5 22.2 30.2 29.8 9.8-3.7 22.5-1.8 32.4-4.2l2.2-.7c-30.2 3.8-64.3-13.5-68.2-44.3zm21.7-50a13.9 13.9 0 0 1-1.6-.2 13.9 13.9 0 0 0 1.6.2l.2-1.2c-3.5 0-6.8-.7-10 .8v3.5a66.4 66.4 0 0 0 9.3 0l.5-3z"/><path class="cls-15" d="M478 234.4c-26.1 4.2-16.9-29-13-50.6a66.4 66.4 0 0 1-9.3 0v.5c-1 16-10.4 31.2-11.9 46.4 4 30.8 38 48.1 68.3 44.3 15.5-5 23.2-21 31.3-34.5a107.2 107.2 0 0 0-65.4-6z"/><path class="cls-14" d="M496.1 130.1a76.3 76.3 0 0 0 62 2c-21 6.5-41.3 3.6-62-2z"/><path class="cls-12" d="M486.1 196c15 13.3 31.5 5.7 39.6-9.8-14.7-5.2-30.5-3.2-45-3a24.7 24.7 0 0 0 5.4 12.7zm44.5-21.2c.5 1.7-.9 3.4-1.3 5.3a17.4 17.4 0 0 1 15.7 1.5 9.9 9.9 0 0 1 2.4-2.8 26.2 26.2 0 0 0-16.8-4z"/><path class="cls-13" d="M556 218.8a27 27 0 0 0 3.1-10.6l.2-3.3c-8.3 2-14.6-6.1-15-14.6a33.9 33.9 0 0 1 15.7 3.4l.2-1.4c2.4-13.5 9.6-25.4 8.4-40.4a48 48 0 0 0-7-21.2c-23.6 10-51.5 10.1-72.4-4.9-2.7 20.7-16.2 35.3-28.3 52.2 1.7 0 3.2-.9 5-.7 0 1.1-.2 2.2-.4 3.4 5 .5 10.2-1.3 15.2-1a9.3 9.3 0 0 0-.6 2.7l-15.1 1.4c-3.8 21.5-13.1 54.7 13 50.6a107.2 107.2 0 0 1 65.3 6l.5-.8c4.3-6.8 8.5-13.7 12.2-20.8zm-69.8-22.9a24.7 24.7 0 0 1-5.4-12.7c14.5-.2 30.2-2.2 45 3-8.2 15.5-24.6 23.1-39.6 9.7zm58.8-14.3a17.4 17.4 0 0 0-15.7-1.5c.4-1.9 1.8-3.6 1.3-5.3 6.1-.9 11.5 1.1 16.8 4a9.9 9.9 0 0 0-2.4 2.8z"/><path class="cls-12" d="M480.7 179.7c-5-.2-10.2 1.5-15.2 1l-.5 3.1c5-.3 10-1 15-1.4a9.3 9.3 0 0 1 .7-2.8zm78.6 25.2c0-2.5 0-5.2.4-8.3 0-1 .2-2 .3-2.9a33.9 33.9 0 0 0-15.8-3.4c.5 8.5 6.8 16.6 15.1 14.6z"/><path class="cls-16" d="M548.1 177.2l-.8-1.6a18 18 0 0 0-16.6-2.5l-4 3c6.4-4.7 14.7-2.2 21.4 1z"/><path class="cls-12" d="M541.4 215.9a39.2 39.2 0 0 0-1.8-5 32 32 0 0 1-2.3-19.2 29.6 29.6 0 0 0 4.1 24.2zm-21.9 10.4c9.8 6.3 16.8 3.3 20-.2a9 9 0 0 0 1.3-2c-5.8 4.9-14 5.4-21.3 2.2z"/><path class="cls-17" d="M526.8 176.1l3.7 2.2c12.4-1.5 15 2.5 15 2.5l3.7-1.6-1-2c-6.8-3.3-15-5.8-21.5-1z"/><path d="M450 336.7a93.5 93.5 0 0 0-66.2-43.7 93 93 0 0 0-39.4 9.4c-60 28.1-84 102.3-103.8 160a1090 1090 0 0 1-38.4 99C182.7 600.6 94.6 747 61.6 800h158.6c38.6-70.2 91-165.3 102.6-185.9a862.7 862.7 0 0 1 24.4-40.8c35.7-55.8 79.9-107.8 99.7-172.1 6.7-21.6 10.6-44.3 3-64.5z"/><path class="cls-17" d="M453.6 176.4l-1 .2-2.6 3 4.6 2.8 23.4-1.6 6.1-5.5-2.4-2.4a9.8 9.8 0 0 0-1.5.3c-8.3-.5-17.1 6.4-26.6 3.2z"/><path class="cls-16" d="M453.6 176.4c9.5 3.2 18.3-3.7 26.6-3.2a9.8 9.8 0 0 1 1.6-.3l-1.4-1.4z"/><path class="cls-18" d="M529.5 168.9a39.9 39.9 0 0 0-46.8-1c-5 6.6-6.8 15.6-1.4 21.9 10.3 12 31.8 11.3 42.2.3 7.6-8 8.7-15.4 6-21.2z"/><path class="cls-17" d="M529.5 168.9c-5.4-11.7-25.8-16.9-40-7a22.6 22.6 0 0 0-6.8 6 39.9 39.9 0 0 1 46.8 1z"/><path class="cls-18" d="M549.3 173.6c-15 13.7-2.4 36.3 16.6 26 9.4-5.2 11-13.4 8.6-20a23.3 23.3 0 0 0-25.2-6z"/><path class="cls-17" d="M550 173l-.7.5c10-3.4 18.6-.4 25.2 6-3.5-9.2-14.8-15.4-24.5-6.6zM450 336.7a59.6 59.6 0 0 0-12-19.3 71.8 71.8 0 0 0-54.3-24.4 93.4 93.4 0 0 1 66.2 43.7z"/><path class="cls-13" d="M453.4 178.8c-2.4-6.6-6.4-14.3-12.3-16.8a9.7 9.7 0 0 0-4.8-.8c-5.6.4-9.3 6.3-9.9 12.5a8.4 8.4 0 0 0 0 1c3.6 9 9.2 22 20.9 22.9a10.8 10.8 0 0 0 2.8-3.7l4.9-10.2-1.6-4.9z"/><path class="cls-19" d="M207 729.7c-9 15.5-31.8 58.2-38.3 70.3h.2c7.2-12 32.2-53.1 41-68.6 10.4-18.2 40-73.6 40-73.6s-32.6 53.7-43 71.9z"/><path class="cls-12" d="M426.4 174.8c.4 9 12.8 29.4 20.9 22.8-11.7-.9-17.3-14-20.9-22.8z"/><path class="cls-19" d="M152 754.3c-5.7 10-20.2 37-24.9 45.7h.2c5.2-8.5 21-34.6 26.7-44.6 6.8-12 26.3-48.3 26.3-48.3s-21.5 35.3-28.3 47.2zm-52.5 9.9c-4.2 7.3-13.3 24-19.6 35.8h.9c6.9-11.4 16.5-27.4 20.7-34.7 6.8-12 26.3-48.4 26.3-48.4s-21.5 35.3-28.3 47.3z"/><path class="cls-14" d="M504.9 246.5a72.3 72.3 0 0 0-14.6 1.6l-6.7 1.7c-1.7.5-2.8 1-2.8 1l2.9-.6 6.8-1a122.7 122.7 0 0 1 14.3-.4 72.2 72.2 0 0 1 14.2 1.4 26.8 26.8 0 0 1 3.6 1 19.7 19.7 0 0 1 3 1l2.6 1.2-2.5-1.5a19.7 19.7 0 0 0-2.9-1.4 25.5 25.5 0 0 0-3.5-1.4 51.6 51.6 0 0 0-14.4-2.6z"/><path class="cls-20" d="M233.2 521.4c33.5 26 65.7 51.1 104 68.3l4.1-7c-77-30.2-116-77.7-116-77.7l-3.3 9a54.3 54.3 0 0 1 11.2 7.4z"/><path class="cls-21" d="M337.1 589.7c-38.2-17.2-70.4-42.3-104-68.3a54.3 54.3 0 0 0-11.2-7.5q-5 13.3-10.6 26.4c12 11.4 26.2 21 41.2 27.1a76.1 76.1 0 0 0 47.2 27.1c6.2 8.6 14.3 14 24.4 17.4q6.4-11.2 13-22.2z"/><path class="cls-22" d="M299.7 594.5a76.2 76.2 0 0 1-47.2-27 135 135 0 0 1-41.2-27.2l-2.9 7c46.1 44 113.1 66.5 114.4 67l1.3-2.4a47.7 47.7 0 0 1-24.4-17.4z"/><path class="cls-17" d="M293 385.5c21.4-41.3 79.7-105.4 121.6-64.4-23-36.5-77-7-96.8 19.6-12.2 16.5-23.5 33.7-35.8 50.1-13 17.4-29 32.6-41.4 50.5-4 5.6-7.5 10.1-8.3 15 17-27.2 43.9-42.2 60.7-70.8z"/><path d="M359.9 445.4c9.3-17.6 15.9-36.6 24-54.5a12.7 12.7 0 0 1-1.2-.4 12.7 12.7 0 0 0 1.2.4c7 2.2 13-2.2 20.4-6l1-1.2 13.1-55.2a52.1 52.1 0 0 0-3.8-7.4c-41.9-41-100.2 23.1-121.6 64.4-16.8 28.6-43.7 43.6-60.6 70.8-.6 3.6.3 7.5 3.7 12.1a157.7 157.7 0 0 0 39.1 36c10 7 27.8 20.8 41 18 6.2-1.3 9.9-6 12.3-11.7-4.4-25.8 17.2-44.6 31.4-65.3z"/><path class="cls-17" d="M328.5 510.6c3.6-8.6 4.5-19.8 7-26.9a60 60 0 0 1 13.8-20.9c6.5-7 13.2-13.8 17-23.2 6-15.5 9.6-30.2 20.7-43.3 8.3-1.7 15-8.7 17.3-11.4-7.4 3.8-13.5 8.2-20.5 6-8 17.9-14.6 36.9-24 54.5-14 20.8-35.7 39.5-31.3 65.2z"/><path class="cls-19" d="M136 748.4c6.7-12 26.2-48.4 26.2-48.4s-21.4 35.4-28.2 47.3-26.3 48.4-26.3 48.4 21.4-35.3 28.2-47.3zm12.8-76.3c6.8-12 26.3-48.4 26.3-48.4S153.6 659 146.8 671s-26.3 48.4-26.3 48.4 21.4-35.3 28.3-47.3zm77.2-15.9c8.2-14.4 31.5-58 31.5-58s-25.7 42.3-33.9 56.6-31.5 58-31.5 58 25.7-42.3 33.9-56.6zm12.4 6.5c8-14 31-56.8 31-56.8S244 647.4 236 661.4s-31 56.9-31 56.9 25.3-41.5 33.3-55.6zm-54.2 77.7c8-14 31-56.9 31-56.9S189.8 725 181.8 739 151 796 151 796s25.2-41.5 33.2-55.5z"/><path d="M213.7 660.9c-14-3.6-26.6-12.5-40.3-10.2-9 2.8-12 13.4-14.7 24.6 11.3 9 25.1 13.8 38.8 17.5 2-3.7 8.6-17.3 16.2-32z"/><path class="cls-17" d="M173.4 650.7c13.7-2.3 26.2 6.6 40.3 10.2l1-2.1c-15.3-3.7-29.7-7.8-42.4-18.6a250 250 0 0 0-17.2 32l3.6 3c2.6-11.1 5.8-21.7 14.7-24.5z"/><path class="cls-13" d="M284.7 567c11-14 24.9-34.2 32.7-45.8a68 68 0 0 0-15-14.8 167 167 0 0 1-12.8-8.5c-11.4-7.5-22.8-15.6-35.9-19.6a108.7 108.7 0 0 0-17.7 24.8c-11 21.6-38.2 87.4-49.6 109.3-4.1 7.8-9 17.7-14 27.8 12.7 10.8 27 15 42.5 18.6l4.7-7.9c16.3-26.9 49-63.3 65.1-84z"/><path class="cls-12" d="M144.6 756.5c-6.2-2.1-8.3-6.3-10.8-13.3-1.3-8.7-15.8-6.7-18.3-13.7-1-.8-1.8-3.8-1-7.1-1.9 3.3-3 6.4-2.7 9.2 1 11.4 6 5.4 9.7 9.5s1 8.5 5 11.5 7.6-1.1 11.1 2.8-.5 9.1 4.3 12.7 8.6 1.2 12.1 1.2 6.8 12.1 13.9 9.7l2-.7c-9.2-5.3-11.4-20.1-25.3-21.8zm47.8 4c0-8-4-20.9-4-20.9l2.2-.8c8-3.3 13.8-9.2 12.3-14.8l-.7-2.7c-1.4 6.8-5.9 12.6-12.3 13.5a11 11 0 0 1 2.3-8 27 27 0 0 0-6.3 8 27.3 27.3 0 0 0-2.6 6.9 32.2 32.2 0 0 0-.1 12 20.8 20.8 0 0 1 3.4-8.3c4 5.2 5 11 5.2 17.5a6 6 0 0 0 .6-2.4zm128.7-244.8l2.5-3.6s3.1-8.6-19-24.9-39.7-19.2-39.7-19.2-2.6 2-6.5 5.7l-4.7 4.7c13.1 3.9 24.5 12 35.9 19.6 4.1 3 8.4 5.8 12.8 8.4 5.7 4.4 11 9 15 14.9l3.8-5.6z"/><path d="M232.2 458.9c21.3 3.5 34.6 16.5 50.7 29.5a122.6 122.6 0 0 0 24.5 15.8c7 3.3 14.5 4.1 18.7 11 0 0 2.9-6-2.6-16.4s-42.2-37.3-52.2-42.6-28.7-3.2-39 2.7z"/><path class="cls-21" d="M453.8 368l.2-6.8a57.6 57.6 0 0 0-5.6-22c-16.2-28.7-52-44.7-84.6-42a96.6 96.6 0 0 0-28.8 10.2h-.1a135.7 135.7 0 0 0-37 32.7c11.6-8.6 22.6-17.3 35.4-23.1 21.5-12 48-19.7 73.4-7.7a81 81 0 0 1 30.9 24.2 75 75 0 0 1 16.2 34.4z"/><path class="cls-22" d="M437.5 333.5a72.3 72.3 0 0 1 12.8 55.4 130.2 130.2 0 0 0 3.5-21 73.5 73.5 0 0 0-16.3-34.4zM289.1 352a192 192 0 0 1 44.2-35c-12.8 5.8-23.8 14.5-35.4 23.1q-4.5 5.8-8.8 12z"/><path class="cls-20" d="M448.4 339.2a76.6 76.6 0 0 0-32-33.6 75.2 75.2 0 0 0-52.6-8.3c32.6-2.8 68.4 13.1 84.6 42z"/><path class="cls-19" d="M259 662c7-12.3 27.1-49.9 27.1-49.9s-22 36.4-29.1 48.7-27.1 50-27.1 50S252 674.2 259 662zm31.1.6c6.8-12 26.3-48.3 26.3-48.3s-21.4 35.3-28.2 47.2-26.3 48.4-26.3 48.4 21.4-35.3 28.2-47.3zm-7.6-11.8c5.7-10 22.1-40.7 22.1-40.7s-18 29.7-23.8 39.8-22.1 40.7-22.1 40.7 18-29.7 23.8-39.8zm-52 80.2c6.8-12 26.3-48.3 26.3-48.3S235.4 718 228.5 730s-26.3 48.4-26.3 48.4 21.5-35.4 28.3-47.3z"/><path class="cls-23" d="M119.6 738.7c2.5-4.4 9.4-17.7 9.4-17.7s-8 12.8-10.4 17.1l-9.5 17.7s8-12.8 10.5-17.1zm27.9 19.7c2.8-5 10.7-20 10.7-20s-9 14.4-11.8 19.3-10.7 20-10.7 20 9-14.4 11.8-19.3zm-5.7-9.8c3.2-5.5 12-22.5 12-22.5s-10.1 16.2-13.3 21.8-11.9 22.5-11.9 22.5 10-16.2 13.2-21.8zm18.7 12.1c2.8-5 10.6-20 10.6-20s-9 14.4-11.8 19.3-10.6 20-10.6 20 9-14.4 11.8-19.3zm-9.7 5.1c2.8-5 10.7-20 10.7-20s-9 14.4-11.9 19.4-10.6 20-10.6 20 9-14.5 11.8-19.4zm18-4.5c2.8-4.9 10.7-20 10.7-20s-9 14.5-11.8 19.4-10.7 20-10.7 20 9-14.4 11.8-19.4zm-4 18c2.3-4 8.7-16.4 8.7-16.4s-7.4 11.8-9.7 15.9l-8.7 16.3s7.4-11.8 9.7-15.8z"/><path class="cls-24" d="M176.8 770.9c2.8-5 10.6-20 10.6-20s-9 14.4-11.8 19.3-10.6 20-10.6 20 9-14.4 11.8-19.3zm4.6.7l7-13s-6 9.4-7.8 12.6l-6.9 13s5.9-9.3 7.7-12.6z"/><path class="cls-23" d="M131.2 736.3c2.8-5 10.6-20 10.6-20s-9 14.4-11.8 19.3-10.7 20-10.7 20 9-14.4 11.9-19.3zm-4.9 18.8c3.3-5.9 12.7-24 12.7-24s-10.8 17.3-14.1 23.2-12.8 24-12.8 24 10.8-17.3 14.2-23.2zm-13.2-21.8c3.3-5.7 12.3-23 12.3-23s-10.4 16.6-13.6 22.2-12.3 23.1-12.3 23.1 10.4-16.6 13.6-22.3z"/><path class="cls-13" d="M144.3 688.1c-10 12.1-24 24.1-29.8 34.3-.8 3.3 0 6.3 1 7 2.5 7 17 5 18.3 13.8 2.4 7 4.5 11.2 10.7 13.3 14 1.7 16.2 16.5 25.3 21.8 8.2-3.2 19.4-9.5 22-15.3a29.6 29.6 0 0 0-5.2-17.6 20.8 20.8 0 0 0-3.4 8.3 32.2 32.2 0 0 1 .2-12 27.3 27.3 0 0 1 2.5-7 27 27 0 0 1 6.3-7.8 11 11 0 0 0-2.2 7.9c6.4-1 11-6.7 12.3-13.5a177 177 0 0 1-5-26.1 12 12 0 0 1 .2-2.4 96.7 96.7 0 0 1-42.3-20.6 129.3 129.3 0 0 1-11 16z"/><path class="cls-19" d="M214.3 800c4.6-7.5 9-15 11.4-19.2 6.2-11 24-44.3 24-44.3s-19.6 32.3-25.8 43.3c-2.5 4.3-6.8 12.3-11.1 20.2zm-121.1 0l16-29.6L91.3 800zm102.2 0c8.3-15.2 19-35.3 19-35.3L193.3 800zm-124.3 0l5.6-9.5c6.8-12 26.3-48.4 26.3-48.4s-21.5 35.3-28.3 47.3L68.8 800zm109.1 0l17-31.5s-10.4 17-19 31.5zm-21.9 0l1.6-3-1.8 3zm-16.6 0l7.5-14-8.5 14zm-25.9 0l20.7-38.3s-14 23.1-23 38.3z"/><path class="cls-2" d="M0 155.7l115.7 14.6s-8.3-28.4-55.8-34.4A172 172 0 0 0 0 139.7z"/><path class="cls-19" d="M233.7 745c-6.6 11.5-22 40-30 55h.7a5198 5198 0 0 0 31.9-53.4c9-16 35-64.5 35-64.5s-28.6 47-37.6 63z"/><g class="cls-25"><path class="cls-26" d="M561.6 130.7a55.7 55.7 0 0 0-38-24.9 89.2 89.2 0 0 0-52.4 9c-16.3 8.4-26.6 24-32.8 41l-1.8 5.3h-.4c-5.5.5-9.3 6.4-9.8 12.5a8.4 8.4 0 0 0 0 1.2c.1 3.8 2.5 9.7 5.8 14.8.6 19 6 39.3-3.4 55.4a155.8 155.8 0 0 1-43.6 46.7l-1.8 1.3a85.3 85.3 0 0 0-21 2.8 135 135 0 0 0 1.2-22.5 74.5 74.5 0 0 0-1.4-12.7 66.7 66.7 0 0 0-10 5.3 186 186 0 0 0-14.9 10.3 272.6 272.6 0 0 0-1.2-27.4l-1.1-10.6s-35 15-75.5 50.7c-8 7-16.3 15-24.5 23.7a350 350 0 0 0-49 66c-58 101.6-67.8 139-69 144.4a3.6 3.6 0 0 0 .3 2 21.9 21.9 0 0 0 4.2 6.1 40.2 40.2 0 0 1-.7 12 42 42 0 0 1-6 14.3s-1.5 1.3-3.9 4c-5.5 6-10.6 7.7-26.2 40.2S4.7 793.3 1.8 800h39.5c11-20.8 21.8-39.5 30.3-53.1a899.6 899.6 0 0 1 67.9-93.2c32.2-39.5 38.4-67.7 38.4-67.7s6-14.5 16.6-23.4a49.4 49.4 0 0 0 5-.9s1.3-.7 4.4-4l-1.7 3.7C182.7 600.6 94.6 747 61.6 800h158.6c38.6-70 90.9-165 102.6-185.7l1.3-2.4q6.4-11.2 13-22.2l4.1-6.8 6-9.6c35.8-55.8 79.9-107.8 99.8-172.1 1.2-4 2.3-8.2 3.3-12.3l.6-2.5.1-.4.5-2.3c3.3-16 4-32.3-1.6-47q-.9-2.3-2-4.5a28.4 28.4 0 0 1 1.5-5.3 34.2 34.2 0 0 1 7.1-11c3.6-3.8 6.5-5.9 7.7-11.2 1-5-.6-9.3 1.7-14.3a19.8 19.8 0 0 1 8.2-9 23.6 23.6 0 0 1 3.3-1.5c9.8-3.7 22.5-1.9 32.4-4.3l2.2-.6c15.6-5 23.3-21.1 31.4-34.6l.5-.8c4.2-6.9 8.4-13.7 12-20.8a27 27 0 0 0 3.2-10.6l.2-3.3v-3a21.7 21.7 0 0 0 6.6-2.4c9.4-5.1 11-13.3 8.6-20a17.5 17.5 0 0 0-8-9.3 51.4 51.4 0 0 0 2-18.4 48 48 0 0 0-7-21.2m-129.3 56.2zm33.1-5z"/></g></g></g></svg>