<svg id="Vector" xmlns="http://www.w3.org/2000/svg" width="1280" height="800" viewBox="0 0 1280 800">
  <defs>
    <style>
      .cls-1 {
        fill: #f1f7ed;
        opacity: 0.25;
      }

      .cls-2 {
        fill: #ff6c45;
      }

      .cls-3 {
        fill: #3a2e39;
      }

      .cls-4 {
        fill: #1e181e;
      }

      .cls-5 {
        fill: #cf5c36;
      }

      .cls-6 {
        fill: #9b422a;
      }

      .cls-7 {
        fill: #6b566a;
      }

      .cls-8 {
        fill: #ccb293;
      }

      .cls-9 {
        fill: #f0dbbd;
      }

      .cls-10 {
        fill: #b28b60;
      }

      .cls-11 {
        fill: #ccab81;
      }

      .cls-12 {
        fill: #666;
      }

      .cls-13 {
        fill: #444;
      }

      .cls-14 {
        fill: #222;
      }

      .cls-15 {
        fill: #f97412;
      }

      .cls-16 {
        fill: #fcb21d;
      }

      .cls-17 {
        fill: #fbfef9;
        opacity: 0.75;
      }

      .cls-18 {
        fill: #7c5e48;
      }

      .cls-19 {
        fill: #fcfaf9;
      }

      .cls-20 {
        fill: #4c321b;
      }

      .cls-21 {
        fill: #3a2312;
      }
    </style>
  </defs>
  <title>title-card</title>
  <path class="cls-1" d="M855.29,97.58l337.07,42.64c-16.58-28.64-52.8-21.84-79.74-27.78-38-8.36-52.19-44.76-87.31-57.24-28.42-10.1-44.78-.31-66.57,13.83C925.2,90.78,897,97.14,855.29,97.58Z" transform="translate(0 0)"/>
  <path class="cls-1" d="M68.82,389.64l296.93,37.57c-18.93-44.88-68.61-57.32-112.8-52C190.17,382.64,133.33,393.77,68.82,389.64Z" transform="translate(0 0)"/>
  <path class="cls-1" d="M723.62,578.61l288.25,36.47s-15.66-44-72-51.09S866.78,587.76,723.62,578.61Z" transform="translate(0 0)"/>
  <path class="cls-1" d="M362.33,26.9,558.72,51.74S552.79,35.81,516,35.92C483.78,36,482.45-1.39,445.64,0,413.23,1.3,434.4,26.15,362.33,26.9Z" transform="translate(0 0)"/>
  <path class="cls-1" d="M664,324.62l182.55,23.1C817.19,282.51,715.19,325.62,664,324.62Z" transform="translate(0 0)"/>
  <path class="cls-1" d="M69,147.2l182.55,23.09s-8.29-28.35-55.81-34.36S125.35,148.3,69,147.2Z" transform="translate(0 0)"/>
  <path class="cls-2" d="M461.22,285.93l-.64,8.73c9-9.6,17.76-19.62,27.45-28.75C475.15,273.84,461.22,285.93,461.22,285.93Z" transform="translate(0 0)"/>
  <path class="cls-3" d="M256.6,543.13a41.92,41.92,0,0,1-6,14.33S280.36,584,308.52,586C301.76,564.75,279.75,551.79,256.6,543.13Z" transform="translate(0 0)"/>
  <path class="cls-4" d="M334.4,559.66c13.06-8-78-33.84-78-33.84a37.24,37.24,0,0,1,.25,17.31c23.15,8.66,45.16,21.62,51.92,42.84a45.68,45.68,0,0,0,5.23.08S321.34,567.67,334.4,559.66Z" transform="translate(0 0)"/>
  <path class="cls-5" d="M499.43,273.35a74.45,74.45,0,0,0-1.31-12.71A66.72,66.72,0,0,0,488,265.91c-9.69,9.13-18.42,19.15-27.45,28.75L456,356.9C472.91,330.75,496.29,304.65,499.43,273.35Z" transform="translate(0 0)"/>
  <path class="cls-6" d="M487.33,336.29c11-27.55,12.53-49.86,12.1-62.94-3.14,31.3-26.52,57.4-43.48,83.55l-.6,8.06Z" transform="translate(0 0)"/>
  <path class="cls-2" d="M370.86,312.6c.72,1,1.48,2,2.24,3q10.71-13.64,22.25-26.69C387.32,296,379.09,303.85,370.86,312.6Z" transform="translate(0 0)"/>
  <path class="cls-5" d="M440.46,357.3c14.43-35,25.37-71.11,31.55-108.46-.33-3.47-.69-7-1.16-10.62,0,0-35,15-75.5,50.69q-11.55,13-22.25,26.69C388.75,336,413.8,349.88,440.46,357.3Z" transform="translate(0 0)"/>
  <path class="cls-6" d="M455.36,356S478.71,320.81,472,248.84c-6.18,37.35-17.12,73.49-31.55,108.46,4.12,1.15,8.28,2.15,12.45,3Z" transform="translate(0 0)"/>
  <path class="cls-7" d="M373.1,315.6c-.76-1-1.52-2-2.24-3a350.46,350.46,0,0,0-49,66.09c-58,101.5-67.76,138.85-69,144.3a3.65,3.65,0,0,0,.27,2C286.12,452,323.08,379.26,373.1,315.6Z" transform="translate(0 0)"/>
  <path class="cls-3" d="M440.46,357.3c-26.66-7.42-51.71-21.29-67.36-41.7-50,63.66-87,136.44-120,209.42,2.51,6.88,19.84,21.57,32.58,27.69,8.83,4.24,19.09,8.33,29.82,9.79C364.46,499.09,410.13,430.79,440.46,357.3Z" transform="translate(0 0)"/>
  <path class="cls-4" d="M380.9,491.57c29-54.74,62.77-114.87,72-131.27-4.17-.85-8.33-1.85-12.45-3-30.33,73.49-76,141.79-124.95,205.2a53.78,53.78,0,0,0,19.87-.8S346.9,555.67,380.9,491.57Z" transform="translate(0 0)"/>
  <path class="cls-8" d="M609.9,281.47a24,24,0,0,1,3.36-1.58c-12.75-7.56-24.33-15.94-30.16-29.81a32.88,32.88,0,0,1-2.39-6.05C584.29,259.59,596.19,271.58,609.9,281.47Z" transform="translate(0 0)"/>
  <path class="cls-9" d="M601.76,290.44a19.77,19.77,0,0,1,8.14-9c-13.71-9.89-25.61-21.88-29.19-37.44-6.21-21.61,12.31-42.35,10.89-65.17-8.9-1.89-14.65-7.94-20.08-14.61-.86,3-1.61,6-2.26,9-5,23.21,7.49,51-4.54,71.74-10.47,18.1-26.31,34.22-43.63,46.71,26.7-.53,49.65,14.37,64.2,35.13a34.21,34.21,0,0,1,7.1-11c3.53-3.81,6.49-5.86,7.63-11.12C601.11,299.75,599.42,295.36,601.76,290.44Z" transform="translate(0 0)"/>
  <path class="cls-8" d="M521.09,291.74c-4.57,3.3-9.24,6.36-14,9.12l76.26,40.06a32.25,32.25,0,0,1,1.89-14.05C570.74,306.11,547.79,291.21,521.09,291.74Z" transform="translate(0 0)"/>
  <path class="cls-10" d="M601.52,179.47c.11-.71.21-1.43.29-2.09-1.82-.22-3.34.7-5.11.66q1.68-2.32,3.39-4.61c-11.67,2.57-16.66-10.79-25.85-17.53-1,2.76-1.92,5.55-2.72,8.35C577,170.92,582.7,177,591.6,178.86c0,.47,0,.94,0,1.41C594.78,178.77,598.09,179.46,601.52,179.47Z" transform="translate(0 0)"/>
  <path class="cls-11" d="M659.44,105.82c-17-2.87-37.14,1.23-52.36,9-16.34,8.37-26.63,24-32.84,41.06,9.19,6.74,14.18,20.1,25.85,17.53,11.19-15.06,22.5-28.81,24.89-47.6a61.41,61.41,0,0,0,7,4.27c20.75,5.61,41.07,8.49,62,2,1.17-.43,2.34-.88,3.48-1.36C689.32,117.6,675.25,108.48,659.44,105.82Z" transform="translate(0 0)"/>
  <path class="cls-10" d="M579.63,230.68a33.69,33.69,0,0,0,3.47,19.4c5.83,13.87,17.41,22.25,30.16,29.81,9.76-3.68,22.49-1.81,32.42-4.23.76-.18,1.49-.42,2.21-.66C617.63,278.82,583.58,261.53,579.63,230.68Z" transform="translate(0 0)"/>
  <path class="cls-10" d="M601.33,180.72a13.87,13.87,0,0,1-1.56-.2,13.87,13.87,0,0,0,1.56.2c.07-.42.13-.84.19-1.25-3.43,0-6.74-.7-9.88.8,0,1.18,0,2.36-.06,3.54a66.41,66.41,0,0,0,9.25,0v-.07C601,182.69,601.18,181.7,601.33,180.72Z" transform="translate(0 0)"/>
  <path class="cls-11" d="M613.88,234.44c-26.14,4.12-16.87-29.1-13-50.63a66.41,66.41,0,0,1-9.25,0c0,.17,0,.35,0,.53-1.08,16-10.43,31.12-11.94,46.34,4,30.85,38,48.14,68.26,44.32,15.57-5,23.22-21.06,31.34-34.55A107.2,107.2,0,0,0,613.88,234.44Z" transform="translate(0 0)"/>
  <path class="cls-10" d="M632,130.1c18.83,10,41.75,9.52,62,2C673,138.59,652.7,135.71,632,130.1Z" transform="translate(0 0)"/>
  <path class="cls-8" d="M622,195.93c15,13.38,31.46,5.8,39.6-9.76-14.75-5.2-30.5-3.22-45-3A24.62,24.62,0,0,0,622,195.93Z" transform="translate(0 0)"/>
  <path class="cls-8" d="M666.44,174.82c.54,1.67-.85,3.4-1.29,5.26a17.44,17.44,0,0,1,15.74,1.53,9.9,9.9,0,0,1,2.43-2.77C678,175.94,672.59,173.92,666.44,174.82Z" transform="translate(0 0)"/>
  <path class="cls-9" d="M691.84,218.79a27.22,27.22,0,0,0,3.13-10.6c.1-1.08.15-2.18.19-3.29-8.32,2-14.64-6.11-15.08-14.61a33.9,33.9,0,0,1,15.79,3.42c.08-.48.15-1,.23-1.44,2.39-13.51,9.62-25.38,8.35-40.34a47.84,47.84,0,0,0-7.05-21.24c-23.55,9.93-51.48,10.14-72.42-4.86-2.63,20.7-16.09,35.27-28.28,52.21,1.77,0,3.29-.88,5.11-.66-.12,1.06-.28,2.18-.47,3.34,5,.51,10.17-1.24,15.2-1.07a9.35,9.35,0,0,0-.61,2.76c-5.15.41-10.17,1.07-15.1,1.4-3.82,21.53-13.09,54.75,13,50.63a107.2,107.2,0,0,1,65.35,6l.51-.84C683.9,232.77,688.13,225.89,691.84,218.79ZM622,195.93a24.62,24.62,0,0,1-5.36-12.73c14.46-.25,30.21-2.23,45,3C653.46,201.73,637,209.31,622,195.93Zm58.89-14.32a17.44,17.44,0,0,0-15.74-1.53c.44-1.86,1.83-3.59,1.29-5.26,6.15-.9,11.58,1.12,16.88,4A9.9,9.9,0,0,0,680.89,181.61Z" transform="translate(0 0)"/>
  <path class="cls-8" d="M616.54,179.65c-5-.17-10.19,1.58-15.2,1.07-.15,1-.33,2-.51,3.09,4.93-.33,9.95-1,15.1-1.4A9.35,9.35,0,0,1,616.54,179.65Z" transform="translate(0 0)"/>
  <path class="cls-8" d="M695.16,204.9c.08-2.54.08-5.2.35-8.33.09-1,.22-1.92.36-2.86a33.9,33.9,0,0,0-15.79-3.42C680.52,198.79,686.84,206.89,695.16,204.9Z" transform="translate(0 0)"/>
  <path class="cls-12" d="M684,177.18l-.85-1.55a18,18,0,0,0-16.54-2.54l-4.1,3,.12.06C669,171.38,677.22,173.87,684,177.18Z" transform="translate(0 0)"/>
  <path class="cls-8" d="M677.25,215.89a40.81,40.81,0,0,0-1.78-5c-3.12-7.47-3.43-13.77-2.34-19.14C670.67,199,672.58,208.86,677.25,215.89Z" transform="translate(0 0)"/>
  <path class="cls-8" d="M655.34,226.31c9.81,6.28,16.8,3.31,20-.24a9,9,0,0,0,1.34-1.95C670.9,229,662.58,229.46,655.34,226.31Z" transform="translate(0 0)"/>
  <path class="cls-13" d="M662.6,176.11l3.72,2.18c12.42-1.46,15,2.5,15,2.5l3.74-1.61-1.11-2C677.22,173.87,669,171.38,662.6,176.11Z" transform="translate(0 0)"/>
  <path class="cls-13" d="M589.46,176.43l-1.07.19-2.55,3.07,4.61,2.7,23.44-1.54,6.14-5.51-2.4-2.4a9.82,9.82,0,0,0-1.57.29C607.75,172.68,599,179.56,589.46,176.43Z" transform="translate(0 0)"/>
  <path class="cls-12" d="M589.46,176.43c9.49,3.13,18.29-3.75,26.6-3.2a9.82,9.82,0,0,1,1.57-.29l-1.41-1.42Z" transform="translate(0 0)"/>
  <path class="cls-14" d="M665.34,168.87a39.86,39.86,0,0,0-46.8-.9c-4.95,6.49-6.75,15.49-1.36,21.8,10.32,12.06,31.76,11.3,42.18.36C667,182.14,668,174.7,665.34,168.87Z" transform="translate(0 0)"/>
  <path class="cls-13" d="M665.34,168.87c-5.37-11.62-25.8-16.82-39.93-7a22.59,22.59,0,0,0-6.87,6.09A39.86,39.86,0,0,1,665.34,168.87Z" transform="translate(0 0)"/>
  <path class="cls-14" d="M685.16,173.55c-15,13.75-2.39,36.38,16.59,26,9.39-5.12,11-13.32,8.55-20C703.71,173.12,695.06,170.06,685.16,173.55Z" transform="translate(0 0)"/>
  <path class="cls-13" d="M685.82,172.94c-.24.2-.44.41-.66.61,9.9-3.49,18.55-.43,25.14,6C706.88,170.35,695.54,164.05,685.82,172.94Z" transform="translate(0 0)"/>
  <path class="cls-13" d="M585.77,336.74a59.59,59.59,0,0,0-12-19.37C558.37,300.57,539.4,293,519.6,293,546.71,297,571.76,313.15,585.77,336.74Z" transform="translate(0 0)"/>
  <path class="cls-9" d="M589.25,178.82c-2.43-6.58-6.45-14.27-12.33-16.81a9.73,9.73,0,0,0-4.81-.85c-5.54.48-9.3,6.33-9.85,12.5a8.44,8.44,0,0,0,0,1.13c3.64,8.84,9.2,21.91,20.89,22.8a11,11,0,0,0,2.76-3.71l4.94-10.21C590.42,182.21,589.88,180.55,589.25,178.82Z" transform="translate(0 0)"/>
  <path class="cls-8" d="M562.25,174.79c.4,9,12.78,29.42,20.89,22.8C571.45,196.7,565.89,183.63,562.25,174.79Z" transform="translate(0 0)"/>
  <path class="cls-10" d="M640.7,246.48a72.28,72.28,0,0,0-14.51,1.63c-2.62.56-5,1.2-6.76,1.71s-2.82.92-2.82.92,1.12-.25,2.9-.56,4.22-.65,6.86-.92a122.7,122.7,0,0,1,14.29-.45,72.07,72.07,0,0,1,14.13,1.4,26.56,26.56,0,0,1,3.63,1,19.68,19.68,0,0,1,2.94,1.06l2.71,1.17-2.55-1.5a19.73,19.73,0,0,0-2.84-1.42,25.54,25.54,0,0,0-3.57-1.4A51.65,51.65,0,0,0,640.7,246.48Z" transform="translate(0 0)"/>
  <path class="cls-15" d="M223.43,604.87a191.75,191.75,0,0,1,23.38-43.5c-5.51,6-16.12,19.16-26.19,40.24Q222,603.25,223.43,604.87Z" transform="translate(0 0)"/>
  <path class="cls-15" d="M271.49,650.73l3.81,3c32.28-39.52,38.45-67.64,38.45-67.64l-.5-.41C303.5,610.07,288.64,631.49,271.49,650.73Z" transform="translate(0 0)"/>
  <path class="cls-16" d="M250.65,557.46s-1.44,1.29-3.84,3.91a191.75,191.75,0,0,0-23.38,43.5,351.73,351.73,0,0,0,48.06,45.86c17.15-19.24,32-40.66,41.76-65.09C281.49,558.52,250.65,557.46,250.65,557.46Z" transform="translate(0 0)"/>
  <path class="cls-17" d="M271.1,567.39s-20.18,9-33.8,52.57q10.42,10.71,21.77,20.51c29.42-35.49,33.69-60.91,33.69-60.91C288.89,567.54,271.1,567.39,271.1,567.39Z" transform="translate(0 0)"/>
  <path d="M519.6,293c-13,0-26.4,3.26-39.38,9.36-60,28.18-83.89,102.33-103.79,160-11.57,33.52-23.61,66.77-38.38,99-15.59,34-37.41,64.68-60.33,94.17a347.88,347.88,0,0,0,126.6,59.9c26-47.56,49.61-96.52,78.76-142.13,35.7-55.84,79.85-107.8,99.7-172.14,6.64-21.52,10.55-44.31,3-64.42C571.76,313.15,546.71,297,519.6,293Z" transform="translate(0 0)"/>
  <polygon class="cls-5" points="0 571.88 0 800 1280 800 1280 769.48 0 571.88"/>
  <path class="cls-18" d="M369,521.37c33.54,26,65.7,51.15,103.93,68.35,1.42-2.34,2.8-4.7,4.24-7v0c-77-30.23-116-77.69-116-77.69l0,0q-1.68,4.49-3.39,9A54.26,54.26,0,0,1,369,521.37Z" transform="translate(0 0)"/>
  <polyline class="cls-6" points="1280 782.15 1280 767.19 0 567.84 0 582.8 1280 782.15"/>
  <polyline class="cls-19" points="1280 778.75 1280 763.79 0 564.44 0 579.4 1280 778.75"/>
  <path class="cls-20" d="M473,589.72c-38.23-17.2-70.39-42.36-103.93-68.35a54.26,54.26,0,0,0-11.24-7.43q-5.08,13.26-10.6,26.36c12.06,11.41,26.14,21,41.14,27.12,11.65,14,28.28,24.39,47.19,27.1,6.2,8.53,14.28,14,24.46,17.38Q466.33,600.73,473,589.72Z" transform="translate(0 0)"/>
  <path class="cls-21" d="M435.51,594.52c-18.91-2.71-35.54-13.12-47.19-27.1-15-6.11-29.08-15.71-41.14-27.12-1,2.33-1.91,4.67-2.91,7v0c46.1,44.05,113.07,66.52,114.35,67,.45-.79.91-1.57,1.35-2.36C449.79,608.56,441.71,603.05,435.51,594.52Z" transform="translate(0 0)"/>
  <path class="cls-13" d="M428.87,385.52c21.39-41.28,79.73-105.44,121.56-64.41-22.9-36.54-76.88-6.93-96.72,19.64-12.27,16.44-23.5,33.63-35.81,50.05-13,17.42-29,32.64-41.46,50.46-4,5.69-7.45,10.19-8.23,15C385.11,429.13,412,414.12,428.87,385.52Z" transform="translate(0 0)"/>
  <path d="M495.73,445.4c9.28-17.65,15.9-36.64,24-54.49a11.84,11.84,0,0,1-1.22-.43,11.84,11.84,0,0,0,1.22.43c.82-1.81,1.66-3.62,2.51-5.41-.85,1.79-1.69,3.6-2.51,5.41,7,2.2,13.09-2.23,20.42-6.06.59-.69.92-1.12.92-1.12l13.21-55.23a52.13,52.13,0,0,0-3.82-7.39c-41.83-41-100.17,23.13-121.56,64.41-16.86,28.6-43.76,43.61-60.66,70.76-.6,3.64.32,7.48,3.7,12.17,10.29,14.29,24.82,26.05,39.19,36,9.94,6.88,27.74,20.72,40.92,17.93,6.23-1.32,9.9-5.93,12.34-11.73C460,484.89,481.58,466.15,495.73,445.4Z" transform="translate(0 0)"/>
  <path class="cls-13" d="M464.36,510.63c3.62-8.62,4.5-19.86,6.94-26.9,2.92-8.45,8.29-14.79,13.88-20.92,6.45-7.05,13.2-13.82,16.88-23.19,6.11-15.55,9.7-30.19,20.78-43.28,8.32-1.79,14.94-8.75,17.28-11.49-7.33,3.83-13.44,8.26-20.42,6.06-8.07,17.85-14.69,36.84-24,54.49C481.58,466.15,460,484.89,464.36,510.63Z" transform="translate(0 0)"/>
  <path d="M349.52,660.89c-14.06-3.55-26.6-12.46-40.24-10.18-8.95,2.77-12.12,13.37-14.7,24.57,11.28,9,25.07,13.84,38.76,17.51C335.42,689.14,341.9,675.46,349.52,660.89Z" transform="translate(0 0)"/>
  <path class="cls-13" d="M309.28,650.71c13.64-2.28,26.18,6.63,40.24,10.18.36-.7.73-1.4,1.1-2.1-15.4-3.65-29.8-7.81-42.5-18.56A250,250,0,0,0,291,672.16c1.17,1.1,2.39,2.13,3.62,3.12C297.16,664.08,300.33,653.48,309.28,650.71Z" transform="translate(0 0)"/>
  <path class="cls-9" d="M420.56,566.92c10.92-14,24.84-34.12,32.71-45.68-4.06-5.84-9.37-10.51-15.07-14.86-4.4-2.64-8.64-5.47-12.78-8.45-11.34-7.51-22.74-15.65-35.83-19.6a108.72,108.72,0,0,0-17.79,24.82c-11,21.58-38.23,87.36-49.64,109.26-4.08,7.82-8.91,17.67-14,27.82,12.7,10.75,27.1,14.91,42.5,18.56,1.48-2.46,3.05-5.07,4.75-7.87C371.73,624,404.44,587.57,420.56,566.92Z" transform="translate(0 0)"/>
  <path class="cls-9" d="M280.1,688.15c-10,12.05-24,24.1-29.76,34.21-.79,3.35-.08,6.29,1,7.13,2.49,7,17,5,18.26,13.69,2.49,7.05,4.56,11.2,10.79,13.27,13.89,1.73,16.16,16.54,25.29,21.81,8.2-3.14,19.35-9.43,22-15.31-.21-6.49-1.31-12.3-5.19-17.56a20.76,20.76,0,0,0-3.47,8.32,32.21,32.21,0,0,1,.19-12,27.3,27.3,0,0,1,2.5-6.93,26.91,26.91,0,0,1,6.31-7.87,11,11,0,0,0-2.22,7.91c6.39-.94,10.91-6.71,12.26-13.5-1.8-7.24-4.72-20.3-4.91-26.11a12.88,12.88,0,0,1,.19-2.4c-15.19-4.07-30.51-9.53-42.38-20.63A129.33,129.33,0,0,1,280.1,688.15Z" transform="translate(0 0)"/>
  <path class="cls-8" d="M280.43,756.45c-6.23-2.07-8.3-6.22-10.79-13.27-1.25-8.71-15.77-6.64-18.26-13.69-1.12-.84-1.83-3.78-1-7.13-1.89,3.3-2.93,6.39-2.68,9.21,1,11.46,5.9,5.39,9.64,9.48s1,8.56,5,11.52,7.62-1.09,11.15,2.85-.55,9.1,4.22,12.68,8.63,1.17,12.15,1.21,6.78,12.13,13.86,9.7c.65-.22,1.34-.48,2.06-.75C296.59,773,294.32,758.18,280.43,756.45Z" transform="translate(0 0)"/>
  <path class="cls-8" d="M328.24,760.54c0-8.09-4-20.9-4-20.9.75-.25,1.48-.54,2.2-.83,8-3.34,13.79-9.21,12.31-14.78-.2-.77-.44-1.69-.7-2.73-1.35,6.79-5.87,12.56-12.26,13.5a11,11,0,0,1,2.22-7.91,26.91,26.91,0,0,0-6.31,7.87,27.3,27.3,0,0,0-2.5,6.93,32.21,32.21,0,0,0-.19,12,20.76,20.76,0,0,1,3.47-8.32c3.88,5.26,5,11.07,5.19,17.56A6,6,0,0,0,328.24,760.54Z" transform="translate(0 0)"/>
  <path class="cls-8" d="M457,515.73l2.42-3.6s3.18-8.64-19-24.92S400.75,468,400.75,468s-2.64,2-6.52,5.69c-1.41,1.33-3,2.9-4.64,4.66,13.09,3.95,24.49,12.09,35.82,19.6,4.16,3,8.42,5.84,12.83,8.48,5.69,4.35,11,9,15,14.83C454.74,519.09,456,517.19,457,515.73Z" transform="translate(0 0)"/>
  <path d="M368.06,458.86c21.28,3.57,34.6,16.56,50.73,29.5a122,122,0,0,0,24.48,15.83c6.94,3.28,14.5,4.13,18.65,11.1,0,0,2.89-6.09-2.59-16.52s-42.21-37.31-52.21-42.54S378.44,453,368.06,458.86Z" transform="translate(0 0)"/>
  <path class="cls-20" d="M589.61,367.92q.25-3.39.26-6.75a57.34,57.34,0,0,0-5.57-21.95c-16.28-28.77-52.08-44.69-84.69-41.94a96.6,96.6,0,0,0-28.77,10.14l-.13,0c-14.38,8.46-26.5,19.72-36.91,32.71,11.58-8.63,22.51-17.32,35.36-23.13,21.44-12,48-19.72,73.36-7.73,14.32,6.77,24.14,15.29,30.87,24.22C582.12,343.14,586.9,355.41,589.61,367.92Z" transform="translate(0 0)"/>
  <path class="cls-21" d="M573.39,333.51c19.36,25.69,12.93,54.79,12.79,55.4a130.23,130.23,0,0,0,3.43-21C586.9,355.41,582.12,343.14,573.39,333.51Z" transform="translate(0 0)"/>
  <path class="cls-21" d="M425,352.08c1.38-1.53,19.35-21.17,44.16-35.06-12.85,5.81-23.78,14.5-35.36,23.13Q429.18,345.91,425,352.08Z" transform="translate(0 0)"/>
  <path class="cls-18" d="M584.3,339.22c-5-10.71-14.35-23.29-32.07-33.65-18.51-10.84-37.59-11.08-52.62-8.29C532.22,294.53,568,310.45,584.3,339.22Z" transform="translate(0 0)"/>
</svg>
