<svg xmlns="http://www.w3.org/2000/svg" viewBox="0 0 611.27 679.37"><defs><style>.cls-1{isolation:isolate}.cls-2{fill:#4c2e45}.cls-3{fill:#507dbc}.cls-21,.cls-4,.cls-7{fill:#fbfef9}.cls-5{mix-blend-mode:soft-light}.cls-6{fill:url(#radial-gradient)}.cls-7{opacity:.5}.cls-8{fill:#bc5151}.cls-9{fill:#444}.cls-10{fill:#222}.cls-11{fill:#aa3737}.cls-12{fill:#912929}.cls-13{fill:#888}.cls-14{fill:#666}.cls-15{fill:#ccb293}.cls-16{fill:#f0dbbd}.cls-17{fill:#b28b60}.cls-18{fill:#ccab81}.cls-19{fill:#f97412}.cls-20{fill:#fcb21d}.cls-21{opacity:.75}.cls-22{fill:#7c5e48}.cls-23{fill:#4c321b}.cls-24{fill:#3a2312}</style><radialGradient id="radial-gradient" cx="659.8" cy="289" r="749.4" gradientTransform="rotate(16.9 316 350)" gradientUnits="userSpaceOnUse"><stop offset="0" stop-color="#649ceb"/><stop offset=".5" stop-color="#395986"/><stop offset="1" stop-color="#0b111c"/></radialGradient></defs><title>title-card</title><g class="cls-1"><g id="Layer_1" data-name="Layer 1"><path class="cls-2" d="M543.4 301.6a249 249 0 1 0-9.4 98.1 247.4 247.4 0 0 0 9.4-98.1zm-471.3-42q1.3-4.4 2.8-8.6-1.5 4.2-2.8 8.6t-2.4 8.7l2.4-8.7zM67.5 277l-2.2 11.7q1-5.8 2.3-11.6zM78 242.6q2.2-5.6 4.6-11-2.4 5.4-4.6 11z" transform="translate(-.1 .2)"/><path class="cls-3" d="M294.5 565.3A241.5 241.5 0 1 1 437 518.7a241.4 241.4 0 0 1-142.4 46.6z" transform="translate(-.1 .2)"/><path class="cls-4" d="M294.4 89.5a234 234 0 0 1 68 10.1 234.4 234.4 0 0 1-67.9 458.8 234.4 234.4 0 0 1-68.1-10.1 234.5 234.5 0 0 1 68-458.8m0-14a249.4 249.4 0 1 0 72.1 10.8 246.9 246.9 0 0 0-72.1-10.7z" transform="translate(-.1 .2)"/><g class="cls-5"><circle class="cls-6" cx="294.3" cy="324.1" r="234.4"/></g><path class="cls-7" d="M500.4 436a234.7 234.7 0 0 0 12-25.9A146.9 146.9 0 0 0 492 404c-36.5-8.7-63.7 3.7-107.4-3.1zM189.5 177.6s-6.6-22.9-38.5-36l-2.6-1a233 233 0 0 0-20.5 18.4zM103 255.2l61.1 18.5s-1.7-10-13.7-13.7-16.7 2.5-47.4-4.8zm151.7-130.3l114 34.6s-2-10-23.7-13.7c-19.2-3.2-16.2-25.5-38.2-28.4-19.3-2.6-9.3 14.3-52.1 7.5zm25.7 376.2L362 526s-1.6-13.6-22.9-20-33.2.1-58.8-4.8z" transform="translate(-.1 .2)"/><path class="cls-8" d="M287 261.9l-1.5 5.7c7-5.3 14-11 21.4-16a164.4 164.4 0 0 0-20 10.3z" transform="translate(-.1 .2)"/><path class="cls-9" d="M123 408.6a28.4 28.4 0 0 1-5.5 8.8s16.6 20.9 35 25.3c-2.2-14.7-15.2-25.8-29.5-34z" transform="translate(-.1 .2)"/><path class="cls-10" d="M172.4 428.3c9.6-3.8-47.7-31.1-47.7-31.1a24.9 24.9 0 0 1-1.7 11.4c14.3 8.3 27.4 19.4 29.4 34.1a29.7 29.7 0 0 0 3.5.7s7-11.3 16.5-15.1z" transform="translate(-.1 .2)"/><path class="cls-11" d="M313.5 257.9a50 50 0 0 0 .6-8.6 44.8 44.8 0 0 0-7.3 2.4c-7.4 5-14.3 10.6-21.3 15.9l-10 40.5c14-15.3 32.5-30 38-50.2z" transform="translate(-.1 .2)"/><path class="cls-12" d="M298.5 298a104 104 0 0 0 15-40.1c-5.6 20.3-24 34.9-38.1 50.2l-1.3 5.3z" transform="translate(-.1 .2)"/><path class="cls-8" d="M224.3 269.3l1.1 2.3q8.6-7.8 17.7-15.2c-6.1 3.8-12.4 8-18.8 13z" transform="translate(-.1 .2)"/><path class="cls-11" d="M265.2 306.7a332.5 332.5 0 0 0 33-68l.4-7.2s-24.8 6-55.5 25q-9.1 7.3-17.7 15.1c8 15.2 23 27.2 39.8 35z" transform="translate(-.1 .2)"/><path class="cls-12" d="M275.2 307.4s19.3-20.5 23-68.8a332.5 332.5 0 0 1-33 68 118 118 0 0 0 7.9 3.4l2-2.6z" transform="translate(-.1 .2)"/><path class="cls-13" d="M225.4 271.6l-1.1-2.3a234.4 234.4 0 0 0-39.8 38.1c-49.7 60.5-60.3 84-61.8 87.5a2.4 2.4 0 0 0 0 1.4c30-44.5 62.5-88.3 102.7-124.7z" transform="translate(-.1 .2)"/><path class="cls-14" d="M265.2 306.7a85.3 85.3 0 0 1-39.8-35.1c-40.2 36.4-72.7 80.2-102.7 124.7.9 4.8 10.7 16.4 18.4 22a68.3 68.3 0 0 0 18.6 9.7c39.4-36.3 77.2-76.3 105.5-121.3z" transform="translate(-.1 .2)"/><path class="cls-9" d="M210.8 388.6A4424 4424 0 0 1 273 310a135 135 0 0 1-8-3.3c-28.2 45-66 85-105.4 121.3a36 36 0 0 0 13.2 1.7s8.3-2.6 37.9-41.1z" transform="translate(-.1 .2)"/><path class="cls-15" d="M385.5 275.7a15.3 15.3 0 0 1 2.4-.7c-7.5-6.4-14.3-13.3-16.5-23a22.4 22.4 0 0 1-1-4.3c.7 10.6 7.2 19.9 15.1 28z" transform="translate(-.1 .2)"/><path class="cls-16" d="M379.1 280.7a13.2 13.2 0 0 1 6.4-5c-8-8.1-14.4-17.4-15-28-1.7-15 12.9-26.6 14.5-41.8-5.6-2.3-8.7-7-11.6-12l-2.5 5.8c-5.9 14.7-.8 34.5-11 46.8-9 10.8-21.3 19.6-34 26a51.8 51.8 0 0 1 38.4 30.3 22.8 22.8 0 0 1 5.9-6.4c2.8-2.1 5-3.2 6.3-6.5 1.2-3.2.5-6.3 2.6-9.2z" transform="translate(-.1 .2)"/><path class="cls-15" d="M325.8 272.4a115 115 0 0 1-10.3 4.5l45.9 35a21.5 21.5 0 0 1 2.8-9 51.8 51.8 0 0 0-38.4-30.4z" transform="translate(-.1 .2)"/><path class="cls-17" d="M391.5 207.4l.4-1.4c-1.2-.3-2.3.1-3.5 0l2.8-2.7c-8 .3-9.8-9-15.1-14.5-1 1.7-1.9 3.4-2.7 5.2 2.8 5 6 9.6 11.6 11.9l-.1 1c2.2-.7 4.3.1 6.6.5z" transform="translate(-.1 .2)"/><path class="cls-18" d="M438 165.3a59.5 59.5 0 0 0-35.6 0 48 48 0 0 0-26.3 23.5c5.3 5.5 7.1 14.8 15.1 14.4 9.1-8.6 18.1-16.4 21.8-28.6a40 40 0 0 0 4.1 3.6 72.4 72.4 0 0 0 43.2 7.8 37 37 0 0 0-22.3-20.7z" transform="translate(-.1 .2)"/><path class="cls-17" d="M371.3 238.7a22.6 22.6 0 0 0 0 13.2 44 44 0 0 0 16.6 23c6.9-1.2 15 1.4 21.9 1a14.9 14.9 0 0 0 1.5-.2c-20.4-1-40.9-16.2-40-37zm19.9-30.5a9.5 9.5 0 0 1-1-.3 9.5 9.5 0 0 0 1 .3c0-.3.2-.5.3-.8-2.3-.4-4.4-1.2-6.7-.6 0 .8-.2 1.6-.4 2.3a43.9 43.9 0 0 0 6.1 1l.7-1.9z" transform="translate(-.1 .2)"/><path class="cls-18" d="M393.4 245c-17.7-.2-7.8-21-2.9-34.8a43.9 43.9 0 0 1-6-1s0 .2-.2.3c-2.5 10.5-10.3 19.4-13 29.2-.9 20.8 19.6 36 40 37 10.9-1.6 17.7-11.3 24.6-19.3a71.8 71.8 0 0 0-42.5-11.3z" transform="translate(-.1 .2)"/><path class="cls-17" d="M417 178.2a51 51 0 0 0 40.8 8.3 72.1 72.1 0 0 1-40.7-8.3z" transform="translate(-.1 .2)"/><path class="cls-15" d="M403.1 220.6c8.4 10.5 20.1 7.3 27.2-2-9.1-5.1-19.7-5.6-29.3-7a16.5 16.5 0 0 0 2.1 9zm31.7-9c.2 1.2-1 2.2-1.4 3.4a11.7 11.7 0 0 1 10.2 2.7 6.5 6.5 0 0 1 2-1.5 17.6 17.6 0 0 0-10.8-4.6z" transform="translate(-.1 .2)"/><path class="cls-16" d="M446.6 243.5a18.2 18.2 0 0 0 3.3-6.6l.5-2.2c-5.7.4-9-5.7-8.3-11.3a22.8 22.8 0 0 1 10 4l.3-1c3.1-8.6 9.2-15.6 10-25.6a32 32 0 0 0-2.2-14.8 50.1 50.1 0 0 1-47.2-11.3c-4 13.3-14.6 21.4-24.6 31.2 1.2.3 2.3-.2 3.5.2l-.7 2.1c3.3 1 6.9.3 10.2 1a6.1 6.1 0 0 0-.8 1.8l-10-.8c-5 13.8-14.9 34.7 2.8 34.9a71.8 71.8 0 0 1 42.5 11.3l.4-.5c3.5-4 7.1-8.1 10.3-12.4zm-43.5-23a16.5 16.5 0 0 1-2-9c9.5 1.5 20.1 2 29.2 7-7 9.4-18.8 12.6-27.2 2zm40.5-2.8a11.7 11.7 0 0 0-10.2-2.7c.5-1.2 1.6-2.2 1.4-3.3 4.2 0 7.5 2 10.7 4.5a6.5 6.5 0 0 0-1.9 1.5z" transform="translate(-.1 .2)"/><path class="cls-15" d="M401.4 209.2c-3.3-.7-7 0-10.2-1l-.7 2 10.1.8a6.1 6.1 0 0 1 .8-1.8zm49 25.5a36.1 36.1 0 0 1 1.7-7.3 22.8 22.8 0 0 0-10-4c-.7 5.6 2.6 11.7 8.3 11.3z" transform="translate(-.1 .2)"/><path class="cls-14" d="M446.1 215.2l-.4-1.2a12 12 0 0 0-10.6-3.5l-3 1.5c4.8-2.4 9.9.2 14 3.2z" transform="translate(-.1 .2)"/><path class="cls-15" d="M437.3 240a26.7 26.7 0 0 0-.4-3.4A21.3 21.3 0 0 1 438 224a19 19 0 0 0-.7 15.8zm-15.6 4.4c5.8 5.2 10.7 4 13.2 2a6 6 0 0 0 1.2-1c-4.4 2.5-10 1.8-14.4-1z" transform="translate(-.1 .2)"/><path class="cls-9" d="M432.1 212l2.2 2c8.4.3 9.7 3.2 9.7 3.2l2.6-.6-.5-1.4c-4.1-3-9.2-5.6-14-3.1zm-48.3-8h-.7l-2 1.7 2.8 2.3 15.6 1.7 4.7-3-1.4-1.8a7.7 7.7 0 0 0-1 0c-5.5-1.3-12 2.3-18-.9z" transform="translate(-.1 .2)"/><path class="cls-14" d="M383.8 204c6 3.1 12.5-.4 18 .9a7.7 7.7 0 0 1 1 0l-.8-1.1z" transform="translate(-.1 .2)"/><path class="cls-10" d="M434.8 207.6a26.7 26.7 0 0 0-30.8-5.9c-4 3.8-6.2 9.5-3.3 14.3 5.4 9 19.6 11 27.8 5 5.9-4.5 7.4-9.3 6.3-13.4z" transform="translate(-.1 .2)"/><path class="cls-9" d="M434.8 207.6c-2.3-8.3-15.2-14-25.6-9.1a15.3 15.3 0 0 0-5.2 3.2 26.7 26.7 0 0 1 30.8 5.9z" transform="translate(-.1 .2)"/><path class="cls-10" d="M447.3 212.9c-11.4 7.4-5.6 23.7 8 19 6.8-2.3 8.8-7.6 8-12.2-3.7-5-9-8-16-6.8z" transform="translate(-.1 .2)"/><path class="cls-9" d="M447.8 212.6l-.5.3c7-1.2 12.3 1.8 16 6.8-1.3-6.5-8-12-15.5-7.1zm-84.4 96.8a39.7 39.7 0 0 0-5.7-14.1 48 48 0 0 0-33-22.2 62.6 62.6 0 0 1 38.7 36.3z" transform="translate(-.1 .2)"/><path class="cls-15" d="M383.4 205.6c-.8-4.6-2.6-10.1-6.2-12.5a6.6 6.6 0 0 0-3-1c4 3 7.5 8.5 9.2 13.5z" transform="translate(-.1 .2)"/><path class="cls-16" d="M377.3 217.3a7.2 7.2 0 0 0 2.2-2.1l4.4-6.2c0-1-.2-2.2-.5-3.4-1.7-5-5.1-10.5-9.3-13.6-3.7-.3-6.8 3.1-7.9 7.1a5.3 5.3 0 0 0-.1.8c1.4 6.2 3.6 15.5 11.2 17.4z" transform="translate(-.1 .2)"/><path class="cls-15" d="M366 199.9c-.7 6 5.2 20.9 11.3 17.4-7.6-2-9.8-11.2-11.2-17.4z" transform="translate(-.1 .2)"/><path class="cls-17" d="M409.8 256a47.7 47.7 0 0 0-9.8-.6l-4.6.4-2 .3h2l4.6.1a82.2 82.2 0 0 1 9.5 1.3 48 48 0 0 1 9.2 2.5 19.3 19.3 0 0 1 2.2 1 12.4 12.4 0 0 1 1.9 1l1.6 1.2-1.5-1.2a13.8 13.8 0 0 0-1.7-1.3 18.3 18.3 0 0 0-2.2-1.3 34.5 34.5 0 0 0-9.2-3.4z" transform="translate(-.1 .2)"/><path class="cls-19" d="M94.1 445.6a128.8 128.8 0 0 1 20.4-26 111.6 111.6 0 0 0-21.9 23.6l1.5 2.4zm26.6 35.7l2.2 2.4c25.7-22.5 33-40.3 33-40.3l-.3-.4c-9.2 15-21.4 27.5-34.9 38.3z" transform="translate(-.1 .2)"/><path class="cls-20" d="M117.4 417.4l-3 2.2a128.8 128.8 0 0 0-20.3 26 235.5 235.5 0 0 0 26.6 35.7 149 149 0 0 0 34.9-38.3c-18-21.4-38.2-25.6-38.2-25.6z" transform="translate(-.1 .2)"/><path class="cls-21" d="M129.8 426.3s-14.3 3.6-28.2 30.9q5.7 8.2 12 16c23.5-20.2 29.1-36.5 29.1-36.5-1.2-8.3-12.9-10.4-12.9-10.4z" transform="translate(-.1 .2)"/><path d="M324.6 273.1a62 62 0 0 0-27 1.8c-42.7 11.8-66.8 58-86.4 93.9a737.2 737.2 0 0 1-36.5 61 325.6 325.6 0 0 1-50.4 55.4 232.8 232.8 0 0 0 76.8 53.7c22.5-28.4 43.6-58 68-85 29.8-32.7 64.8-62 85.2-102.3 6.7-13.5 11.9-28 9.2-42.2a62.9 62.9 0 0 0-38.9-36.3z" transform="translate(-.1 .2)"/><path class="cls-22" d="M199.6 406.9c19.2 21 37.6 41.1 61 56.8l3.5-4.2a202.3 202.3 0 0 1-67.8-64.3c-1 1.9-2.2 3.7-3.3 5.5a36 36 0 0 1 6.6 6.2z" transform="translate(-.1 .2)"/><path class="cls-23" d="M260.5 463.7c-23.3-15.7-41.7-35.9-60.9-56.8a36 36 0 0 0-6.6-6.2q-4.8 8.2-10 16.2a90.5 90.5 0 0 0 24.2 22.6 51 51 0 0 0 28 23.1 31.6 31.6 0 0 0 14.3 14.3q5.4-6.7 11-13.2z" transform="translate(-.1 .2)"/><path class="cls-24" d="M235.3 462.6a51 51 0 0 1-28.1-23.1 90.5 90.5 0 0 1-24.1-22.6l-2.7 4.3c25.4 34.3 67.1 56.6 67.9 57l1.2-1.4a31.6 31.6 0 0 1-14.2-14.2z" transform="translate(-.1 .2)"/><path class="cls-9" d="M254.4 324c18.7-24.8 64.4-60.6 87.4-28.8-11-26.7-50-13.3-66 2-10 9.5-19.3 19.6-29.2 29-10.6 10-22.8 18.3-33 28.7-3.3 3.3-6 5.9-7.1 9 14-16 33.5-22.9 47.9-39.9z" transform="translate(-.1 .2)"/><path d="M291.8 371c8-10.6 14.6-22.4 21.9-33.3-.3 0-.5-.2-.8-.4l.8.4c4.4 2.3 8.9 0 14.2-1.7l.7-.6 15-35a35.5 35.5 0 0 0-1.8-5.3c-23-31.8-68.7 4-87.4 28.8-14.4 17-33.8 23.9-48 40-.8 2.3-.7 5 1 8.4 5.2 10.5 13.5 20 21.9 28.1 5.7 5.7 16 16.8 25 16.4 4.2-.1 7.1-2.8 9.4-6.3 0-17.4 16.4-27.4 28-39.5z" transform="translate(-.1 .2)"/><path class="cls-9" d="M263.7 410.5c3.4-5.3 5.2-12.6 7.6-17 3-5.2 7.2-8.8 11.5-12.2 5-4 10.3-7.7 13.8-13.4 5.8-9.6 9.8-18.9 18.6-26.3 5.7-.2 10.8-4 12.7-5.6-5.3 1.7-9.8 4-14.2 1.7-7.3 10.9-13.8 22.7-22 33.3-11.6 12.1-28 22-28 39.5z" transform="translate(-.1 .2)"/><path d="M171 496.8c-8.8-4-16.1-11.2-25.4-11.3-6.2.9-9.5 7.5-12.4 14.6 6.4 7.2 15 12 23.6 16 1.8-2.3 7.6-10.6 14.3-19.3z" transform="translate(-.1 .2)"/><path class="cls-9" d="M145.6 485.5c9.3 0 16.6 7.4 25.4 11.3l1-1.3a64.8 64.8 0 0 1-26-17 169.2 169.2 0 0 0-14.9 19.2l2 2.4c3-7.1 6.3-13.7 12.5-14.6z" transform="translate(-.1 .2)"/><path class="cls-16" d="M228.5 442.8c8.8-8 20.2-19.8 26.7-26.5a45.6 45.6 0 0 0-8.3-11.5l-7.5-7c-6.6-6.3-13.2-13-21.4-17a72.8 72.8 0 0 0-14.5 14.4c-9.7 13-35 53.3-45 66.5-3.6 4.7-7.9 10.6-12.4 16.8a63.7 63.7 0 0 0 26 17l4-4.7c13.8-15.9 39.4-36.2 52.4-48zM122.2 507c-8 6.8-18.5 13.2-23.5 19.2-.9 2.1-.8 4.2-.1 4.8.8 5 10.6 5.3 10.5 11.1.8 5 1.7 8 5.6 10 9 2.7 8.8 12.8 14.3 17.3 5.7-1.2 13.8-4 16.2-7.7.6-4.3.5-8.2-1.5-12.1a14 14 0 0 0-3.2 5 21.6 21.6 0 0 1 1.5-7.8 18 18 0 0 1 2.4-4.3 17.7 17.7 0 0 1 5-4.5 7.3 7.3 0 0 0-2.4 5c4.4 0 8-3.2 9.6-7.5-.3-5-.8-14-.3-17.8a7.8 7.8 0 0 1 .4-1.6c-9.5-4.4-19-9.7-25.6-18.4a88.1 88.1 0 0 1-9 9.3z" transform="translate(-.1 .2)"/><path class="cls-15" d="M114.7 552c-3.9-2-4.8-5-5.6-10 .1-5.8-9.7-6-10.5-11-.7-.7-.8-2.7 0-4.8a10.8 10.8 0 0 0-2.7 5.7c-.6 7.7 3.3 4.3 5.3 7.4s-.3 5.8 2 8.1 5.1.2 7 3.2-1.4 6 1.3 8.8 5.6 1.8 8 2.2 3 8.7 8 8l1.4-.3c-5.4-4.5-5.2-14.5-14.2-17.2zm31.1 8.1a61 61 0 0 0-.3-14.2c.6 0 1-.2 1.6-.3 5.6-1.3 10.1-4.5 9.8-8.4l-.2-1.8c-1.6 4.3-5.3 7.6-9.6 7.5a7.3 7.3 0 0 1 2.3-5 17.7 17.7 0 0 0-5 4.5 18 18 0 0 0-2.4 4.3 21.6 21.6 0 0 0-1.5 7.9 14 14 0 0 1 3.3-5.1c2 3.9 2 7.8 1.4 12.1a4 4 0 0 0 .6-1.5zM258.3 413l2-2s3-5.4-9.7-18.6-24-17.2-24-17.2-2 1-5 3l-3.6 2.6c8.2 4 14.9 10.7 21.5 17 2.4 2.4 4.9 4.8 7.5 7a45 45 0 0 1 8.2 11.4z" transform="translate(-.1 .2)"/><path d="M206 365.5c13.6 4.8 21 14.9 30.2 25.2a82.1 82.1 0 0 0 14.3 13.2c4.3 3 9.1 4.4 11.1 9.4 0 0 2.6-3.7.1-11.2s-23.6-29.3-29.6-34-18.6-5.2-26.1-2.6z" transform="translate(-.1 .2)"/><path class="cls-23" d="M362.4 330.4l1-4.4a38.5 38.5 0 0 0-1.3-15.1c-7.5-20.8-29.3-35.3-51.1-37.2a64.5 64.5 0 0 0-20.2 3.5 90.8 90.8 0 0 0-28 17.4c8.6-4.4 16.8-9 25.9-11.3 15.5-5.5 33.9-7.6 49.3 3.1a53.4 53.4 0 0 1 17.6 19.5c4.7 7.3 6.4 16 6.8 24.5z" transform="translate(-.1 .2)"/><path class="cls-24" d="M355.6 305.9c9.9 19.1 2.3 37.6 2.2 38a86.2 86.2 0 0 0 4.6-13.5 49.6 49.6 0 0 0-6.8-24.5zm-100-4.4a128.6 128.6 0 0 1 33-18.2c-9 2.4-17.3 6.9-25.9 11.3q-3.7 3.3-7.1 6.9z" transform="translate(-.1 .2)"/><path class="cls-22" d="M362.1 310.9c-2-7.6-6.8-17-17.3-25.8a50.4 50.4 0 0 0-33.8-11.4c21.8 1.9 43.6 16.4 51.1 37.2z" transform="translate(-.1 .2)"/><path class="cls-2" d="M150 611.2l2.5-3.6c2.4 1.1 4.4 1.3 5.8.5a14.8 14.8 0 0 0 4.6-4.9l14.6-21.6 1.2-1-3-1.5 2.8-4.1 3.1 1.4.4-1.6c2.5-3.6 4.4-5.6 5.8-5.8a9.2 9.2 0 0 1 5.1.4l5.2 2.2-2.5 3.8c-2.7-1.3-4.5-1.8-5.4-1.7a3 3 0 0 0-2 1.3l-1.6 2.3-1.2 1 5 2.3-2.8 4.1-5.2-2.4-.2 1.3-14.8 22a23 23 0 0 1-5.2 6 8.7 8.7 0 0 1-4.6 1.6 20 20 0 0 1-7.6-2zm45.6 1.6a10.1 10.1 0 0 1-4.7 2.3 10.4 10.4 0 0 1-5.9-.7c-2.2-.9-3.6-2-4.2-3.4s-.4-3.4.6-6.1a70 70 0 0 1 3.6-8 51.4 51.4 0 0 1 4.8-7.3 15.2 15.2 0 0 1 6.1-4.9 9.1 9.1 0 0 1 7 0q3.7 1.5 4.7 3.5a6.2 6.2 0 0 1-.2 5 99.6 99.6 0 0 1-4.5 10.3 29.1 29.1 0 0 1-3.4 5.2 34.3 34.3 0 0 1-4 4zm-7.6-2.5q2 .7 4.3-1.3a20 20 0 0 0 4.3-5.4 78.9 78.9 0 0 0 5.3-10.6 3.9 3.9 0 0 0 .3-2.5 2.6 2.6 0 0 0-1.7-1.5q-2.1-.8-5.2 2.6a45.5 45.5 0 0 0-8.7 14.6 4 4 0 0 0-.3 2.6 2.6 2.6 0 0 0 1.7 1.5zm15 9.5a1.1 1.1 0 0 1 0-.7l13.6-29.4a19.6 19.6 0 0 1 3.8 1.4c.5.3.7.8.4 1.6l-.1.5c2.1-1.2 4-1.6 5.7-1.1a6.3 6.3 0 0 1 2.4 1.6c-.9 1.7-1.5 2.8-2 3s-1.5.1-3-.3a18 18 0 0 0-5.8 2l-.3 1.2-10.3 22c-2.7-.7-4.1-1.4-4.3-1.9zm56.3 5.6a6.4 6.4 0 0 0-.6-3.3 18.1 18.1 0 0 0-1.6-3.2l-2.8-4v.1l-3.7-5.4a23 23 0 0 1-2.3-5.2 14 14 0 0 1-.5-6.6 27 27 0 0 1 1.5-6 13.2 13.2 0 0 1 3-4.4q4-3.9 14.1-2.3l9 3.3a9 9 0 0 1-2.3 4 3.6 3.6 0 0 1-3 .7l-5.3-1.5c-3.1-.4-5.4 0-6.8 1.2a9 9 0 0 0-2.7 5.6q-.5 3.6 4.1 9.6l4 5.1a22.6 22.6 0 0 1 3 5.7 11.8 11.8 0 0 1 .7 6q-3.3 21.4-21.1 18.7l-12-3.5 2-6.5 12.2 2.8q9.2.9 11-11zm18.9 21.3h-1.8l10.6-59.2 11.6-.7q8.2.2 11.2 2.6t2.8 7.1c0 3.1-.2 5.6-.4 7.6a27.5 27.5 0 0 1-1.4 6.2 13.7 13.7 0 0 1-3.2 5.3 15.2 15.2 0 0 1-5.6 3.2 25.1 25.1 0 0 1-8.8 1.2l-4.8-.1v1l-3.8 21.3c-.3 2.2-.8 3.5-1.4 4s-2.3.6-5 .5zm15.9-33.6q9.5.2 10.7-10.4l.2-4.5a3.7 3.7 0 0 0-1.5-3.4c-1-.7-2.8-1-5.7-1l-4.7-.2v1l-3.1 18-.2.4zm37.5-21.1l.1.9-.6 16.2-.1.4 14.5-1.7-.4 7-14.5 1.6.1 1-.9 20.4v.1a.7.7 0 0 1 0 .4l16.3-1.8-.2 7-24 2.7 2.6-60 23.1-2.6-.3 6.6zm31.8-6.2l.2.9 1.3 16v.5l14.1-3.4.5 7-14.2 3.3.2 1 1.6 20.3v.2a.6.6 0 0 1 0 .4l16-3.8.5 7-23.4 5.6-4.7-59.9 22.6-5.4.5 6.6zm44.9-20q3.8 2.3 6 8T418 585a103.3 103.3 0 0 1 2.7 12.1 62.6 62.6 0 0 1 .9 12.3 23.8 23.8 0 0 1-2.5 10.1 12.7 12.7 0 0 1-6.9 6.4l-13.8 4.7-12.7-58.8 12.5-5.8q6.2-2.5 10-.2zm1.7 53.5c2-.8 3.4-3 4-6.5a38.6 38.6 0 0 0-.4-12.1 114.8 114.8 0 0 0-5.6-22.5 12.1 12.1 0 0 0-3.2-5.2 4.2 4.2 0 0 0-4.5-.4l-6.5 2.5.4 1 9.8 45.1v.4zm53.3-19.3a23.4 23.4 0 0 1-3 1.7c-1.2.6-2.3.2-3-1L434.5 548l19.7-12.4 2.6 6.2-13.4 8.4.5.7 6.5 14.9v.4l12.4-7.8 2.7 6.4-12.4 7.8.6.9 11 25.6zm47.9-35.5c-2.3 1.9-3.7 2.8-4.4 2.8s-1.9-.8-3.4-2.5l-10-10.7-7.8 6.4 6.7 19.6-1 .8c-2.4 2-3.9 2.8-4.5 2.6a3.3 3.3 0 0 1-1-1q-.6-.6-4.2-11.3l-15.5-46.5 5.4-4.4 40.9 43.1zM488.8 549l-1.3-.6-11.3-13.6 6.6 17.5v1.6zm51.6-14.9c-1.9 2-3.1 3.2-3.8 3.3s-2-.3-4-1.6l-28.4-17.4 20.6 25.8c1.4 1.8 2.1 3 2 3.8s-1 2-2.7 4l-1.2 1.3-37.5-47 1-1c1.8-2 3-3 3.8-3.2s2 .3 4 1.6L523 522l-24.1-30.3.9-1a24.4 24.4 0 0 1 2.5-2.6 1.8 1.8 0 0 1 2.6 0l.5.4 35.9 44.7zm28-38.3q-2.5 3.6-3.5 4t-4-1.6l-12.5-7.5-5.7 8.3 11.9 17-.7 1q-2.6 3.8-3.6 3.8a3.2 3.2 0 0 1-1.3-.6q-.7-.5-7.1-9.8L514.1 470l4-5.7 51.2 30zm-25.8-8.6l-1.4-.2-14.6-10 11.2 15 .4 1.5zm36.4-10.8l-1 1.8-42.7-31.4-.2-.3-4 7.7-5.4-4 11.4-22 5.4 4-4 7.7.8.4 38.5 28.3c1.8 1.3 2.7 2.3 2.8 3s-.3 2.4-1.5 4.8zm13.4-28.7a24.4 24.4 0 0 1-1.5 3.1c-.7 1.2-1.7 1.5-3.1.9l-49-29.7.5-1.3a16 16 0 0 1 2-4 1.6 1.6 0 0 1 1.9-.3q1.2.5 49.6 30zm10.6-28.4q-2 6.3-6.2 7.8t-10.2-.5q-6-1.9-11.2-4a92.5 92.5 0 0 1-11.1-5.6 58.1 58.1 0 0 1-10-7 23.1 23.1 0 0 1-6-8.5 13.8 13.8 0 0 1-.4-9.8l4.5-7.8c2 1 3.1 2 3.6 3a4.3 4.3 0 0 1 .2 3.4l-2 4.5q-1 3.2 2.4 7.1a37 37 0 0 0 9.2 7.3 112.4 112.4 0 0 0 21 9.6q7.7 2.5 9.3-2.6a41.8 41.8 0 0 0 1.2-5 38.2 38.2 0 0 1 1-4.3l6 3.2-.4 4.2a26.5 26.5 0 0 1-.9 5zm-9.9-47.1a6.3 6.3 0 0 0-3.3.5 18.9 18.9 0 0 0-3.2 1.6l-4 2.6-5.4 3.6a23.2 23.2 0 0 1-5.3 2.2 13.8 13.8 0 0 1-6.6.4 26.6 26.6 0 0 1-5.9-1.7 13.3 13.3 0 0 1-4.4-3.1q-3.7-4-2-14.2l3.6-8.8a9 9 0 0 1 4 2.4 3.6 3.6 0 0 1 .6 2.9l-1.6 5.3q-.7 4.7 1 6.8a9 9 0 0 0 5.6 2.8q3.5.7 9.6-3.8l5.3-3.8a22.7 22.7 0 0 1 5.7-2.9 11.7 11.7 0 0 1 6-.5q21.3 3.8 18.2 21.5l-3.9 11.8-6.5-2.1 3.1-12.2q1.2-9.1-10.6-11.3z" transform="translate(-.1 .2)"/><path class="cls-4" d="M148 607.5l2.5-3.7c2.4 1.2 4.4 1.4 5.8.6a14.8 14.8 0 0 0 4.6-4.9l14.6-21.6 1.2-1.1-3-1.4 2.8-4.1 3 1.4.5-1.6c2.5-3.7 4.4-5.6 5.8-5.9a9.3 9.3 0 0 1 5.1.5l5.2 2.1-2.5 3.9c-2.7-1.3-4.5-1.8-5.4-1.7a3 3 0 0 0-2 1.3l-1.6 2.3-1.2.9 5 2.3-2.8 4.2-5.1-2.4-.2 1.3-14.9 22a23 23 0 0 1-5.2 6 8.6 8.6 0 0 1-4.5 1.6 20.2 20.2 0 0 1-7.7-2zm45.6 1.5a10.1 10.1 0 0 1-4.7 2.4 10.6 10.6 0 0 1-5.9-.8c-2.2-.8-3.6-2-4.2-3.3s-.4-3.5.6-6.2a70 70 0 0 1 3.6-8 51.4 51.4 0 0 1 4.8-7.3 15.3 15.3 0 0 1 6.1-4.8 9.2 9.2 0 0 1 7 0q3.7 1.4 4.7 3.5a6.2 6.2 0 0 1-.2 5q-1 3-2 5t-2.5 5.2a29.5 29.5 0 0 1-3.4 5.2 34.3 34.3 0 0 1-4 4.1zm-7.6-2.5c1.3.5 2.7 0 4.3-1.2a20 20 0 0 0 4.3-5.4 78.8 78.8 0 0 0 5.3-10.6 3.9 3.9 0 0 0 .3-2.6 2.6 2.6 0 0 0-1.7-1.4c-1.4-.5-3 .3-5.1 2.6a45.3 45.3 0 0 0-8.8 14.6 4 4 0 0 0-.3 2.5 2.6 2.6 0 0 0 1.7 1.5zm15 9.5a1.1 1.1 0 0 1 0-.7l13.6-29.3a19.6 19.6 0 0 1 3.8 1.3c.5.4.7.9.4 1.6l-.1.5q3.2-1.8 5.7-1a6.3 6.3 0 0 1 2.4 1.5c-.9 1.8-1.5 2.8-2 3s-1.5.2-3-.3c-.6-.1-2.5.5-5.8 2l-.3 1.2-10.3 22q-4-1-4.3-1.8zm56.3 5.6a6.4 6.4 0 0 0-.6-3.3 18.5 18.5 0 0 0-1.6-3.1l-2.8-4-3.7-5.4a23.1 23.1 0 0 1-2.3-5.2 14 14 0 0 1-.5-6.6 27 27 0 0 1 1.5-5.9 13 13 0 0 1 3-4.4q4-4 14.1-2.3l9 3.3a9 9 0 0 1-2.3 4 3.6 3.6 0 0 1-3 .6l-5.3-1.3c-3.2-.4-5.4 0-6.8 1.1a9 9 0 0 0-2.7 5.7q-.5 3.6 4.1 9.6l3.9 5a22.9 22.9 0 0 1 3 5.8 11.7 11.7 0 0 1 .8 6q-3.4 21.4-21.1 18.7l-11.9-3.6 1.9-6.6 12.2 2.8q9.3 1 11.1-10.9zm18.9 21.4h-1.8l10.6-59.3 11.6-.6q8.2.1 11.2 2.6t2.8 7q0 4.7-.4 7.6a27.4 27.4 0 0 1-1.4 6.2 13.7 13.7 0 0 1-3.2 5.3 15.2 15.2 0 0 1-5.6 3.3 24.9 24.9 0 0 1-8.8 1.2l-4.8-.1v.9l-3.8 21.3c-.3 2.2-.8 3.5-1.4 4s-2.3.6-5 .6zm15.9-33.6q9.5.1 10.7-10.5l.2-4.4a3.7 3.7 0 0 0-1.5-3.5q-1.4-1-5.7-1l-4.7-.1v1l-3.1 18-.2.4zm37.5-21.1l.1.9-.6 16.1-.1.5 14.5-1.7-.4 7-14.5 1.6.1 1-.9 20.3v.2a.7.7 0 0 1 0 .4l16.3-1.9-.2 7-24 2.8 2.6-60 23.1-2.7-.3 6.7zm31.8-6.3l.2.9 1.3 16.1v.4l14.1-3.3.5 6.9-14.2 3.4.2 1 1.6 20.3v.6l16-3.9.5 7-23.3 5.6-4.7-59.9 22.6-5.4.5 6.6zm44.9-20q3.8 2.4 6 8t3.8 11.2a104 104 0 0 1 2.7 12.2 62.6 62.6 0 0 1 .9 12.3 23.8 23.8 0 0 1-2.5 10 12.7 12.7 0 0 1-6.9 6.4l-13.8 4.7-12.7-58.8 12.5-5.8q6.2-2.4 10-.1zm1.7 53.6q3.1-1.2 4-6.6a38.3 38.3 0 0 0-.4-12 114.9 114.9 0 0 0-5.6-22.5 12.1 12.1 0 0 0-3.2-5.2 4.2 4.2 0 0 0-4.5-.4l-6.5 2.5.4 1 9.8 45v.5zm53.3-19.4a24 24 0 0 1-3 1.7c-1.2.6-2.2.2-3-1l-22.8-52.6 19.7-12.5 2.5 6.2-13.3 8.4.5.8 6.4 14.8.1.4 12.3-7.7 2.8 6.3-12.4 7.8.5.9 11 25.7zm47.9-35.4c-2.3 1.8-3.7 2.8-4.4 2.8s-1.9-.8-3.4-2.6l-10-10.7-7.8 6.4 6.7 19.6-1 .8q-3.6 3-4.5 2.6a3.4 3.4 0 0 1-1-.9q-.6-.7-4.2-11.3l-15.5-46.6 5.4-4.4 40.9 43.2zm-22.4-15.5l-1.3-.5-11.3-13.7 6.6 17.6v1.6zm51.6-14.9c-1.9 2-3.1 3.1-3.8 3.3s-2-.4-4-1.6l-28.4-17.5 20.6 25.9c1.4 1.7 2.1 3 2 3.7s-1 2.1-2.7 4l-1.2 1.4-37.5-47 1-1c1.8-2 3-3 3.8-3.3s2 .4 4 1.7l28.8 18-24.1-30.3.9-1a24.4 24.4 0 0 1 2.5-2.5 1.8 1.8 0 0 1 2.6 0l.5.4 35.9 44.6zm28-38.4q-2.5 3.6-3.5 4t-4-1.6l-12.5-7.4-5.7 8.3 11.9 17-.7 1q-2.6 3.8-3.6 3.8a3.2 3.2 0 0 1-1.3-.6q-.7-.5-7.1-9.8l-27.8-40.4 4-5.7 51.2 30.1zm-25.8-8.6l-1.4-.1-14.6-10 11.2 15 .4 1.5zm36.4-10.8l-1 1.9-42.7-31.4-.2-.3-4 7.7-5.4-4 11.4-22.1 5.4 4-4 7.8.8.4 38.5 28.2c1.8 1.3 2.7 2.4 2.8 3.1s-.3 2.4-1.5 4.8zm13.4-28.6a24.4 24.4 0 0 1-1.5 3.1c-.7 1.2-1.7 1.5-3.1.9l-49-29.7.5-1.3a16 16 0 0 1 2-4 1.6 1.6 0 0 1 1.9-.3q1.2.5 49.6 30zm10.6-28.4c-1.3 4.2-3.4 6.8-6.2 7.7s-6.2.9-10.2-.4-7.7-2.6-11.2-4a94 94 0 0 1-11.1-5.7 58.7 58.7 0 0 1-10-7 23.1 23.1 0 0 1-6-8.5 13.8 13.8 0 0 1-.4-9.8l4.5-7.8a8.1 8.1 0 0 1 3.6 3.1 4.3 4.3 0 0 1 .2 3.4l-2 4.5q-1 3.2 2.4 7a37 37 0 0 0 9.2 7.3 112.4 112.4 0 0 0 21 9.7q7.6 2.4 9.3-2.7a41.8 41.8 0 0 0 1.1-5 38.2 38.2 0 0 1 1-4.3l6.1 3.2-.5 4.2a26.6 26.6 0 0 1-.8 5zm-9.9-47.1a6.4 6.4 0 0 0-3.3.5 18.2 18.2 0 0 0-3.2 1.5l-4 2.7-5.4 3.6a23.2 23.2 0 0 1-5.3 2.2 13.8 13.8 0 0 1-6.6.3 26.6 26.6 0 0 1-5.9-1.6 13.3 13.3 0 0 1-4.4-3.1q-3.7-4-2-14.2l3.6-8.8a9 9 0 0 1 4 2.3 3.6 3.6 0 0 1 .6 3l-1.6 5.3q-.8 4.7 1 6.8a9 9 0 0 0 5.6 2.8q3.6.7 9.6-3.9l5.3-3.7a22.7 22.7 0 0 1 5.8-3 11.8 11.8 0 0 1 6-.5q21.3 3.9 18.2 21.6l-4 11.7-6.4-2 3.1-12.2q1.1-9.2-10.7-11.3z" transform="translate(-.1 .2)"/><path class="cls-2" d="M54.6 221a22.2 22.2 0 0 1-1.6 3c-.7 1.1-1.8 1.4-3.1.7q-.5-.2-47.8-31.7l9.8-21.2 5.5 3.9-6.6 14.3.8.4 13.5 9 .3.2 6.1-13.2 5.8 3.8-6.1 13.3.9.5 23.2 15.5zm25.3-45.6q-2.3 3.7-3.3 4c-.6.3-2-.1-4-1.3l-12.9-7-5.3 8.5L67 196.2l-.7 1c-1.6 2.6-2.7 3.9-3.4 3.9a3.1 3.1 0 0 1-1.3-.6q-.7-.5-7.5-9.4l-29.5-39.2 3.7-5.9 52.5 28zm-26-7.6h-1.5l-15-9.4 11.8 14.5.6 1.5zm26.2-24a6.3 6.3 0 0 0-3.1-1.2 17.4 17.4 0 0 0-3.6-.1l-4.8.4-6.5.5a23.4 23.4 0 0 1-5.6-.5 14.2 14.2 0 0 1-6-2.9 26.7 26.7 0 0 1-4.4-4.2 13.1 13.1 0 0 1-2.4-4.8q-1.4-5.4 5-13.4l7.3-6.1a9 9 0 0 1 2.4 4 3.6 3.6 0 0 1-.8 2.8l-4 4q-2.9 3.8-2.3 6.5a9 9 0 0 0 3.5 5.1q2.9 2.3 10.4 1.2l6.4-.8a22.7 22.7 0 0 1 6.4.2 11.7 11.7 0 0 1 5.6 2.3q16.9 13.5 5.7 27.6l-9 8.5-4.7-4.9 8.5-9.2q5.4-7.6-4-15zm28.1-1.7l-1.5 1.5-31.2-43v-.3l-6.2 6.1-3.9-5.4L83 83.4l3.8 5.5-6.1 6.2.6.6 28 38.6c1.3 1.8 2 3.1 1.8 3.9s-1 2-3 4zm-5.6-65.3l.6.7 8 14 .1.4 11.4-9 3.4 6-11.4 9.1.6.8 10 17.7.1.1.2.4 12.8-10.2 3.5 6-18.8 15-29.6-52.2 18.1-14.5L115 67zM172.1 94q-4 2.4-5 2.5t-3.9-2.4l-17.4-15.8-1.8 1.1.5.8 8.2 20c.9 2 1.2 3.5.9 4.2s-1.6 1.7-3.9 3.1l-1.6 1-22.7-55.7 8.1-6q6.3-3.8 9.9-3.2c2.3.4 4.3 2 6 4.7q10.4 17.2 2.7 26L173.8 93zm-28.4-22.5q7.9-4.7-.3-18.2a3.2 3.2 0 0 0-2.5-1.8c-1 0-2.5.5-4.3 1.6l-3.2 1.9 1.5 1.8 6.1 14.7-.1 1.7zm56.5 10a24 24 0 0 1-3.3 1c-1.3.3-2.3-.2-2.8-1.7l-11.5-56.1 21.9-8.2 1.2 6.6-14.8 5.5.3.9 3.3 15.8v.4l13.7-5 1.4 6.7-13.8 5.2.4.9 5.5 27.4zm50.1-30a29.8 29.8 0 0 1-4 12.6 13.9 13.9 0 0 1-9 6.6q-5.9 1.3-9.5-1.7t-5.2-10.6a100.7 100.7 0 0 1-2.3-15.3 84.2 84.2 0 0 1 .2-15.1 29 29 0 0 1 4-12.5 14 14 0 0 1 9.1-6.5q5.9-1.3 9.4 1.5t5.2 10.3a102.5 102.5 0 0 1 2.3 15.4 85.1 85.1 0 0 1-.2 15.3zm-13.5 12.1q3.8-.8 5.2-8.6a66.9 66.9 0 0 0 .8-16.3 96.2 96.2 0 0 0-2-15q-2-8.8-6.8-7.7-3.9.9-5.2 8.6a67.3 67.3 0 0 0-.8 16.3 94.5 94.5 0 0 0 2 15q2 8.9 6.8 7.8zm50.8-.4c-2.7.2-4.4.2-5-.2s-1.2-1.6-1.8-3.9L272 27l-2.6 33c-.2 2.2-.5 3.5-1.1 4s-2.2 1-4.8 1.1l-1.7.1 4.7-59.9h1.4c2.7-.3 4.3-.2 5 .1s1.2 1.7 1.8 4l8.7 33 3.1-38.6 1.3-.1a25.9 25.9 0 0 1 3.6-.1 1.8 1.8 0 0 1 2 1.8V6L289 63zm18.4.3h-2l10.6-52 .2-.4-8.7-.4 1.4-6.5 24.8 1-1.4 6.6-8.8-.4v1L312.6 59c-.5 2.2-1 3.5-1.7 4s-2.3.5-4.9.4zm43.3-14.7a6.4 6.4 0 0 0-.6-3.3 18 18 0 0 0-1.6-3.2l-2.8-4-3.7-5.4a23.7 23.7 0 0 1-2.3-5.2 14 14 0 0 1-.5-6.6 27 27 0 0 1 1.6-5.9 13 13 0 0 1 3-4.4q4-4 14.1-2.3l9 3.3a9 9 0 0 1-2.4 4 3.6 3.6 0 0 1-2.9.7L355 15c-3.2-.5-5.5-.1-6.8 1a9 9 0 0 0-2.7 5.7q-.6 3.6 4 9.6l3.9 5.1a23 23 0 0 1 3 5.7 11.9 11.9 0 0 1 .7 6q-3.4 21.4-21.1 18.7l-12-3.5 2-6.6 12.2 2.9q9.2 1 11-10.9z" transform="translate(-.1 .2)"/><path class="cls-4" d="M52.6 217.2a23.4 23.4 0 0 1-1.6 3c-.7 1.2-1.8 1.5-3.1.8q-.5-.2-47.8-31.7l9.8-21.2 5.5 3.8-6.6 14.3.8.4 13.5 9 .3.3 6.1-13.3 5.8 3.9-6.2 13.3 1 .4 23.2 15.5zm25.3-45.6q-2.3 3.7-3.3 4.1t-4-1.3l-12.9-7-5.3 8.5L65 192.4l-.7 1c-1.6 2.7-2.7 4-3.4 4a3.2 3.2 0 0 1-1.3-.6q-.7-.4-7.5-9.4L22.6 148l3.7-5.8 52.5 28zm-26-7.5h-1.5l-15-9.5 11.8 14.6.6 1.5zM78.1 140a6.4 6.4 0 0 0-3.1-1.1 18 18 0 0 0-3.6-.2l-4.8.5-6.5.5a23 23 0 0 1-5.6-.5 14 14 0 0 1-6-2.8A26.4 26.4 0 0 1 44 132a13.2 13.2 0 0 1-2.4-4.8q-1.4-5.4 5-13.4l7.3-6.1a9 9 0 0 1 2.4 4 3.6 3.6 0 0 1-.9 2.8l-3.9 4q-2.9 3.8-2.4 6.5a9 9 0 0 0 3.6 5.1q2.8 2.3 10.3 1.2l6.4-.8a22.3 22.3 0 0 1 6.5.2 11.7 11.7 0 0 1 5.5 2.2q17 13.5 5.8 27.6l-9 8.5-4.7-4.9L82 155q5.4-7.5-4-15zm28.1-1.6l-1.5 1.4L73.5 97v-.3l-6.2 6-3.9-5.4L81 79.7l3.8 5.4-6.1 6.2.6.7 28 38.6q2 2.7 1.8 3.8t-3 4zM100.6 73l.6.7 8 14v.4l11.5-9 3.4 6-11.5 9.1.7.8 10 17.7v.1l.3.4 12.8-10.2 3.5 6-18.9 15-29.5-52.2 18.1-14.4 3.3 5.8zm69.5 17.3c-2.6 1.6-4.4 2.4-5 2.4s-2-.7-3.9-2.3l-17.4-15.8-1.8 1.1.5.8 8.2 20c.9 2 1.2 3.4.9 4.1s-1.6 1.8-3.9 3.2l-1.6 1L123.4 49l8.1-6q6.3-3.8 9.9-3.3c2.3.4 4.3 2 6 4.7q10.4 17.2 2.7 26l21.7 18.8zm-28.4-22.5q7.9-4.8-.3-18.2a3.2 3.2 0 0 0-2.5-1.9c-1 0-2.5.5-4.3 1.7l-3.2 1.9 1.5 1.8 6.1 14.7-.1 1.7zm56.5 10a23.5 23.5 0 0 1-3.3 1c-1.3.3-2.3-.2-2.8-1.7q-.2-.4-11.5-56.1l21.9-8.2 1.2 6.6-14.8 5.5.3.9 3.3 15.8v.5l13.7-5.1 1.4 6.8-13.8 5.1.4 1 5.5 27.3zm50.1-30a30 30 0 0 1-4 12.6 14 14 0 0 1-9 6.5q-5.9 1.4-9.4-1.6t-5.3-10.5a100.7 100.7 0 0 1-2.2-15.4 84.2 84.2 0 0 1 .2-15.1 29.2 29.2 0 0 1 4-12.5 14 14 0 0 1 9-6.5q6-1.4 9.5 1.4t5.2 10.4a102.5 102.5 0 0 1 2.3 15.4 86 86 0 0 1-.3 15.3zm-13.5 12.1q3.8-.8 5.2-8.6a67 67 0 0 0 1-16.3 96.3 96.3 0 0 0-2-15q-2-8.8-6.9-7.7-3.8 1-5.2 8.6a67.3 67.3 0 0 0-.8 16.2 94.7 94.7 0 0 0 2 15q2 8.9 6.8 7.8zm50.8-.4q-4 .3-5-.2c-.6-.3-1.2-1.6-1.8-4l-8.8-32-2.6 32.9c-.2 2.2-.5 3.6-1.1 4s-2.2 1-4.8 1.2l-1.7.1 4.7-59.9 1.4-.1c2.7-.2 4.3-.1 5 .2s1.2 1.6 1.8 3.9l8.7 33 3-38.6 1.4-.1a25.9 25.9 0 0 1 3.5-.1 1.8 1.8 0 0 1 2 1.8v.6L287 59.3zm18.4.3l-2-.1 10.6-52 .2-.3L304 7l1.3-6.6 25 1.1-1.5 6.6-8.8-.4v.9l-9.5 46.8q-.6 3.2-1.6 3.9c-.7.4-2.4.6-5 .5zM347.3 45a6.3 6.3 0 0 0-.6-3.3 18 18 0 0 0-1.6-3.2l-2.8-4v.1l-3.7-5.4a23.7 23.7 0 0 1-2.3-5.2 14 14 0 0 1-.5-6.7 27.2 27.2 0 0 1 1.6-5.9 13 13 0 0 1 3-4.4q4-3.9 14.1-2.3l9 3.4a9 9 0 0 1-2.4 4 3.6 3.6 0 0 1-2.9.6l-5.3-1.4c-3.2-.4-5.5 0-6.8 1.1a9 9 0 0 0-2.7 5.6q-.6 3.6 4 9.6l3.9 5.2a23 23 0 0 1 3 5.7 11.7 11.7 0 0 1 .7 6q-3.4 21.4-21.1 18.7L322 59.5l2-6.5 12.2 2.9q9.2 1 11-10.9z" transform="translate(-.1 .2)"/><path class="cls-2" d="M253.7 677c-1.9-.2-3-.8-3.4-1.9s-.4-2.9 0-5.6q1.3-12.2 8-11.8l9 .6a2.4 2.4 0 0 1 2.4 3 28.5 28.5 0 0 1-1.3 6.7 7.5 7.5 0 0 1-2 3.2 5.3 5.3 0 0 1-4 1c-1.7-.3-2.6-.7-2.8-1.3l-2 .8a6.7 6.7 0 0 1-2.1-.4c-.4-.2-.5-.6-.5-1.2l1.2-4.8a3.2 3.2 0 0 1 2.2-2.3 8.5 8.5 0 0 1 3.7-.3l2.2.2-1.8 6.4c1.2.1 2 0 2.2-.6l1.1-3.7 1-3.5c0-.1 0-.3-.2-.3l-8.8-.5q-3.3-.2-4.6 10.7-.3 2.7 1.3 2.9l6.1.7a4.7 4.7 0 0 1 1.7.4c.2.1.3.5.3 1l-.4 1.6zm6.5-8.8l-.2-.3.8-2.6H259l-1 3.5zm31-13.9L286 679h-.6c-1.4-.1-2.2-.3-2.3-.5a1 1 0 0 1-.1-.5l3.6-17-4 5.5-1.3 1.8h-1.8l-1.2-2-1.5-6-3.4 16a2.9 2.9 0 0 1-.7 1.6 4.5 4.5 0 0 1-2.2.2h-.7l5.5-25.7h.6a4.6 4.6 0 0 1 2.1.4 3.3 3.3 0 0 1 .8 1.7l2.2 9 7.4-10.4h.5a9.1 9.1 0 0 1 2 .2.6.6 0 0 1 .3.9zm12.4 24.9a5.2 5.2 0 0 1-2.3-.3c-.2-.2-.4-.8-.4-1.8l-.4-6.4H296l-3.2 8.4h-.6c-1.3 0-2 0-2.2-.3a1.4 1.4 0 0 1-.1-.6 43.1 43.1 0 0 1 1.8-5l7.7-20h3l1.7 25.9zm-3.3-11.5l-.3-.5v-7.7l-2.6 7.7-.5.5zm11.2-14.7c1.3-.1 2 0 2.3.2a.6.6 0 0 1 0 .3l-2.4 21.9-.2.5 4-.2a7.2 7.2 0 0 1 1.8 0c.3.2.5.5.5 1v2l-9.8.4 3-26.1zm15.9 25.1c-2 .2-3.3-.2-4.2-1.2a7 7 0 0 1-1.5-4.2 68 68 0 0 1-.2-5.2 41.7 41.7 0 0 1 .3-5.4 25.5 25.5 0 0 1 1.2-5.2 10 10 0 0 1 2.5-3.8 6 6 0 0 1 3.8-1.8l4 .5a3.6 3.6 0 0 1-.7 2 1.9 1.9 0 0 1-1.3.6H329c-1 0-1.8.8-2.4 2.1a16.1 16.1 0 0 0-1.4 5 49.5 49.5 0 0 0-.4 10q.2 3.5 2.6 3.4a19.4 19.4 0 0 0 2.2-.4 16.3 16.3 0 0 1 1.9-.3l-.3 3-1.7.5a11.4 11.4 0 0 1-2.2.4zm18.9-2.3a8.7 8.7 0 0 1-1.9.1c-.3 0-.5-.3-.6-.7l.3-11.4v-.3l-5.3.6v.5l-.3 10a3 3 0 0 1-.5 2 4.4 4.4 0 0 1-2 .5h-.8l1-26.2h.5a9.1 9.1 0 0 1 1.4-.1 1 1 0 0 1 1 1l-.1 9.2v.2l5.2-.7v-.4l.3-10.2h.6c1.3-.2 2-.1 2.2.2a1.9 1.9 0 0 1 .2.7l-.7 25zm17.7-2.9a5.3 5.3 0 0 1-2.2 0c-.3 0-.5-.6-.8-1.6l-1.4-6.2-4.4.7-1.7 8.9h-.5c-1.3.3-2 .3-2.3 0a1.6 1.6 0 0 1-.2-.5 43.9 43.9 0 0 1 1-5.2l4.1-21 3-.5 6.2 25.2zm-5-10.7l-.5-.5-1.3-7.6-1.3 8-.3.6zm12 9.2l-.9.2-1.3-23.1v-.2l-3.7.8-.1-3 10.6-2.2.1 2.9-3.7.8v.4l1.2 20.8a2.8 2.8 0 0 1-.2 1.8 4.4 4.4 0 0 1-2 .8zm21-5.1a5 5 0 0 1-2.3.3c-.2-.1-.5-.7-.8-1.6l-2-6.1-4.3 1-1 9-.5.2c-1.3.4-2 .4-2.3.2a1.4 1.4 0 0 1-.2-.5 42.5 42.5 0 0 1 .4-5.3l2.5-21.3 3-.7 8.2 24.6zm-6-10.2l-.4-.5-2-7.5-.6 8.2-.3.6zm38.2-11.3l-16.7 6-.6-2.7 16.7-6zm14.5-23.6c.6-.3 1-.5 1.3-.5a1 1 0 0 1 1.3.6l5.5 19a27 27 0 0 1 1.6 9 6.6 6.6 0 0 1-2 4.2 10 10 0 0 1-2.4 1.5l-.8-2.7q2.4-1.1 1.9-5.2a54.8 54.8 0 0 0-1.3-5.4q-2-7.8-5.7-20.2zm9.5-1.5l.2.3 2.2 6.8v.2l5.7-2.9.9 2.9-5.7 2.9.2.4 2.7 8.4a.3.3 0 0 1 0 .3l6.4-3.2 1 2.9-9.5 4.7-8-25 9-4.6 1 2.8zm27.8 11.1a7.3 7.3 0 0 1-2.3 1c-.3 0-.8-.3-1.6-1l-7.4-7.2-.8.5.2.3 3.3 8.9a3 3 0 0 1 .3 1.8 4.5 4.5 0 0 1-1.7 1.3l-.7.4-9.1-24.6 3.6-2.5c1.9-1 3.3-1.5 4.4-1.3a3.8 3.8 0 0 1 2.5 2.1q4.3 7.7.8 11.4l9.2 8.5zm-12.1-10.2q3.5-2 .1-8a1.4 1.4 0 0 0-1-.8 3.9 3.9 0 0 0-2 .6l-1.4.8.6.8 2.5 6.5v.7zm9.8-15.3l.2.3 2.7 6.5v.2l5.4-3.4 1.2 2.8-5.4 3.4.2.4 3.4 8.2c0 .1.1.2 0 .2l6.2-3.8 1.2 2.8-9 5.6-10.1-24.2 8.6-5.4 1.1 2.7zm20.8-16.5l11 22.8-.5.4c-1.2.8-1.9 1.2-2.2 1a1 1 0 0 1-.3-.3l-7.7-15.6.4 6.8v2.2l-1.5 1-2.1-.8-4.9-3.8 7.2 14.7a3 3 0 0 1 .4 1.8q-.1.5-1.6 1.4l-.6.5-11.3-23.7.5-.3a4.6 4.6 0 0 1 2-1 3.3 3.3 0 0 1 1.6.9l7.3 5.7-.6-12.8.4-.3a9 9 0 0 1 1.6-1 .7.7 0 0 1 .9.4zm20.3 15.7l-1 .8a5.1 5.1 0 0 1-.7.5.8.8 0 0 1-.5.1 1.1 1.1 0 0 1-.9-.5l-5.5-10-10.3-9 1-.7a3.7 3.7 0 0 1 1.6-1c.4 0 .9.4 1.6 1l5.3 5-1.9-10.1.6-.4a10.9 10.9 0 0 1 1.3-1h.5l2.9 14.4z" transform="translate(-.1 .2)"/><path class="cls-2" d="M526.3 591l-6.3-7.4 3.7 9.8a10.5 10.5 0 0 1 .9 2.8c0 .4-.3.8-1 1.3a2.2 2.2 0 0 1-2.6.1 4.7 4.7 0 0 1-1.3-1L505 579.3l.7-.6c.8-.7 1.3-1 1.6-1s.6.4 1.3 1l11.6 13.5-3.9-10.6-.7-2.3 2-1.7 2.2 1.2 6.6 7.7-7.6-19 1-.8a6.3 6.3 0 0 1 .6-.5 1.5 1.5 0 0 1 .6-.3h.3l.3.4 8.6 21.5a10.3 10.3 0 0 1 .9 2.8c0 .3-.4.8-1 1.4a2.2 2.2 0 0 1-2.7 0 4.3 4.3 0 0 1-1.1-1zm18.7-12.7a5.2 5.2 0 0 1-1.8 1.3c-.3 0-.8-.3-1.5-1l-4.7-4.4-3.2 3 3.5 8.4-.4.4c-1 .9-1.6 1.3-2 1.2a1.5 1.5 0 0 1-.4-.3 42 42 0 0 1-2.1-4.9l-8-19.8 2.1-2 19 17.6zm-10.1-6.1l-.6-.2-5.3-5.6 3.4 7.4v.7zm5.7-22.3l-2.3 2c-.6.6-.7 1.7-.3 3.2a17 17 0 0 0 2.4 4.7 50.4 50.4 0 0 0 6.3 7.8q2.6 2.5 4.2.8l1.4-1.8-.3-.4-4.7-6.2a5.5 5.5 0 0 1-1.1-1.9c0-.3.3-.8 1-1.5l.8-.9 8.1 10.7-3.3 4.4q-2 2-4 1.8a6.8 6.8 0 0 1-3.7-2q-2-2-3.5-3.8a47 47 0 0 1-3.3-4.3 28.2 28.2 0 0 1-2.7-4.6 10.8 10.8 0 0 1-.9-4.5 5.4 5.4 0 0 1 1.5-3.8l4.1-3a3.7 3.7 0 0 1 .9 1.9 1.8 1.8 0 0 1-.6 1.4zm26.4 4.9a5.5 5.5 0 0 1-1.6 1.5c-.3 0-1-.2-1.8-.7l-12.5-7.4 9.2 11.1c.6.8.9 1.3.9 1.7a4.3 4.3 0 0 1-1.2 1.8l-.5.5-16.7-20.2.4-.4a5.3 5.3 0 0 1 1.6-1.5c.3 0 .9.1 1.7.7l12.8 7.7-10.8-13 .4-.5a12.6 12.6 0 0 1 1.1-1.1.8.8 0 0 1 1.2 0l.2.2 16 19.2zm-9.9-24.2l.3.2 4.8 5.3v.1l4-5 2 2.3-4 5 .4.3 6 6.6.1.1 4.5-5.6 2 2.3-6.5 8.2-17.6-19.4 6.4-8 2 2.3zm29.9-1.4a6.8 6.8 0 0 1-1.6 1.8 3.2 3.2 0 0 1-2-.3l-9.6-3.4-.6.8.3.2 6.7 6.7c.7.7 1 1.2 1 1.5a4.5 4.5 0 0 1-1 2l-.5.6-18.5-18.7 2.3-3.7q1.9-2.6 3.4-3a3.9 3.9 0 0 1 3.2.9q7 5.2 5.5 10l11.9 3.9zm-15.3-4.3q2.4-3.2-3.1-7.3a1.4 1.4 0 0 0-1.4-.3 3.8 3.8 0 0 0-1.4 1.4l-1 1.3.9.5 5 4.9.2.7zm17.8-3.4a2.4 2.4 0 0 1 .5 3.2 1.8 1.8 0 0 1-1.2.8 2 2 0 0 1-1.4-.3 2.2 2.2 0 0 1-.9-1.5 2 2 0 0 1 .3-1.7 1.8 1.8 0 0 1 2.7-.5zm-6.7-31.9l19.2 16.6-.3.5c-.8 1.2-1.3 1.8-1.6 1.8a1 1 0 0 1-.4-.2L586.5 497l3 6.2.9 2-1 1.5H587l-6-1.5 12.3 10.7c.8.6 1.2 1 1.2 1.4a4.5 4.5 0 0 1-.9 2l-.4.7-19.8-17.3.3-.5a4.8 4.8 0 0 1 1.4-1.6 3.4 3.4 0 0 1 1.9.1l9 2.4-5.6-11.5.2-.4a9.4 9.4 0 0 1 1.2-1.6.7.7 0 0 1 .9 0zm5.2-5.5l.3.2 5.6 4.3v.2l3.2-5.6 2.3 2-3 5.5.3.2 7 5.5.2.1 3.5-6.3 2.4 2-5 9.1-20.8-16.2 5-8.9 2.3 1.9z" transform="translate(-.1 .2)"/><path class="cls-4" d="M252.3 675.2c-2-.2-3-.9-3.4-1.9s-.4-2.9-.1-5.6q1.4-12.2 8-11.8l9.1.6a2.4 2.4 0 0 1 2.4 3 28.5 28.5 0 0 1-1.4 6.7 7.5 7.5 0 0 1-2 3.2 5.3 5.3 0 0 1-4 .9c-1.6-.2-2.6-.6-2.8-1.2l-2 .8a6.7 6.7 0 0 1-2-.5c-.4-.2-.6-.6-.5-1.2l1.2-4.8a3.2 3.2 0 0 1 2.1-2.2 8.5 8.5 0 0 1 3.8-.4l2.2.3-1.8 6.3c1.2.2 2 0 2.2-.5l1-3.7 1-3.6c0-.2 0-.2-.2-.2l-8.7-.5q-3.4-.2-4.6 10.7-.3 2.7 1.2 2.8l6.2.8a4.7 4.7 0 0 1 1.7.4c.2.1.3.5.2 1l-.3 1.6zm6.4-8.9l-.1-.2.7-2.6c-1-.2-1.5-.1-1.6 0l-1 3.5zm31.1-13.8l-5.3 24.8h-.6c-1.4-.1-2.2-.3-2.3-.5a1 1 0 0 1 0-.5l3.5-17-3.9 5.5-1.4 1.8H278l-1.2-2-1.5-6-3.4 16a2.9 2.9 0 0 1-.7 1.6 4.5 4.5 0 0 1-2.1.2h-.8l5.5-25.6h.6a4.6 4.6 0 0 1 2.1.4 3.3 3.3 0 0 1 .8 1.7l2.3 9 7.4-10.5h.5a9.1 9.1 0 0 1 1.9.3.6.6 0 0 1 .4.8zm12.3 24.9a5.2 5.2 0 0 1-2.3-.3c-.2-.2-.3-.8-.4-1.8l-.4-6.4h-4.4l-3.2 8.4h-.5c-1.4 0-2.1 0-2.3-.3a1.4 1.4 0 0 1 0-.6 43.1 43.1 0 0 1 1.7-5l7.7-20h3l1.8 25.9zM299 666l-.3-.5v-7.8l-2.7 7.8-.4.5zm11-14.9c1.4 0 2.1 0 2.3.3a.6.6 0 0 1 .1.3l-2.5 21.8-.2.6 4-.2a7.2 7.2 0 0 1 1.9 0c.2.2.4.5.4 1v2l-9.8.4 3-26.1zm16 25.2c-2 .2-3.4-.2-4.2-1.2a7 7 0 0 1-1.6-4.2 68 68 0 0 1-.2-5.1 41.7 41.7 0 0 1 .4-5.5 25.5 25.5 0 0 1 1.2-5.2 10 10 0 0 1 2.4-3.8 6 6 0 0 1 3.9-1.8l3.9.5a3.6 3.6 0 0 1-.6 2 1.9 1.9 0 0 1-1.4.6h-2.1c-1 0-1.8.8-2.5 2.1a16.1 16.1 0 0 0-1.4 5 49.5 49.5 0 0 0-.4 10q.3 3.5 2.6 3.4a19.4 19.4 0 0 0 2.3-.4 16.3 16.3 0 0 1 1.8-.3l-.2 3-1.8.5a11.4 11.4 0 0 1-2.2.4zm18.9-2.3a8.7 8.7 0 0 1-2 .1c-.3 0-.5-.3-.5-.7l.3-11.4v-.3l-5.3.7v.4l-.4 10.1a3 3 0 0 1-.4 1.8 4.4 4.4 0 0 1-2 .6h-.8l.9-26.1.6-.1a9.1 9.1 0 0 1 1.3-.1 1 1 0 0 1 1.1 1l-.2 9.1v.2l5.3-.6v-.5l.3-10.1h.5c1.3-.2 2.1-.2 2.3.2a1.9 1.9 0 0 1 .2.6l-.7 25zm17.7-3a5.3 5.3 0 0 1-2.3.2c-.2-.2-.5-.7-.7-1.7l-1.5-6.2-4.3.7-1.7 8.9h-.5c-1.4.3-2.1.3-2.3 0a1.6 1.6 0 0 1-.2-.5 43.9 43.9 0 0 1 .9-5.2l4.2-21 3-.5 6.2 25.2zm-5.1-10.6l-.4-.5-1.3-7.6-1.3 8-.4.6zm12.1 9.2l-1 .2-1.2-23.1v-.2l-3.7.8-.2-3 10.7-2.2v2.9l-3.7.8.1.4L372 667a2.8 2.8 0 0 1-.3 1.8 4.4 4.4 0 0 1-2 .8zm20.9-5.1a5 5 0 0 1-2.2.3c-.3-.1-.6-.7-.9-1.6l-2-6.1-4.2 1-1 9-.6.2c-1.3.4-2 .4-2.2.2a1.4 1.4 0 0 1-.3-.5 42.5 42.5 0 0 1 .5-5.3l2.5-21.3 2.9-.7 8.2 24.6zm-6-10.2l-.4-.5-2-7.5-.6 8.2-.2.6zm38.2-11.3l-16.7 6-.6-2.7 16.7-6zm14.5-23.6c.7-.3 1.1-.5 1.4-.5a1 1 0 0 1 1.3.6l5.4 19c1.3 4.4 1.9 7.4 1.7 9a6.6 6.6 0 0 1-2 4.2 10 10 0 0 1-2.5 1.5l-.7-2.7q2.4-1.1 1.8-5.2a54.8 54.8 0 0 0-1.2-5.4l-5.7-20.2zm9.6-1.5l.2.3 2.1 6.8v.2l5.7-2.9 1 2.9-5.8 2.9.2.4 2.7 8.4a.3.3 0 0 1 0 .3l6.4-3.3 1 3-9.3 4.7-8-25 9-4.6 1 2.8zm27.7 11.1a7.3 7.3 0 0 1-2.2 1c-.4 0-.9-.4-1.7-1.1l-7.3-7.1-.9.4.2.4 3.4 8.8a3 3 0 0 1 .3 1.9 4.5 4.5 0 0 1-1.8 1.3l-.7.4-9-24.7 3.6-2.4c1.8-1 3.3-1.5 4.3-1.3a3.8 3.8 0 0 1 2.5 2.1q4.3 7.7.8 11.4l9.2 8.5zm-12-10.2q3.4-2 0-8a1.4 1.4 0 0 0-1-.8 3.9 3.9 0 0 0-2 .7l-1.3.8.6.8 2.5 6.5-.1.7zm9.7-15.3l.2.3 2.8 6.5v.2l5.4-3.4 1.2 2.8-5.5 3.4.3.4 3.4 8.2v.2l6.2-3.8 1.1 2.9-8.9 5.5-10.1-24.2 8.6-5.4 1.1 2.7zM493 587l11 22.8-.4.3c-1.2.9-2 1.2-2.2 1.1a1 1 0 0 1-.3-.3l-7.7-15.7.4 6.8v2.3l-1.5 1-2.1-.9-4.9-3.8 7.1 14.7a3 3 0 0 1 .5 1.8q-.2.5-1.6 1.5l-.6.4-11.4-23.6.5-.4a4.6 4.6 0 0 1 2-1 3.3 3.3 0 0 1 1.6 1l7.3 5.7-.6-12.8.4-.3a9 9 0 0 1 1.7-1 .7.7 0 0 1 .8.4zm20.4 15.8l-1 .7a5.1 5.1 0 0 1-.8.5.8.8 0 0 1-.5.1 1.1 1.1 0 0 1-.8-.5q-.4-.5-5.6-10l-10.2-9 .9-.7a3.7 3.7 0 0 1 1.7-1c.3 0 .8.4 1.5 1l5.3 5-1.8-10.1.5-.4a10.9 10.9 0 0 1 1.3-1h.6q.2.2 2.9 14.5z" transform="translate(-.1 .2)"/><path class="cls-4" d="M524.8 589.2l-6.2-7.4 3.7 9.8a10.5 10.5 0 0 1 .9 2.8c0 .4-.4.8-1 1.3a2.2 2.2 0 0 1-2.7.1 4.7 4.7 0 0 1-1.2-1l-14.7-17.3.7-.6c.8-.7 1.3-1 1.6-1s.6.4 1.3 1l11.6 13.5-4-10.5-.6-2.3 2-1.7 2.2 1.1 6.6 7.8-7.7-19 1-1a6.3 6.3 0 0 1 .6-.4 1.5 1.5 0 0 1 .6-.3h.4l.2.4 8.6 21.5a10.3 10.3 0 0 1 .9 2.8c0 .4-.4.8-1 1.4a2.2 2.2 0 0 1-2.6 0 4.3 4.3 0 0 1-1.2-1zm18.8-12.7a5.2 5.2 0 0 1-1.8 1.3c-.3 0-.8-.3-1.6-1l-4.6-4.3-3.2 3 3.5 8.3-.4.4c-1 1-1.6 1.3-2 1.3a1.5 1.5 0 0 1-.4-.4 42 42 0 0 1-2.1-4.8l-8-19.9 2.1-2 19 17.6zm-10.1-6.1l-.6-.2-5.3-5.6 3.3 7.4v.7zm5.7-22.4l-2.3 2c-.7.7-.8 1.8-.3 3.3a17 17 0 0 0 2.3 4.7 50.4 50.4 0 0 0 6.4 7.8q2.5 2.5 4.1.8l1.5-1.8-.4-.4-4.6-6.2a5.5 5.5 0 0 1-1.2-1.9c0-.3.4-.8 1-1.5l.8-.9 8.1 10.7-3.2 4.4q-2 2-4 1.8a6.8 6.8 0 0 1-3.8-2l-3.5-3.7a47 47 0 0 1-3.3-4.3 28.2 28.2 0 0 1-2.6-4.7 10.8 10.8 0 0 1-1-4.5 5.4 5.4 0 0 1 1.6-3.7q.2-.3 4-3a3.7 3.7 0 0 1 1 1.8 1.8 1.8 0 0 1-.6 1.3zm26.4 5a5.5 5.5 0 0 1-1.6 1.5c-.3 0-1-.2-1.8-.7l-12.5-7.4 9.2 11.1c.6.8.9 1.3.9 1.7a4.3 4.3 0 0 1-1.2 1.7l-.5.6-16.7-20.2.4-.4a5.3 5.3 0 0 1 1.6-1.5c.3 0 .9.1 1.7.7l12.8 7.7-10.8-13 .4-.5a12.6 12.6 0 0 1 1-1 .8.8 0 0 1 1.3 0h.2l16 19.3zm-9.9-24.2l.3.2 4.7 5.2.1.2 4-5 2 2.3-4 5 .4.3 6 6.6.1.1 4.5-5.5 2 2.2-6.5 8.2-17.6-19.4 6.3-8 2 2.2zm29.8-1.4a6.8 6.8 0 0 1-1.6 1.8 3.2 3.2 0 0 1-2-.3l-9.6-3.4-.6.8.4.2 6.7 6.7c.6.7 1 1.2 1 1.5a4.5 4.5 0 0 1-1 2l-.5.6-18.5-18.7 2.2-3.7q2-2.6 3.4-3a3.9 3.9 0 0 1 3.2.9q7.1 5.2 5.5 10l11.9 3.9zm-15.2-4.3q2.4-3.2-3.2-7.3a1.4 1.4 0 0 0-1.3-.3 3.8 3.8 0 0 0-1.5 1.4l-1 1.3 1 .5 5 4.9.1.7zm17.7-3.4a2.4 2.4 0 0 1 .6 3.2 1.8 1.8 0 0 1-1.2.8 2 2 0 0 1-1.5-.3 2.2 2.2 0 0 1-.8-1.4 2 2 0 0 1 .3-1.8 1.8 1.8 0 0 1 2.6-.5zm-6.7-31.9l19.2 16.6-.3.4c-.7 1.3-1.3 1.9-1.5 1.9a1 1 0 0 1-.5-.2L585 495.1l3 6.2.9 2-1 1.5h-2.3l-6-1.5L592 514c.7.7 1.1 1.2 1.1 1.5a4.5 4.5 0 0 1-.8 2l-.4.6L572 501l.3-.5a4.8 4.8 0 0 1 1.4-1.6 3.4 3.4 0 0 1 1.9.1l9 2.4-5.7-11.5.3-.4a9.4 9.4 0 0 1 1.1-1.6.7.7 0 0 1 1 0zm5.2-5.5l.3.2 5.6 4.3.1.2 3.1-5.6 2.4 2-3 5.5.3.2 7 5.5.2.1 3.5-6.3 2.4 2-5.1 9.1-20.7-16.2 5-8.9 2.2 1.9z" transform="translate(-.1 .2)"/></g></g></svg>